%TF.GenerationSoftware,KiCad,Pcbnew,9.0.0*%
%TF.CreationDate,2025-03-07T10:31:51-08:00*%
%TF.ProjectId,Vanguard_new,56616e67-7561-4726-945f-6e65772e6b69,rev?*%
%TF.SameCoordinates,Original*%
%TF.FileFunction,Profile,NP*%
%FSLAX46Y46*%
G04 Gerber Fmt 4.6, Leading zero omitted, Abs format (unit mm)*
G04 Created by KiCad (PCBNEW 9.0.0) date 2025-03-07 10:31:51*
%MOMM*%
%LPD*%
G01*
G04 APERTURE LIST*
%TA.AperFunction,Profile*%
%ADD10C,0.050000*%
%TD*%
%TA.AperFunction,Profile*%
%ADD11C,0.000000*%
%TD*%
G04 APERTURE END LIST*
D10*
X134652785Y-83970551D02*
X92382785Y-83970551D01*
X134652785Y-83970551D02*
X138820000Y-83970551D01*
X138820000Y-83970551D02*
X138820000Y-135840551D01*
X92382785Y-135840551D02*
X134652785Y-135840551D01*
X92382785Y-83970551D02*
X92382785Y-135840551D01*
X134652785Y-135840551D02*
X138820000Y-135840551D01*
D11*
%TA.AperFunction,Profile*%
%TO.C,J1*%
G36*
X129692657Y-98034600D02*
G01*
X129790406Y-98091036D01*
X129862958Y-98177500D01*
X129901563Y-98283564D01*
X129901563Y-98396436D01*
X129862958Y-98502500D01*
X129790406Y-98588964D01*
X129692657Y-98645400D01*
X129581500Y-98665000D01*
X129470343Y-98645400D01*
X129372594Y-98588964D01*
X129300042Y-98502500D01*
X129261437Y-98396436D01*
X129261437Y-98283564D01*
X129300042Y-98177500D01*
X129372594Y-98091036D01*
X129470343Y-98034600D01*
X129581500Y-98015000D01*
X129692657Y-98034600D01*
G37*
%TD.AperFunction*%
%TA.AperFunction,Profile*%
G36*
X129715323Y-90534241D02*
G01*
X129838304Y-90590405D01*
X129940481Y-90678941D01*
X130013575Y-90792678D01*
X130051665Y-90922400D01*
X130051665Y-91057600D01*
X130013575Y-91187322D01*
X129940481Y-91301059D01*
X129838304Y-91389595D01*
X129715323Y-91445759D01*
X129581500Y-91465000D01*
X129447677Y-91445759D01*
X129324696Y-91389595D01*
X129222519Y-91301059D01*
X129149425Y-91187322D01*
X129111335Y-91057600D01*
X129111335Y-90922400D01*
X129149425Y-90792678D01*
X129222519Y-90678941D01*
X129324696Y-90590405D01*
X129447677Y-90534241D01*
X129581500Y-90515000D01*
X129715323Y-90534241D01*
G37*
%TD.AperFunction*%
%TD*%
M02*
