%TF.GenerationSoftware,KiCad,Pcbnew,9.0.0*%
%TF.CreationDate,2025-03-07T10:31:51-08:00*%
%TF.ProjectId,Vanguard_new,56616e67-7561-4726-945f-6e65772e6b69,rev?*%
%TF.SameCoordinates,Original*%
%TF.FileFunction,Soldermask,Bot*%
%TF.FilePolarity,Negative*%
%FSLAX46Y46*%
G04 Gerber Fmt 4.6, Leading zero omitted, Abs format (unit mm)*
G04 Created by KiCad (PCBNEW 9.0.0) date 2025-03-07 10:31:51*
%MOMM*%
%LPD*%
G01*
G04 APERTURE LIST*
G04 Aperture macros list*
%AMRoundRect*
0 Rectangle with rounded corners*
0 $1 Rounding radius*
0 $2 $3 $4 $5 $6 $7 $8 $9 X,Y pos of 4 corners*
0 Add a 4 corners polygon primitive as box body*
4,1,4,$2,$3,$4,$5,$6,$7,$8,$9,$2,$3,0*
0 Add four circle primitives for the rounded corners*
1,1,$1+$1,$2,$3*
1,1,$1+$1,$4,$5*
1,1,$1+$1,$6,$7*
1,1,$1+$1,$8,$9*
0 Add four rect primitives between the rounded corners*
20,1,$1+$1,$2,$3,$4,$5,0*
20,1,$1+$1,$4,$5,$6,$7,0*
20,1,$1+$1,$6,$7,$8,$9,0*
20,1,$1+$1,$8,$9,$2,$3,0*%
G04 Aperture macros list end*
%ADD10R,1.700000X1.700000*%
%ADD11O,1.700000X1.700000*%
%ADD12O,1.400000X0.800000*%
%ADD13C,0.600000*%
%ADD14C,2.100000*%
%ADD15C,1.000000*%
%ADD16R,1.600000X1.600000*%
%ADD17C,1.600000*%
%ADD18RoundRect,0.250000X0.625000X-0.350000X0.625000X0.350000X-0.625000X0.350000X-0.625000X-0.350000X0*%
%ADD19O,1.750000X1.200000*%
G04 APERTURE END LIST*
D10*
%TO.C,J5*%
X105000000Y-86420000D03*
D11*
X105000000Y-88960000D03*
X105000000Y-91500000D03*
%TD*%
D10*
%TO.C,J4*%
X101350000Y-86420000D03*
D11*
X101350000Y-88960000D03*
X101350000Y-91500000D03*
%TD*%
D12*
%TO.C,J1*%
X130831500Y-90610000D03*
X130831500Y-98870000D03*
X135221500Y-99230000D03*
X135221500Y-90250000D03*
D13*
X130231500Y-91940000D03*
X130931500Y-92340000D03*
X130931500Y-93140000D03*
X130231500Y-93540000D03*
X130931500Y-93940000D03*
X130231500Y-94340000D03*
X130231500Y-95140000D03*
X130931500Y-95540000D03*
X130231500Y-95940000D03*
X130931500Y-96340000D03*
X130931500Y-97140000D03*
X130231500Y-97540000D03*
%TD*%
D14*
%TO.C,REF\u002A\u002A*%
X95500000Y-87000000D03*
%TD*%
D15*
%TO.C,Y1*%
X110330000Y-113300000D03*
X108430000Y-113300000D03*
%TD*%
D16*
%TO.C,BZ1*%
X119500000Y-132500000D03*
D17*
X119500000Y-129300000D03*
%TD*%
D10*
%TO.C,J7*%
X108650000Y-86425000D03*
D11*
X108650000Y-88965000D03*
X108650000Y-91505000D03*
%TD*%
D14*
%TO.C,REF\u002A\u002A*%
X131500000Y-87000000D03*
%TD*%
D18*
%TO.C,J6*%
X94950000Y-94000000D03*
D19*
X94950000Y-91999999D03*
%TD*%
D14*
%TO.C,REF\u002A\u002A*%
X131450000Y-132790000D03*
%TD*%
D10*
%TO.C,J2*%
X126920000Y-106040000D03*
D11*
X126920000Y-103500000D03*
X129460000Y-106040000D03*
X129460000Y-103500000D03*
X131999999Y-106040000D03*
X132000000Y-103500000D03*
%TD*%
M02*
