M48
; DRILL file {KiCad 9.0.0} date 2025-03-07T10:31:48-0800
; FORMAT={-:-/ absolute / metric / decimal}
; #@! TF.CreationDate,2025-03-07T10:31:48-08:00
; #@! TF.GenerationSoftware,Kicad,Pcbnew,9.0.0
; #@! TF.FileFunction,Plated,1,4,PTH
FMAT,2
METRIC
; #@! TA.AperFunction,Plated,PTH,ComponentDrill
T1C0.200
; #@! TA.AperFunction,Plated,PTH,ViaDrill
T2C0.300
; #@! TA.AperFunction,Plated,PTH,ComponentDrill
T3C0.400
; #@! TA.AperFunction,Plated,PTH,ComponentDrill
T4C0.500
; #@! TA.AperFunction,Plated,PTH,ComponentDrill
T5C0.750
; #@! TA.AperFunction,Plated,PTH,ComponentDrill
T6C1.000
%
G90
G05
T1
X99.325Y-97.475
X99.325Y-99.355
X99.325Y-98.415
X100.475Y-98.415
X100.475Y-97.475
X100.475Y-99.355
X111.042Y-122.97
X111.042Y-124.97
X113.042Y-122.97
X113.042Y-124.97
T2
X93.67Y-101.84
X93.94Y-120.53
X95.18Y-128.27
X95.2Y-102.89
X95.982Y-124.832
X96.5Y-96.0
X96.6Y-109.47
X97.78Y-99.47
X98.25Y-96.665
X98.405Y-115.219
X99.0Y-94.0
X100.8Y-103.9
X101.49Y-96.665
X101.63Y-120.49
X102.65Y-115.46
X102.823Y-93.98
X103.393Y-100.357
X103.76Y-118.01
X104.36Y-114.746
X104.45Y-132.69
X105.06Y-114.146
X106.348Y-125.449
X106.444Y-123.772
X106.88Y-126.68
X107.172Y-100.728
X107.31Y-111.23
X107.34Y-122.971
X108.589Y-94.061
X108.605Y-111.49
X109.0Y-115.5
X110.0Y-116.0
X110.18Y-117.1
X110.247Y-118.5
X110.358Y-114.8
X110.828Y-120.0
X110.92Y-120.9
X111.41Y-92.67
X111.49Y-112.09
X111.5Y-127.0
X111.5Y-130.5
X111.545Y-113.415
X111.69Y-96.046
X112.277Y-116.765
X112.325Y-117.625
X112.444Y-121.51
X112.5Y-103.5
X112.557Y-106.363
X112.93Y-100.16
X113.25Y-117.5
X113.326Y-116.674
X113.334Y-110.545
X113.5Y-120.0
X113.864Y-103.1
X114.23Y-116.48
X114.29Y-101.459
X114.29Y-114.13
X114.5Y-111.213
X114.52Y-109.11
X114.766Y-112.864
X115.07Y-105.981
X115.15Y-122.39
X115.24Y-111.64
X115.328Y-115.975
X115.338Y-108.686
X115.485Y-87.015
X115.568Y-96.685
X115.574Y-107.226
X115.61Y-114.2
X115.706Y-102.874
X115.77Y-126.09
X115.87Y-118.885
X115.947Y-97.541
X116.37Y-107.46
X116.377Y-115.237
X116.497Y-105.103
X116.6Y-123.5
X117.231Y-97.128
X117.371Y-105.129
X117.601Y-115.898
X117.77Y-112.83
X117.862Y-111.138
X118.0Y-104.5
X118.3Y-94.352
X118.539Y-109.411
X118.553Y-96.211
X118.66Y-88.39
X118.813Y-112.09
X119.207Y-94.859
X119.401Y-108.54
X119.5Y-122.5
X119.55Y-86.4
X119.63Y-109.55
X119.765Y-113.795
X120.0Y-104.0
X120.0Y-119.5
X120.08Y-120.3
X120.08Y-121.5
X120.439Y-106.061
X120.49Y-125.91
X120.5Y-105.0
X120.7Y-123.71
X120.74Y-92.13
X120.88Y-120.299
X120.964Y-110.036
X121.0Y-94.205
X121.0Y-96.0
X121.037Y-111.949
X121.688Y-92.867
X122.0Y-109.0
X122.209Y-113.006
X122.5Y-95.5
X123.255Y-109.758
X123.509Y-116.41
X123.509Y-120.297
X123.7Y-123.738
X124.109Y-117.95
X124.351Y-133.98
X124.502Y-106.494
X124.67Y-114.87
X124.724Y-107.759
X125.49Y-114.364
X125.7Y-111.9
X126.303Y-118.207
X126.368Y-109.399
X126.662Y-125.887
X126.74Y-112.03
X126.76Y-129.96
X127.0Y-99.5
X127.0Y-125.0
X127.08Y-95.36
X127.636Y-94.215
X127.921Y-108.243
X127.94Y-113.464
X130.83Y-101.08
X131.0Y-124.5
X131.27Y-119.05
X131.4Y-109.07
X131.79Y-111.13
X133.26Y-101.14
T3
X130.231Y-91.94
X130.231Y-93.54
X130.231Y-94.34
X130.231Y-95.14
X130.231Y-95.94
X130.231Y-97.54
X130.931Y-92.34
X130.931Y-93.14
X130.931Y-93.94
X130.931Y-95.54
X130.931Y-96.34
X130.931Y-97.14
T4
X108.43Y-113.3
X110.33Y-113.3
T5
X94.95Y-92.0
X94.95Y-94.0
T6
X101.35Y-86.42
X101.35Y-88.96
X101.35Y-91.5
X105.0Y-86.42
X105.0Y-88.96
X105.0Y-91.5
X108.65Y-86.425
X108.65Y-88.965
X108.65Y-91.505
X119.5Y-129.3
X119.5Y-132.5
X126.92Y-103.5
X126.92Y-106.04
X129.46Y-103.5
X129.46Y-106.04
X132.0Y-106.04
X132.0Y-103.5
T4
G00X131.082Y-90.61
M15
G01X130.582Y-90.61
M16
G05
G00X131.082Y-98.87
M15
G01X130.582Y-98.87
M16
G05
G00X135.471Y-90.25
M15
G01X134.971Y-90.25
M16
G05
G00X135.471Y-99.23
M15
G01X134.971Y-99.23
M16
G05
M30
