%TF.GenerationSoftware,KiCad,Pcbnew,9.0.0*%
%TF.CreationDate,2025-03-07T10:31:51-08:00*%
%TF.ProjectId,Vanguard_new,56616e67-7561-4726-945f-6e65772e6b69,rev?*%
%TF.SameCoordinates,Original*%
%TF.FileFunction,Paste,Top*%
%TF.FilePolarity,Positive*%
%FSLAX46Y46*%
G04 Gerber Fmt 4.6, Leading zero omitted, Abs format (unit mm)*
G04 Created by KiCad (PCBNEW 9.0.0) date 2025-03-07 10:31:51*
%MOMM*%
%LPD*%
G01*
G04 APERTURE LIST*
G04 Aperture macros list*
%AMRoundRect*
0 Rectangle with rounded corners*
0 $1 Rounding radius*
0 $2 $3 $4 $5 $6 $7 $8 $9 X,Y pos of 4 corners*
0 Add a 4 corners polygon primitive as box body*
4,1,4,$2,$3,$4,$5,$6,$7,$8,$9,$2,$3,0*
0 Add four circle primitives for the rounded corners*
1,1,$1+$1,$2,$3*
1,1,$1+$1,$4,$5*
1,1,$1+$1,$6,$7*
1,1,$1+$1,$8,$9*
0 Add four rect primitives between the rounded corners*
20,1,$1+$1,$2,$3,$4,$5,0*
20,1,$1+$1,$4,$5,$6,$7,0*
20,1,$1+$1,$6,$7,$8,$9,0*
20,1,$1+$1,$8,$9,$2,$3,0*%
%AMFreePoly0*
4,1,13,0.320000,0.125000,0.700000,0.125000,0.700000,-0.125000,0.320000,-0.125000,0.200000,-0.350000,-0.200000,-0.350000,-0.320000,-0.125000,-0.850000,-0.125000,-0.850000,0.125000,-0.320000,0.125000,-0.200000,0.350000,0.200000,0.350000,0.320000,0.125000,0.320000,0.125000,$1*%
G04 Aperture macros list end*
%ADD10C,0.000000*%
%ADD11RoundRect,0.135000X0.035355X-0.226274X0.226274X-0.035355X-0.035355X0.226274X-0.226274X0.035355X0*%
%ADD12RoundRect,0.135000X-0.135000X-0.185000X0.135000X-0.185000X0.135000X0.185000X-0.135000X0.185000X0*%
%ADD13RoundRect,0.135000X-0.185000X0.135000X-0.185000X-0.135000X0.185000X-0.135000X0.185000X0.135000X0*%
%ADD14RoundRect,0.079500X-0.127279X-0.014849X-0.014849X-0.127279X0.127279X0.014849X0.014849X0.127279X0*%
%ADD15RoundRect,0.075000X0.521491X-0.415425X-0.415425X0.521491X-0.521491X0.415425X0.415425X-0.521491X0*%
%ADD16RoundRect,0.075000X0.521491X0.415425X0.415425X0.521491X-0.521491X-0.415425X-0.415425X-0.521491X0*%
%ADD17RoundRect,0.079500X-0.100500X0.079500X-0.100500X-0.079500X0.100500X-0.079500X0.100500X0.079500X0*%
%ADD18RoundRect,0.167500X0.167500X0.312500X-0.167500X0.312500X-0.167500X-0.312500X0.167500X-0.312500X0*%
%ADD19RoundRect,0.062500X0.362500X0.062500X-0.362500X0.062500X-0.362500X-0.062500X0.362500X-0.062500X0*%
%ADD20RoundRect,0.150000X-0.309359X-0.521491X0.521491X0.309359X0.309359X0.521491X-0.521491X-0.309359X0*%
%ADD21RoundRect,0.135000X0.135000X0.185000X-0.135000X0.185000X-0.135000X-0.185000X0.135000X-0.185000X0*%
%ADD22RoundRect,0.135000X-0.226274X-0.035355X-0.035355X-0.226274X0.226274X0.035355X0.035355X0.226274X0*%
%ADD23RoundRect,0.135000X0.226274X0.035355X0.035355X0.226274X-0.226274X-0.035355X-0.035355X-0.226274X0*%
%ADD24RoundRect,0.249999X0.290001X-0.290001X0.290001X0.290001X-0.290001X0.290001X-0.290001X-0.290001X0*%
%ADD25RoundRect,0.062500X0.062500X-0.350000X0.062500X0.350000X-0.062500X0.350000X-0.062500X-0.350000X0*%
%ADD26RoundRect,0.062500X0.350000X-0.062500X0.350000X0.062500X-0.350000X0.062500X-0.350000X-0.062500X0*%
%ADD27R,1.400000X0.300000*%
%ADD28RoundRect,0.079500X-0.079500X-0.100500X0.079500X-0.100500X0.079500X0.100500X-0.079500X0.100500X0*%
%ADD29RoundRect,0.135000X-0.035355X0.226274X-0.226274X0.035355X0.035355X-0.226274X0.226274X-0.035355X0*%
%ADD30RoundRect,0.079500X0.100500X-0.079500X0.100500X0.079500X-0.100500X0.079500X-0.100500X-0.079500X0*%
%ADD31RoundRect,0.150000X-0.587500X-0.150000X0.587500X-0.150000X0.587500X0.150000X-0.587500X0.150000X0*%
%ADD32RoundRect,0.135000X0.185000X-0.135000X0.185000X0.135000X-0.185000X0.135000X-0.185000X-0.135000X0*%
%ADD33RoundRect,0.147500X-0.172500X0.147500X-0.172500X-0.147500X0.172500X-0.147500X0.172500X0.147500X0*%
%ADD34R,1.200000X1.200000*%
%ADD35R,0.254000X0.675000*%
%ADD36R,0.675000X0.254000*%
%ADD37RoundRect,0.160000X-0.565000X-0.240000X0.565000X-0.240000X0.565000X0.240000X-0.565000X0.240000X0*%
%ADD38RoundRect,0.120000X-0.605000X-0.180000X0.605000X-0.180000X0.605000X0.180000X-0.605000X0.180000X0*%
%ADD39RoundRect,0.079500X0.079500X0.100500X-0.079500X0.100500X-0.079500X-0.100500X0.079500X-0.100500X0*%
%ADD40RoundRect,0.062500X0.112500X0.062500X-0.112500X0.062500X-0.112500X-0.062500X0.112500X-0.062500X0*%
%ADD41FreePoly0,180.000000*%
%ADD42R,0.250000X0.275000*%
%ADD43R,0.275000X0.250000*%
%ADD44RoundRect,0.150000X0.150000X-0.825000X0.150000X0.825000X-0.150000X0.825000X-0.150000X-0.825000X0*%
%ADD45RoundRect,0.150000X0.309359X0.521491X-0.521491X-0.309359X-0.309359X-0.521491X0.521491X0.309359X0*%
%ADD46RoundRect,0.250000X1.500000X0.550000X-1.500000X0.550000X-1.500000X-0.550000X1.500000X-0.550000X0*%
%ADD47RoundRect,0.150000X0.150000X-0.512500X0.150000X0.512500X-0.150000X0.512500X-0.150000X-0.512500X0*%
%ADD48RoundRect,0.160000X0.565000X0.240000X-0.565000X0.240000X-0.565000X-0.240000X0.565000X-0.240000X0*%
%ADD49RoundRect,0.120000X0.605000X0.180000X-0.605000X0.180000X-0.605000X-0.180000X0.605000X-0.180000X0*%
%ADD50RoundRect,0.250000X0.000000X0.388909X-0.388909X0.000000X0.000000X-0.388909X0.388909X0.000000X0*%
%ADD51RoundRect,0.062500X0.203293X0.291682X-0.291682X-0.203293X-0.203293X-0.291682X0.291682X0.203293X0*%
%ADD52RoundRect,0.062500X-0.203293X0.291682X-0.291682X0.203293X0.203293X-0.291682X0.291682X-0.203293X0*%
%ADD53R,1.750000X0.700000*%
%ADD54R,1.000000X1.450000*%
%ADD55R,1.550000X1.000000*%
%ADD56R,1.500000X0.800000*%
%ADD57R,1.500000X1.300000*%
%ADD58R,1.500000X1.500000*%
%ADD59R,1.400000X0.800000*%
%ADD60RoundRect,0.175000X0.325000X-0.175000X0.325000X0.175000X-0.325000X0.175000X-0.325000X-0.175000X0*%
%ADD61RoundRect,0.150000X0.150000X-0.200000X0.150000X0.200000X-0.150000X0.200000X-0.150000X-0.200000X0*%
G04 APERTURE END LIST*
D10*
%TO.C,J1*%
G36*
X129530500Y-92140000D02*
G01*
X128131000Y-92140000D01*
X128131000Y-91840500D01*
X129530500Y-91840500D01*
X129530500Y-92140000D01*
G37*
G36*
X129530500Y-92640500D02*
G01*
X128131000Y-92640500D01*
X128131000Y-92341000D01*
X129530500Y-92341000D01*
X129530500Y-92640500D01*
G37*
G36*
X129530500Y-93141000D02*
G01*
X128131000Y-93141000D01*
X128131000Y-92841000D01*
X129530500Y-92841000D01*
X129530500Y-93141000D01*
G37*
G36*
X129530500Y-93641500D02*
G01*
X128131000Y-93641500D01*
X128131000Y-93339000D01*
X129530500Y-93339000D01*
X129530500Y-93641500D01*
G37*
G36*
X129530500Y-94139000D02*
G01*
X128131000Y-94139000D01*
X128131000Y-93839500D01*
X129530500Y-93839500D01*
X129530500Y-94139000D01*
G37*
G36*
X129530500Y-94639500D02*
G01*
X128131000Y-94639500D01*
X128131000Y-94340000D01*
X129530500Y-94340000D01*
X129530500Y-94639500D01*
G37*
G36*
X129530500Y-95140000D02*
G01*
X128131000Y-95140000D01*
X128131000Y-94840000D01*
X129530500Y-94840000D01*
X129530500Y-95140000D01*
G37*
G36*
X129530500Y-95640500D02*
G01*
X128131000Y-95640500D01*
X128131000Y-95340500D01*
X129530500Y-95340500D01*
X129530500Y-95640500D01*
G37*
G36*
X129530500Y-96140500D02*
G01*
X128131000Y-96140500D01*
X128131000Y-95841000D01*
X129530500Y-95841000D01*
X129530500Y-96140500D01*
G37*
G36*
X129530500Y-96641000D02*
G01*
X128131000Y-96641000D01*
X128131000Y-96341500D01*
X129530500Y-96341500D01*
X129530500Y-96641000D01*
G37*
G36*
X129530500Y-97141500D02*
G01*
X128131000Y-97141500D01*
X128131000Y-96839000D01*
X129530500Y-96839000D01*
X129530500Y-97141500D01*
G37*
G36*
X129530500Y-97639000D02*
G01*
X128131000Y-97639000D01*
X128131000Y-97339500D01*
X129530500Y-97339500D01*
X129530500Y-97639000D01*
G37*
G36*
X130256500Y-93241000D02*
G01*
X130281500Y-93244500D01*
X130306000Y-93249500D01*
X130330000Y-93257000D01*
X130353500Y-93266000D01*
X130376000Y-93277000D01*
X130397500Y-93290000D01*
X130418000Y-93305000D01*
X130437000Y-93321500D01*
X130454500Y-93339500D01*
X130470500Y-93358500D01*
X130485000Y-93379500D01*
X130497500Y-93401000D01*
X130508000Y-93424000D01*
X130517000Y-93447500D01*
X130523500Y-93471500D01*
X130528500Y-93496500D01*
X130531000Y-93521500D01*
X130531500Y-93546500D01*
X130530000Y-93571500D01*
X130526000Y-93596500D01*
X130520500Y-93621000D01*
X130512500Y-93644500D01*
X130503000Y-93668000D01*
X130491500Y-93690000D01*
X130478000Y-93711500D01*
X130462500Y-93731500D01*
X130446000Y-93750000D01*
X130427500Y-93767000D01*
X130408000Y-93783000D01*
X130387000Y-93796500D01*
X130365000Y-93809000D01*
X130342000Y-93819000D01*
X130318000Y-93827500D01*
X130294000Y-93833500D01*
X130269000Y-93837500D01*
X130244000Y-93840000D01*
X130219000Y-93840000D01*
X130194000Y-93837500D01*
X130169000Y-93833500D01*
X130145000Y-93827500D01*
X130121000Y-93819000D01*
X130098000Y-93809000D01*
X130076000Y-93796500D01*
X130055000Y-93783000D01*
X130035500Y-93767000D01*
X130017000Y-93750000D01*
X130000500Y-93731500D01*
X129985000Y-93711500D01*
X129971500Y-93690000D01*
X129960000Y-93668000D01*
X129950500Y-93644500D01*
X129942500Y-93621000D01*
X129937000Y-93596500D01*
X129933000Y-93571500D01*
X129931500Y-93546500D01*
X129932000Y-93521500D01*
X129934500Y-93496500D01*
X129939500Y-93471500D01*
X129946000Y-93447500D01*
X129955000Y-93424000D01*
X129965500Y-93401000D01*
X129978000Y-93379500D01*
X129992500Y-93358500D01*
X130008500Y-93339500D01*
X130026000Y-93321500D01*
X130045000Y-93305000D01*
X130065500Y-93290000D01*
X130087000Y-93277000D01*
X130109500Y-93266000D01*
X130133000Y-93257000D01*
X130157000Y-93249500D01*
X130181500Y-93244500D01*
X130206500Y-93241000D01*
X130231500Y-93240000D01*
X130256500Y-93241000D01*
G37*
G36*
X130256500Y-94041000D02*
G01*
X130281500Y-94044500D01*
X130306000Y-94049500D01*
X130330000Y-94057000D01*
X130353500Y-94066000D01*
X130376000Y-94077500D01*
X130397500Y-94090500D01*
X130418000Y-94105000D01*
X130437000Y-94121500D01*
X130454500Y-94139500D01*
X130470500Y-94159000D01*
X130485000Y-94179500D01*
X130497500Y-94201000D01*
X130508000Y-94224000D01*
X130517000Y-94247500D01*
X130523500Y-94271500D01*
X130528500Y-94296500D01*
X130531000Y-94321500D01*
X130531500Y-94346500D01*
X130530000Y-94371500D01*
X130526000Y-94396500D01*
X130520500Y-94421000D01*
X130512500Y-94445000D01*
X130503000Y-94468000D01*
X130491500Y-94490000D01*
X130478000Y-94511500D01*
X130462500Y-94531500D01*
X130446000Y-94550000D01*
X130427500Y-94567500D01*
X130408000Y-94583000D01*
X130387000Y-94597000D01*
X130365000Y-94609000D01*
X130342000Y-94619000D01*
X130318000Y-94627500D01*
X130294000Y-94633500D01*
X130269000Y-94638000D01*
X130244000Y-94640000D01*
X130219000Y-94640000D01*
X130194000Y-94638000D01*
X130169000Y-94633500D01*
X130145000Y-94627500D01*
X130121000Y-94619000D01*
X130098000Y-94609000D01*
X130076000Y-94597000D01*
X130055000Y-94583000D01*
X130035500Y-94567500D01*
X130017000Y-94550000D01*
X130000500Y-94531500D01*
X129985000Y-94511500D01*
X129971500Y-94490000D01*
X129960000Y-94468000D01*
X129950500Y-94445000D01*
X129942500Y-94421000D01*
X129937000Y-94396500D01*
X129933000Y-94371500D01*
X129931500Y-94346500D01*
X129932000Y-94321500D01*
X129934500Y-94296500D01*
X129939500Y-94271500D01*
X129946000Y-94247500D01*
X129955000Y-94224000D01*
X129965500Y-94201000D01*
X129978000Y-94179500D01*
X129992500Y-94159000D01*
X130008500Y-94139500D01*
X130026000Y-94121500D01*
X130045000Y-94105000D01*
X130065500Y-94090500D01*
X130087000Y-94077500D01*
X130109500Y-94066000D01*
X130133000Y-94057000D01*
X130157000Y-94049500D01*
X130181500Y-94044500D01*
X130206500Y-94041000D01*
X130231500Y-94040000D01*
X130256500Y-94041000D01*
G37*
G36*
X130256500Y-97241000D02*
G01*
X130281500Y-97244500D01*
X130306000Y-97249500D01*
X130330000Y-97257000D01*
X130353500Y-97266000D01*
X130376000Y-97277000D01*
X130397500Y-97290000D01*
X130418000Y-97305000D01*
X130437000Y-97321500D01*
X130454500Y-97339500D01*
X130470500Y-97358500D01*
X130485000Y-97379500D01*
X130497500Y-97401000D01*
X130508000Y-97424000D01*
X130517000Y-97447500D01*
X130523500Y-97471500D01*
X130528500Y-97496500D01*
X130531000Y-97521000D01*
X130531500Y-97546500D01*
X130530000Y-97571500D01*
X130526000Y-97596500D01*
X130520500Y-97621000D01*
X130512500Y-97644500D01*
X130503000Y-97668000D01*
X130491500Y-97690000D01*
X130478000Y-97711500D01*
X130462500Y-97731500D01*
X130446000Y-97750000D01*
X130427500Y-97767000D01*
X130408000Y-97783000D01*
X130387000Y-97796500D01*
X130365000Y-97809000D01*
X130342000Y-97819000D01*
X130318000Y-97827500D01*
X130294000Y-97833500D01*
X130269000Y-97837500D01*
X130244000Y-97840000D01*
X130219000Y-97840000D01*
X130194000Y-97837500D01*
X130169000Y-97833500D01*
X130145000Y-97827500D01*
X130121000Y-97819000D01*
X130098000Y-97809000D01*
X130076000Y-97796500D01*
X130055000Y-97783000D01*
X130035500Y-97767000D01*
X130017000Y-97750000D01*
X130000500Y-97731500D01*
X129985000Y-97711500D01*
X129971500Y-97690000D01*
X129960000Y-97668000D01*
X129950500Y-97644500D01*
X129942500Y-97621000D01*
X129937000Y-97596500D01*
X129933000Y-97571500D01*
X129931500Y-97546500D01*
X129932000Y-97521000D01*
X129934500Y-97496500D01*
X129939500Y-97471500D01*
X129946000Y-97447500D01*
X129955000Y-97424000D01*
X129965500Y-97401000D01*
X129978000Y-97379500D01*
X129992500Y-97358500D01*
X130008500Y-97339500D01*
X130026000Y-97321500D01*
X130045000Y-97305000D01*
X130065500Y-97290000D01*
X130087000Y-97277000D01*
X130109500Y-97266000D01*
X130133000Y-97257000D01*
X130157000Y-97249500D01*
X130181500Y-97244500D01*
X130206500Y-97241000D01*
X130231500Y-97240000D01*
X130256500Y-97241000D01*
G37*
G36*
X130256500Y-91641000D02*
G01*
X130281500Y-91644500D01*
X130306000Y-91649500D01*
X130330000Y-91657000D01*
X130353500Y-91666000D01*
X130376000Y-91677500D01*
X130397500Y-91690500D01*
X130418000Y-91705000D01*
X130437000Y-91721500D01*
X130454500Y-91739500D01*
X130470500Y-91759000D01*
X130485000Y-91779500D01*
X130497500Y-91801000D01*
X130508000Y-91824000D01*
X130517000Y-91847500D01*
X130523500Y-91871500D01*
X130528500Y-91896500D01*
X130531000Y-91921500D01*
X130531500Y-91946500D01*
X130530000Y-91971500D01*
X130526000Y-91996500D01*
X130520500Y-92021000D01*
X130512500Y-92044500D01*
X130503000Y-92068000D01*
X130491500Y-92090000D01*
X130478000Y-92111500D01*
X130462500Y-92131500D01*
X130446000Y-92150000D01*
X130427500Y-92167500D01*
X130408000Y-92183000D01*
X130387000Y-92197000D01*
X130365000Y-92209000D01*
X130342000Y-92219000D01*
X130318000Y-92227500D01*
X130294000Y-92233500D01*
X130269000Y-92238000D01*
X130244000Y-92240000D01*
X130219000Y-92240000D01*
X130194000Y-92238000D01*
X130169000Y-92233500D01*
X130145000Y-92227500D01*
X130121000Y-92219000D01*
X130098000Y-92209000D01*
X130076000Y-92197000D01*
X130055000Y-92183000D01*
X130035500Y-92167500D01*
X130017000Y-92150000D01*
X130000500Y-92131500D01*
X129985000Y-92111500D01*
X129971500Y-92090000D01*
X129960000Y-92068000D01*
X129950500Y-92044500D01*
X129942500Y-92021000D01*
X129937000Y-91996500D01*
X129933000Y-91971500D01*
X129931500Y-91946500D01*
X129932000Y-91921500D01*
X129934500Y-91896500D01*
X129939500Y-91871500D01*
X129946000Y-91847500D01*
X129955000Y-91824000D01*
X129965500Y-91801000D01*
X129978000Y-91779500D01*
X129992500Y-91759000D01*
X130008500Y-91739500D01*
X130026000Y-91721500D01*
X130045000Y-91705000D01*
X130065500Y-91690500D01*
X130087000Y-91677500D01*
X130109500Y-91666000D01*
X130133000Y-91657000D01*
X130157000Y-91649500D01*
X130181500Y-91644500D01*
X130206500Y-91641000D01*
X130231500Y-91640000D01*
X130256500Y-91641000D01*
G37*
G36*
X130256500Y-94841000D02*
G01*
X130281500Y-94844000D01*
X130306000Y-94849500D01*
X130330000Y-94856500D01*
X130353500Y-94866000D01*
X130376000Y-94877000D01*
X130397500Y-94890000D01*
X130418000Y-94905000D01*
X130437000Y-94921500D01*
X130454500Y-94939500D01*
X130470500Y-94958500D01*
X130485000Y-94979500D01*
X130497500Y-95001000D01*
X130508000Y-95024000D01*
X130517000Y-95047500D01*
X130523500Y-95071500D01*
X130528500Y-95096000D01*
X130531000Y-95121000D01*
X130531500Y-95146500D01*
X130530000Y-95171500D01*
X130526000Y-95196500D01*
X130520500Y-95220500D01*
X130512500Y-95244500D01*
X130503000Y-95268000D01*
X130491500Y-95290000D01*
X130478000Y-95311500D01*
X130462500Y-95331500D01*
X130446000Y-95350000D01*
X130427500Y-95367000D01*
X130408000Y-95382500D01*
X130387000Y-95396500D01*
X130365000Y-95409000D01*
X130342000Y-95419000D01*
X130318000Y-95427000D01*
X130294000Y-95433500D01*
X130269000Y-95437500D01*
X130244000Y-95440000D01*
X130219000Y-95440000D01*
X130194000Y-95437500D01*
X130169000Y-95433500D01*
X130145000Y-95427000D01*
X130121000Y-95419000D01*
X130098000Y-95409000D01*
X130076000Y-95396500D01*
X130055000Y-95382500D01*
X130035500Y-95367000D01*
X130017000Y-95350000D01*
X130000500Y-95331500D01*
X129985000Y-95311500D01*
X129971500Y-95290000D01*
X129960000Y-95268000D01*
X129950500Y-95244500D01*
X129942500Y-95220500D01*
X129937000Y-95196500D01*
X129933000Y-95171500D01*
X129931500Y-95146500D01*
X129932000Y-95121000D01*
X129934500Y-95096000D01*
X129939500Y-95071500D01*
X129946000Y-95047500D01*
X129955000Y-95024000D01*
X129965500Y-95001000D01*
X129978000Y-94979500D01*
X129992500Y-94958500D01*
X130008500Y-94939500D01*
X130026000Y-94921500D01*
X130045000Y-94905000D01*
X130065500Y-94890000D01*
X130087000Y-94877000D01*
X130109500Y-94866000D01*
X130133000Y-94856500D01*
X130157000Y-94849500D01*
X130181500Y-94844000D01*
X130206500Y-94841000D01*
X130231500Y-94840000D01*
X130256500Y-94841000D01*
G37*
G36*
X130256500Y-95641000D02*
G01*
X130281500Y-95644500D01*
X130306000Y-95649500D01*
X130330000Y-95657000D01*
X130353500Y-95666000D01*
X130376000Y-95677500D01*
X130397500Y-95690500D01*
X130418000Y-95705000D01*
X130437000Y-95721500D01*
X130454500Y-95739500D01*
X130470500Y-95759000D01*
X130485000Y-95779500D01*
X130497500Y-95801000D01*
X130508000Y-95824000D01*
X130517000Y-95847500D01*
X130523500Y-95871500D01*
X130528500Y-95896500D01*
X130531000Y-95921500D01*
X130531500Y-95946500D01*
X130530000Y-95971500D01*
X130526000Y-95996500D01*
X130520500Y-96021000D01*
X130512500Y-96044500D01*
X130503000Y-96068000D01*
X130491500Y-96090000D01*
X130478000Y-96111500D01*
X130462500Y-96131500D01*
X130446000Y-96150000D01*
X130427500Y-96167500D01*
X130408000Y-96183000D01*
X130387000Y-96197000D01*
X130365000Y-96209000D01*
X130342000Y-96219000D01*
X130318000Y-96227500D01*
X130294000Y-96233500D01*
X130269000Y-96238000D01*
X130244000Y-96240000D01*
X130219000Y-96240000D01*
X130194000Y-96238000D01*
X130169000Y-96233500D01*
X130145000Y-96227500D01*
X130121000Y-96219000D01*
X130098000Y-96209000D01*
X130076000Y-96197000D01*
X130055000Y-96183000D01*
X130035500Y-96167500D01*
X130017000Y-96150000D01*
X130000500Y-96131500D01*
X129985000Y-96111500D01*
X129971500Y-96090000D01*
X129960000Y-96068000D01*
X129950500Y-96044500D01*
X129942500Y-96021000D01*
X129937000Y-95996500D01*
X129933000Y-95971500D01*
X129931500Y-95946500D01*
X129932000Y-95921500D01*
X129934500Y-95896500D01*
X129939500Y-95871500D01*
X129946000Y-95847500D01*
X129955000Y-95824000D01*
X129965500Y-95801000D01*
X129978000Y-95779500D01*
X129992500Y-95759000D01*
X130008500Y-95739500D01*
X130026000Y-95721500D01*
X130045000Y-95705000D01*
X130065500Y-95690500D01*
X130087000Y-95677500D01*
X130109500Y-95666000D01*
X130133000Y-95657000D01*
X130157000Y-95649500D01*
X130181500Y-95644500D01*
X130206500Y-95641000D01*
X130231500Y-95640000D01*
X130256500Y-95641000D01*
G37*
G36*
X130956500Y-92041000D02*
G01*
X130981500Y-92044500D01*
X131006000Y-92049500D01*
X131030000Y-92057000D01*
X131053500Y-92066000D01*
X131076000Y-92077500D01*
X131097500Y-92090500D01*
X131118000Y-92105000D01*
X131137000Y-92121500D01*
X131154500Y-92139500D01*
X131170500Y-92159000D01*
X131185000Y-92179500D01*
X131197500Y-92201000D01*
X131208000Y-92224000D01*
X131217000Y-92247500D01*
X131223500Y-92271500D01*
X131228500Y-92296500D01*
X131231000Y-92321500D01*
X131231500Y-92346500D01*
X131230000Y-92371500D01*
X131226000Y-92396500D01*
X131220500Y-92421000D01*
X131212500Y-92445000D01*
X131203000Y-92468000D01*
X131191500Y-92490000D01*
X131178000Y-92511500D01*
X131162500Y-92531500D01*
X131146000Y-92550000D01*
X131127500Y-92567500D01*
X131108000Y-92583000D01*
X131087000Y-92597000D01*
X131065000Y-92609000D01*
X131042000Y-92619000D01*
X131018000Y-92627500D01*
X130994000Y-92633500D01*
X130969000Y-92638000D01*
X130944000Y-92640000D01*
X130919000Y-92640000D01*
X130894000Y-92638000D01*
X130869000Y-92633500D01*
X130845000Y-92627500D01*
X130821000Y-92619000D01*
X130798000Y-92609000D01*
X130776000Y-92597000D01*
X130755000Y-92583000D01*
X130735500Y-92567500D01*
X130717000Y-92550000D01*
X130700500Y-92531500D01*
X130685000Y-92511500D01*
X130671500Y-92490000D01*
X130660000Y-92468000D01*
X130650500Y-92445000D01*
X130642500Y-92421000D01*
X130637000Y-92396500D01*
X130633000Y-92371500D01*
X130631500Y-92346500D01*
X130632000Y-92321500D01*
X130634500Y-92296500D01*
X130639500Y-92271500D01*
X130646000Y-92247500D01*
X130655000Y-92224000D01*
X130665500Y-92201000D01*
X130678000Y-92179500D01*
X130692500Y-92159000D01*
X130708500Y-92139500D01*
X130726000Y-92121500D01*
X130745000Y-92105000D01*
X130765500Y-92090500D01*
X130787000Y-92077500D01*
X130809500Y-92066000D01*
X130833000Y-92057000D01*
X130857000Y-92049500D01*
X130881500Y-92044500D01*
X130906500Y-92041000D01*
X130931500Y-92040000D01*
X130956500Y-92041000D01*
G37*
G36*
X130956500Y-92841000D02*
G01*
X130981500Y-92844000D01*
X131006000Y-92849500D01*
X131030000Y-92856500D01*
X131053500Y-92866000D01*
X131076000Y-92877000D01*
X131097500Y-92890000D01*
X131118000Y-92905000D01*
X131137000Y-92921500D01*
X131154500Y-92939500D01*
X131170500Y-92958500D01*
X131185000Y-92979500D01*
X131197500Y-93001000D01*
X131208000Y-93024000D01*
X131217000Y-93047500D01*
X131223500Y-93071500D01*
X131228500Y-93096000D01*
X131231000Y-93121000D01*
X131231500Y-93146500D01*
X131230000Y-93171500D01*
X131226000Y-93196500D01*
X131220500Y-93220500D01*
X131212500Y-93244500D01*
X131203000Y-93268000D01*
X131191500Y-93290000D01*
X131178000Y-93311500D01*
X131162500Y-93331500D01*
X131146000Y-93350000D01*
X131127500Y-93367000D01*
X131108000Y-93383000D01*
X131087000Y-93396500D01*
X131065000Y-93409000D01*
X131042000Y-93419000D01*
X131018000Y-93427500D01*
X130994000Y-93433500D01*
X130969000Y-93437500D01*
X130944000Y-93440000D01*
X130919000Y-93440000D01*
X130894000Y-93437500D01*
X130869000Y-93433500D01*
X130845000Y-93427500D01*
X130821000Y-93419000D01*
X130798000Y-93409000D01*
X130776000Y-93396500D01*
X130755000Y-93383000D01*
X130735500Y-93367000D01*
X130717000Y-93350000D01*
X130700500Y-93331500D01*
X130685000Y-93311500D01*
X130671500Y-93290000D01*
X130660000Y-93268000D01*
X130650500Y-93244500D01*
X130642500Y-93220500D01*
X130637000Y-93196500D01*
X130633000Y-93171500D01*
X130631500Y-93146500D01*
X130632000Y-93121000D01*
X130634500Y-93096000D01*
X130639500Y-93071500D01*
X130646000Y-93047500D01*
X130655000Y-93024000D01*
X130665500Y-93001000D01*
X130678000Y-92979500D01*
X130692500Y-92958500D01*
X130708500Y-92939500D01*
X130726000Y-92921500D01*
X130745000Y-92905000D01*
X130765500Y-92890000D01*
X130787000Y-92877000D01*
X130809500Y-92866000D01*
X130833000Y-92856500D01*
X130857000Y-92849500D01*
X130881500Y-92844000D01*
X130906500Y-92841000D01*
X130931500Y-92840000D01*
X130956500Y-92841000D01*
G37*
G36*
X130956500Y-93641000D02*
G01*
X130981500Y-93644500D01*
X131006000Y-93649500D01*
X131030000Y-93657000D01*
X131053500Y-93666000D01*
X131076000Y-93677500D01*
X131097500Y-93690500D01*
X131118000Y-93705000D01*
X131137000Y-93721500D01*
X131154500Y-93739500D01*
X131170500Y-93759000D01*
X131185000Y-93779500D01*
X131197500Y-93801000D01*
X131208000Y-93824000D01*
X131217000Y-93847500D01*
X131223500Y-93871500D01*
X131228500Y-93896500D01*
X131231000Y-93921500D01*
X131231500Y-93946500D01*
X131230000Y-93971500D01*
X131226000Y-93996500D01*
X131220500Y-94021000D01*
X131212500Y-94044500D01*
X131203000Y-94068000D01*
X131191500Y-94090000D01*
X131178000Y-94111500D01*
X131162500Y-94131500D01*
X131146000Y-94150000D01*
X131127500Y-94167500D01*
X131108000Y-94183000D01*
X131087000Y-94197000D01*
X131065000Y-94209000D01*
X131042000Y-94219000D01*
X131018000Y-94227500D01*
X130994000Y-94233500D01*
X130969000Y-94238000D01*
X130944000Y-94240000D01*
X130919000Y-94240000D01*
X130894000Y-94238000D01*
X130869000Y-94233500D01*
X130845000Y-94227500D01*
X130821000Y-94219000D01*
X130798000Y-94209000D01*
X130776000Y-94197000D01*
X130755000Y-94183000D01*
X130735500Y-94167500D01*
X130717000Y-94150000D01*
X130700500Y-94131500D01*
X130685000Y-94111500D01*
X130671500Y-94090000D01*
X130660000Y-94068000D01*
X130650500Y-94044500D01*
X130642500Y-94021000D01*
X130637000Y-93996500D01*
X130633000Y-93971500D01*
X130631500Y-93946500D01*
X130632000Y-93921500D01*
X130634500Y-93896500D01*
X130639500Y-93871500D01*
X130646000Y-93847500D01*
X130655000Y-93824000D01*
X130665500Y-93801000D01*
X130678000Y-93779500D01*
X130692500Y-93759000D01*
X130708500Y-93739500D01*
X130726000Y-93721500D01*
X130745000Y-93705000D01*
X130765500Y-93690500D01*
X130787000Y-93677500D01*
X130809500Y-93666000D01*
X130833000Y-93657000D01*
X130857000Y-93649500D01*
X130881500Y-93644500D01*
X130906500Y-93641000D01*
X130931500Y-93640000D01*
X130956500Y-93641000D01*
G37*
G36*
X130956500Y-95241000D02*
G01*
X130981500Y-95244500D01*
X131006000Y-95249500D01*
X131030000Y-95257000D01*
X131053500Y-95266000D01*
X131076000Y-95277000D01*
X131097500Y-95290000D01*
X131118000Y-95305000D01*
X131137000Y-95321500D01*
X131154500Y-95339500D01*
X131170500Y-95358500D01*
X131185000Y-95379500D01*
X131197500Y-95401000D01*
X131208000Y-95424000D01*
X131217000Y-95447500D01*
X131223500Y-95471500D01*
X131228500Y-95496500D01*
X131231000Y-95521500D01*
X131231500Y-95546500D01*
X131230000Y-95571500D01*
X131226000Y-95596500D01*
X131220500Y-95621000D01*
X131212500Y-95644500D01*
X131203000Y-95668000D01*
X131191500Y-95690000D01*
X131178000Y-95711500D01*
X131162500Y-95731500D01*
X131146000Y-95750000D01*
X131127500Y-95767000D01*
X131108000Y-95783000D01*
X131087000Y-95796500D01*
X131065000Y-95809000D01*
X131042000Y-95819000D01*
X131018000Y-95827500D01*
X130994000Y-95833500D01*
X130969000Y-95837500D01*
X130944000Y-95840000D01*
X130919000Y-95840000D01*
X130894000Y-95837500D01*
X130869000Y-95833500D01*
X130845000Y-95827500D01*
X130821000Y-95819000D01*
X130798000Y-95809000D01*
X130776000Y-95796500D01*
X130755000Y-95783000D01*
X130735500Y-95767000D01*
X130717000Y-95750000D01*
X130700500Y-95731500D01*
X130685000Y-95711500D01*
X130671500Y-95690000D01*
X130660000Y-95668000D01*
X130650500Y-95644500D01*
X130642500Y-95621000D01*
X130637000Y-95596500D01*
X130633000Y-95571500D01*
X130631500Y-95546500D01*
X130632000Y-95521500D01*
X130634500Y-95496500D01*
X130639500Y-95471500D01*
X130646000Y-95447500D01*
X130655000Y-95424000D01*
X130665500Y-95401000D01*
X130678000Y-95379500D01*
X130692500Y-95358500D01*
X130708500Y-95339500D01*
X130726000Y-95321500D01*
X130745000Y-95305000D01*
X130765500Y-95290000D01*
X130787000Y-95277000D01*
X130809500Y-95266000D01*
X130833000Y-95257000D01*
X130857000Y-95249500D01*
X130881500Y-95244500D01*
X130906500Y-95241000D01*
X130931500Y-95240000D01*
X130956500Y-95241000D01*
G37*
G36*
X130956500Y-96041000D02*
G01*
X130981500Y-96044500D01*
X131006000Y-96049500D01*
X131030000Y-96057000D01*
X131053500Y-96066000D01*
X131076000Y-96077500D01*
X131097500Y-96090500D01*
X131118000Y-96105000D01*
X131137000Y-96121500D01*
X131154500Y-96139500D01*
X131170500Y-96159000D01*
X131185000Y-96179500D01*
X131197500Y-96201000D01*
X131208000Y-96224000D01*
X131217000Y-96247500D01*
X131223500Y-96271500D01*
X131228500Y-96296500D01*
X131231000Y-96321500D01*
X131231500Y-96346500D01*
X131230000Y-96371500D01*
X131226000Y-96396500D01*
X131220500Y-96421000D01*
X131212500Y-96445000D01*
X131203000Y-96468000D01*
X131191500Y-96490000D01*
X131178000Y-96511500D01*
X131162500Y-96531500D01*
X131146000Y-96550000D01*
X131127500Y-96567500D01*
X131108000Y-96583000D01*
X131087000Y-96597000D01*
X131065000Y-96609000D01*
X131042000Y-96619000D01*
X131018000Y-96627500D01*
X130994000Y-96633500D01*
X130969000Y-96638000D01*
X130944000Y-96640000D01*
X130919000Y-96640000D01*
X130894000Y-96638000D01*
X130869000Y-96633500D01*
X130845000Y-96627500D01*
X130821000Y-96619000D01*
X130798000Y-96609000D01*
X130776000Y-96597000D01*
X130755000Y-96583000D01*
X130735500Y-96567500D01*
X130717000Y-96550000D01*
X130700500Y-96531500D01*
X130685000Y-96511500D01*
X130671500Y-96490000D01*
X130660000Y-96468000D01*
X130650500Y-96445000D01*
X130642500Y-96421000D01*
X130637000Y-96396500D01*
X130633000Y-96371500D01*
X130631500Y-96346500D01*
X130632000Y-96321500D01*
X130634500Y-96296500D01*
X130639500Y-96271500D01*
X130646000Y-96247500D01*
X130655000Y-96224000D01*
X130665500Y-96201000D01*
X130678000Y-96179500D01*
X130692500Y-96159000D01*
X130708500Y-96139500D01*
X130726000Y-96121500D01*
X130745000Y-96105000D01*
X130765500Y-96090500D01*
X130787000Y-96077500D01*
X130809500Y-96066000D01*
X130833000Y-96057000D01*
X130857000Y-96049500D01*
X130881500Y-96044500D01*
X130906500Y-96041000D01*
X130931500Y-96040000D01*
X130956500Y-96041000D01*
G37*
G36*
X130956500Y-96841000D02*
G01*
X130981500Y-96844000D01*
X131006000Y-96849500D01*
X131030000Y-96856500D01*
X131053500Y-96866000D01*
X131076000Y-96877000D01*
X131097500Y-96890000D01*
X131118000Y-96905000D01*
X131137000Y-96921500D01*
X131154500Y-96939500D01*
X131170500Y-96958500D01*
X131185000Y-96979500D01*
X131197500Y-97001000D01*
X131208000Y-97024000D01*
X131217000Y-97047500D01*
X131223500Y-97071500D01*
X131228500Y-97096000D01*
X131231000Y-97121000D01*
X131231500Y-97146500D01*
X131230000Y-97171500D01*
X131226000Y-97196500D01*
X131220500Y-97220500D01*
X131212500Y-97244500D01*
X131203000Y-97268000D01*
X131191500Y-97290000D01*
X131178000Y-97311500D01*
X131162500Y-97331500D01*
X131146000Y-97350000D01*
X131127500Y-97367000D01*
X131108000Y-97382500D01*
X131087000Y-97396500D01*
X131065000Y-97409000D01*
X131042000Y-97419000D01*
X131018000Y-97427000D01*
X130994000Y-97433500D01*
X130969000Y-97437500D01*
X130944000Y-97440000D01*
X130919000Y-97440000D01*
X130894000Y-97437500D01*
X130869000Y-97433500D01*
X130845000Y-97427000D01*
X130821000Y-97419000D01*
X130798000Y-97409000D01*
X130776000Y-97396500D01*
X130755000Y-97382500D01*
X130735500Y-97367000D01*
X130717000Y-97350000D01*
X130700500Y-97331500D01*
X130685000Y-97311500D01*
X130671500Y-97290000D01*
X130660000Y-97268000D01*
X130650500Y-97244500D01*
X130642500Y-97220500D01*
X130637000Y-97196500D01*
X130633000Y-97171500D01*
X130631500Y-97146500D01*
X130632000Y-97121000D01*
X130634500Y-97096000D01*
X130639500Y-97071500D01*
X130646000Y-97047500D01*
X130655000Y-97024000D01*
X130665500Y-97001000D01*
X130678000Y-96979500D01*
X130692500Y-96958500D01*
X130708500Y-96939500D01*
X130726000Y-96921500D01*
X130745000Y-96905000D01*
X130765500Y-96890000D01*
X130787000Y-96877000D01*
X130809500Y-96866000D01*
X130833000Y-96856500D01*
X130857000Y-96849500D01*
X130881500Y-96844000D01*
X130906500Y-96841000D01*
X130931500Y-96840000D01*
X130956500Y-96841000D01*
G37*
G36*
X131151500Y-90210500D02*
G01*
X131171500Y-90212000D01*
X131191000Y-90214500D01*
X131210500Y-90218000D01*
X131230000Y-90222500D01*
X131249500Y-90228000D01*
X131268000Y-90234500D01*
X131287000Y-90241500D01*
X131305000Y-90250000D01*
X131323000Y-90259000D01*
X131340000Y-90269000D01*
X131357000Y-90279500D01*
X131373000Y-90291500D01*
X131388500Y-90304000D01*
X131403500Y-90317000D01*
X131418000Y-90331000D01*
X131431500Y-90345500D01*
X131444000Y-90361000D01*
X131456000Y-90376500D01*
X131467500Y-90393000D01*
X131478000Y-90410000D01*
X131487500Y-90427500D01*
X131496000Y-90445500D01*
X131504000Y-90464000D01*
X131510500Y-90483000D01*
X131516500Y-90502000D01*
X131521500Y-90521000D01*
X131525500Y-90540500D01*
X131528500Y-90560500D01*
X131530500Y-90580500D01*
X131531500Y-90600000D01*
X131531500Y-90620000D01*
X131530500Y-90640000D01*
X131528500Y-90660000D01*
X131525500Y-90679500D01*
X131521500Y-90699000D01*
X131516500Y-90718500D01*
X131510500Y-90737500D01*
X131504000Y-90756500D01*
X131496000Y-90774500D01*
X131487500Y-90792500D01*
X131478000Y-90810000D01*
X131467500Y-90827000D01*
X131456000Y-90843500D01*
X131444000Y-90859500D01*
X131431500Y-90875000D01*
X131418000Y-90889500D01*
X131403500Y-90903500D01*
X131388500Y-90916500D01*
X131373000Y-90929000D01*
X131357000Y-90940500D01*
X131340000Y-90951500D01*
X131323000Y-90961500D01*
X131305000Y-90970500D01*
X131287000Y-90979000D01*
X131268000Y-90986000D01*
X131249500Y-90992500D01*
X131230000Y-90998000D01*
X131210500Y-91002500D01*
X131191000Y-91005500D01*
X131171500Y-91008000D01*
X131151500Y-91009500D01*
X131131500Y-91010000D01*
X130531500Y-91010000D01*
X130511500Y-91009500D01*
X130491500Y-91008000D01*
X130472000Y-91005500D01*
X130452000Y-91002500D01*
X130432500Y-90998000D01*
X130413500Y-90992500D01*
X130394500Y-90986000D01*
X130376000Y-90979000D01*
X130358000Y-90970500D01*
X130340000Y-90961500D01*
X130323000Y-90951500D01*
X130306000Y-90940500D01*
X130290000Y-90929000D01*
X130274500Y-90916500D01*
X130259500Y-90903500D01*
X130245000Y-90889500D01*
X130231500Y-90875000D01*
X130218500Y-90859500D01*
X130206500Y-90843500D01*
X130195500Y-90827000D01*
X130185000Y-90810000D01*
X130175500Y-90792500D01*
X130167000Y-90774500D01*
X130159000Y-90756500D01*
X130152500Y-90737500D01*
X130146500Y-90718500D01*
X130141500Y-90699000D01*
X130137500Y-90679500D01*
X130134500Y-90660000D01*
X130132500Y-90640000D01*
X130131500Y-90620000D01*
X130131500Y-90600000D01*
X130132500Y-90580500D01*
X130134500Y-90560500D01*
X130137500Y-90540500D01*
X130141500Y-90521000D01*
X130146500Y-90502000D01*
X130152500Y-90483000D01*
X130159000Y-90464000D01*
X130167000Y-90445500D01*
X130175500Y-90427500D01*
X130185000Y-90410000D01*
X130195500Y-90393000D01*
X130206500Y-90376500D01*
X130218500Y-90361000D01*
X130231500Y-90345500D01*
X130245000Y-90331000D01*
X130259500Y-90317000D01*
X130274500Y-90304000D01*
X130290000Y-90291500D01*
X130306000Y-90279500D01*
X130323000Y-90269000D01*
X130340000Y-90259000D01*
X130358000Y-90250000D01*
X130376000Y-90241500D01*
X130394500Y-90234500D01*
X130413500Y-90228000D01*
X130432500Y-90222500D01*
X130452000Y-90218000D01*
X130472000Y-90214500D01*
X130491500Y-90212000D01*
X130511500Y-90210500D01*
X130531500Y-90210000D01*
X131131500Y-90210000D01*
X131151500Y-90210500D01*
G37*
G36*
X131151500Y-98470500D02*
G01*
X131171500Y-98472000D01*
X131191000Y-98474500D01*
X131210500Y-98478000D01*
X131230000Y-98482500D01*
X131249500Y-98488000D01*
X131268000Y-98494000D01*
X131287000Y-98501500D01*
X131305000Y-98509500D01*
X131323000Y-98519000D01*
X131340000Y-98528500D01*
X131357000Y-98539500D01*
X131373000Y-98551000D01*
X131388500Y-98563500D01*
X131403500Y-98577000D01*
X131418000Y-98590500D01*
X131431500Y-98605500D01*
X131444000Y-98620500D01*
X131456000Y-98636500D01*
X131467500Y-98653000D01*
X131478000Y-98670000D01*
X131487500Y-98687500D01*
X131496000Y-98705500D01*
X131504000Y-98724000D01*
X131510500Y-98742500D01*
X131516500Y-98761500D01*
X131521500Y-98781000D01*
X131525500Y-98800500D01*
X131528500Y-98820500D01*
X131530500Y-98840000D01*
X131531500Y-98860000D01*
X131531500Y-98880000D01*
X131530500Y-98900000D01*
X131528500Y-98920000D01*
X131525500Y-98939500D01*
X131521500Y-98959000D01*
X131516500Y-98978500D01*
X131510500Y-98997500D01*
X131504000Y-99016000D01*
X131496000Y-99034500D01*
X131487500Y-99052500D01*
X131478000Y-99070000D01*
X131467500Y-99087000D01*
X131456000Y-99103500D01*
X131444000Y-99119500D01*
X131431500Y-99134500D01*
X131418000Y-99149500D01*
X131403500Y-99163500D01*
X131388500Y-99176500D01*
X131373000Y-99189000D01*
X131357000Y-99200500D01*
X131340000Y-99211500D01*
X131323000Y-99221500D01*
X131305000Y-99230500D01*
X131287000Y-99238500D01*
X131268000Y-99246000D01*
X131249500Y-99252500D01*
X131230000Y-99257500D01*
X131210500Y-99262000D01*
X131191000Y-99265500D01*
X131171500Y-99268000D01*
X131151500Y-99269500D01*
X131131500Y-99270000D01*
X130531500Y-99270000D01*
X130511500Y-99269500D01*
X130491500Y-99268000D01*
X130472000Y-99265500D01*
X130452000Y-99262000D01*
X130432500Y-99257500D01*
X130413500Y-99252500D01*
X130394500Y-99246000D01*
X130376000Y-99238500D01*
X130358000Y-99230500D01*
X130340000Y-99221500D01*
X130323000Y-99211500D01*
X130306000Y-99200500D01*
X130290000Y-99189000D01*
X130274500Y-99176500D01*
X130259500Y-99163500D01*
X130245000Y-99149500D01*
X130231500Y-99134500D01*
X130218500Y-99119500D01*
X130206500Y-99103500D01*
X130195500Y-99087000D01*
X130185000Y-99070000D01*
X130175500Y-99052500D01*
X130167000Y-99034500D01*
X130159000Y-99016000D01*
X130152500Y-98997500D01*
X130146500Y-98978500D01*
X130141500Y-98959000D01*
X130137500Y-98939500D01*
X130134500Y-98920000D01*
X130132500Y-98900000D01*
X130131500Y-98880000D01*
X130131500Y-98860000D01*
X130132500Y-98840000D01*
X130134500Y-98820500D01*
X130137500Y-98800500D01*
X130141500Y-98781000D01*
X130146500Y-98761500D01*
X130152500Y-98742500D01*
X130159000Y-98724000D01*
X130167000Y-98705500D01*
X130175500Y-98687500D01*
X130185000Y-98670000D01*
X130195500Y-98653000D01*
X130206500Y-98636500D01*
X130218500Y-98620500D01*
X130231500Y-98605500D01*
X130245000Y-98590500D01*
X130259500Y-98577000D01*
X130274500Y-98563500D01*
X130290000Y-98551000D01*
X130306000Y-98539500D01*
X130323000Y-98528500D01*
X130340000Y-98519000D01*
X130358000Y-98509500D01*
X130376000Y-98501500D01*
X130394500Y-98494000D01*
X130413500Y-98488000D01*
X130432500Y-98482500D01*
X130452000Y-98478000D01*
X130472000Y-98474500D01*
X130491500Y-98472000D01*
X130511500Y-98470500D01*
X130531500Y-98470000D01*
X131131500Y-98470000D01*
X131151500Y-98470500D01*
G37*
G36*
X135541500Y-89850500D02*
G01*
X135561000Y-89852000D01*
X135581000Y-89854500D01*
X135600500Y-89858000D01*
X135620000Y-89862500D01*
X135639000Y-89868000D01*
X135658000Y-89874000D01*
X135676500Y-89881500D01*
X135695000Y-89889500D01*
X135712500Y-89899000D01*
X135730000Y-89908500D01*
X135746500Y-89919500D01*
X135763000Y-89931000D01*
X135778500Y-89943500D01*
X135793500Y-89957000D01*
X135807500Y-89970500D01*
X135821000Y-89985500D01*
X135834000Y-90000500D01*
X135846000Y-90016500D01*
X135857500Y-90033000D01*
X135867500Y-90050000D01*
X135877500Y-90067500D01*
X135886000Y-90085500D01*
X135893500Y-90104000D01*
X135900500Y-90122500D01*
X135906500Y-90141500D01*
X135911500Y-90161000D01*
X135915000Y-90180500D01*
X135918000Y-90200500D01*
X135920000Y-90220000D01*
X135921000Y-90240000D01*
X135921000Y-90260000D01*
X135920000Y-90280000D01*
X135918000Y-90300000D01*
X135915000Y-90319500D01*
X135911500Y-90339000D01*
X135906500Y-90358500D01*
X135900500Y-90377500D01*
X135893500Y-90396000D01*
X135886000Y-90414500D01*
X135877500Y-90432500D01*
X135867500Y-90450000D01*
X135857500Y-90467000D01*
X135846000Y-90483500D01*
X135834000Y-90499500D01*
X135821000Y-90514500D01*
X135807500Y-90529500D01*
X135793500Y-90543500D01*
X135778500Y-90556500D01*
X135763000Y-90569000D01*
X135746500Y-90580500D01*
X135730000Y-90591500D01*
X135712500Y-90601500D01*
X135695000Y-90610500D01*
X135676500Y-90618500D01*
X135658000Y-90626000D01*
X135639000Y-90632500D01*
X135620000Y-90637500D01*
X135600500Y-90642000D01*
X135581000Y-90645500D01*
X135561000Y-90648000D01*
X135541500Y-90649500D01*
X135521500Y-90650000D01*
X134921500Y-90650000D01*
X134901500Y-90649500D01*
X134881500Y-90648000D01*
X134861500Y-90645500D01*
X134842000Y-90642000D01*
X134822500Y-90637500D01*
X134803500Y-90632500D01*
X134784500Y-90626000D01*
X134766000Y-90618500D01*
X134748000Y-90610500D01*
X134730000Y-90601500D01*
X134712500Y-90591500D01*
X134696000Y-90580500D01*
X134680000Y-90569000D01*
X134664000Y-90556500D01*
X134649500Y-90543500D01*
X134635000Y-90529500D01*
X134621500Y-90514500D01*
X134608500Y-90499500D01*
X134596500Y-90483500D01*
X134585500Y-90467000D01*
X134575000Y-90450000D01*
X134565500Y-90432500D01*
X134556500Y-90414500D01*
X134549000Y-90396000D01*
X134542000Y-90377500D01*
X134536500Y-90358500D01*
X134531500Y-90339000D01*
X134527500Y-90319500D01*
X134524500Y-90300000D01*
X134522500Y-90280000D01*
X134521500Y-90260000D01*
X134521500Y-90240000D01*
X134522500Y-90220000D01*
X134524500Y-90200500D01*
X134527500Y-90180500D01*
X134531500Y-90161000D01*
X134536500Y-90141500D01*
X134542000Y-90122500D01*
X134549000Y-90104000D01*
X134556500Y-90085500D01*
X134565500Y-90067500D01*
X134575000Y-90050000D01*
X134585500Y-90033000D01*
X134596500Y-90016500D01*
X134608500Y-90000500D01*
X134621500Y-89985500D01*
X134635000Y-89970500D01*
X134649500Y-89957000D01*
X134664000Y-89943500D01*
X134680000Y-89931000D01*
X134696000Y-89919500D01*
X134712500Y-89908500D01*
X134730000Y-89899000D01*
X134748000Y-89889500D01*
X134766000Y-89881500D01*
X134784500Y-89874000D01*
X134803500Y-89868000D01*
X134822500Y-89862500D01*
X134842000Y-89858000D01*
X134861500Y-89854500D01*
X134881500Y-89852000D01*
X134901500Y-89850500D01*
X134921500Y-89850000D01*
X135521500Y-89850000D01*
X135541500Y-89850500D01*
G37*
G36*
X135541500Y-98830500D02*
G01*
X135561000Y-98832000D01*
X135581000Y-98834500D01*
X135600500Y-98838000D01*
X135620000Y-98842500D01*
X135639000Y-98847500D01*
X135658000Y-98854000D01*
X135676500Y-98861500D01*
X135695000Y-98869500D01*
X135712500Y-98878500D01*
X135730000Y-98888500D01*
X135746500Y-98899500D01*
X135763000Y-98911000D01*
X135778500Y-98923500D01*
X135793500Y-98936500D01*
X135807500Y-98950500D01*
X135821000Y-98965500D01*
X135834000Y-98980500D01*
X135846000Y-98996500D01*
X135857500Y-99013000D01*
X135867500Y-99030000D01*
X135877500Y-99047500D01*
X135886000Y-99065500D01*
X135893500Y-99084000D01*
X135900500Y-99102500D01*
X135906500Y-99121500D01*
X135911500Y-99141000D01*
X135915000Y-99160500D01*
X135918000Y-99180000D01*
X135920000Y-99200000D01*
X135921000Y-99220000D01*
X135921000Y-99240000D01*
X135920000Y-99260000D01*
X135918000Y-99279500D01*
X135915000Y-99299500D01*
X135911500Y-99319000D01*
X135906500Y-99338500D01*
X135900500Y-99357500D01*
X135893500Y-99376000D01*
X135886000Y-99394500D01*
X135877500Y-99412500D01*
X135867500Y-99430000D01*
X135857500Y-99447000D01*
X135846000Y-99463500D01*
X135834000Y-99479500D01*
X135821000Y-99494500D01*
X135807500Y-99509500D01*
X135793500Y-99523000D01*
X135778500Y-99536500D01*
X135763000Y-99549000D01*
X135746500Y-99560500D01*
X135730000Y-99571500D01*
X135712500Y-99581000D01*
X135695000Y-99590500D01*
X135676500Y-99598500D01*
X135658000Y-99606000D01*
X135639000Y-99612000D01*
X135620000Y-99617500D01*
X135600500Y-99622000D01*
X135581000Y-99625500D01*
X135561000Y-99628000D01*
X135541500Y-99629500D01*
X135521500Y-99630000D01*
X134921500Y-99630000D01*
X134901500Y-99629500D01*
X134881500Y-99628000D01*
X134861500Y-99625500D01*
X134842000Y-99622000D01*
X134822500Y-99617500D01*
X134803500Y-99612000D01*
X134784500Y-99606000D01*
X134766000Y-99598500D01*
X134748000Y-99590500D01*
X134730000Y-99581000D01*
X134712500Y-99571500D01*
X134696000Y-99560500D01*
X134680000Y-99549000D01*
X134664000Y-99536500D01*
X134649500Y-99523000D01*
X134635000Y-99509500D01*
X134621500Y-99494500D01*
X134608500Y-99479500D01*
X134596500Y-99463500D01*
X134585500Y-99447000D01*
X134575000Y-99430000D01*
X134565500Y-99412500D01*
X134556500Y-99394500D01*
X134549000Y-99376000D01*
X134542000Y-99357500D01*
X134536500Y-99338500D01*
X134531500Y-99319000D01*
X134527500Y-99299500D01*
X134524500Y-99279500D01*
X134522500Y-99260000D01*
X134521500Y-99240000D01*
X134521500Y-99220000D01*
X134522500Y-99200000D01*
X134524500Y-99180000D01*
X134527500Y-99160500D01*
X134531500Y-99141000D01*
X134536500Y-99121500D01*
X134542000Y-99102500D01*
X134549000Y-99084000D01*
X134556500Y-99065500D01*
X134565500Y-99047500D01*
X134575000Y-99030000D01*
X134585500Y-99013000D01*
X134596500Y-98996500D01*
X134608500Y-98980500D01*
X134621500Y-98965500D01*
X134635000Y-98950500D01*
X134649500Y-98936500D01*
X134664000Y-98923500D01*
X134680000Y-98911000D01*
X134696000Y-98899500D01*
X134712500Y-98888500D01*
X134730000Y-98878500D01*
X134748000Y-98869500D01*
X134766000Y-98861500D01*
X134784500Y-98854000D01*
X134803500Y-98847500D01*
X134822500Y-98842500D01*
X134842000Y-98838000D01*
X134861500Y-98834500D01*
X134881500Y-98832000D01*
X134901500Y-98830500D01*
X134921500Y-98830000D01*
X135521500Y-98830000D01*
X135541500Y-98830500D01*
G37*
%TD*%
D11*
%TO.C,R2*%
X116832161Y-96771175D03*
X117553409Y-96049927D03*
%TD*%
D12*
%TO.C,R30*%
X100015001Y-108450000D03*
X101034999Y-108450000D03*
%TD*%
D13*
%TO.C,R35*%
X126950000Y-90789976D03*
X126950000Y-91809974D03*
%TD*%
D14*
%TO.C,D2*%
X111456099Y-94192559D03*
X111944003Y-94680463D03*
%TD*%
D15*
%TO.C,U2*%
X121498788Y-116048427D03*
X121852342Y-115694873D03*
X122205895Y-115341320D03*
X122559449Y-114987766D03*
X122913002Y-114634213D03*
X123266555Y-114280660D03*
X123620109Y-113927106D03*
X123973662Y-113573553D03*
X124327215Y-113220000D03*
X124680769Y-112866446D03*
X125034322Y-112512893D03*
X125387876Y-112159339D03*
D16*
X125387876Y-110161763D03*
X125034322Y-109808209D03*
X124680769Y-109454656D03*
X124327215Y-109101102D03*
X123973662Y-108747549D03*
X123620109Y-108393996D03*
X123266555Y-108040442D03*
X122913002Y-107686889D03*
X122559449Y-107333336D03*
X122205895Y-106979782D03*
X121852342Y-106626229D03*
X121498788Y-106272675D03*
D15*
X119501212Y-106272675D03*
X119147658Y-106626229D03*
X118794105Y-106979782D03*
X118440551Y-107333336D03*
X118086998Y-107686889D03*
X117733445Y-108040442D03*
X117379891Y-108393996D03*
X117026338Y-108747549D03*
X116672785Y-109101102D03*
X116319231Y-109454656D03*
X115965678Y-109808209D03*
X115612124Y-110161763D03*
D16*
X115612124Y-112159339D03*
X115965678Y-112512893D03*
X116319231Y-112866446D03*
X116672785Y-113220000D03*
X117026338Y-113573553D03*
X117379891Y-113927106D03*
X117733445Y-114280660D03*
X118086998Y-114634213D03*
X118440551Y-114987766D03*
X118794105Y-115341320D03*
X119147658Y-115694873D03*
X119501212Y-116048427D03*
%TD*%
D17*
%TO.C,C13*%
X93280000Y-100615000D03*
X93280000Y-101305000D03*
%TD*%
D18*
%TO.C,U8*%
X100310000Y-99010000D03*
X100310000Y-97820000D03*
X99490000Y-99010000D03*
X99490000Y-97820000D03*
D19*
X101350000Y-99415000D03*
X101350000Y-98915000D03*
X101350000Y-98415000D03*
X101350000Y-97915000D03*
X101350000Y-97415000D03*
X98450000Y-97415000D03*
X98450000Y-97915000D03*
X98450000Y-98415000D03*
X98450000Y-98915000D03*
X98450000Y-99415000D03*
%TD*%
D20*
%TO.C,Q1*%
X115485208Y-87014625D03*
X116828711Y-88358128D03*
X117482785Y-86360551D03*
%TD*%
D21*
%TO.C,R23*%
X112510000Y-110560000D03*
X111490000Y-110560000D03*
%TD*%
D22*
%TO.C,R5*%
X113778752Y-89778752D03*
X114500000Y-90500000D03*
%TD*%
D23*
%TO.C,R10*%
X113644033Y-98041801D03*
X112922785Y-97320553D03*
%TD*%
D13*
%TO.C,R15*%
X108910000Y-125169999D03*
X108910000Y-126189999D03*
%TD*%
D12*
%TO.C,R25*%
X127385000Y-109030000D03*
X128405000Y-109030000D03*
%TD*%
D17*
%TO.C,C12*%
X94030000Y-100610000D03*
X94030000Y-101300000D03*
%TD*%
D24*
%TO.C,U9*%
X111417500Y-124595000D03*
X112667500Y-124595000D03*
X111417500Y-123345000D03*
X112667500Y-123345000D03*
D25*
X111042500Y-125907500D03*
X111542500Y-125907500D03*
X112042500Y-125907499D03*
X112542500Y-125907500D03*
X113042500Y-125907500D03*
D26*
X113980000Y-124970000D03*
X113980000Y-124470000D03*
X113979999Y-123970000D03*
X113980000Y-123470000D03*
X113980000Y-122970000D03*
D25*
X113042500Y-122032500D03*
X112542500Y-122032500D03*
X112042500Y-122032501D03*
X111542500Y-122032500D03*
X111042500Y-122032500D03*
D26*
X110105000Y-122970000D03*
X110105000Y-123470000D03*
X110105001Y-123970000D03*
X110105000Y-124470000D03*
X110105000Y-124970000D03*
%TD*%
D27*
%TO.C,J1*%
X128830500Y-97489500D03*
X128830500Y-96990000D03*
X128830500Y-96491000D03*
X128830500Y-95990500D03*
X128830500Y-95490500D03*
X128830500Y-94990000D03*
X128830500Y-94489500D03*
X128830500Y-93989000D03*
X128830500Y-93490000D03*
X128830500Y-92991000D03*
X128830500Y-92490500D03*
X128830500Y-91990000D03*
%TD*%
D28*
%TO.C,C6*%
X115805000Y-121390000D03*
X116495000Y-121390000D03*
%TD*%
D29*
%TO.C,R3*%
X115623409Y-95469927D03*
X114902161Y-96191175D03*
%TD*%
D30*
%TO.C,C9*%
X103000000Y-99690000D03*
X103000000Y-99000000D03*
%TD*%
D31*
%TO.C,Q4*%
X113062500Y-127550000D03*
X113062500Y-129450000D03*
X114937501Y-128500000D03*
%TD*%
D30*
%TO.C,D7*%
X126070000Y-91174974D03*
X126070000Y-90484974D03*
%TD*%
D21*
%TO.C,R1*%
X125969999Y-123090000D03*
X124950001Y-123090000D03*
%TD*%
D12*
%TO.C,R24*%
X103700000Y-113100000D03*
X104720000Y-113100000D03*
%TD*%
D30*
%TO.C,C8*%
X97140000Y-97930000D03*
X97140000Y-97240000D03*
%TD*%
D12*
%TO.C,R26*%
X127385000Y-110070000D03*
X128405000Y-110070000D03*
%TD*%
D13*
%TO.C,R33*%
X103560000Y-96945001D03*
X103560000Y-97964999D03*
%TD*%
D30*
%TO.C,C3*%
X107290000Y-112455000D03*
X107290000Y-111765000D03*
%TD*%
D13*
%TO.C,R34*%
X111500000Y-127990001D03*
X111500000Y-129009999D03*
%TD*%
D32*
%TO.C,R36*%
X122430000Y-124239999D03*
X122430000Y-123220001D03*
%TD*%
D33*
%TO.C,L1*%
X102560000Y-96950001D03*
X102560000Y-97920001D03*
%TD*%
D17*
%TO.C,C7*%
X110147500Y-119670000D03*
X110147500Y-120360000D03*
%TD*%
D34*
%TO.C,D6*%
X107280000Y-121587499D03*
X107280000Y-118787501D03*
%TD*%
D22*
%TO.C,R13*%
X108639376Y-100139376D03*
X109360624Y-100860624D03*
%TD*%
D12*
%TO.C,R17*%
X115490000Y-120500000D03*
X116510000Y-120500000D03*
%TD*%
D35*
%TO.C,U6*%
X111250000Y-115137500D03*
D36*
X111112500Y-116050000D03*
X111112500Y-116550000D03*
X111112500Y-117050000D03*
X111112500Y-117550000D03*
D35*
X111250000Y-118462500D03*
X111750000Y-118462500D03*
X112250000Y-118462500D03*
X112750000Y-118462500D03*
X113250000Y-118462500D03*
X113750000Y-118462500D03*
X114250000Y-118462500D03*
X114750000Y-118462500D03*
X115250000Y-118462500D03*
X115750000Y-118462500D03*
D36*
X115887500Y-117550000D03*
X115887500Y-117050000D03*
X115887500Y-116550000D03*
X115887500Y-116050000D03*
D35*
X115750000Y-115137500D03*
X115250000Y-115137500D03*
X114750000Y-115137500D03*
X114250000Y-115137500D03*
X113750000Y-115137500D03*
X113250000Y-115137500D03*
X112750000Y-115137500D03*
X112250000Y-115137500D03*
X111750000Y-115137500D03*
%TD*%
D23*
%TO.C,R9*%
X110945214Y-95378731D03*
X110223966Y-94657483D03*
%TD*%
D37*
%TO.C,STARBOARD_RGB1*%
X129900000Y-109020000D03*
D38*
X129900000Y-110070000D03*
D37*
X129900000Y-111120000D03*
X132950000Y-111120000D03*
D38*
X132950000Y-110070000D03*
D37*
X132950000Y-109020000D03*
%TD*%
D12*
%TO.C,R32*%
X131470000Y-101140000D03*
X132489998Y-101140000D03*
%TD*%
D39*
%TO.C,C2*%
X109830000Y-111160000D03*
X109140000Y-111160000D03*
%TD*%
D13*
%TO.C,R18*%
X111647500Y-119720000D03*
X111647500Y-120740000D03*
%TD*%
D23*
%TO.C,R21*%
X126791248Y-112251248D03*
X126070000Y-111530000D03*
%TD*%
D40*
%TO.C,U5*%
X119175001Y-119999999D03*
D41*
X118500001Y-119500000D03*
D40*
X119175001Y-119000001D03*
X117825001Y-119000001D03*
X117825001Y-119999999D03*
%TD*%
D13*
%TO.C,R31*%
X126970000Y-97490001D03*
X126970000Y-98509999D03*
%TD*%
D12*
%TO.C,R22*%
X112940002Y-109530000D03*
X113960000Y-109530000D03*
%TD*%
D42*
%TO.C,U10*%
X124890000Y-124137500D03*
X124390000Y-124137500D03*
D43*
X123877500Y-124400000D03*
X123877500Y-124900000D03*
X123877500Y-125400000D03*
D42*
X124390000Y-125662500D03*
X124890000Y-125662500D03*
D43*
X125402500Y-125400000D03*
X125402500Y-124900000D03*
X125402500Y-124400000D03*
%TD*%
D44*
%TO.C,U3*%
X127465192Y-122696196D03*
X128735192Y-122696196D03*
X130005192Y-122696196D03*
X131275192Y-122696196D03*
X131275192Y-117746196D03*
X130005192Y-117746196D03*
X128735192Y-117746196D03*
X127465192Y-117746196D03*
%TD*%
D14*
%TO.C,D3*%
X113842021Y-96358885D03*
X114329925Y-96846789D03*
%TD*%
D22*
%TO.C,R4*%
X111800814Y-93292767D03*
X112522062Y-94014015D03*
%TD*%
D32*
%TO.C,R8*%
X113500000Y-88009999D03*
X113500000Y-86990001D03*
%TD*%
D17*
%TO.C,C11*%
X107020000Y-125100000D03*
X107020000Y-125790000D03*
%TD*%
D12*
%TO.C,R28*%
X100025001Y-110530000D03*
X101044999Y-110530000D03*
%TD*%
D17*
%TO.C,C4*%
X108040000Y-122915000D03*
X108040000Y-123605000D03*
%TD*%
D13*
%TO.C,R19*%
X112647500Y-119720000D03*
X112647500Y-120740000D03*
%TD*%
D12*
%TO.C,R29*%
X100015001Y-109500000D03*
X101034999Y-109500000D03*
%TD*%
D11*
%TO.C,R7*%
X114799376Y-85890624D03*
X115520624Y-85169376D03*
%TD*%
D13*
%TO.C,R14*%
X108920000Y-122980001D03*
X108920000Y-123999999D03*
%TD*%
%TO.C,R20*%
X114500000Y-119720000D03*
X114500000Y-120740000D03*
%TD*%
D45*
%TO.C,Q3*%
X110206289Y-96754054D03*
X108862786Y-95410551D03*
X108208712Y-97408128D03*
%TD*%
D44*
%TO.C,U7*%
X94010000Y-118975000D03*
X95280000Y-118975000D03*
X96550000Y-118975000D03*
X97820000Y-118975000D03*
X99090000Y-118975000D03*
X100360000Y-118975000D03*
X101630000Y-118975000D03*
X101630000Y-114025000D03*
X100360000Y-114025000D03*
X99090000Y-114025000D03*
X97820000Y-114025000D03*
X96550000Y-114025000D03*
X95280000Y-114025000D03*
X94010000Y-114025000D03*
%TD*%
D39*
%TO.C,D5*%
X118165000Y-121000000D03*
X117475000Y-121000000D03*
%TD*%
D22*
%TO.C,R6*%
X114742161Y-88399927D03*
X115463409Y-89121175D03*
%TD*%
%TO.C,R11*%
X116141537Y-94679303D03*
X116862785Y-95400551D03*
%TD*%
D46*
%TO.C,C10*%
X100800000Y-103900000D03*
X95200000Y-103900000D03*
%TD*%
D47*
%TO.C,U4*%
X115800000Y-125027500D03*
X116750000Y-125027500D03*
X117700000Y-125027500D03*
X117700000Y-122752500D03*
X115800000Y-122752500D03*
%TD*%
D32*
%TO.C,R16*%
X107900000Y-126189999D03*
X107900000Y-125170001D03*
%TD*%
D48*
%TO.C,PORTSIDE_RGB1*%
X98525000Y-110550000D03*
D49*
X98525000Y-109500000D03*
D48*
X98525000Y-108450000D03*
X95475000Y-108450000D03*
D49*
X95475000Y-109500000D03*
D48*
X95475000Y-110550000D03*
%TD*%
D45*
%TO.C,Q2*%
X112708884Y-99217364D03*
X111365381Y-97873861D03*
X110711307Y-99871438D03*
%TD*%
D50*
%TO.C,U1*%
X118888781Y-92077346D03*
X117969542Y-91158107D03*
X117969542Y-92996585D03*
X117050303Y-92077346D03*
D51*
X120223445Y-91591210D03*
X119869891Y-91237657D03*
X119516338Y-90884103D03*
X119162785Y-90530550D03*
X118809231Y-90176997D03*
X118455678Y-89823443D03*
D52*
X117483406Y-89823443D03*
X117129853Y-90176997D03*
X116776299Y-90530550D03*
X116422746Y-90884103D03*
X116069193Y-91237657D03*
X115715639Y-91591210D03*
D51*
X115715639Y-92563482D03*
X116069193Y-92917035D03*
X116422746Y-93270589D03*
X116776299Y-93624142D03*
X117129853Y-93977695D03*
X117483406Y-94331249D03*
D52*
X118455678Y-94331249D03*
X118809231Y-93977695D03*
X119162785Y-93624142D03*
X119516338Y-93270589D03*
X119869891Y-92917035D03*
X120223445Y-92563482D03*
%TD*%
D23*
%TO.C,R12*%
X107860624Y-99360624D03*
X107139376Y-98639376D03*
%TD*%
D53*
%TO.C,J3*%
X93855000Y-131635000D03*
X93855000Y-130535000D03*
X93855000Y-129435000D03*
X93855000Y-128335000D03*
X93855000Y-127235000D03*
X93855000Y-126135000D03*
X93855000Y-125035000D03*
X93855000Y-123935000D03*
D54*
X103080000Y-122810000D03*
D55*
X104655000Y-134035000D03*
D56*
X101580000Y-122485000D03*
D57*
X93980000Y-122735000D03*
D58*
X93980000Y-134085000D03*
D59*
X102230000Y-134435000D03*
%TD*%
D60*
%TO.C,D1*%
X123800000Y-95500000D03*
D61*
X125500000Y-95500000D03*
X125500000Y-93500000D03*
X123600000Y-93500000D03*
%TD*%
D12*
%TO.C,R27*%
X127385000Y-111120000D03*
X128405000Y-111120000D03*
%TD*%
D39*
%TO.C,C5*%
X107280000Y-124220000D03*
X106590000Y-124220000D03*
%TD*%
M02*
