%TF.GenerationSoftware,KiCad,Pcbnew,8.0.8*%
%TF.CreationDate,2025-02-27T11:16:46-08:00*%
%TF.ProjectId,Vanguard_new,56616e67-7561-4726-945f-6e65772e6b69,rev?*%
%TF.SameCoordinates,Original*%
%TF.FileFunction,Copper,L2,Inr*%
%TF.FilePolarity,Positive*%
%FSLAX46Y46*%
G04 Gerber Fmt 4.6, Leading zero omitted, Abs format (unit mm)*
G04 Created by KiCad (PCBNEW 8.0.8) date 2025-02-27 11:16:46*
%MOMM*%
%LPD*%
G01*
G04 APERTURE LIST*
G04 Aperture macros list*
%AMRoundRect*
0 Rectangle with rounded corners*
0 $1 Rounding radius*
0 $2 $3 $4 $5 $6 $7 $8 $9 X,Y pos of 4 corners*
0 Add a 4 corners polygon primitive as box body*
4,1,4,$2,$3,$4,$5,$6,$7,$8,$9,$2,$3,0*
0 Add four circle primitives for the rounded corners*
1,1,$1+$1,$2,$3*
1,1,$1+$1,$4,$5*
1,1,$1+$1,$6,$7*
1,1,$1+$1,$8,$9*
0 Add four rect primitives between the rounded corners*
20,1,$1+$1,$2,$3,$4,$5,0*
20,1,$1+$1,$4,$5,$6,$7,0*
20,1,$1+$1,$6,$7,$8,$9,0*
20,1,$1+$1,$8,$9,$2,$3,0*%
G04 Aperture macros list end*
%TA.AperFunction,ComponentPad*%
%ADD10R,1.700000X1.700000*%
%TD*%
%TA.AperFunction,ComponentPad*%
%ADD11O,1.700000X1.700000*%
%TD*%
%TA.AperFunction,HeatsinkPad*%
%ADD12C,0.500000*%
%TD*%
%TA.AperFunction,ComponentPad*%
%ADD13C,0.700000*%
%TD*%
%TA.AperFunction,ComponentPad*%
%ADD14O,2.400000X0.900000*%
%TD*%
%TA.AperFunction,ComponentPad*%
%ADD15O,1.700000X0.900000*%
%TD*%
%TA.AperFunction,ComponentPad*%
%ADD16C,1.000000*%
%TD*%
%TA.AperFunction,ComponentPad*%
%ADD17R,1.600000X1.600000*%
%TD*%
%TA.AperFunction,ComponentPad*%
%ADD18C,1.600000*%
%TD*%
%TA.AperFunction,ComponentPad*%
%ADD19RoundRect,0.250000X0.625000X-0.350000X0.625000X0.350000X-0.625000X0.350000X-0.625000X-0.350000X0*%
%TD*%
%TA.AperFunction,ComponentPad*%
%ADD20O,1.750000X1.200000*%
%TD*%
%TA.AperFunction,ViaPad*%
%ADD21C,0.600000*%
%TD*%
%TA.AperFunction,ViaPad*%
%ADD22C,0.800000*%
%TD*%
%TA.AperFunction,ViaPad*%
%ADD23C,1.000000*%
%TD*%
G04 APERTURE END LIST*
D10*
%TO.N,PORT_SERVO*%
%TO.C,J5*%
X105000000Y-86420000D03*
D11*
%TO.N,+5V*%
X105000000Y-88960000D03*
%TO.N,GND*%
X105000000Y-91500000D03*
%TD*%
D12*
%TO.N,BATT_IN*%
%TO.C,U8*%
X100475000Y-99355000D03*
X100475000Y-97475000D03*
X100474999Y-98415000D03*
X99325001Y-98415000D03*
X99325000Y-99355000D03*
X99325000Y-97475000D03*
%TD*%
D10*
%TO.N,STAR_SERVO*%
%TO.C,J4*%
X101350000Y-86420000D03*
D11*
%TO.N,+5V*%
X101350000Y-88960000D03*
%TO.N,GND*%
X101350000Y-91500000D03*
%TD*%
D12*
%TO.N,N/C*%
%TO.C,U9*%
X111042500Y-124970000D03*
X113042500Y-124970000D03*
X111042500Y-122970000D03*
X113042500Y-122970000D03*
%TD*%
D13*
%TO.N,GND*%
%TO.C,J1*%
X128550000Y-98204974D03*
%TO.N,BATT_IN*%
X128550000Y-97354974D03*
%TO.N,Net-(J1-CC1)*%
X128550000Y-96504973D03*
%TO.N,Net-(D1-I{slash}O1)*%
X128550000Y-95654974D03*
%TO.N,Net-(D1-I{slash}O2)*%
X128550000Y-94804974D03*
%TO.N,unconnected-(J1-SBU1-PadA8)*%
X128550000Y-93954974D03*
%TO.N,BATT_IN*%
X128550000Y-93104973D03*
%TO.N,GND*%
X128550000Y-92254974D03*
X129900000Y-92254974D03*
%TO.N,BATT_IN*%
X129900000Y-93104974D03*
%TO.N,Net-(J1-CC2)*%
X129900000Y-93954974D03*
%TO.N,Net-(D1-I{slash}O1)*%
X129900000Y-94804974D03*
%TO.N,Net-(D1-I{slash}O2)*%
X129900000Y-95654974D03*
%TO.N,unconnected-(J1-SBU2-PadB8)*%
X129900000Y-96504974D03*
%TO.N,BATT_IN*%
X129900000Y-97354974D03*
%TO.N,GND*%
X129900000Y-98204974D03*
D14*
%TO.N,unconnected-(J1-SHIELD-PadS1)*%
X129530000Y-99554974D03*
D15*
X132910000Y-99554974D03*
D14*
X129530000Y-90904974D03*
D15*
X132910000Y-90904974D03*
%TD*%
D16*
%TO.N,Net-(U6-XOUT32{slash}CLKSEL1)*%
%TO.C,Y1*%
X110330000Y-113300000D03*
%TO.N,Net-(U6-XIN32)*%
X108430000Y-113300000D03*
%TD*%
D17*
%TO.N,Net-(BZ1-+)*%
%TO.C,BZ1*%
X119500000Y-132500000D03*
D18*
%TO.N,GND*%
X119500000Y-129300000D03*
%TD*%
D10*
%TO.N,EJEC_SERVO*%
%TO.C,J7*%
X108650000Y-86425000D03*
D11*
%TO.N,+5V*%
X108650000Y-88965000D03*
%TO.N,GND*%
X108650000Y-91505000D03*
%TD*%
D19*
%TO.N,BATT_IN*%
%TO.C,J6*%
X94950000Y-94000000D03*
D20*
%TO.N,GND*%
X94950000Y-91999999D03*
%TD*%
D10*
%TO.N,+3.3V*%
%TO.C,J2*%
X126920000Y-106040000D03*
D11*
%TO.N,Net-(J2-Pin_2)*%
X126920000Y-103500000D03*
%TO.N,Net-(J2-Pin_3)*%
X129460000Y-106040000D03*
%TO.N,UPDI*%
X129460000Y-103500000D03*
%TO.N,GND*%
X131999999Y-106040000D03*
%TO.N,Net-(J2-Pin_6)*%
X132000000Y-103500000D03*
%TD*%
D21*
%TO.N,Net-(ADR1-B)*%
X111490000Y-112090000D03*
X114230000Y-116480000D03*
%TO.N,GND*%
X106880000Y-126680000D03*
X95200000Y-102890000D03*
X121688001Y-92866731D03*
X106351054Y-123678946D03*
X101630000Y-120490000D03*
X110000000Y-116000000D03*
X108605000Y-111490000D03*
X101490000Y-96665000D03*
X131400000Y-109070000D03*
X120000000Y-119500000D03*
X107310000Y-111230000D03*
X111500000Y-127000000D03*
X131790000Y-111130000D03*
X116370000Y-107460000D03*
X122500000Y-95500000D03*
X123700000Y-123737550D03*
X111544975Y-113415025D03*
X96500000Y-96000000D03*
X133260000Y-101140000D03*
X112443578Y-121509968D03*
X103392892Y-100357108D03*
X119500000Y-122500000D03*
X118552785Y-96210551D03*
X131000000Y-124500000D03*
X98250000Y-96665000D03*
X118813342Y-112090188D03*
X126760000Y-129960000D03*
X124502415Y-106493668D03*
D22*
X99000000Y-94000000D03*
D21*
X95538236Y-126818235D03*
X107340001Y-122970834D03*
X127000000Y-99500000D03*
X111500000Y-130500000D03*
X126662239Y-125886924D03*
X93670000Y-101840000D03*
X116600000Y-123500000D03*
X97780000Y-99470000D03*
X110827501Y-120000000D03*
X96600000Y-109470000D03*
X105720000Y-133250000D03*
X113250000Y-117500000D03*
%TO.N,BATT_IN*%
X103760000Y-118010000D03*
X108589265Y-94060735D03*
X118660000Y-88390000D03*
%TO.N,Net-(U6-XIN32)*%
X113325735Y-116674265D03*
X110357930Y-114800000D03*
%TO.N,Net-(D6-K)*%
X115770000Y-126090000D03*
X106330000Y-125330000D03*
%TO.N,+3.3V*%
X117231316Y-97127905D03*
X127000000Y-125000000D03*
X117600868Y-115898172D03*
X110180000Y-117100000D03*
X112557215Y-106362785D03*
X115485208Y-87014625D03*
X110920000Y-120900000D03*
X120490000Y-125910000D03*
X107171766Y-100728235D03*
X120700000Y-123710000D03*
X115150000Y-122390000D03*
X126740000Y-112030000D03*
X120964265Y-110035735D03*
X111410000Y-92670000D03*
X112929986Y-100159985D03*
X109000000Y-115500000D03*
X115568241Y-96684748D03*
X125490000Y-114364407D03*
X120740000Y-92130000D03*
X115574265Y-107225735D03*
X123254873Y-109757862D03*
X115070000Y-105981473D03*
X113333949Y-110544627D03*
X111689542Y-96045548D03*
X104360000Y-114745597D03*
%TO.N,Net-(U6-CAP)*%
X112325000Y-117624998D03*
X110247500Y-118500000D03*
%TO.N,Net-(D1-I{slash}O1)*%
X121000000Y-94204974D03*
X121000000Y-96000000D03*
%TO.N,Net-(J2-Pin_3)*%
X118300121Y-94352469D03*
%TO.N,Net-(J2-Pin_2)*%
X115947058Y-97540703D03*
X119207327Y-94858519D03*
%TO.N,UPDI*%
X117770111Y-112829780D03*
X119550000Y-86400000D03*
%TO.N,CD*%
X122000000Y-109000000D03*
X100500000Y-134500000D03*
%TO.N,TX0*%
X118538659Y-109411341D03*
X114290000Y-101458530D03*
%TO.N,RX0*%
X127921415Y-108242831D03*
X127940000Y-113463741D03*
%TO.N,Net-(U6-ENV_SCL)*%
X113500000Y-120000000D03*
X115869783Y-118884646D03*
%TO.N,SDA*%
X119765108Y-113794891D03*
X125700000Y-111900000D03*
X122208881Y-113006135D03*
X120080000Y-120300000D03*
X115610000Y-114200000D03*
%TO.N,SCL*%
X114520000Y-109110000D03*
X115327972Y-115974999D03*
X120879999Y-120298528D03*
X115240000Y-111640000D03*
X114765549Y-112864493D03*
X116376999Y-115236978D03*
%TO.N,Net-(U6-~{BOOT})*%
X112276617Y-116764533D03*
X105060000Y-114145597D03*
%TO.N,EJEC_SERVO*%
X114290000Y-114130000D03*
%TO.N,PA1{slash}MOSI*%
X124108528Y-117950000D03*
X131270000Y-119050000D03*
%TO.N,D5*%
X118000000Y-104500000D03*
X120000000Y-104000000D03*
%TO.N,D6*%
X117371057Y-105128943D03*
X120500000Y-105000000D03*
%TO.N,BUZZER*%
X120080000Y-121500000D03*
X124724296Y-107758655D03*
%TO.N,PA0{slash}MISO*%
X123508528Y-120297000D03*
X123508528Y-116410000D03*
%TO.N,D4*%
X116496793Y-105103207D03*
X102650000Y-115460000D03*
X120438792Y-106061208D03*
X98405030Y-115219331D03*
%TO.N,HOLD*%
X126302891Y-118207105D03*
X121037059Y-111949092D03*
%TO.N,PORT_SERVO*%
X119630000Y-109550000D03*
%TO.N,STAR_BLUE*%
X126367693Y-109398621D03*
X124670000Y-114870000D03*
%TO.N,STAR_SERVO*%
X114500000Y-111213325D03*
%TO.N,PORT_GREEN*%
X117861577Y-111138423D03*
X113863530Y-103100000D03*
%TO.N,PORT_RED*%
X115705735Y-102874265D03*
X119401471Y-108540000D03*
%TO.N,PORT_BLUE*%
X115337633Y-108686163D03*
X112500000Y-103500000D03*
%TO.N,+5V*%
X102823000Y-93980000D03*
D23*
X100800000Y-103900000D03*
D21*
%TO.N,Net-(J1-CC2)*%
X130830000Y-101080000D03*
%TD*%
%TA.AperFunction,Conductor*%
%TO.N,GND*%
G36*
X134095324Y-84490736D02*
G01*
X134141079Y-84543540D01*
X134152285Y-84595051D01*
X134152285Y-90615202D01*
X134132600Y-90682241D01*
X134079796Y-90727996D01*
X134010638Y-90737940D01*
X133947082Y-90708915D01*
X133913724Y-90662655D01*
X133886466Y-90596850D01*
X133886466Y-90596849D01*
X133886465Y-90596847D01*
X133886463Y-90596844D01*
X133886461Y-90596840D01*
X133815276Y-90490305D01*
X133815273Y-90490301D01*
X133724672Y-90399700D01*
X133724668Y-90399697D01*
X133618133Y-90328512D01*
X133618124Y-90328507D01*
X133499744Y-90279473D01*
X133499738Y-90279471D01*
X133374071Y-90254474D01*
X133374069Y-90254474D01*
X132445931Y-90254474D01*
X132445929Y-90254474D01*
X132320261Y-90279471D01*
X132320255Y-90279473D01*
X132201875Y-90328507D01*
X132201866Y-90328512D01*
X132095331Y-90399697D01*
X132095327Y-90399700D01*
X132004726Y-90490301D01*
X132004723Y-90490305D01*
X131933538Y-90596840D01*
X131933533Y-90596849D01*
X131884499Y-90715229D01*
X131884497Y-90715235D01*
X131859500Y-90840902D01*
X131859500Y-90840905D01*
X131859500Y-90969043D01*
X131859500Y-90969045D01*
X131859499Y-90969045D01*
X131884497Y-91094712D01*
X131884499Y-91094718D01*
X131933533Y-91213098D01*
X131933538Y-91213107D01*
X132004723Y-91319642D01*
X132004726Y-91319646D01*
X132095327Y-91410247D01*
X132095331Y-91410250D01*
X132201866Y-91481435D01*
X132201872Y-91481438D01*
X132201873Y-91481439D01*
X132320256Y-91530475D01*
X132320260Y-91530475D01*
X132320261Y-91530476D01*
X132445928Y-91555474D01*
X132445931Y-91555474D01*
X133374071Y-91555474D01*
X133458615Y-91538656D01*
X133499744Y-91530475D01*
X133618127Y-91481439D01*
X133724669Y-91410250D01*
X133815276Y-91319643D01*
X133886465Y-91213101D01*
X133913724Y-91147291D01*
X133957565Y-91092889D01*
X134023859Y-91070824D01*
X134091558Y-91088103D01*
X134139169Y-91139240D01*
X134152285Y-91194745D01*
X134152285Y-99265202D01*
X134132600Y-99332241D01*
X134079796Y-99377996D01*
X134010638Y-99387940D01*
X133947082Y-99358915D01*
X133913724Y-99312655D01*
X133886466Y-99246850D01*
X133886466Y-99246849D01*
X133886465Y-99246847D01*
X133886462Y-99246842D01*
X133886461Y-99246840D01*
X133815276Y-99140305D01*
X133815273Y-99140301D01*
X133724672Y-99049700D01*
X133724668Y-99049697D01*
X133618133Y-98978512D01*
X133618124Y-98978507D01*
X133499744Y-98929473D01*
X133499738Y-98929471D01*
X133374071Y-98904474D01*
X133374069Y-98904474D01*
X132445931Y-98904474D01*
X132445929Y-98904474D01*
X132320261Y-98929471D01*
X132320255Y-98929473D01*
X132201875Y-98978507D01*
X132201866Y-98978512D01*
X132095331Y-99049697D01*
X132095327Y-99049700D01*
X132004726Y-99140301D01*
X132004723Y-99140305D01*
X131933538Y-99246840D01*
X131933533Y-99246849D01*
X131884499Y-99365229D01*
X131884497Y-99365235D01*
X131859500Y-99490902D01*
X131859500Y-99490905D01*
X131859500Y-99619043D01*
X131859500Y-99619045D01*
X131859499Y-99619045D01*
X131884497Y-99744712D01*
X131884499Y-99744718D01*
X131933533Y-99863098D01*
X131933538Y-99863107D01*
X132004723Y-99969642D01*
X132004726Y-99969646D01*
X132095327Y-100060247D01*
X132095331Y-100060250D01*
X132201866Y-100131435D01*
X132201872Y-100131438D01*
X132201873Y-100131439D01*
X132320256Y-100180475D01*
X132320260Y-100180475D01*
X132320261Y-100180476D01*
X132445928Y-100205474D01*
X132445931Y-100205474D01*
X133374071Y-100205474D01*
X133458615Y-100188656D01*
X133499744Y-100180475D01*
X133618127Y-100131439D01*
X133724669Y-100060250D01*
X133815276Y-99969643D01*
X133886465Y-99863101D01*
X133913724Y-99797291D01*
X133957565Y-99742889D01*
X134023859Y-99720824D01*
X134091558Y-99738103D01*
X134139169Y-99789240D01*
X134152285Y-99844745D01*
X134152285Y-135216051D01*
X134132600Y-135283090D01*
X134079796Y-135328845D01*
X134028285Y-135340051D01*
X93007285Y-135340051D01*
X92940246Y-135320366D01*
X92894491Y-135267562D01*
X92883285Y-135216051D01*
X92883285Y-134500000D01*
X99994353Y-134500000D01*
X100014834Y-134642456D01*
X100074622Y-134773371D01*
X100074623Y-134773373D01*
X100168872Y-134882143D01*
X100289947Y-134959953D01*
X100289950Y-134959954D01*
X100289949Y-134959954D01*
X100428036Y-135000499D01*
X100428038Y-135000500D01*
X100428039Y-135000500D01*
X100571962Y-135000500D01*
X100571962Y-135000499D01*
X100710053Y-134959953D01*
X100831128Y-134882143D01*
X100925377Y-134773373D01*
X100985165Y-134642457D01*
X101005647Y-134500000D01*
X100985165Y-134357543D01*
X100925377Y-134226627D01*
X100831128Y-134117857D01*
X100710053Y-134040047D01*
X100710051Y-134040046D01*
X100710049Y-134040045D01*
X100710050Y-134040045D01*
X100571963Y-133999500D01*
X100571961Y-133999500D01*
X100428039Y-133999500D01*
X100428036Y-133999500D01*
X100289949Y-134040045D01*
X100168873Y-134117856D01*
X100074623Y-134226626D01*
X100074622Y-134226628D01*
X100014834Y-134357543D01*
X99994353Y-134500000D01*
X92883285Y-134500000D01*
X92883285Y-131680247D01*
X118499500Y-131680247D01*
X118499500Y-133319752D01*
X118511131Y-133378229D01*
X118511132Y-133378230D01*
X118555447Y-133444552D01*
X118621769Y-133488867D01*
X118621770Y-133488868D01*
X118680247Y-133500499D01*
X118680250Y-133500500D01*
X118680252Y-133500500D01*
X120319750Y-133500500D01*
X120319751Y-133500499D01*
X120334568Y-133497552D01*
X120378229Y-133488868D01*
X120378229Y-133488867D01*
X120378231Y-133488867D01*
X120444552Y-133444552D01*
X120488867Y-133378231D01*
X120488867Y-133378229D01*
X120488868Y-133378229D01*
X120500499Y-133319752D01*
X120500500Y-133319750D01*
X120500500Y-132691577D01*
X130199500Y-132691577D01*
X130199500Y-132888422D01*
X130230290Y-133082826D01*
X130291117Y-133270029D01*
X130346249Y-133378231D01*
X130380476Y-133445405D01*
X130496172Y-133604646D01*
X130635354Y-133743828D01*
X130794595Y-133859524D01*
X130877455Y-133901743D01*
X130969970Y-133948882D01*
X130969972Y-133948882D01*
X130969975Y-133948884D01*
X131070317Y-133981487D01*
X131157173Y-134009709D01*
X131351578Y-134040500D01*
X131351583Y-134040500D01*
X131548422Y-134040500D01*
X131742826Y-134009709D01*
X131774246Y-133999500D01*
X131930025Y-133948884D01*
X132105405Y-133859524D01*
X132264646Y-133743828D01*
X132403828Y-133604646D01*
X132519524Y-133445405D01*
X132608884Y-133270025D01*
X132669709Y-133082826D01*
X132700500Y-132888422D01*
X132700500Y-132691577D01*
X132669709Y-132497173D01*
X132608882Y-132309970D01*
X132519523Y-132134594D01*
X132403828Y-131975354D01*
X132264646Y-131836172D01*
X132105405Y-131720476D01*
X131930029Y-131631117D01*
X131742826Y-131570290D01*
X131548422Y-131539500D01*
X131548417Y-131539500D01*
X131351583Y-131539500D01*
X131351578Y-131539500D01*
X131157173Y-131570290D01*
X130969970Y-131631117D01*
X130794594Y-131720476D01*
X130703741Y-131786485D01*
X130635354Y-131836172D01*
X130635352Y-131836174D01*
X130635351Y-131836174D01*
X130496174Y-131975351D01*
X130496174Y-131975352D01*
X130496172Y-131975354D01*
X130446485Y-132043741D01*
X130380476Y-132134594D01*
X130291117Y-132309970D01*
X130230290Y-132497173D01*
X130199500Y-132691577D01*
X120500500Y-132691577D01*
X120500500Y-131680249D01*
X120500499Y-131680247D01*
X120488868Y-131621770D01*
X120488867Y-131621769D01*
X120444552Y-131555447D01*
X120378230Y-131511132D01*
X120378229Y-131511131D01*
X120319752Y-131499500D01*
X120319748Y-131499500D01*
X118680252Y-131499500D01*
X118680247Y-131499500D01*
X118621770Y-131511131D01*
X118621769Y-131511132D01*
X118555447Y-131555447D01*
X118511132Y-131621769D01*
X118511131Y-131621770D01*
X118499500Y-131680247D01*
X92883285Y-131680247D01*
X92883285Y-129299997D01*
X118195034Y-129299997D01*
X118195034Y-129300002D01*
X118214858Y-129526599D01*
X118214860Y-129526610D01*
X118273730Y-129746317D01*
X118273735Y-129746331D01*
X118369863Y-129952478D01*
X118420974Y-130025472D01*
X119017037Y-129429408D01*
X119034075Y-129492993D01*
X119099901Y-129607007D01*
X119192993Y-129700099D01*
X119307007Y-129765925D01*
X119370590Y-129782962D01*
X118774526Y-130379025D01*
X118847513Y-130430132D01*
X118847521Y-130430136D01*
X119053668Y-130526264D01*
X119053682Y-130526269D01*
X119273389Y-130585139D01*
X119273400Y-130585141D01*
X119499998Y-130604966D01*
X119500002Y-130604966D01*
X119726599Y-130585141D01*
X119726610Y-130585139D01*
X119946317Y-130526269D01*
X119946331Y-130526264D01*
X120152478Y-130430136D01*
X120225471Y-130379024D01*
X119629409Y-129782962D01*
X119692993Y-129765925D01*
X119807007Y-129700099D01*
X119900099Y-129607007D01*
X119965925Y-129492993D01*
X119982962Y-129429409D01*
X120579024Y-130025471D01*
X120630136Y-129952478D01*
X120726264Y-129746331D01*
X120726269Y-129746317D01*
X120785139Y-129526610D01*
X120785141Y-129526599D01*
X120804966Y-129300002D01*
X120804966Y-129299997D01*
X120785141Y-129073400D01*
X120785139Y-129073389D01*
X120726269Y-128853682D01*
X120726264Y-128853668D01*
X120630136Y-128647521D01*
X120630132Y-128647513D01*
X120579025Y-128574526D01*
X119982962Y-129170589D01*
X119965925Y-129107007D01*
X119900099Y-128992993D01*
X119807007Y-128899901D01*
X119692993Y-128834075D01*
X119629408Y-128817037D01*
X120225472Y-128220974D01*
X120152478Y-128169863D01*
X119946331Y-128073735D01*
X119946317Y-128073730D01*
X119726610Y-128014860D01*
X119726599Y-128014858D01*
X119500002Y-127995034D01*
X119499998Y-127995034D01*
X119273400Y-128014858D01*
X119273389Y-128014860D01*
X119053682Y-128073730D01*
X119053673Y-128073734D01*
X118847516Y-128169866D01*
X118847512Y-128169868D01*
X118774526Y-128220973D01*
X118774526Y-128220974D01*
X119370590Y-128817037D01*
X119307007Y-128834075D01*
X119192993Y-128899901D01*
X119099901Y-128992993D01*
X119034075Y-129107007D01*
X119017037Y-129170590D01*
X118420974Y-128574526D01*
X118420973Y-128574526D01*
X118369868Y-128647512D01*
X118369866Y-128647516D01*
X118273734Y-128853673D01*
X118273730Y-128853682D01*
X118214860Y-129073389D01*
X118214858Y-129073400D01*
X118195034Y-129299997D01*
X92883285Y-129299997D01*
X92883285Y-126090000D01*
X115264353Y-126090000D01*
X115284834Y-126232456D01*
X115312093Y-126292143D01*
X115344623Y-126363373D01*
X115438872Y-126472143D01*
X115559947Y-126549953D01*
X115559950Y-126549954D01*
X115559949Y-126549954D01*
X115698036Y-126590499D01*
X115698038Y-126590500D01*
X115698039Y-126590500D01*
X115841962Y-126590500D01*
X115841962Y-126590499D01*
X115980053Y-126549953D01*
X116101128Y-126472143D01*
X116195377Y-126363373D01*
X116255165Y-126232457D01*
X116275647Y-126090000D01*
X116255165Y-125947543D01*
X116238019Y-125910000D01*
X119984353Y-125910000D01*
X120004834Y-126052456D01*
X120064622Y-126183371D01*
X120064623Y-126183373D01*
X120158872Y-126292143D01*
X120279947Y-126369953D01*
X120279950Y-126369954D01*
X120279949Y-126369954D01*
X120418036Y-126410499D01*
X120418038Y-126410500D01*
X120418039Y-126410500D01*
X120561962Y-126410500D01*
X120561962Y-126410499D01*
X120700053Y-126369953D01*
X120821128Y-126292143D01*
X120915377Y-126183373D01*
X120975165Y-126052457D01*
X120995647Y-125910000D01*
X120975165Y-125767543D01*
X120915377Y-125636627D01*
X120821128Y-125527857D01*
X120700053Y-125450047D01*
X120700051Y-125450046D01*
X120700049Y-125450045D01*
X120700050Y-125450045D01*
X120561963Y-125409500D01*
X120561961Y-125409500D01*
X120418039Y-125409500D01*
X120418036Y-125409500D01*
X120279949Y-125450045D01*
X120158873Y-125527856D01*
X120064623Y-125636626D01*
X120064622Y-125636628D01*
X120004834Y-125767543D01*
X119984353Y-125910000D01*
X116238019Y-125910000D01*
X116195377Y-125816627D01*
X116101128Y-125707857D01*
X115980053Y-125630047D01*
X115980051Y-125630046D01*
X115980049Y-125630045D01*
X115980050Y-125630045D01*
X115841963Y-125589500D01*
X115841961Y-125589500D01*
X115698039Y-125589500D01*
X115698036Y-125589500D01*
X115559949Y-125630045D01*
X115438873Y-125707856D01*
X115344623Y-125816626D01*
X115344622Y-125816628D01*
X115284834Y-125947543D01*
X115264353Y-126090000D01*
X92883285Y-126090000D01*
X92883285Y-125330000D01*
X105824353Y-125330000D01*
X105844834Y-125472456D01*
X105898287Y-125589500D01*
X105904623Y-125603373D01*
X105998872Y-125712143D01*
X106119947Y-125789953D01*
X106119950Y-125789954D01*
X106119949Y-125789954D01*
X106258036Y-125830499D01*
X106258038Y-125830500D01*
X106258039Y-125830500D01*
X106401962Y-125830500D01*
X106401962Y-125830499D01*
X106540053Y-125789953D01*
X106661128Y-125712143D01*
X106755377Y-125603373D01*
X106815165Y-125472457D01*
X106835647Y-125330000D01*
X106815165Y-125187543D01*
X106755377Y-125056627D01*
X106680315Y-124970000D01*
X110587367Y-124970000D01*
X110605802Y-125098225D01*
X110646593Y-125187543D01*
X110659618Y-125216063D01*
X110744451Y-125313967D01*
X110853431Y-125384004D01*
X110940265Y-125409500D01*
X110977725Y-125420499D01*
X110977727Y-125420500D01*
X110977728Y-125420500D01*
X111107273Y-125420500D01*
X111107273Y-125420499D01*
X111231569Y-125384004D01*
X111340549Y-125313967D01*
X111425382Y-125216063D01*
X111479197Y-125098226D01*
X111497633Y-124970000D01*
X112587367Y-124970000D01*
X112605802Y-125098225D01*
X112646593Y-125187543D01*
X112659618Y-125216063D01*
X112744451Y-125313967D01*
X112853431Y-125384004D01*
X112940265Y-125409500D01*
X112977725Y-125420499D01*
X112977727Y-125420500D01*
X112977728Y-125420500D01*
X113107273Y-125420500D01*
X113107273Y-125420499D01*
X113231569Y-125384004D01*
X113340549Y-125313967D01*
X113425382Y-125216063D01*
X113479197Y-125098226D01*
X113493320Y-125000000D01*
X126494353Y-125000000D01*
X126514834Y-125142456D01*
X126548450Y-125216063D01*
X126574623Y-125273373D01*
X126668872Y-125382143D01*
X126789947Y-125459953D01*
X126789950Y-125459954D01*
X126789949Y-125459954D01*
X126928036Y-125500499D01*
X126928038Y-125500500D01*
X126928039Y-125500500D01*
X127071962Y-125500500D01*
X127071962Y-125500499D01*
X127210053Y-125459953D01*
X127331128Y-125382143D01*
X127425377Y-125273373D01*
X127485165Y-125142457D01*
X127505647Y-125000000D01*
X127485165Y-124857543D01*
X127425377Y-124726627D01*
X127331128Y-124617857D01*
X127210053Y-124540047D01*
X127210051Y-124540046D01*
X127210049Y-124540045D01*
X127210050Y-124540045D01*
X127071963Y-124499500D01*
X127071961Y-124499500D01*
X126928039Y-124499500D01*
X126928036Y-124499500D01*
X126789949Y-124540045D01*
X126668873Y-124617856D01*
X126574623Y-124726626D01*
X126574622Y-124726628D01*
X126514834Y-124857543D01*
X126494353Y-125000000D01*
X113493320Y-125000000D01*
X113497633Y-124970000D01*
X113479197Y-124841774D01*
X113425382Y-124723937D01*
X113340549Y-124626033D01*
X113231569Y-124555996D01*
X113231565Y-124555994D01*
X113231564Y-124555994D01*
X113107274Y-124519500D01*
X113107272Y-124519500D01*
X112977728Y-124519500D01*
X112977726Y-124519500D01*
X112853435Y-124555994D01*
X112853432Y-124555995D01*
X112853431Y-124555996D01*
X112802177Y-124588934D01*
X112744450Y-124626033D01*
X112659618Y-124723937D01*
X112659617Y-124723938D01*
X112605802Y-124841774D01*
X112587367Y-124970000D01*
X111497633Y-124970000D01*
X111479197Y-124841774D01*
X111425382Y-124723937D01*
X111340549Y-124626033D01*
X111231569Y-124555996D01*
X111231565Y-124555994D01*
X111231564Y-124555994D01*
X111107274Y-124519500D01*
X111107272Y-124519500D01*
X110977728Y-124519500D01*
X110977726Y-124519500D01*
X110853435Y-124555994D01*
X110853432Y-124555995D01*
X110853431Y-124555996D01*
X110802177Y-124588934D01*
X110744450Y-124626033D01*
X110659618Y-124723937D01*
X110659617Y-124723938D01*
X110605802Y-124841774D01*
X110587367Y-124970000D01*
X106680315Y-124970000D01*
X106661128Y-124947857D01*
X106540053Y-124870047D01*
X106540051Y-124870046D01*
X106540049Y-124870045D01*
X106540050Y-124870045D01*
X106401963Y-124829500D01*
X106401961Y-124829500D01*
X106258039Y-124829500D01*
X106258036Y-124829500D01*
X106119949Y-124870045D01*
X105998873Y-124947856D01*
X105904623Y-125056626D01*
X105904622Y-125056628D01*
X105844834Y-125187543D01*
X105824353Y-125330000D01*
X92883285Y-125330000D01*
X92883285Y-123710000D01*
X120194353Y-123710000D01*
X120214834Y-123852456D01*
X120274622Y-123983371D01*
X120274623Y-123983373D01*
X120368872Y-124092143D01*
X120489947Y-124169953D01*
X120489950Y-124169954D01*
X120489949Y-124169954D01*
X120628036Y-124210499D01*
X120628038Y-124210500D01*
X120628039Y-124210500D01*
X120771962Y-124210500D01*
X120771962Y-124210499D01*
X120910053Y-124169953D01*
X121031128Y-124092143D01*
X121125377Y-123983373D01*
X121185165Y-123852457D01*
X121205647Y-123710000D01*
X121185165Y-123567543D01*
X121125377Y-123436627D01*
X121031128Y-123327857D01*
X120910053Y-123250047D01*
X120910051Y-123250046D01*
X120910049Y-123250045D01*
X120910050Y-123250045D01*
X120771963Y-123209500D01*
X120771961Y-123209500D01*
X120628039Y-123209500D01*
X120628036Y-123209500D01*
X120489949Y-123250045D01*
X120368873Y-123327856D01*
X120274623Y-123436626D01*
X120274622Y-123436628D01*
X120214834Y-123567543D01*
X120194353Y-123710000D01*
X92883285Y-123710000D01*
X92883285Y-122970000D01*
X110587367Y-122970000D01*
X110605802Y-123098225D01*
X110656621Y-123209500D01*
X110659618Y-123216063D01*
X110744451Y-123313967D01*
X110853431Y-123384004D01*
X110977725Y-123420499D01*
X110977727Y-123420500D01*
X110977728Y-123420500D01*
X111107273Y-123420500D01*
X111107273Y-123420499D01*
X111231569Y-123384004D01*
X111340549Y-123313967D01*
X111425382Y-123216063D01*
X111479197Y-123098226D01*
X111497633Y-122970000D01*
X112587367Y-122970000D01*
X112605802Y-123098225D01*
X112656621Y-123209500D01*
X112659618Y-123216063D01*
X112744451Y-123313967D01*
X112853431Y-123384004D01*
X112977725Y-123420499D01*
X112977727Y-123420500D01*
X112977728Y-123420500D01*
X113107273Y-123420500D01*
X113107273Y-123420499D01*
X113231569Y-123384004D01*
X113340549Y-123313967D01*
X113425382Y-123216063D01*
X113479197Y-123098226D01*
X113497633Y-122970000D01*
X113479197Y-122841774D01*
X113425382Y-122723937D01*
X113340549Y-122626033D01*
X113231569Y-122555996D01*
X113231565Y-122555994D01*
X113231564Y-122555994D01*
X113107274Y-122519500D01*
X113107272Y-122519500D01*
X112977728Y-122519500D01*
X112977726Y-122519500D01*
X112853435Y-122555994D01*
X112853432Y-122555995D01*
X112853431Y-122555996D01*
X112802177Y-122588934D01*
X112744450Y-122626033D01*
X112659618Y-122723937D01*
X112659617Y-122723938D01*
X112605802Y-122841774D01*
X112587367Y-122970000D01*
X111497633Y-122970000D01*
X111479197Y-122841774D01*
X111425382Y-122723937D01*
X111340549Y-122626033D01*
X111231569Y-122555996D01*
X111231565Y-122555994D01*
X111231564Y-122555994D01*
X111107274Y-122519500D01*
X111107272Y-122519500D01*
X110977728Y-122519500D01*
X110977726Y-122519500D01*
X110853435Y-122555994D01*
X110853432Y-122555995D01*
X110853431Y-122555996D01*
X110802177Y-122588934D01*
X110744450Y-122626033D01*
X110659618Y-122723937D01*
X110659617Y-122723938D01*
X110605802Y-122841774D01*
X110587367Y-122970000D01*
X92883285Y-122970000D01*
X92883285Y-122390000D01*
X114644353Y-122390000D01*
X114664834Y-122532456D01*
X114675584Y-122555994D01*
X114724623Y-122663373D01*
X114818872Y-122772143D01*
X114939947Y-122849953D01*
X114939950Y-122849954D01*
X114939949Y-122849954D01*
X115078036Y-122890499D01*
X115078038Y-122890500D01*
X115078039Y-122890500D01*
X115221962Y-122890500D01*
X115221962Y-122890499D01*
X115360053Y-122849953D01*
X115481128Y-122772143D01*
X115575377Y-122663373D01*
X115635165Y-122532457D01*
X115655647Y-122390000D01*
X115635165Y-122247543D01*
X115575377Y-122116627D01*
X115481128Y-122007857D01*
X115360053Y-121930047D01*
X115360051Y-121930046D01*
X115360049Y-121930045D01*
X115360050Y-121930045D01*
X115221963Y-121889500D01*
X115221961Y-121889500D01*
X115078039Y-121889500D01*
X115078036Y-121889500D01*
X114939949Y-121930045D01*
X114818873Y-122007856D01*
X114724623Y-122116626D01*
X114724622Y-122116628D01*
X114664834Y-122247543D01*
X114644353Y-122390000D01*
X92883285Y-122390000D01*
X92883285Y-120900000D01*
X110414353Y-120900000D01*
X110434834Y-121042456D01*
X110469269Y-121117856D01*
X110494623Y-121173373D01*
X110588872Y-121282143D01*
X110709947Y-121359953D01*
X110709950Y-121359954D01*
X110709949Y-121359954D01*
X110848036Y-121400499D01*
X110848038Y-121400500D01*
X110848039Y-121400500D01*
X110991962Y-121400500D01*
X110991962Y-121400499D01*
X111130053Y-121359953D01*
X111251128Y-121282143D01*
X111345377Y-121173373D01*
X111405165Y-121042457D01*
X111425647Y-120900000D01*
X111405165Y-120757543D01*
X111345377Y-120626627D01*
X111251128Y-120517857D01*
X111130053Y-120440047D01*
X111130051Y-120440046D01*
X111130049Y-120440045D01*
X111130050Y-120440045D01*
X110991963Y-120399500D01*
X110991961Y-120399500D01*
X110848039Y-120399500D01*
X110848036Y-120399500D01*
X110709949Y-120440045D01*
X110588873Y-120517856D01*
X110494623Y-120626626D01*
X110494622Y-120626628D01*
X110434834Y-120757543D01*
X110414353Y-120900000D01*
X92883285Y-120900000D01*
X92883285Y-120000000D01*
X112994353Y-120000000D01*
X113014834Y-120142456D01*
X113074622Y-120273371D01*
X113074623Y-120273373D01*
X113168872Y-120382143D01*
X113289947Y-120459953D01*
X113289950Y-120459954D01*
X113289949Y-120459954D01*
X113428036Y-120500499D01*
X113428038Y-120500500D01*
X113428039Y-120500500D01*
X113571962Y-120500500D01*
X113571962Y-120500499D01*
X113710053Y-120459953D01*
X113831128Y-120382143D01*
X113902305Y-120300000D01*
X119574353Y-120300000D01*
X119594834Y-120442456D01*
X119629269Y-120517856D01*
X119654623Y-120573373D01*
X119748872Y-120682143D01*
X119826683Y-120732148D01*
X119869948Y-120759954D01*
X119941704Y-120781023D01*
X120000482Y-120818797D01*
X120029507Y-120882353D01*
X120019563Y-120951511D01*
X119973809Y-121004315D01*
X119941704Y-121018977D01*
X119869948Y-121040045D01*
X119748873Y-121117856D01*
X119654623Y-121226626D01*
X119654622Y-121226628D01*
X119594834Y-121357543D01*
X119574353Y-121500000D01*
X119594834Y-121642456D01*
X119654622Y-121773371D01*
X119654623Y-121773373D01*
X119748872Y-121882143D01*
X119869947Y-121959953D01*
X119869950Y-121959954D01*
X119869949Y-121959954D01*
X120008036Y-122000499D01*
X120008038Y-122000500D01*
X120008039Y-122000500D01*
X120151962Y-122000500D01*
X120151962Y-122000499D01*
X120290053Y-121959953D01*
X120411128Y-121882143D01*
X120505377Y-121773373D01*
X120565165Y-121642457D01*
X120585647Y-121500000D01*
X120565165Y-121357543D01*
X120505377Y-121226627D01*
X120411128Y-121117857D01*
X120290053Y-121040047D01*
X120290051Y-121040046D01*
X120290049Y-121040045D01*
X120290050Y-121040045D01*
X120218296Y-121018977D01*
X120159518Y-120981203D01*
X120130492Y-120917648D01*
X120140435Y-120848489D01*
X120186190Y-120795685D01*
X120218296Y-120781023D01*
X120290050Y-120759954D01*
X120290051Y-120759954D01*
X120290053Y-120759953D01*
X120411128Y-120682143D01*
X120411128Y-120682142D01*
X120414104Y-120680230D01*
X120481144Y-120660545D01*
X120548183Y-120680229D01*
X120548871Y-120680671D01*
X120669946Y-120758481D01*
X120669949Y-120758482D01*
X120669948Y-120758482D01*
X120808035Y-120799027D01*
X120808037Y-120799028D01*
X120808038Y-120799028D01*
X120951961Y-120799028D01*
X120951961Y-120799027D01*
X121059120Y-120767563D01*
X121090049Y-120758482D01*
X121090049Y-120758481D01*
X121090052Y-120758481D01*
X121211127Y-120680671D01*
X121305376Y-120571901D01*
X121365164Y-120440985D01*
X121385646Y-120298528D01*
X121385426Y-120297000D01*
X123002881Y-120297000D01*
X123023362Y-120439456D01*
X123059167Y-120517856D01*
X123083151Y-120570373D01*
X123177400Y-120679143D01*
X123298475Y-120756953D01*
X123298478Y-120756954D01*
X123298477Y-120756954D01*
X123436564Y-120797499D01*
X123436566Y-120797500D01*
X123436567Y-120797500D01*
X123580490Y-120797500D01*
X123580490Y-120797499D01*
X123687649Y-120766035D01*
X123718578Y-120756954D01*
X123718578Y-120756953D01*
X123718581Y-120756953D01*
X123839656Y-120679143D01*
X123933905Y-120570373D01*
X123993693Y-120439457D01*
X124014175Y-120297000D01*
X123993693Y-120154543D01*
X123933905Y-120023627D01*
X123839656Y-119914857D01*
X123718581Y-119837047D01*
X123718579Y-119837046D01*
X123718577Y-119837045D01*
X123718578Y-119837045D01*
X123580491Y-119796500D01*
X123580489Y-119796500D01*
X123436567Y-119796500D01*
X123436564Y-119796500D01*
X123298477Y-119837045D01*
X123177401Y-119914856D01*
X123083151Y-120023626D01*
X123083150Y-120023628D01*
X123023362Y-120154543D01*
X123002881Y-120297000D01*
X121385426Y-120297000D01*
X121365164Y-120156071D01*
X121305376Y-120025155D01*
X121211127Y-119916385D01*
X121090052Y-119838575D01*
X121090050Y-119838574D01*
X121090048Y-119838573D01*
X121090049Y-119838573D01*
X120951962Y-119798028D01*
X120951960Y-119798028D01*
X120808038Y-119798028D01*
X120808035Y-119798028D01*
X120669948Y-119838573D01*
X120545893Y-119918298D01*
X120478853Y-119937982D01*
X120411815Y-119918298D01*
X120290050Y-119840045D01*
X120151963Y-119799500D01*
X120151961Y-119799500D01*
X120008039Y-119799500D01*
X120008036Y-119799500D01*
X119869949Y-119840045D01*
X119748873Y-119917856D01*
X119654623Y-120026626D01*
X119654622Y-120026628D01*
X119594834Y-120157543D01*
X119574353Y-120300000D01*
X113902305Y-120300000D01*
X113925377Y-120273373D01*
X113985165Y-120142457D01*
X114005647Y-120000000D01*
X113985165Y-119857543D01*
X113925377Y-119726627D01*
X113831128Y-119617857D01*
X113710053Y-119540047D01*
X113710051Y-119540046D01*
X113710049Y-119540045D01*
X113710050Y-119540045D01*
X113571963Y-119499500D01*
X113571961Y-119499500D01*
X113428039Y-119499500D01*
X113428036Y-119499500D01*
X113289949Y-119540045D01*
X113168873Y-119617856D01*
X113074623Y-119726626D01*
X113074622Y-119726628D01*
X113014834Y-119857543D01*
X112994353Y-120000000D01*
X92883285Y-120000000D01*
X92883285Y-118010000D01*
X103254353Y-118010000D01*
X103274834Y-118152456D01*
X103308708Y-118226628D01*
X103334623Y-118283373D01*
X103428872Y-118392143D01*
X103549947Y-118469953D01*
X103549950Y-118469954D01*
X103549949Y-118469954D01*
X103688036Y-118510499D01*
X103688038Y-118510500D01*
X103688039Y-118510500D01*
X103831962Y-118510500D01*
X103831962Y-118510499D01*
X103867719Y-118500000D01*
X109741853Y-118500000D01*
X109762334Y-118642456D01*
X109822122Y-118773371D01*
X109822123Y-118773373D01*
X109916372Y-118882143D01*
X110037447Y-118959953D01*
X110037450Y-118959954D01*
X110037449Y-118959954D01*
X110175536Y-119000499D01*
X110175538Y-119000500D01*
X110175539Y-119000500D01*
X110319462Y-119000500D01*
X110319462Y-119000499D01*
X110457553Y-118959953D01*
X110574733Y-118884646D01*
X115364136Y-118884646D01*
X115384617Y-119027102D01*
X115444405Y-119158017D01*
X115444406Y-119158019D01*
X115538655Y-119266789D01*
X115659730Y-119344599D01*
X115659733Y-119344600D01*
X115659732Y-119344600D01*
X115797819Y-119385145D01*
X115797821Y-119385146D01*
X115797822Y-119385146D01*
X115941745Y-119385146D01*
X115941745Y-119385145D01*
X116079836Y-119344599D01*
X116200911Y-119266789D01*
X116295160Y-119158019D01*
X116344491Y-119050000D01*
X130764353Y-119050000D01*
X130784834Y-119192456D01*
X130844622Y-119323371D01*
X130844623Y-119323373D01*
X130938872Y-119432143D01*
X131059947Y-119509953D01*
X131059950Y-119509954D01*
X131059949Y-119509954D01*
X131198036Y-119550499D01*
X131198038Y-119550500D01*
X131198039Y-119550500D01*
X131341962Y-119550500D01*
X131341962Y-119550499D01*
X131480053Y-119509953D01*
X131601128Y-119432143D01*
X131695377Y-119323373D01*
X131755165Y-119192457D01*
X131775647Y-119050000D01*
X131755165Y-118907543D01*
X131695377Y-118776627D01*
X131601128Y-118667857D01*
X131480053Y-118590047D01*
X131480051Y-118590046D01*
X131480049Y-118590045D01*
X131480050Y-118590045D01*
X131341963Y-118549500D01*
X131341961Y-118549500D01*
X131198039Y-118549500D01*
X131198036Y-118549500D01*
X131059949Y-118590045D01*
X130938873Y-118667856D01*
X130844623Y-118776626D01*
X130844622Y-118776628D01*
X130784834Y-118907543D01*
X130764353Y-119050000D01*
X116344491Y-119050000D01*
X116354948Y-119027103D01*
X116375430Y-118884646D01*
X116354948Y-118742189D01*
X116295160Y-118611273D01*
X116200911Y-118502503D01*
X116079836Y-118424693D01*
X116079834Y-118424692D01*
X116079832Y-118424691D01*
X116079833Y-118424691D01*
X115941746Y-118384146D01*
X115941744Y-118384146D01*
X115797822Y-118384146D01*
X115797819Y-118384146D01*
X115659732Y-118424691D01*
X115538656Y-118502502D01*
X115538655Y-118502502D01*
X115538655Y-118502503D01*
X115531726Y-118510500D01*
X115444406Y-118611272D01*
X115444405Y-118611274D01*
X115384617Y-118742189D01*
X115364136Y-118884646D01*
X110574733Y-118884646D01*
X110578628Y-118882143D01*
X110672877Y-118773373D01*
X110732665Y-118642457D01*
X110753147Y-118500000D01*
X110732665Y-118357543D01*
X110672877Y-118226627D01*
X110578628Y-118117857D01*
X110457553Y-118040047D01*
X110457551Y-118040046D01*
X110457549Y-118040045D01*
X110457550Y-118040045D01*
X110319463Y-117999500D01*
X110319461Y-117999500D01*
X110175539Y-117999500D01*
X110175536Y-117999500D01*
X110037449Y-118040045D01*
X109916373Y-118117856D01*
X109822123Y-118226626D01*
X109822122Y-118226628D01*
X109762334Y-118357543D01*
X109741853Y-118500000D01*
X103867719Y-118500000D01*
X103970053Y-118469953D01*
X104091128Y-118392143D01*
X104185377Y-118283373D01*
X104245165Y-118152457D01*
X104265647Y-118010000D01*
X104245165Y-117867543D01*
X104185377Y-117736627D01*
X104091128Y-117627857D01*
X103970053Y-117550047D01*
X103970051Y-117550046D01*
X103970049Y-117550045D01*
X103970050Y-117550045D01*
X103831963Y-117509500D01*
X103831961Y-117509500D01*
X103688039Y-117509500D01*
X103688036Y-117509500D01*
X103549949Y-117550045D01*
X103428873Y-117627856D01*
X103334623Y-117736626D01*
X103334622Y-117736628D01*
X103274834Y-117867543D01*
X103254353Y-118010000D01*
X92883285Y-118010000D01*
X92883285Y-117100000D01*
X109674353Y-117100000D01*
X109694834Y-117242456D01*
X109709329Y-117274194D01*
X109754623Y-117373373D01*
X109848872Y-117482143D01*
X109969947Y-117559953D01*
X109969950Y-117559954D01*
X109969949Y-117559954D01*
X110108036Y-117600499D01*
X110108038Y-117600500D01*
X110108039Y-117600500D01*
X110251962Y-117600500D01*
X110251962Y-117600499D01*
X110390053Y-117559953D01*
X110511128Y-117482143D01*
X110605377Y-117373373D01*
X110665165Y-117242457D01*
X110685647Y-117100000D01*
X110665165Y-116957543D01*
X110605377Y-116826627D01*
X110551573Y-116764533D01*
X111770970Y-116764533D01*
X111791451Y-116906989D01*
X111811819Y-116951587D01*
X111851240Y-117037906D01*
X111940989Y-117141483D01*
X111970013Y-117205036D01*
X111960069Y-117274194D01*
X111940989Y-117303884D01*
X111899625Y-117351621D01*
X111899622Y-117351626D01*
X111839834Y-117482541D01*
X111819353Y-117624998D01*
X111839834Y-117767454D01*
X111866097Y-117824961D01*
X111899623Y-117898371D01*
X111993872Y-118007141D01*
X112114947Y-118084951D01*
X112114950Y-118084952D01*
X112114949Y-118084952D01*
X112222107Y-118116415D01*
X112227012Y-118117856D01*
X112253036Y-118125497D01*
X112253038Y-118125498D01*
X112253039Y-118125498D01*
X112396962Y-118125498D01*
X112396962Y-118125497D01*
X112535053Y-118084951D01*
X112656128Y-118007141D01*
X112705641Y-117950000D01*
X123602881Y-117950000D01*
X123623362Y-118092456D01*
X123683150Y-118223371D01*
X123683151Y-118223373D01*
X123777400Y-118332143D01*
X123898475Y-118409953D01*
X123898478Y-118409954D01*
X123898477Y-118409954D01*
X124036564Y-118450499D01*
X124036566Y-118450500D01*
X124036567Y-118450500D01*
X124180490Y-118450500D01*
X124180490Y-118450499D01*
X124318581Y-118409953D01*
X124439656Y-118332143D01*
X124533905Y-118223373D01*
X124541334Y-118207105D01*
X125797244Y-118207105D01*
X125817725Y-118349561D01*
X125863823Y-118450499D01*
X125877514Y-118480478D01*
X125971763Y-118589248D01*
X126092838Y-118667058D01*
X126092841Y-118667059D01*
X126092840Y-118667059D01*
X126230927Y-118707604D01*
X126230929Y-118707605D01*
X126230930Y-118707605D01*
X126374853Y-118707605D01*
X126374853Y-118707604D01*
X126510223Y-118667857D01*
X126512941Y-118667059D01*
X126512941Y-118667058D01*
X126512944Y-118667058D01*
X126634019Y-118589248D01*
X126728268Y-118480478D01*
X126788056Y-118349562D01*
X126808538Y-118207105D01*
X126788056Y-118064648D01*
X126728268Y-117933732D01*
X126634019Y-117824962D01*
X126512944Y-117747152D01*
X126512942Y-117747151D01*
X126512940Y-117747150D01*
X126512941Y-117747150D01*
X126374854Y-117706605D01*
X126374852Y-117706605D01*
X126230930Y-117706605D01*
X126230927Y-117706605D01*
X126092840Y-117747150D01*
X125971764Y-117824961D01*
X125877514Y-117933731D01*
X125877513Y-117933733D01*
X125817725Y-118064648D01*
X125797244Y-118207105D01*
X124541334Y-118207105D01*
X124593693Y-118092457D01*
X124614175Y-117950000D01*
X124593693Y-117807543D01*
X124533905Y-117676627D01*
X124439656Y-117567857D01*
X124318581Y-117490047D01*
X124318579Y-117490046D01*
X124318577Y-117490045D01*
X124318578Y-117490045D01*
X124180491Y-117449500D01*
X124180489Y-117449500D01*
X124036567Y-117449500D01*
X124036564Y-117449500D01*
X123898477Y-117490045D01*
X123777401Y-117567856D01*
X123683151Y-117676626D01*
X123683150Y-117676628D01*
X123623362Y-117807543D01*
X123602881Y-117950000D01*
X112705641Y-117950000D01*
X112750377Y-117898371D01*
X112810165Y-117767455D01*
X112830647Y-117624998D01*
X112810165Y-117482541D01*
X112750377Y-117351625D01*
X112660627Y-117248047D01*
X112631603Y-117184493D01*
X112641547Y-117115334D01*
X112660623Y-117085650D01*
X112701994Y-117037906D01*
X112717301Y-117004388D01*
X112763054Y-116951587D01*
X112830093Y-116931902D01*
X112897133Y-116951586D01*
X112923807Y-116974700D01*
X112994607Y-117056408D01*
X113115682Y-117134218D01*
X113115685Y-117134219D01*
X113115684Y-117134219D01*
X113253771Y-117174764D01*
X113253773Y-117174765D01*
X113253774Y-117174765D01*
X113397697Y-117174765D01*
X113397697Y-117174764D01*
X113535788Y-117134218D01*
X113656863Y-117056408D01*
X113751112Y-116947638D01*
X113755375Y-116938301D01*
X113801125Y-116885499D01*
X113868164Y-116865811D01*
X113935204Y-116885492D01*
X113935209Y-116885496D01*
X114019944Y-116939952D01*
X114019949Y-116939954D01*
X114158036Y-116980499D01*
X114158038Y-116980500D01*
X114158039Y-116980500D01*
X114301962Y-116980500D01*
X114301962Y-116980499D01*
X114440053Y-116939953D01*
X114561128Y-116862143D01*
X114655377Y-116753373D01*
X114715165Y-116622457D01*
X114735647Y-116480000D01*
X114722606Y-116389299D01*
X114732549Y-116320144D01*
X114778304Y-116267340D01*
X114845343Y-116247655D01*
X114912383Y-116267339D01*
X114939057Y-116290452D01*
X114996844Y-116357142D01*
X115117919Y-116434952D01*
X115117922Y-116434953D01*
X115117921Y-116434953D01*
X115256008Y-116475498D01*
X115256010Y-116475499D01*
X115256011Y-116475499D01*
X115399934Y-116475499D01*
X115399934Y-116475498D01*
X115538025Y-116434952D01*
X115576851Y-116410000D01*
X123002881Y-116410000D01*
X123023362Y-116552456D01*
X123063364Y-116640047D01*
X123083151Y-116683373D01*
X123177400Y-116792143D01*
X123298475Y-116869953D01*
X123298478Y-116869954D01*
X123298477Y-116869954D01*
X123351420Y-116885499D01*
X123424609Y-116906989D01*
X123436564Y-116910499D01*
X123436566Y-116910500D01*
X123436567Y-116910500D01*
X123580490Y-116910500D01*
X123580490Y-116910499D01*
X123718581Y-116869953D01*
X123839656Y-116792143D01*
X123933905Y-116683373D01*
X123993693Y-116552457D01*
X124014175Y-116410000D01*
X123993693Y-116267543D01*
X123933905Y-116136627D01*
X123839656Y-116027857D01*
X123718581Y-115950047D01*
X123718579Y-115950046D01*
X123718577Y-115950045D01*
X123718578Y-115950045D01*
X123580491Y-115909500D01*
X123580489Y-115909500D01*
X123436567Y-115909500D01*
X123436564Y-115909500D01*
X123298477Y-115950045D01*
X123177401Y-116027856D01*
X123083151Y-116136626D01*
X123083150Y-116136628D01*
X123023362Y-116267543D01*
X123002881Y-116410000D01*
X115576851Y-116410000D01*
X115659100Y-116357142D01*
X115753349Y-116248372D01*
X115813137Y-116117456D01*
X115833619Y-115974999D01*
X115822573Y-115898172D01*
X117095221Y-115898172D01*
X117115702Y-116040628D01*
X117150789Y-116117456D01*
X117175491Y-116171545D01*
X117269740Y-116280315D01*
X117390815Y-116358125D01*
X117390818Y-116358126D01*
X117390817Y-116358126D01*
X117528904Y-116398671D01*
X117528906Y-116398672D01*
X117528907Y-116398672D01*
X117672830Y-116398672D01*
X117672830Y-116398671D01*
X117810921Y-116358125D01*
X117931996Y-116280315D01*
X118026245Y-116171545D01*
X118086033Y-116040629D01*
X118106515Y-115898172D01*
X118086033Y-115755715D01*
X118026245Y-115624799D01*
X117931996Y-115516029D01*
X117810921Y-115438219D01*
X117810919Y-115438218D01*
X117810917Y-115438217D01*
X117810918Y-115438217D01*
X117672831Y-115397672D01*
X117672829Y-115397672D01*
X117528907Y-115397672D01*
X117528904Y-115397672D01*
X117390817Y-115438217D01*
X117269741Y-115516028D01*
X117175491Y-115624798D01*
X117175490Y-115624800D01*
X117115702Y-115755715D01*
X117095221Y-115898172D01*
X115822573Y-115898172D01*
X115813137Y-115832542D01*
X115753349Y-115701626D01*
X115659100Y-115592856D01*
X115538025Y-115515046D01*
X115538023Y-115515045D01*
X115538021Y-115515044D01*
X115538022Y-115515044D01*
X115399935Y-115474499D01*
X115399933Y-115474499D01*
X115256011Y-115474499D01*
X115256008Y-115474499D01*
X115117921Y-115515044D01*
X114996845Y-115592855D01*
X114902595Y-115701625D01*
X114902594Y-115701627D01*
X114842806Y-115832542D01*
X114822325Y-115974999D01*
X114835365Y-116065696D01*
X114825421Y-116134855D01*
X114779666Y-116187659D01*
X114712627Y-116207343D01*
X114645587Y-116187658D01*
X114618914Y-116164546D01*
X114594721Y-116136626D01*
X114561128Y-116097857D01*
X114440053Y-116020047D01*
X114440051Y-116020046D01*
X114440049Y-116020045D01*
X114440050Y-116020045D01*
X114301963Y-115979500D01*
X114301961Y-115979500D01*
X114158039Y-115979500D01*
X114158036Y-115979500D01*
X114019949Y-116020045D01*
X113898873Y-116097856D01*
X113804623Y-116206626D01*
X113804621Y-116206629D01*
X113800357Y-116215967D01*
X113754601Y-116268770D01*
X113687562Y-116288453D01*
X113620525Y-116268769D01*
X113613156Y-116264033D01*
X113535788Y-116214312D01*
X113535786Y-116214311D01*
X113535784Y-116214310D01*
X113535785Y-116214310D01*
X113397698Y-116173765D01*
X113397696Y-116173765D01*
X113253774Y-116173765D01*
X113253771Y-116173765D01*
X113115684Y-116214310D01*
X112994608Y-116292121D01*
X112900358Y-116400891D01*
X112900356Y-116400895D01*
X112885050Y-116434409D01*
X112839294Y-116487212D01*
X112772254Y-116506895D01*
X112705215Y-116487209D01*
X112678544Y-116464097D01*
X112607746Y-116382391D01*
X112607745Y-116382390D01*
X112486670Y-116304580D01*
X112486668Y-116304579D01*
X112486666Y-116304578D01*
X112486667Y-116304578D01*
X112348580Y-116264033D01*
X112348578Y-116264033D01*
X112204656Y-116264033D01*
X112204653Y-116264033D01*
X112066566Y-116304578D01*
X111945490Y-116382389D01*
X111851240Y-116491159D01*
X111851239Y-116491161D01*
X111791451Y-116622076D01*
X111770970Y-116764533D01*
X110551573Y-116764533D01*
X110511128Y-116717857D01*
X110390053Y-116640047D01*
X110390051Y-116640046D01*
X110390049Y-116640045D01*
X110390050Y-116640045D01*
X110251963Y-116599500D01*
X110251961Y-116599500D01*
X110108039Y-116599500D01*
X110108036Y-116599500D01*
X109969949Y-116640045D01*
X109848873Y-116717856D01*
X109754623Y-116826626D01*
X109754622Y-116826628D01*
X109694834Y-116957543D01*
X109674353Y-117100000D01*
X92883285Y-117100000D01*
X92883285Y-115219331D01*
X97899383Y-115219331D01*
X97919864Y-115361787D01*
X97954769Y-115438217D01*
X97979653Y-115492704D01*
X98073902Y-115601474D01*
X98194977Y-115679284D01*
X98194980Y-115679285D01*
X98194979Y-115679285D01*
X98333066Y-115719830D01*
X98333068Y-115719831D01*
X98333069Y-115719831D01*
X98476992Y-115719831D01*
X98476992Y-115719830D01*
X98615083Y-115679284D01*
X98736158Y-115601474D01*
X98830407Y-115492704D01*
X98845343Y-115460000D01*
X102144353Y-115460000D01*
X102164834Y-115602456D01*
X102224622Y-115733371D01*
X102224623Y-115733373D01*
X102318872Y-115842143D01*
X102439947Y-115919953D01*
X102439950Y-115919954D01*
X102439949Y-115919954D01*
X102542432Y-115950045D01*
X102576179Y-115959954D01*
X102578036Y-115960499D01*
X102578038Y-115960500D01*
X102578039Y-115960500D01*
X102721962Y-115960500D01*
X102721962Y-115960499D01*
X102860053Y-115919953D01*
X102981128Y-115842143D01*
X103075377Y-115733373D01*
X103135165Y-115602457D01*
X103149896Y-115500000D01*
X108494353Y-115500000D01*
X108514834Y-115642456D01*
X108558230Y-115737478D01*
X108574623Y-115773373D01*
X108668872Y-115882143D01*
X108789947Y-115959953D01*
X108789950Y-115959954D01*
X108789949Y-115959954D01*
X108928036Y-116000499D01*
X108928038Y-116000500D01*
X108928039Y-116000500D01*
X109071962Y-116000500D01*
X109071962Y-116000499D01*
X109208190Y-115960500D01*
X109210050Y-115959954D01*
X109210050Y-115959953D01*
X109210053Y-115959953D01*
X109331128Y-115882143D01*
X109425377Y-115773373D01*
X109485165Y-115642457D01*
X109505647Y-115500000D01*
X109485165Y-115357543D01*
X109425377Y-115226627D01*
X109331128Y-115117857D01*
X109210053Y-115040047D01*
X109210051Y-115040046D01*
X109210049Y-115040045D01*
X109210050Y-115040045D01*
X109071963Y-114999500D01*
X109071961Y-114999500D01*
X108928039Y-114999500D01*
X108928036Y-114999500D01*
X108789949Y-115040045D01*
X108668873Y-115117856D01*
X108574623Y-115226626D01*
X108574622Y-115226628D01*
X108514834Y-115357543D01*
X108494353Y-115500000D01*
X103149896Y-115500000D01*
X103155647Y-115460000D01*
X103135165Y-115317543D01*
X103075377Y-115186627D01*
X102981128Y-115077857D01*
X102860053Y-115000047D01*
X102860051Y-115000046D01*
X102860049Y-115000045D01*
X102860050Y-115000045D01*
X102721963Y-114959500D01*
X102721961Y-114959500D01*
X102578039Y-114959500D01*
X102578036Y-114959500D01*
X102439949Y-115000045D01*
X102318873Y-115077856D01*
X102224623Y-115186626D01*
X102224622Y-115186628D01*
X102164834Y-115317543D01*
X102144353Y-115460000D01*
X98845343Y-115460000D01*
X98890195Y-115361788D01*
X98910677Y-115219331D01*
X98890195Y-115076874D01*
X98830407Y-114945958D01*
X98736158Y-114837188D01*
X98615083Y-114759378D01*
X98615081Y-114759377D01*
X98615079Y-114759376D01*
X98615080Y-114759376D01*
X98568152Y-114745597D01*
X103854353Y-114745597D01*
X103874834Y-114888053D01*
X103934622Y-115018968D01*
X103934623Y-115018970D01*
X104028872Y-115127740D01*
X104149947Y-115205550D01*
X104149950Y-115205551D01*
X104149949Y-115205551D01*
X104288036Y-115246096D01*
X104288038Y-115246097D01*
X104288039Y-115246097D01*
X104431962Y-115246097D01*
X104431962Y-115246096D01*
X104570053Y-115205550D01*
X104691128Y-115127740D01*
X104785377Y-115018970D01*
X104845165Y-114888054D01*
X104852478Y-114837188D01*
X104857825Y-114800000D01*
X109852283Y-114800000D01*
X109872764Y-114942456D01*
X109917332Y-115040045D01*
X109932553Y-115073373D01*
X110026802Y-115182143D01*
X110147877Y-115259953D01*
X110147880Y-115259954D01*
X110147879Y-115259954D01*
X110285966Y-115300499D01*
X110285968Y-115300500D01*
X110285969Y-115300500D01*
X110429892Y-115300500D01*
X110429892Y-115300499D01*
X110567983Y-115259953D01*
X110603733Y-115236978D01*
X115871352Y-115236978D01*
X115891833Y-115379434D01*
X115918679Y-115438217D01*
X115951622Y-115510351D01*
X116045871Y-115619121D01*
X116166946Y-115696931D01*
X116166949Y-115696932D01*
X116166948Y-115696932D01*
X116244937Y-115719831D01*
X116291057Y-115733373D01*
X116305035Y-115737477D01*
X116305037Y-115737478D01*
X116305038Y-115737478D01*
X116448961Y-115737478D01*
X116448961Y-115737477D01*
X116587052Y-115696931D01*
X116708127Y-115619121D01*
X116802376Y-115510351D01*
X116862164Y-115379435D01*
X116882646Y-115236978D01*
X116862164Y-115094521D01*
X116802376Y-114963605D01*
X116721267Y-114870000D01*
X124164353Y-114870000D01*
X124184834Y-115012456D01*
X124244622Y-115143371D01*
X124244623Y-115143373D01*
X124338872Y-115252143D01*
X124459947Y-115329953D01*
X124459950Y-115329954D01*
X124459949Y-115329954D01*
X124598036Y-115370499D01*
X124598038Y-115370500D01*
X124598039Y-115370500D01*
X124741962Y-115370500D01*
X124741962Y-115370499D01*
X124880053Y-115329953D01*
X125001128Y-115252143D01*
X125095377Y-115143373D01*
X125155165Y-115012457D01*
X125165802Y-114938470D01*
X125194826Y-114874916D01*
X125253604Y-114837141D01*
X125323475Y-114837141D01*
X125418038Y-114864907D01*
X125418039Y-114864907D01*
X125561962Y-114864907D01*
X125561962Y-114864906D01*
X125700053Y-114824360D01*
X125821128Y-114746550D01*
X125915377Y-114637780D01*
X125975165Y-114506864D01*
X125995647Y-114364407D01*
X125975165Y-114221950D01*
X125915377Y-114091034D01*
X125821128Y-113982264D01*
X125700053Y-113904454D01*
X125700051Y-113904453D01*
X125700049Y-113904452D01*
X125700050Y-113904452D01*
X125561963Y-113863907D01*
X125561961Y-113863907D01*
X125418039Y-113863907D01*
X125418036Y-113863907D01*
X125279949Y-113904452D01*
X125158873Y-113982263D01*
X125064623Y-114091033D01*
X125064622Y-114091035D01*
X125004834Y-114221950D01*
X124994197Y-114295936D01*
X124965171Y-114359491D01*
X124906393Y-114397265D01*
X124836525Y-114397265D01*
X124741964Y-114369500D01*
X124741961Y-114369500D01*
X124598039Y-114369500D01*
X124598036Y-114369500D01*
X124459949Y-114410045D01*
X124338873Y-114487856D01*
X124244623Y-114596626D01*
X124244622Y-114596628D01*
X124184834Y-114727543D01*
X124164353Y-114870000D01*
X116721267Y-114870000D01*
X116708127Y-114854835D01*
X116587052Y-114777025D01*
X116587050Y-114777024D01*
X116587048Y-114777023D01*
X116587049Y-114777023D01*
X116448962Y-114736478D01*
X116448960Y-114736478D01*
X116305038Y-114736478D01*
X116305035Y-114736478D01*
X116166948Y-114777023D01*
X116045872Y-114854834D01*
X116045871Y-114854834D01*
X116045871Y-114854835D01*
X116037144Y-114864907D01*
X115951622Y-114963604D01*
X115951621Y-114963606D01*
X115891833Y-115094521D01*
X115871352Y-115236978D01*
X110603733Y-115236978D01*
X110689058Y-115182143D01*
X110783307Y-115073373D01*
X110843095Y-114942457D01*
X110863577Y-114800000D01*
X110843095Y-114657543D01*
X110783307Y-114526627D01*
X110689058Y-114417857D01*
X110567983Y-114340047D01*
X110567981Y-114340046D01*
X110567979Y-114340045D01*
X110567980Y-114340045D01*
X110429893Y-114299500D01*
X110429891Y-114299500D01*
X110285969Y-114299500D01*
X110285966Y-114299500D01*
X110147879Y-114340045D01*
X110026803Y-114417856D01*
X109932553Y-114526626D01*
X109932552Y-114526628D01*
X109872764Y-114657543D01*
X109852283Y-114800000D01*
X104857825Y-114800000D01*
X104864662Y-114752450D01*
X104893687Y-114688894D01*
X104952465Y-114651120D01*
X104987400Y-114646097D01*
X105131962Y-114646097D01*
X105131962Y-114646096D01*
X105270053Y-114605550D01*
X105391128Y-114527740D01*
X105485377Y-114418970D01*
X105545165Y-114288054D01*
X105565647Y-114145597D01*
X105563405Y-114130000D01*
X113784353Y-114130000D01*
X113804834Y-114272456D01*
X113864622Y-114403371D01*
X113864623Y-114403373D01*
X113958872Y-114512143D01*
X114079947Y-114589953D01*
X114079950Y-114589954D01*
X114079949Y-114589954D01*
X114218036Y-114630499D01*
X114218038Y-114630500D01*
X114218039Y-114630500D01*
X114361962Y-114630500D01*
X114361962Y-114630499D01*
X114500053Y-114589953D01*
X114621128Y-114512143D01*
X114715377Y-114403373D01*
X114775165Y-114272457D01*
X114785583Y-114200000D01*
X115104353Y-114200000D01*
X115124834Y-114342456D01*
X115184098Y-114472223D01*
X115184623Y-114473373D01*
X115278872Y-114582143D01*
X115399947Y-114659953D01*
X115399950Y-114659954D01*
X115399949Y-114659954D01*
X115538036Y-114700499D01*
X115538038Y-114700500D01*
X115538039Y-114700500D01*
X115681962Y-114700500D01*
X115681962Y-114700499D01*
X115820053Y-114659953D01*
X115941128Y-114582143D01*
X116035377Y-114473373D01*
X116095165Y-114342457D01*
X116115647Y-114200000D01*
X116095165Y-114057543D01*
X116035377Y-113926627D01*
X115941128Y-113817857D01*
X115905392Y-113794891D01*
X119259461Y-113794891D01*
X119279942Y-113937347D01*
X119334835Y-114057543D01*
X119339731Y-114068264D01*
X119433980Y-114177034D01*
X119555055Y-114254844D01*
X119555058Y-114254845D01*
X119555057Y-114254845D01*
X119693144Y-114295390D01*
X119693146Y-114295391D01*
X119693147Y-114295391D01*
X119837070Y-114295391D01*
X119837070Y-114295390D01*
X119975161Y-114254844D01*
X120096236Y-114177034D01*
X120190485Y-114068264D01*
X120250273Y-113937348D01*
X120270755Y-113794891D01*
X120250273Y-113652434D01*
X120190485Y-113521518D01*
X120096236Y-113412748D01*
X119975161Y-113334938D01*
X119975159Y-113334937D01*
X119975157Y-113334936D01*
X119975158Y-113334936D01*
X119837071Y-113294391D01*
X119837069Y-113294391D01*
X119693147Y-113294391D01*
X119693144Y-113294391D01*
X119555057Y-113334936D01*
X119433981Y-113412747D01*
X119339731Y-113521517D01*
X119339730Y-113521519D01*
X119279942Y-113652434D01*
X119259461Y-113794891D01*
X115905392Y-113794891D01*
X115820053Y-113740047D01*
X115820051Y-113740046D01*
X115820049Y-113740045D01*
X115820050Y-113740045D01*
X115681963Y-113699500D01*
X115681961Y-113699500D01*
X115538039Y-113699500D01*
X115538036Y-113699500D01*
X115399949Y-113740045D01*
X115278873Y-113817856D01*
X115184623Y-113926626D01*
X115184622Y-113926628D01*
X115124834Y-114057543D01*
X115104353Y-114200000D01*
X114785583Y-114200000D01*
X114795647Y-114130000D01*
X114775165Y-113987543D01*
X114715377Y-113856627D01*
X114621128Y-113747857D01*
X114500053Y-113670047D01*
X114500051Y-113670046D01*
X114500049Y-113670045D01*
X114500050Y-113670045D01*
X114361963Y-113629500D01*
X114361961Y-113629500D01*
X114218039Y-113629500D01*
X114218036Y-113629500D01*
X114079949Y-113670045D01*
X113958873Y-113747856D01*
X113864623Y-113856626D01*
X113864622Y-113856628D01*
X113804834Y-113987543D01*
X113784353Y-114130000D01*
X105563405Y-114130000D01*
X105545165Y-114003140D01*
X105485377Y-113872224D01*
X105391128Y-113763454D01*
X105270053Y-113685644D01*
X105270051Y-113685643D01*
X105270049Y-113685642D01*
X105270050Y-113685642D01*
X105131963Y-113645097D01*
X105131961Y-113645097D01*
X104988039Y-113645097D01*
X104988036Y-113645097D01*
X104849949Y-113685642D01*
X104728873Y-113763453D01*
X104728872Y-113763453D01*
X104728872Y-113763454D01*
X104716290Y-113777974D01*
X104634623Y-113872223D01*
X104634622Y-113872225D01*
X104574834Y-114003140D01*
X104555338Y-114138744D01*
X104526313Y-114202300D01*
X104467535Y-114240074D01*
X104432600Y-114245097D01*
X104288036Y-114245097D01*
X104149949Y-114285642D01*
X104028873Y-114363453D01*
X103934623Y-114472223D01*
X103934622Y-114472225D01*
X103874834Y-114603140D01*
X103854353Y-114745597D01*
X98568152Y-114745597D01*
X98476993Y-114718831D01*
X98476991Y-114718831D01*
X98333069Y-114718831D01*
X98333066Y-114718831D01*
X98194979Y-114759376D01*
X98073903Y-114837187D01*
X97979653Y-114945957D01*
X97979652Y-114945959D01*
X97919864Y-115076874D01*
X97899383Y-115219331D01*
X92883285Y-115219331D01*
X92883285Y-113300000D01*
X107724355Y-113300000D01*
X107744859Y-113468869D01*
X107744860Y-113468874D01*
X107805182Y-113627931D01*
X107867475Y-113718177D01*
X107901817Y-113767929D01*
X108001936Y-113856626D01*
X108029150Y-113880736D01*
X108179773Y-113959789D01*
X108179775Y-113959790D01*
X108344944Y-114000500D01*
X108515056Y-114000500D01*
X108680225Y-113959790D01*
X108785662Y-113904452D01*
X108830849Y-113880736D01*
X108830850Y-113880734D01*
X108830852Y-113880734D01*
X108958183Y-113767929D01*
X109054818Y-113627930D01*
X109115140Y-113468872D01*
X109135645Y-113300000D01*
X109624355Y-113300000D01*
X109644859Y-113468869D01*
X109644860Y-113468874D01*
X109705182Y-113627931D01*
X109767475Y-113718177D01*
X109801817Y-113767929D01*
X109901936Y-113856626D01*
X109929150Y-113880736D01*
X110079773Y-113959789D01*
X110079775Y-113959790D01*
X110244944Y-114000500D01*
X110415056Y-114000500D01*
X110580225Y-113959790D01*
X110685662Y-113904452D01*
X110730849Y-113880736D01*
X110730850Y-113880734D01*
X110730852Y-113880734D01*
X110858183Y-113767929D01*
X110954818Y-113627930D01*
X111015140Y-113468872D01*
X111035645Y-113300000D01*
X111015140Y-113131128D01*
X110954818Y-112972070D01*
X110880562Y-112864493D01*
X114259902Y-112864493D01*
X114280383Y-113006949D01*
X114314475Y-113081598D01*
X114340172Y-113137866D01*
X114434421Y-113246636D01*
X114555496Y-113324446D01*
X114555499Y-113324447D01*
X114555498Y-113324447D01*
X114693585Y-113364992D01*
X114693587Y-113364993D01*
X114693588Y-113364993D01*
X114837511Y-113364993D01*
X114837511Y-113364992D01*
X114955733Y-113330280D01*
X114975599Y-113324447D01*
X114975599Y-113324446D01*
X114975602Y-113324446D01*
X115096677Y-113246636D01*
X115190926Y-113137866D01*
X115250714Y-113006950D01*
X115271196Y-112864493D01*
X115266205Y-112829780D01*
X117264464Y-112829780D01*
X117284945Y-112972236D01*
X117334890Y-113081598D01*
X117344734Y-113103153D01*
X117438983Y-113211923D01*
X117560058Y-113289733D01*
X117560061Y-113289734D01*
X117560060Y-113289734D01*
X117667218Y-113321197D01*
X117678284Y-113324447D01*
X117698147Y-113330279D01*
X117698149Y-113330280D01*
X117698150Y-113330280D01*
X117842073Y-113330280D01*
X117842073Y-113330279D01*
X117980164Y-113289733D01*
X118101239Y-113211923D01*
X118195488Y-113103153D01*
X118239795Y-113006135D01*
X121703234Y-113006135D01*
X121723715Y-113148591D01*
X121783503Y-113279506D01*
X121783504Y-113279508D01*
X121877753Y-113388278D01*
X121998828Y-113466088D01*
X121998831Y-113466089D01*
X121998830Y-113466089D01*
X122136917Y-113506634D01*
X122136919Y-113506635D01*
X122136920Y-113506635D01*
X122280843Y-113506635D01*
X122280843Y-113506634D01*
X122409446Y-113468874D01*
X122418931Y-113466089D01*
X122418931Y-113466088D01*
X122418934Y-113466088D01*
X122422586Y-113463741D01*
X127434353Y-113463741D01*
X127454834Y-113606197D01*
X127483993Y-113670045D01*
X127514623Y-113737114D01*
X127608872Y-113845884D01*
X127729947Y-113923694D01*
X127729950Y-113923695D01*
X127729949Y-113923695D01*
X127868036Y-113964240D01*
X127868038Y-113964241D01*
X127868039Y-113964241D01*
X128011962Y-113964241D01*
X128011962Y-113964240D01*
X128140064Y-113926627D01*
X128150050Y-113923695D01*
X128150050Y-113923694D01*
X128150053Y-113923694D01*
X128271128Y-113845884D01*
X128365377Y-113737114D01*
X128425165Y-113606198D01*
X128445647Y-113463741D01*
X128425165Y-113321284D01*
X128365377Y-113190368D01*
X128271128Y-113081598D01*
X128150053Y-113003788D01*
X128150051Y-113003787D01*
X128150049Y-113003786D01*
X128150050Y-113003786D01*
X128011963Y-112963241D01*
X128011961Y-112963241D01*
X127868039Y-112963241D01*
X127868036Y-112963241D01*
X127729949Y-113003786D01*
X127608873Y-113081597D01*
X127514623Y-113190367D01*
X127514622Y-113190369D01*
X127454834Y-113321284D01*
X127434353Y-113463741D01*
X122422586Y-113463741D01*
X122540009Y-113388278D01*
X122634258Y-113279508D01*
X122694046Y-113148592D01*
X122714528Y-113006135D01*
X122694046Y-112863678D01*
X122634258Y-112732762D01*
X122540009Y-112623992D01*
X122418934Y-112546182D01*
X122418932Y-112546181D01*
X122418930Y-112546180D01*
X122418931Y-112546180D01*
X122280844Y-112505635D01*
X122280842Y-112505635D01*
X122136920Y-112505635D01*
X122136917Y-112505635D01*
X121998830Y-112546180D01*
X121877754Y-112623991D01*
X121783504Y-112732761D01*
X121783503Y-112732763D01*
X121723715Y-112863678D01*
X121703234Y-113006135D01*
X118239795Y-113006135D01*
X118255276Y-112972237D01*
X118275758Y-112829780D01*
X118255276Y-112687323D01*
X118195488Y-112556407D01*
X118101239Y-112447637D01*
X117980164Y-112369827D01*
X117980162Y-112369826D01*
X117980160Y-112369825D01*
X117980161Y-112369825D01*
X117842074Y-112329280D01*
X117842072Y-112329280D01*
X117698150Y-112329280D01*
X117698147Y-112329280D01*
X117560060Y-112369825D01*
X117438984Y-112447636D01*
X117344734Y-112556406D01*
X117344733Y-112556408D01*
X117284945Y-112687323D01*
X117264464Y-112829780D01*
X115266205Y-112829780D01*
X115250714Y-112722036D01*
X115190926Y-112591120D01*
X115096677Y-112482350D01*
X114975602Y-112404540D01*
X114975600Y-112404539D01*
X114975598Y-112404538D01*
X114975599Y-112404538D01*
X114837512Y-112363993D01*
X114837510Y-112363993D01*
X114693588Y-112363993D01*
X114693585Y-112363993D01*
X114555498Y-112404538D01*
X114434422Y-112482349D01*
X114340172Y-112591119D01*
X114340171Y-112591121D01*
X114280383Y-112722036D01*
X114259902Y-112864493D01*
X110880562Y-112864493D01*
X110858183Y-112832071D01*
X110730852Y-112719266D01*
X110730849Y-112719263D01*
X110580226Y-112640210D01*
X110415056Y-112599500D01*
X110244944Y-112599500D01*
X110079773Y-112640210D01*
X109929150Y-112719263D01*
X109801816Y-112832072D01*
X109705182Y-112972068D01*
X109644860Y-113131125D01*
X109644859Y-113131130D01*
X109624355Y-113300000D01*
X109135645Y-113300000D01*
X109115140Y-113131128D01*
X109054818Y-112972070D01*
X108958183Y-112832071D01*
X108830852Y-112719266D01*
X108830849Y-112719263D01*
X108680226Y-112640210D01*
X108515056Y-112599500D01*
X108344944Y-112599500D01*
X108179773Y-112640210D01*
X108029150Y-112719263D01*
X107901816Y-112832072D01*
X107805182Y-112972068D01*
X107744860Y-113131125D01*
X107744859Y-113131130D01*
X107724355Y-113300000D01*
X92883285Y-113300000D01*
X92883285Y-112090000D01*
X110984353Y-112090000D01*
X111004834Y-112232456D01*
X111064622Y-112363371D01*
X111064623Y-112363373D01*
X111158872Y-112472143D01*
X111279947Y-112549953D01*
X111279950Y-112549954D01*
X111279949Y-112549954D01*
X111418036Y-112590499D01*
X111418038Y-112590500D01*
X111418039Y-112590500D01*
X111561962Y-112590500D01*
X111561962Y-112590499D01*
X111678069Y-112556408D01*
X111700050Y-112549954D01*
X111700050Y-112549953D01*
X111700053Y-112549953D01*
X111821128Y-112472143D01*
X111915377Y-112363373D01*
X111975165Y-112232457D01*
X111995647Y-112090000D01*
X111975165Y-111947543D01*
X111915377Y-111816627D01*
X111821128Y-111707857D01*
X111700053Y-111630047D01*
X111700051Y-111630046D01*
X111700049Y-111630045D01*
X111700050Y-111630045D01*
X111561963Y-111589500D01*
X111561961Y-111589500D01*
X111418039Y-111589500D01*
X111418036Y-111589500D01*
X111279949Y-111630045D01*
X111158873Y-111707856D01*
X111158872Y-111707856D01*
X111158872Y-111707857D01*
X111153702Y-111713824D01*
X111064623Y-111816626D01*
X111064622Y-111816628D01*
X111004834Y-111947543D01*
X110984353Y-112090000D01*
X92883285Y-112090000D01*
X92883285Y-111213325D01*
X113994353Y-111213325D01*
X114014834Y-111355781D01*
X114040415Y-111411794D01*
X114074623Y-111486698D01*
X114168872Y-111595468D01*
X114289947Y-111673278D01*
X114289950Y-111673279D01*
X114289949Y-111673279D01*
X114428036Y-111713824D01*
X114428038Y-111713825D01*
X114428039Y-111713825D01*
X114571961Y-111713825D01*
X114602790Y-111704773D01*
X114672660Y-111704773D01*
X114731438Y-111742547D01*
X114749290Y-111775239D01*
X114751151Y-111774390D01*
X114754834Y-111782456D01*
X114754835Y-111782457D01*
X114814623Y-111913373D01*
X114908872Y-112022143D01*
X115029947Y-112099953D01*
X115029950Y-112099954D01*
X115029949Y-112099954D01*
X115168036Y-112140499D01*
X115168038Y-112140500D01*
X115168039Y-112140500D01*
X115311962Y-112140500D01*
X115311962Y-112140499D01*
X115450053Y-112099953D01*
X115571128Y-112022143D01*
X115634427Y-111949092D01*
X120531412Y-111949092D01*
X120551893Y-112091548D01*
X120555732Y-112099953D01*
X120611682Y-112222465D01*
X120705931Y-112331235D01*
X120827006Y-112409045D01*
X120827009Y-112409046D01*
X120827008Y-112409046D01*
X120934166Y-112440509D01*
X120958436Y-112447636D01*
X120965095Y-112449591D01*
X120965097Y-112449592D01*
X120965098Y-112449592D01*
X121109021Y-112449592D01*
X121109021Y-112449591D01*
X121247112Y-112409045D01*
X121368187Y-112331235D01*
X121462436Y-112222465D01*
X121522224Y-112091549D01*
X121542706Y-111949092D01*
X121535648Y-111900000D01*
X125194353Y-111900000D01*
X125214834Y-112042456D01*
X125241093Y-112099954D01*
X125274623Y-112173373D01*
X125368872Y-112282143D01*
X125489947Y-112359953D01*
X125489950Y-112359954D01*
X125489949Y-112359954D01*
X125628036Y-112400499D01*
X125628038Y-112400500D01*
X125628039Y-112400500D01*
X125771962Y-112400500D01*
X125771962Y-112400499D01*
X125896294Y-112363993D01*
X125910050Y-112359954D01*
X125910050Y-112359953D01*
X125910053Y-112359953D01*
X126031128Y-112282143D01*
X126084076Y-112221036D01*
X126142851Y-112183264D01*
X126212721Y-112183264D01*
X126271499Y-112221037D01*
X126290581Y-112250729D01*
X126314623Y-112303373D01*
X126408872Y-112412143D01*
X126529947Y-112489953D01*
X126529950Y-112489954D01*
X126529949Y-112489954D01*
X126668036Y-112530499D01*
X126668038Y-112530500D01*
X126668039Y-112530500D01*
X126811962Y-112530500D01*
X126811962Y-112530499D01*
X126950053Y-112489953D01*
X127071128Y-112412143D01*
X127165377Y-112303373D01*
X127225165Y-112172457D01*
X127245647Y-112030000D01*
X127225165Y-111887543D01*
X127165377Y-111756627D01*
X127071128Y-111647857D01*
X126950053Y-111570047D01*
X126950051Y-111570046D01*
X126950049Y-111570045D01*
X126950050Y-111570045D01*
X126811963Y-111529500D01*
X126811961Y-111529500D01*
X126668039Y-111529500D01*
X126668036Y-111529500D01*
X126529949Y-111570045D01*
X126408872Y-111647857D01*
X126408869Y-111647859D01*
X126355924Y-111708961D01*
X126297146Y-111746735D01*
X126227276Y-111746735D01*
X126168499Y-111708960D01*
X126149420Y-111679274D01*
X126125377Y-111626627D01*
X126031128Y-111517857D01*
X125910053Y-111440047D01*
X125910051Y-111440046D01*
X125910049Y-111440045D01*
X125910050Y-111440045D01*
X125771963Y-111399500D01*
X125771961Y-111399500D01*
X125628039Y-111399500D01*
X125628036Y-111399500D01*
X125489949Y-111440045D01*
X125368873Y-111517856D01*
X125274623Y-111626626D01*
X125274622Y-111626628D01*
X125214834Y-111757543D01*
X125194353Y-111900000D01*
X121535648Y-111900000D01*
X121522224Y-111806635D01*
X121462436Y-111675719D01*
X121368187Y-111566949D01*
X121247112Y-111489139D01*
X121247110Y-111489138D01*
X121247108Y-111489137D01*
X121247109Y-111489137D01*
X121109022Y-111448592D01*
X121109020Y-111448592D01*
X120965098Y-111448592D01*
X120965095Y-111448592D01*
X120827008Y-111489137D01*
X120705932Y-111566948D01*
X120611682Y-111675718D01*
X120611681Y-111675720D01*
X120551893Y-111806635D01*
X120531412Y-111949092D01*
X115634427Y-111949092D01*
X115665377Y-111913373D01*
X115725165Y-111782457D01*
X115745647Y-111640000D01*
X115725165Y-111497543D01*
X115665377Y-111366627D01*
X115571128Y-111257857D01*
X115450053Y-111180047D01*
X115450051Y-111180046D01*
X115450049Y-111180045D01*
X115450050Y-111180045D01*
X115311963Y-111139500D01*
X115311961Y-111139500D01*
X115168039Y-111139500D01*
X115168035Y-111139500D01*
X115137205Y-111148552D01*
X115067336Y-111148550D01*
X115051579Y-111138423D01*
X117355930Y-111138423D01*
X117376411Y-111280879D01*
X117436199Y-111411794D01*
X117436200Y-111411796D01*
X117530449Y-111520566D01*
X117651524Y-111598376D01*
X117651527Y-111598377D01*
X117651526Y-111598377D01*
X117789613Y-111638922D01*
X117789615Y-111638923D01*
X117789616Y-111638923D01*
X117933539Y-111638923D01*
X117933539Y-111638922D01*
X118071630Y-111598376D01*
X118192705Y-111520566D01*
X118286954Y-111411796D01*
X118346742Y-111280880D01*
X118367224Y-111138423D01*
X118346742Y-110995966D01*
X118286954Y-110865050D01*
X118192705Y-110756280D01*
X118071630Y-110678470D01*
X118071628Y-110678469D01*
X118071626Y-110678468D01*
X118071627Y-110678468D01*
X117933540Y-110637923D01*
X117933538Y-110637923D01*
X117789616Y-110637923D01*
X117789613Y-110637923D01*
X117651526Y-110678468D01*
X117530450Y-110756279D01*
X117436200Y-110865049D01*
X117436199Y-110865051D01*
X117376411Y-110995966D01*
X117355930Y-111138423D01*
X115051579Y-111138423D01*
X115008559Y-111110774D01*
X114990711Y-111078084D01*
X114988849Y-111078935D01*
X114925379Y-110939955D01*
X114925376Y-110939951D01*
X114860475Y-110865051D01*
X114831128Y-110831182D01*
X114710053Y-110753372D01*
X114710051Y-110753371D01*
X114710049Y-110753370D01*
X114710050Y-110753370D01*
X114571963Y-110712825D01*
X114571961Y-110712825D01*
X114428039Y-110712825D01*
X114428036Y-110712825D01*
X114289949Y-110753370D01*
X114168873Y-110831181D01*
X114074623Y-110939951D01*
X114074622Y-110939953D01*
X114014834Y-111070868D01*
X113994353Y-111213325D01*
X92883285Y-111213325D01*
X92883285Y-110544627D01*
X112828302Y-110544627D01*
X112848783Y-110687083D01*
X112880385Y-110756280D01*
X112908572Y-110818000D01*
X113002821Y-110926770D01*
X113123896Y-111004580D01*
X113123899Y-111004581D01*
X113123898Y-111004581D01*
X113261985Y-111045126D01*
X113261987Y-111045127D01*
X113261988Y-111045127D01*
X113405911Y-111045127D01*
X113405911Y-111045126D01*
X113544002Y-111004580D01*
X113665077Y-110926770D01*
X113759326Y-110818000D01*
X113819114Y-110687084D01*
X113839596Y-110544627D01*
X113819114Y-110402170D01*
X113759326Y-110271254D01*
X113665077Y-110162484D01*
X113544002Y-110084674D01*
X113544000Y-110084673D01*
X113543998Y-110084672D01*
X113543999Y-110084672D01*
X113405912Y-110044127D01*
X113405910Y-110044127D01*
X113261988Y-110044127D01*
X113261985Y-110044127D01*
X113123898Y-110084672D01*
X113002822Y-110162483D01*
X112908572Y-110271253D01*
X112908571Y-110271255D01*
X112848783Y-110402170D01*
X112828302Y-110544627D01*
X92883285Y-110544627D01*
X92883285Y-109110000D01*
X114014353Y-109110000D01*
X114034834Y-109252456D01*
X114055592Y-109297909D01*
X114094623Y-109383373D01*
X114188872Y-109492143D01*
X114309947Y-109569953D01*
X114309950Y-109569954D01*
X114309949Y-109569954D01*
X114448036Y-109610499D01*
X114448038Y-109610500D01*
X114448039Y-109610500D01*
X114591962Y-109610500D01*
X114591962Y-109610499D01*
X114730053Y-109569953D01*
X114851128Y-109492143D01*
X114921143Y-109411341D01*
X118033012Y-109411341D01*
X118053493Y-109553797D01*
X118079389Y-109610500D01*
X118113282Y-109684714D01*
X118207531Y-109793484D01*
X118328606Y-109871294D01*
X118328609Y-109871295D01*
X118328608Y-109871295D01*
X118466695Y-109911840D01*
X118466697Y-109911841D01*
X118466698Y-109911841D01*
X118610621Y-109911841D01*
X118610621Y-109911840D01*
X118748712Y-109871294D01*
X118869787Y-109793484D01*
X118953766Y-109696565D01*
X119012541Y-109658793D01*
X119082411Y-109658793D01*
X119141189Y-109696567D01*
X119160271Y-109726258D01*
X119176759Y-109762361D01*
X119204623Y-109823373D01*
X119298872Y-109932143D01*
X119419947Y-110009953D01*
X119419950Y-110009954D01*
X119419949Y-110009954D01*
X119558036Y-110050499D01*
X119558038Y-110050500D01*
X119558039Y-110050500D01*
X119701962Y-110050500D01*
X119701962Y-110050499D01*
X119752245Y-110035735D01*
X120458618Y-110035735D01*
X120479099Y-110178191D01*
X120515712Y-110258361D01*
X120538888Y-110309108D01*
X120633137Y-110417878D01*
X120754212Y-110495688D01*
X120754215Y-110495689D01*
X120754214Y-110495689D01*
X120892301Y-110536234D01*
X120892303Y-110536235D01*
X120892304Y-110536235D01*
X121036227Y-110536235D01*
X121036227Y-110536234D01*
X121174318Y-110495688D01*
X121295393Y-110417878D01*
X121389642Y-110309108D01*
X121449430Y-110178192D01*
X121469912Y-110035735D01*
X121449430Y-109893278D01*
X121389642Y-109762362D01*
X121385743Y-109757862D01*
X122749226Y-109757862D01*
X122769707Y-109900318D01*
X122819777Y-110009953D01*
X122829496Y-110031235D01*
X122923745Y-110140005D01*
X123044820Y-110217815D01*
X123044823Y-110217816D01*
X123044822Y-110217816D01*
X123182909Y-110258361D01*
X123182911Y-110258362D01*
X123182912Y-110258362D01*
X123326835Y-110258362D01*
X123326835Y-110258361D01*
X123464926Y-110217815D01*
X123586001Y-110140005D01*
X123680250Y-110031235D01*
X123740038Y-109900319D01*
X123760520Y-109757862D01*
X123740038Y-109615405D01*
X123680250Y-109484489D01*
X123605846Y-109398621D01*
X125862046Y-109398621D01*
X125882527Y-109541077D01*
X125933912Y-109653592D01*
X125942316Y-109671994D01*
X126036565Y-109780764D01*
X126157640Y-109858574D01*
X126157643Y-109858575D01*
X126157642Y-109858575D01*
X126295729Y-109899120D01*
X126295731Y-109899121D01*
X126295732Y-109899121D01*
X126439655Y-109899121D01*
X126439655Y-109899120D01*
X126577746Y-109858574D01*
X126698821Y-109780764D01*
X126793070Y-109671994D01*
X126852858Y-109541078D01*
X126873340Y-109398621D01*
X126852858Y-109256164D01*
X126793070Y-109125248D01*
X126698821Y-109016478D01*
X126577746Y-108938668D01*
X126577744Y-108938667D01*
X126577742Y-108938666D01*
X126577743Y-108938666D01*
X126439656Y-108898121D01*
X126439654Y-108898121D01*
X126295732Y-108898121D01*
X126295729Y-108898121D01*
X126157642Y-108938666D01*
X126036566Y-109016477D01*
X125942316Y-109125247D01*
X125942315Y-109125249D01*
X125882527Y-109256164D01*
X125862046Y-109398621D01*
X123605846Y-109398621D01*
X123586001Y-109375719D01*
X123464926Y-109297909D01*
X123464924Y-109297908D01*
X123464922Y-109297907D01*
X123464923Y-109297907D01*
X123326836Y-109257362D01*
X123326834Y-109257362D01*
X123182912Y-109257362D01*
X123182909Y-109257362D01*
X123044822Y-109297907D01*
X122923746Y-109375718D01*
X122829496Y-109484488D01*
X122829495Y-109484490D01*
X122769707Y-109615405D01*
X122749226Y-109757862D01*
X121385743Y-109757862D01*
X121295393Y-109653592D01*
X121174318Y-109575782D01*
X121174316Y-109575781D01*
X121174314Y-109575780D01*
X121174315Y-109575780D01*
X121036228Y-109535235D01*
X121036226Y-109535235D01*
X120892304Y-109535235D01*
X120892301Y-109535235D01*
X120754214Y-109575780D01*
X120633138Y-109653591D01*
X120538888Y-109762361D01*
X120538887Y-109762363D01*
X120479099Y-109893278D01*
X120458618Y-110035735D01*
X119752245Y-110035735D01*
X119840053Y-110009953D01*
X119961128Y-109932143D01*
X120055377Y-109823373D01*
X120115165Y-109692457D01*
X120135647Y-109550000D01*
X120115165Y-109407543D01*
X120055377Y-109276627D01*
X119961128Y-109167857D01*
X119840053Y-109090047D01*
X119840050Y-109090045D01*
X119823544Y-109085199D01*
X119764766Y-109047425D01*
X119743108Y-109000000D01*
X121494353Y-109000000D01*
X121514834Y-109142456D01*
X121565070Y-109252455D01*
X121574623Y-109273373D01*
X121668872Y-109382143D01*
X121789947Y-109459953D01*
X121789950Y-109459954D01*
X121789949Y-109459954D01*
X121928036Y-109500499D01*
X121928038Y-109500500D01*
X121928039Y-109500500D01*
X122071962Y-109500500D01*
X122071962Y-109500499D01*
X122210053Y-109459953D01*
X122331128Y-109382143D01*
X122425377Y-109273373D01*
X122485165Y-109142457D01*
X122505647Y-109000000D01*
X122485165Y-108857543D01*
X122425377Y-108726627D01*
X122331128Y-108617857D01*
X122210053Y-108540047D01*
X122210051Y-108540046D01*
X122210049Y-108540045D01*
X122210050Y-108540045D01*
X122071963Y-108499500D01*
X122071961Y-108499500D01*
X121928039Y-108499500D01*
X121928036Y-108499500D01*
X121789949Y-108540045D01*
X121668873Y-108617856D01*
X121574623Y-108726626D01*
X121574622Y-108726628D01*
X121514834Y-108857543D01*
X121494353Y-109000000D01*
X119743108Y-109000000D01*
X119735741Y-108983869D01*
X119745685Y-108914710D01*
X119764763Y-108885022D01*
X119826848Y-108813373D01*
X119886636Y-108682457D01*
X119907118Y-108540000D01*
X119886636Y-108397543D01*
X119826848Y-108266627D01*
X119732599Y-108157857D01*
X119611524Y-108080047D01*
X119611522Y-108080046D01*
X119611520Y-108080045D01*
X119611521Y-108080045D01*
X119473434Y-108039500D01*
X119473432Y-108039500D01*
X119329510Y-108039500D01*
X119329507Y-108039500D01*
X119191420Y-108080045D01*
X119070344Y-108157856D01*
X118976094Y-108266626D01*
X118976093Y-108266628D01*
X118916305Y-108397543D01*
X118895824Y-108540000D01*
X118916305Y-108682456D01*
X118976094Y-108813375D01*
X118979013Y-108817916D01*
X118998697Y-108884956D01*
X118979012Y-108951995D01*
X118926207Y-108997749D01*
X118857048Y-109007692D01*
X118807658Y-108989270D01*
X118748709Y-108951386D01*
X118610622Y-108910841D01*
X118610620Y-108910841D01*
X118466698Y-108910841D01*
X118466695Y-108910841D01*
X118328608Y-108951386D01*
X118207532Y-109029197D01*
X118113282Y-109137967D01*
X118113281Y-109137969D01*
X118053493Y-109268884D01*
X118033012Y-109411341D01*
X114921143Y-109411341D01*
X114945377Y-109383373D01*
X115005165Y-109252457D01*
X115005165Y-109252453D01*
X115007665Y-109243944D01*
X115010303Y-109244718D01*
X115033448Y-109194032D01*
X115092224Y-109156254D01*
X115162094Y-109156250D01*
X115199036Y-109167097D01*
X115265671Y-109186663D01*
X115265672Y-109186663D01*
X115409595Y-109186663D01*
X115409595Y-109186662D01*
X115547686Y-109146116D01*
X115668761Y-109068306D01*
X115763010Y-108959536D01*
X115822798Y-108828620D01*
X115843280Y-108686163D01*
X115822798Y-108543706D01*
X115763010Y-108412790D01*
X115668761Y-108304020D01*
X115547686Y-108226210D01*
X115547684Y-108226209D01*
X115547682Y-108226208D01*
X115547683Y-108226208D01*
X115409596Y-108185663D01*
X115409594Y-108185663D01*
X115265672Y-108185663D01*
X115265669Y-108185663D01*
X115127582Y-108226208D01*
X115006506Y-108304019D01*
X114912256Y-108412789D01*
X114912255Y-108412791D01*
X114852467Y-108543707D01*
X114849968Y-108552219D01*
X114847333Y-108551445D01*
X114824159Y-108602159D01*
X114765371Y-108639919D01*
X114695532Y-108639910D01*
X114591963Y-108609500D01*
X114591961Y-108609500D01*
X114448039Y-108609500D01*
X114448036Y-108609500D01*
X114309949Y-108650045D01*
X114188873Y-108727856D01*
X114094623Y-108836626D01*
X114094622Y-108836628D01*
X114034834Y-108967543D01*
X114014353Y-109110000D01*
X92883285Y-109110000D01*
X92883285Y-107758655D01*
X124218649Y-107758655D01*
X124239130Y-107901111D01*
X124270343Y-107969457D01*
X124298919Y-108032028D01*
X124393168Y-108140798D01*
X124514243Y-108218608D01*
X124514246Y-108218609D01*
X124514245Y-108218609D01*
X124652332Y-108259154D01*
X124652334Y-108259155D01*
X124652335Y-108259155D01*
X124796258Y-108259155D01*
X124796258Y-108259154D01*
X124851851Y-108242831D01*
X127415768Y-108242831D01*
X127436249Y-108385287D01*
X127448810Y-108412791D01*
X127496038Y-108516204D01*
X127590287Y-108624974D01*
X127711362Y-108702784D01*
X127711365Y-108702785D01*
X127711364Y-108702785D01*
X127849451Y-108743330D01*
X127849453Y-108743331D01*
X127849454Y-108743331D01*
X127993377Y-108743331D01*
X127993377Y-108743330D01*
X128131468Y-108702784D01*
X128252543Y-108624974D01*
X128346792Y-108516204D01*
X128406580Y-108385288D01*
X128427062Y-108242831D01*
X128406580Y-108100374D01*
X128346792Y-107969458D01*
X128252543Y-107860688D01*
X128131468Y-107782878D01*
X128131466Y-107782877D01*
X128131464Y-107782876D01*
X128131465Y-107782876D01*
X127993378Y-107742331D01*
X127993376Y-107742331D01*
X127849454Y-107742331D01*
X127849451Y-107742331D01*
X127711364Y-107782876D01*
X127590288Y-107860687D01*
X127496038Y-107969457D01*
X127496037Y-107969459D01*
X127436249Y-108100374D01*
X127415768Y-108242831D01*
X124851851Y-108242831D01*
X124908459Y-108226210D01*
X124934346Y-108218609D01*
X124934346Y-108218608D01*
X124934349Y-108218608D01*
X125055424Y-108140798D01*
X125149673Y-108032028D01*
X125209461Y-107901112D01*
X125229943Y-107758655D01*
X125209461Y-107616198D01*
X125149673Y-107485282D01*
X125055424Y-107376512D01*
X124934349Y-107298702D01*
X124934347Y-107298701D01*
X124934345Y-107298700D01*
X124934346Y-107298700D01*
X124796259Y-107258155D01*
X124796257Y-107258155D01*
X124652335Y-107258155D01*
X124652332Y-107258155D01*
X124514245Y-107298700D01*
X124393169Y-107376511D01*
X124298919Y-107485281D01*
X124298918Y-107485283D01*
X124239130Y-107616198D01*
X124218649Y-107758655D01*
X92883285Y-107758655D01*
X92883285Y-107225735D01*
X115068618Y-107225735D01*
X115089099Y-107368191D01*
X115142573Y-107485281D01*
X115148888Y-107499108D01*
X115243137Y-107607878D01*
X115364212Y-107685688D01*
X115364215Y-107685689D01*
X115364214Y-107685689D01*
X115502301Y-107726234D01*
X115502303Y-107726235D01*
X115502304Y-107726235D01*
X115646227Y-107726235D01*
X115646227Y-107726234D01*
X115784318Y-107685688D01*
X115905393Y-107607878D01*
X115999642Y-107499108D01*
X116059430Y-107368192D01*
X116079912Y-107225735D01*
X116059430Y-107083278D01*
X115999642Y-106952362D01*
X115905393Y-106843592D01*
X115784318Y-106765782D01*
X115784316Y-106765781D01*
X115784314Y-106765780D01*
X115784315Y-106765780D01*
X115646228Y-106725235D01*
X115646226Y-106725235D01*
X115502304Y-106725235D01*
X115502301Y-106725235D01*
X115364214Y-106765780D01*
X115243138Y-106843591D01*
X115148888Y-106952361D01*
X115148887Y-106952363D01*
X115089099Y-107083278D01*
X115068618Y-107225735D01*
X92883285Y-107225735D01*
X92883285Y-106362785D01*
X112051568Y-106362785D01*
X112072049Y-106505241D01*
X112097837Y-106561707D01*
X112131838Y-106636158D01*
X112226087Y-106744928D01*
X112347162Y-106822738D01*
X112347165Y-106822739D01*
X112347164Y-106822739D01*
X112485251Y-106863284D01*
X112485253Y-106863285D01*
X112485254Y-106863285D01*
X112629177Y-106863285D01*
X112629177Y-106863284D01*
X112767268Y-106822738D01*
X112888343Y-106744928D01*
X112982592Y-106636158D01*
X113042380Y-106505242D01*
X113062862Y-106362785D01*
X113042380Y-106220328D01*
X112982592Y-106089412D01*
X112889063Y-105981473D01*
X114564353Y-105981473D01*
X114584834Y-106123929D01*
X114621249Y-106203665D01*
X114644623Y-106254846D01*
X114738872Y-106363616D01*
X114859947Y-106441426D01*
X114859950Y-106441427D01*
X114859949Y-106441427D01*
X114998036Y-106481972D01*
X114998038Y-106481973D01*
X114998039Y-106481973D01*
X115141962Y-106481973D01*
X115141962Y-106481972D01*
X115271437Y-106443956D01*
X115280050Y-106441427D01*
X115280050Y-106441426D01*
X115280053Y-106441426D01*
X115401128Y-106363616D01*
X115495377Y-106254846D01*
X115555165Y-106123930D01*
X115575647Y-105981473D01*
X115555165Y-105839016D01*
X115495377Y-105708100D01*
X115401128Y-105599330D01*
X115280053Y-105521520D01*
X115280051Y-105521519D01*
X115280049Y-105521518D01*
X115280050Y-105521518D01*
X115141963Y-105480973D01*
X115141961Y-105480973D01*
X114998039Y-105480973D01*
X114998036Y-105480973D01*
X114859949Y-105521518D01*
X114738873Y-105599329D01*
X114644623Y-105708099D01*
X114644622Y-105708101D01*
X114584834Y-105839016D01*
X114564353Y-105981473D01*
X112889063Y-105981473D01*
X112888343Y-105980642D01*
X112767268Y-105902832D01*
X112767266Y-105902831D01*
X112767264Y-105902830D01*
X112767265Y-105902830D01*
X112629178Y-105862285D01*
X112629176Y-105862285D01*
X112485254Y-105862285D01*
X112485251Y-105862285D01*
X112347164Y-105902830D01*
X112226088Y-105980641D01*
X112131838Y-106089411D01*
X112131837Y-106089413D01*
X112072049Y-106220328D01*
X112051568Y-106362785D01*
X92883285Y-106362785D01*
X92883285Y-105103207D01*
X115991146Y-105103207D01*
X116011627Y-105245663D01*
X116033515Y-105293590D01*
X116071416Y-105376580D01*
X116165665Y-105485350D01*
X116286740Y-105563160D01*
X116286743Y-105563161D01*
X116286742Y-105563161D01*
X116424829Y-105603706D01*
X116424831Y-105603707D01*
X116424832Y-105603707D01*
X116568755Y-105603707D01*
X116568755Y-105603706D01*
X116706846Y-105563160D01*
X116827921Y-105485350D01*
X116829058Y-105484037D01*
X116830518Y-105483098D01*
X116834621Y-105479544D01*
X116835131Y-105480133D01*
X116887828Y-105446261D01*
X116957697Y-105446254D01*
X117016478Y-105484022D01*
X117039929Y-105511086D01*
X117161004Y-105588896D01*
X117161007Y-105588897D01*
X117161006Y-105588897D01*
X117299093Y-105629442D01*
X117299095Y-105629443D01*
X117299096Y-105629443D01*
X117443019Y-105629443D01*
X117443019Y-105629442D01*
X117581110Y-105588896D01*
X117702185Y-105511086D01*
X117796434Y-105402316D01*
X117856222Y-105271400D01*
X117876704Y-105128943D01*
X117876704Y-105128942D01*
X117876704Y-105124500D01*
X117877955Y-105120237D01*
X117877966Y-105120165D01*
X117877976Y-105120166D01*
X117896389Y-105057461D01*
X117949193Y-105011706D01*
X118000704Y-105000500D01*
X118071962Y-105000500D01*
X118071962Y-105000499D01*
X118210053Y-104959953D01*
X118331128Y-104882143D01*
X118425377Y-104773373D01*
X118485165Y-104642457D01*
X118505647Y-104500000D01*
X118485165Y-104357543D01*
X118425377Y-104226627D01*
X118331128Y-104117857D01*
X118210053Y-104040047D01*
X118210051Y-104040046D01*
X118210049Y-104040045D01*
X118210050Y-104040045D01*
X118073666Y-104000000D01*
X119494353Y-104000000D01*
X119514834Y-104142456D01*
X119553870Y-104227931D01*
X119574623Y-104273373D01*
X119668872Y-104382143D01*
X119789947Y-104459953D01*
X119789950Y-104459954D01*
X119789949Y-104459954D01*
X119860721Y-104480734D01*
X119926336Y-104500000D01*
X119928036Y-104500499D01*
X119928038Y-104500500D01*
X119999041Y-104500500D01*
X120066080Y-104520185D01*
X120111835Y-104572989D01*
X120121779Y-104642147D01*
X120092754Y-104705702D01*
X120079444Y-104721063D01*
X120074623Y-104726627D01*
X120074622Y-104726628D01*
X120014834Y-104857543D01*
X119994353Y-105000000D01*
X120014834Y-105142456D01*
X120073721Y-105271399D01*
X120074623Y-105273373D01*
X120168872Y-105382143D01*
X120168874Y-105382144D01*
X120168873Y-105382144D01*
X120206960Y-105406621D01*
X120252714Y-105459425D01*
X120262658Y-105528583D01*
X120233633Y-105592139D01*
X120206960Y-105615251D01*
X120107666Y-105679063D01*
X120013415Y-105787834D01*
X120013414Y-105787836D01*
X119953626Y-105918751D01*
X119933145Y-106061208D01*
X119953626Y-106203664D01*
X119993055Y-106290000D01*
X120013415Y-106334581D01*
X120107664Y-106443351D01*
X120228739Y-106521161D01*
X120228742Y-106521162D01*
X120228741Y-106521162D01*
X120366828Y-106561707D01*
X120366830Y-106561708D01*
X120366831Y-106561708D01*
X120510754Y-106561708D01*
X120510754Y-106561707D01*
X120648845Y-106521161D01*
X120769920Y-106443351D01*
X120864169Y-106334581D01*
X120923957Y-106203665D01*
X120944439Y-106061208D01*
X120923957Y-105918751D01*
X120864169Y-105787835D01*
X120769920Y-105679065D01*
X120769917Y-105679063D01*
X120731831Y-105654586D01*
X120686076Y-105601782D01*
X120676133Y-105532623D01*
X120705159Y-105469068D01*
X120731829Y-105445958D01*
X120831128Y-105382143D01*
X120925377Y-105273373D01*
X120972474Y-105170247D01*
X125869500Y-105170247D01*
X125869500Y-106909752D01*
X125881131Y-106968229D01*
X125881132Y-106968230D01*
X125925447Y-107034552D01*
X125991769Y-107078867D01*
X125991770Y-107078868D01*
X126050247Y-107090499D01*
X126050250Y-107090500D01*
X126050252Y-107090500D01*
X127789750Y-107090500D01*
X127789751Y-107090499D01*
X127804568Y-107087552D01*
X127848229Y-107078868D01*
X127848229Y-107078867D01*
X127848231Y-107078867D01*
X127914552Y-107034552D01*
X127958867Y-106968231D01*
X127958867Y-106968229D01*
X127958868Y-106968229D01*
X127968922Y-106917682D01*
X127970500Y-106909748D01*
X127970500Y-106040000D01*
X128404417Y-106040000D01*
X128424699Y-106245932D01*
X128427403Y-106254846D01*
X128484768Y-106443954D01*
X128582315Y-106626450D01*
X128590282Y-106636158D01*
X128713589Y-106786410D01*
X128783267Y-106843592D01*
X128873550Y-106917685D01*
X129056046Y-107015232D01*
X129254066Y-107075300D01*
X129254065Y-107075300D01*
X129272529Y-107077118D01*
X129460000Y-107095583D01*
X129665934Y-107075300D01*
X129863954Y-107015232D01*
X130046450Y-106917685D01*
X130206410Y-106786410D01*
X130337685Y-106626450D01*
X130435232Y-106443954D01*
X130455405Y-106377449D01*
X130493700Y-106319012D01*
X130557512Y-106290555D01*
X130626579Y-106301114D01*
X130678974Y-106347338D01*
X130693840Y-106381351D01*
X130726566Y-106503485D01*
X130726569Y-106503492D01*
X130826398Y-106717578D01*
X130961893Y-106911082D01*
X131128916Y-107078105D01*
X131322420Y-107213600D01*
X131536506Y-107313429D01*
X131536515Y-107313433D01*
X131749999Y-107370634D01*
X131749999Y-106473012D01*
X131807006Y-106505925D01*
X131934173Y-106540000D01*
X132065825Y-106540000D01*
X132192992Y-106505925D01*
X132249999Y-106473012D01*
X132249999Y-107370633D01*
X132463482Y-107313433D01*
X132463491Y-107313429D01*
X132677577Y-107213600D01*
X132871081Y-107078105D01*
X133038104Y-106911082D01*
X133173599Y-106717578D01*
X133273428Y-106503492D01*
X133273431Y-106503486D01*
X133330635Y-106290000D01*
X132433011Y-106290000D01*
X132465924Y-106232993D01*
X132499999Y-106105826D01*
X132499999Y-105974174D01*
X132465924Y-105847007D01*
X132433011Y-105790000D01*
X133330635Y-105790000D01*
X133330634Y-105789999D01*
X133273431Y-105576513D01*
X133273428Y-105576507D01*
X133173599Y-105362422D01*
X133173598Y-105362420D01*
X133038112Y-105168926D01*
X133038107Y-105168920D01*
X132871081Y-105001894D01*
X132677577Y-104866399D01*
X132463491Y-104766570D01*
X132463484Y-104766567D01*
X132341349Y-104733841D01*
X132281689Y-104697476D01*
X132251160Y-104634629D01*
X132259455Y-104565253D01*
X132303940Y-104511375D01*
X132337444Y-104495407D01*
X132403954Y-104475232D01*
X132586450Y-104377685D01*
X132746410Y-104246410D01*
X132877685Y-104086450D01*
X132975232Y-103903954D01*
X133035300Y-103705934D01*
X133055583Y-103500000D01*
X133035300Y-103294066D01*
X132975232Y-103096046D01*
X132877685Y-102913550D01*
X132825702Y-102850209D01*
X132746410Y-102753589D01*
X132628677Y-102656969D01*
X132586450Y-102622315D01*
X132403954Y-102524768D01*
X132205934Y-102464700D01*
X132205932Y-102464699D01*
X132205934Y-102464699D01*
X132000000Y-102444417D01*
X131794067Y-102464699D01*
X131596043Y-102524769D01*
X131485898Y-102583643D01*
X131413550Y-102622315D01*
X131413548Y-102622316D01*
X131413547Y-102622317D01*
X131253589Y-102753589D01*
X131122317Y-102913547D01*
X131024769Y-103096043D01*
X130964699Y-103294067D01*
X130944417Y-103500000D01*
X130964699Y-103705932D01*
X130985157Y-103773373D01*
X131024768Y-103903954D01*
X131122315Y-104086450D01*
X131122317Y-104086452D01*
X131253589Y-104246410D01*
X131350209Y-104325702D01*
X131413550Y-104377685D01*
X131596046Y-104475232D01*
X131662551Y-104495405D01*
X131720989Y-104533703D01*
X131749445Y-104597515D01*
X131738885Y-104666582D01*
X131692661Y-104718975D01*
X131658649Y-104733841D01*
X131536513Y-104766567D01*
X131536506Y-104766570D01*
X131322421Y-104866399D01*
X131322419Y-104866400D01*
X131128925Y-105001886D01*
X131128919Y-105001891D01*
X130961890Y-105168920D01*
X130961885Y-105168926D01*
X130826399Y-105362420D01*
X130826398Y-105362422D01*
X130726569Y-105576507D01*
X130726566Y-105576514D01*
X130693840Y-105698648D01*
X130657474Y-105758308D01*
X130594627Y-105788837D01*
X130525252Y-105780542D01*
X130471374Y-105736056D01*
X130455406Y-105702553D01*
X130435232Y-105636046D01*
X130337685Y-105453550D01*
X130262897Y-105362420D01*
X130206410Y-105293589D01*
X130056121Y-105170252D01*
X130046450Y-105162315D01*
X129863954Y-105064768D01*
X129665934Y-105004700D01*
X129665932Y-105004699D01*
X129665934Y-105004699D01*
X129460000Y-104984417D01*
X129254067Y-105004699D01*
X129056043Y-105064769D01*
X128952272Y-105120237D01*
X128873550Y-105162315D01*
X128873548Y-105162316D01*
X128873547Y-105162317D01*
X128713589Y-105293589D01*
X128582317Y-105453547D01*
X128582315Y-105453550D01*
X128551561Y-105511086D01*
X128484769Y-105636043D01*
X128424699Y-105834067D01*
X128404417Y-106040000D01*
X127970500Y-106040000D01*
X127970500Y-105170252D01*
X127970500Y-105170249D01*
X127970499Y-105170247D01*
X127958868Y-105111770D01*
X127958867Y-105111769D01*
X127914552Y-105045447D01*
X127848230Y-105001132D01*
X127848229Y-105001131D01*
X127789752Y-104989500D01*
X127789748Y-104989500D01*
X126050252Y-104989500D01*
X126050247Y-104989500D01*
X125991770Y-105001131D01*
X125991769Y-105001132D01*
X125925447Y-105045447D01*
X125881132Y-105111769D01*
X125881131Y-105111770D01*
X125869500Y-105170247D01*
X120972474Y-105170247D01*
X120985165Y-105142457D01*
X121005647Y-105000000D01*
X120985165Y-104857543D01*
X120925377Y-104726627D01*
X120831128Y-104617857D01*
X120710053Y-104540047D01*
X120710051Y-104540046D01*
X120710049Y-104540045D01*
X120710050Y-104540045D01*
X120571963Y-104499500D01*
X120571961Y-104499500D01*
X120500959Y-104499500D01*
X120433920Y-104479815D01*
X120388165Y-104427011D01*
X120378221Y-104357853D01*
X120407246Y-104294297D01*
X120425377Y-104273373D01*
X120485165Y-104142457D01*
X120505647Y-104000000D01*
X120485165Y-103857543D01*
X120425377Y-103726627D01*
X120331128Y-103617857D01*
X120210053Y-103540047D01*
X120210051Y-103540046D01*
X120210049Y-103540045D01*
X120210050Y-103540045D01*
X120073666Y-103500000D01*
X125864417Y-103500000D01*
X125884699Y-103705932D01*
X125905157Y-103773373D01*
X125944768Y-103903954D01*
X126042315Y-104086450D01*
X126042317Y-104086452D01*
X126173589Y-104246410D01*
X126270209Y-104325702D01*
X126333550Y-104377685D01*
X126516046Y-104475232D01*
X126714066Y-104535300D01*
X126714065Y-104535300D01*
X126732529Y-104537118D01*
X126920000Y-104555583D01*
X127125934Y-104535300D01*
X127323954Y-104475232D01*
X127506450Y-104377685D01*
X127666410Y-104246410D01*
X127797685Y-104086450D01*
X127895232Y-103903954D01*
X127955300Y-103705934D01*
X127975583Y-103500000D01*
X128404417Y-103500000D01*
X128424699Y-103705932D01*
X128445157Y-103773373D01*
X128484768Y-103903954D01*
X128582315Y-104086450D01*
X128582317Y-104086452D01*
X128713589Y-104246410D01*
X128810209Y-104325702D01*
X128873550Y-104377685D01*
X129056046Y-104475232D01*
X129254066Y-104535300D01*
X129254065Y-104535300D01*
X129272529Y-104537118D01*
X129460000Y-104555583D01*
X129665934Y-104535300D01*
X129863954Y-104475232D01*
X130046450Y-104377685D01*
X130206410Y-104246410D01*
X130337685Y-104086450D01*
X130435232Y-103903954D01*
X130495300Y-103705934D01*
X130515583Y-103500000D01*
X130495300Y-103294066D01*
X130435232Y-103096046D01*
X130337685Y-102913550D01*
X130285702Y-102850209D01*
X130206410Y-102753589D01*
X130088677Y-102656969D01*
X130046450Y-102622315D01*
X129863954Y-102524768D01*
X129665934Y-102464700D01*
X129665932Y-102464699D01*
X129665934Y-102464699D01*
X129460000Y-102444417D01*
X129254067Y-102464699D01*
X129056043Y-102524769D01*
X128945898Y-102583643D01*
X128873550Y-102622315D01*
X128873548Y-102622316D01*
X128873547Y-102622317D01*
X128713589Y-102753589D01*
X128582317Y-102913547D01*
X128484769Y-103096043D01*
X128424699Y-103294067D01*
X128404417Y-103500000D01*
X127975583Y-103500000D01*
X127955300Y-103294066D01*
X127895232Y-103096046D01*
X127797685Y-102913550D01*
X127745702Y-102850209D01*
X127666410Y-102753589D01*
X127548677Y-102656969D01*
X127506450Y-102622315D01*
X127323954Y-102524768D01*
X127125934Y-102464700D01*
X127125932Y-102464699D01*
X127125934Y-102464699D01*
X126920000Y-102444417D01*
X126714067Y-102464699D01*
X126516043Y-102524769D01*
X126405898Y-102583643D01*
X126333550Y-102622315D01*
X126333548Y-102622316D01*
X126333547Y-102622317D01*
X126173589Y-102753589D01*
X126042317Y-102913547D01*
X125944769Y-103096043D01*
X125884699Y-103294067D01*
X125864417Y-103500000D01*
X120073666Y-103500000D01*
X120071963Y-103499500D01*
X120071961Y-103499500D01*
X119928039Y-103499500D01*
X119928036Y-103499500D01*
X119789949Y-103540045D01*
X119668873Y-103617856D01*
X119574623Y-103726626D01*
X119574622Y-103726628D01*
X119514834Y-103857543D01*
X119494353Y-104000000D01*
X118073666Y-104000000D01*
X118071963Y-103999500D01*
X118071961Y-103999500D01*
X117928039Y-103999500D01*
X117928036Y-103999500D01*
X117789949Y-104040045D01*
X117668873Y-104117856D01*
X117574623Y-104226626D01*
X117574622Y-104226628D01*
X117514834Y-104357543D01*
X117494353Y-104500000D01*
X117494353Y-104504443D01*
X117493101Y-104508705D01*
X117493091Y-104508778D01*
X117493080Y-104508776D01*
X117474668Y-104571482D01*
X117421864Y-104617237D01*
X117370353Y-104628443D01*
X117299093Y-104628443D01*
X117161006Y-104668988D01*
X117039929Y-104746800D01*
X117039927Y-104746801D01*
X117038785Y-104748120D01*
X117037317Y-104749062D01*
X117033229Y-104752606D01*
X117032719Y-104752017D01*
X116980006Y-104785892D01*
X116910136Y-104785890D01*
X116851362Y-104748117D01*
X116850221Y-104746800D01*
X116827921Y-104721064D01*
X116706846Y-104643254D01*
X116706844Y-104643253D01*
X116706842Y-104643252D01*
X116706843Y-104643252D01*
X116568756Y-104602707D01*
X116568754Y-104602707D01*
X116424832Y-104602707D01*
X116424829Y-104602707D01*
X116286742Y-104643252D01*
X116165666Y-104721063D01*
X116071416Y-104829833D01*
X116071415Y-104829835D01*
X116011627Y-104960750D01*
X115991146Y-105103207D01*
X92883285Y-105103207D01*
X92883285Y-103900000D01*
X100094355Y-103900000D01*
X100114859Y-104068869D01*
X100114860Y-104068874D01*
X100175182Y-104227931D01*
X100206549Y-104273373D01*
X100271817Y-104367929D01*
X100375691Y-104459953D01*
X100399150Y-104480736D01*
X100512154Y-104540045D01*
X100549775Y-104559790D01*
X100714944Y-104600500D01*
X100885056Y-104600500D01*
X101050225Y-104559790D01*
X101155679Y-104504443D01*
X101200849Y-104480736D01*
X101200850Y-104480734D01*
X101200852Y-104480734D01*
X101328183Y-104367929D01*
X101424818Y-104227930D01*
X101485140Y-104068872D01*
X101505645Y-103900000D01*
X101485140Y-103731128D01*
X101483433Y-103726628D01*
X101451512Y-103642457D01*
X101424818Y-103572070D01*
X101375071Y-103500000D01*
X111994353Y-103500000D01*
X112014834Y-103642456D01*
X112053275Y-103726628D01*
X112074623Y-103773373D01*
X112168872Y-103882143D01*
X112289947Y-103959953D01*
X112289950Y-103959954D01*
X112289949Y-103959954D01*
X112397107Y-103991417D01*
X112426336Y-104000000D01*
X112428036Y-104000499D01*
X112428038Y-104000500D01*
X112428039Y-104000500D01*
X112571962Y-104000500D01*
X112571962Y-104000499D01*
X112710053Y-103959953D01*
X112831128Y-103882143D01*
X112925377Y-103773373D01*
X112985165Y-103642457D01*
X113005647Y-103500000D01*
X112985165Y-103357543D01*
X112925377Y-103226627D01*
X112831128Y-103117857D01*
X112803342Y-103100000D01*
X113357883Y-103100000D01*
X113378364Y-103242456D01*
X113438152Y-103373371D01*
X113438153Y-103373373D01*
X113532402Y-103482143D01*
X113653477Y-103559953D01*
X113653480Y-103559954D01*
X113653479Y-103559954D01*
X113791566Y-103600499D01*
X113791568Y-103600500D01*
X113791569Y-103600500D01*
X113935492Y-103600500D01*
X113935492Y-103600499D01*
X114073583Y-103559953D01*
X114194658Y-103482143D01*
X114288907Y-103373373D01*
X114348695Y-103242457D01*
X114369177Y-103100000D01*
X114348695Y-102957543D01*
X114310663Y-102874265D01*
X115200088Y-102874265D01*
X115220569Y-103016721D01*
X115231221Y-103040045D01*
X115280358Y-103147638D01*
X115374607Y-103256408D01*
X115495682Y-103334218D01*
X115495685Y-103334219D01*
X115495684Y-103334219D01*
X115602842Y-103365682D01*
X115629033Y-103373373D01*
X115633771Y-103374764D01*
X115633773Y-103374765D01*
X115633774Y-103374765D01*
X115777697Y-103374765D01*
X115777697Y-103374764D01*
X115915788Y-103334218D01*
X116036863Y-103256408D01*
X116131112Y-103147638D01*
X116190900Y-103016722D01*
X116211382Y-102874265D01*
X116190900Y-102731808D01*
X116131112Y-102600892D01*
X116036863Y-102492122D01*
X115915788Y-102414312D01*
X115915786Y-102414311D01*
X115915784Y-102414310D01*
X115915785Y-102414310D01*
X115777698Y-102373765D01*
X115777696Y-102373765D01*
X115633774Y-102373765D01*
X115633771Y-102373765D01*
X115495684Y-102414310D01*
X115374608Y-102492121D01*
X115280358Y-102600891D01*
X115280357Y-102600893D01*
X115220569Y-102731808D01*
X115200088Y-102874265D01*
X114310663Y-102874265D01*
X114288907Y-102826627D01*
X114194658Y-102717857D01*
X114073583Y-102640047D01*
X114073581Y-102640046D01*
X114073579Y-102640045D01*
X114073580Y-102640045D01*
X113935493Y-102599500D01*
X113935491Y-102599500D01*
X113791569Y-102599500D01*
X113791566Y-102599500D01*
X113653479Y-102640045D01*
X113532403Y-102717856D01*
X113438153Y-102826626D01*
X113438152Y-102826628D01*
X113378364Y-102957543D01*
X113357883Y-103100000D01*
X112803342Y-103100000D01*
X112710053Y-103040047D01*
X112710051Y-103040046D01*
X112710049Y-103040045D01*
X112710050Y-103040045D01*
X112571963Y-102999500D01*
X112571961Y-102999500D01*
X112428039Y-102999500D01*
X112428036Y-102999500D01*
X112289949Y-103040045D01*
X112168873Y-103117856D01*
X112074623Y-103226626D01*
X112074622Y-103226628D01*
X112014834Y-103357543D01*
X111994353Y-103500000D01*
X101375071Y-103500000D01*
X101328183Y-103432071D01*
X101217731Y-103334219D01*
X101200849Y-103319263D01*
X101050226Y-103240210D01*
X100885056Y-103199500D01*
X100714944Y-103199500D01*
X100549773Y-103240210D01*
X100399150Y-103319263D01*
X100271816Y-103432072D01*
X100175182Y-103572068D01*
X100114860Y-103731125D01*
X100114859Y-103731130D01*
X100094355Y-103900000D01*
X92883285Y-103900000D01*
X92883285Y-101458530D01*
X113784353Y-101458530D01*
X113804834Y-101600986D01*
X113864622Y-101731901D01*
X113864623Y-101731903D01*
X113958872Y-101840673D01*
X114079947Y-101918483D01*
X114079950Y-101918484D01*
X114079949Y-101918484D01*
X114218036Y-101959029D01*
X114218038Y-101959030D01*
X114218039Y-101959030D01*
X114361962Y-101959030D01*
X114361962Y-101959029D01*
X114500053Y-101918483D01*
X114621128Y-101840673D01*
X114715377Y-101731903D01*
X114775165Y-101600987D01*
X114795647Y-101458530D01*
X114775165Y-101316073D01*
X114715377Y-101185157D01*
X114624259Y-101080000D01*
X130324353Y-101080000D01*
X130344834Y-101222456D01*
X130347702Y-101228735D01*
X130404623Y-101353373D01*
X130498872Y-101462143D01*
X130619947Y-101539953D01*
X130619950Y-101539954D01*
X130619949Y-101539954D01*
X130758036Y-101580499D01*
X130758038Y-101580500D01*
X130758039Y-101580500D01*
X130901962Y-101580500D01*
X130901962Y-101580499D01*
X131040053Y-101539953D01*
X131161128Y-101462143D01*
X131255377Y-101353373D01*
X131315165Y-101222457D01*
X131335647Y-101080000D01*
X131315165Y-100937543D01*
X131255377Y-100806627D01*
X131161128Y-100697857D01*
X131040053Y-100620047D01*
X131040051Y-100620046D01*
X131040049Y-100620045D01*
X131040050Y-100620045D01*
X130901963Y-100579500D01*
X130901961Y-100579500D01*
X130758039Y-100579500D01*
X130758036Y-100579500D01*
X130619949Y-100620045D01*
X130498873Y-100697856D01*
X130404623Y-100806626D01*
X130404622Y-100806628D01*
X130344834Y-100937543D01*
X130324353Y-101080000D01*
X114624259Y-101080000D01*
X114621128Y-101076387D01*
X114500053Y-100998577D01*
X114500051Y-100998576D01*
X114500049Y-100998575D01*
X114500050Y-100998575D01*
X114361963Y-100958030D01*
X114361961Y-100958030D01*
X114218039Y-100958030D01*
X114218036Y-100958030D01*
X114079949Y-100998575D01*
X113958873Y-101076386D01*
X113864623Y-101185156D01*
X113864622Y-101185158D01*
X113804834Y-101316073D01*
X113784353Y-101458530D01*
X92883285Y-101458530D01*
X92883285Y-100728235D01*
X106666119Y-100728235D01*
X106686600Y-100870691D01*
X106717131Y-100937543D01*
X106746389Y-101001608D01*
X106840638Y-101110378D01*
X106961713Y-101188188D01*
X106961716Y-101188189D01*
X106961715Y-101188189D01*
X107068873Y-101219652D01*
X107078420Y-101222456D01*
X107099802Y-101228734D01*
X107099804Y-101228735D01*
X107099805Y-101228735D01*
X107243728Y-101228735D01*
X107243728Y-101228734D01*
X107381819Y-101188188D01*
X107502894Y-101110378D01*
X107597143Y-101001608D01*
X107656931Y-100870692D01*
X107677413Y-100728235D01*
X107656931Y-100585778D01*
X107597143Y-100454862D01*
X107502894Y-100346092D01*
X107381819Y-100268282D01*
X107381817Y-100268281D01*
X107381815Y-100268280D01*
X107381816Y-100268280D01*
X107243729Y-100227735D01*
X107243727Y-100227735D01*
X107099805Y-100227735D01*
X107099802Y-100227735D01*
X106961715Y-100268280D01*
X106840639Y-100346091D01*
X106746389Y-100454861D01*
X106746388Y-100454863D01*
X106686600Y-100585778D01*
X106666119Y-100728235D01*
X92883285Y-100728235D01*
X92883285Y-100159985D01*
X112424339Y-100159985D01*
X112444820Y-100302441D01*
X112504608Y-100433356D01*
X112504609Y-100433358D01*
X112598858Y-100542128D01*
X112719933Y-100619938D01*
X112719936Y-100619939D01*
X112719935Y-100619939D01*
X112858022Y-100660484D01*
X112858024Y-100660485D01*
X112858025Y-100660485D01*
X113001948Y-100660485D01*
X113001948Y-100660484D01*
X113140039Y-100619938D01*
X113261114Y-100542128D01*
X113355363Y-100433358D01*
X113415151Y-100302442D01*
X113435633Y-100159985D01*
X113415151Y-100017528D01*
X113355363Y-99886612D01*
X113261114Y-99777842D01*
X113140039Y-99700032D01*
X113140037Y-99700031D01*
X113140035Y-99700030D01*
X113140036Y-99700030D01*
X113001949Y-99659485D01*
X113001947Y-99659485D01*
X112858025Y-99659485D01*
X112858022Y-99659485D01*
X112719935Y-99700030D01*
X112598859Y-99777841D01*
X112504609Y-99886611D01*
X112504608Y-99886613D01*
X112444820Y-100017528D01*
X112424339Y-100159985D01*
X92883285Y-100159985D01*
X92883285Y-97475000D01*
X98869867Y-97475000D01*
X98888302Y-97603225D01*
X98924808Y-97683160D01*
X98942118Y-97721063D01*
X99026951Y-97818967D01*
X99060744Y-97840684D01*
X99106499Y-97893488D01*
X99116443Y-97962646D01*
X99087418Y-98026202D01*
X99060745Y-98049315D01*
X99026952Y-98071032D01*
X98942119Y-98168937D01*
X98942118Y-98168938D01*
X98888303Y-98286774D01*
X98869868Y-98415000D01*
X98888303Y-98543225D01*
X98942118Y-98661061D01*
X98942119Y-98661063D01*
X99026950Y-98758965D01*
X99026952Y-98758967D01*
X99060743Y-98780683D01*
X99106499Y-98833486D01*
X99116443Y-98902645D01*
X99087419Y-98966201D01*
X99060746Y-98989314D01*
X99026950Y-99011033D01*
X98942118Y-99108937D01*
X98942117Y-99108938D01*
X98888302Y-99226774D01*
X98869867Y-99355000D01*
X98888302Y-99483225D01*
X98942117Y-99601061D01*
X98942118Y-99601063D01*
X99026951Y-99698967D01*
X99135931Y-99769004D01*
X99260225Y-99805499D01*
X99260227Y-99805500D01*
X99260228Y-99805500D01*
X99389773Y-99805500D01*
X99389773Y-99805499D01*
X99514069Y-99769004D01*
X99623049Y-99698967D01*
X99707882Y-99601063D01*
X99761697Y-99483226D01*
X99777262Y-99374967D01*
X99786381Y-99354999D01*
X99777262Y-99335031D01*
X99761697Y-99226774D01*
X99722207Y-99140305D01*
X99707882Y-99108937D01*
X99623049Y-99011033D01*
X99589255Y-98989315D01*
X99543501Y-98936512D01*
X99533557Y-98867354D01*
X99562582Y-98803798D01*
X99589250Y-98780688D01*
X99623050Y-98758967D01*
X99707883Y-98661063D01*
X99761698Y-98543226D01*
X99777262Y-98434973D01*
X99786384Y-98414999D01*
X100013615Y-98414999D01*
X100022738Y-98434974D01*
X100038301Y-98543225D01*
X100092116Y-98661061D01*
X100092117Y-98661063D01*
X100176950Y-98758967D01*
X100210743Y-98780684D01*
X100256498Y-98833488D01*
X100266442Y-98902646D01*
X100237417Y-98966202D01*
X100210744Y-98989315D01*
X100176951Y-99011032D01*
X100092118Y-99108937D01*
X100092117Y-99108938D01*
X100038302Y-99226774D01*
X100022738Y-99335031D01*
X100013618Y-99354999D01*
X100022738Y-99374968D01*
X100038302Y-99483225D01*
X100092117Y-99601061D01*
X100092118Y-99601063D01*
X100176951Y-99698967D01*
X100285931Y-99769004D01*
X100410225Y-99805499D01*
X100410227Y-99805500D01*
X100410228Y-99805500D01*
X100539773Y-99805500D01*
X100539773Y-99805499D01*
X100664069Y-99769004D01*
X100773049Y-99698967D01*
X100842301Y-99619045D01*
X128129499Y-99619045D01*
X128154497Y-99744712D01*
X128154499Y-99744718D01*
X128203533Y-99863098D01*
X128203538Y-99863107D01*
X128274723Y-99969642D01*
X128274726Y-99969646D01*
X128365327Y-100060247D01*
X128365331Y-100060250D01*
X128471866Y-100131435D01*
X128471872Y-100131438D01*
X128471873Y-100131439D01*
X128590256Y-100180475D01*
X128590260Y-100180475D01*
X128590261Y-100180476D01*
X128715928Y-100205474D01*
X128715931Y-100205474D01*
X130344071Y-100205474D01*
X130428615Y-100188656D01*
X130469744Y-100180475D01*
X130588127Y-100131439D01*
X130694669Y-100060250D01*
X130785276Y-99969643D01*
X130856465Y-99863101D01*
X130905501Y-99744718D01*
X130914602Y-99698966D01*
X130930500Y-99619045D01*
X130930500Y-99490902D01*
X130905502Y-99365235D01*
X130905501Y-99365234D01*
X130905501Y-99365230D01*
X130856465Y-99246847D01*
X130856462Y-99246842D01*
X130856461Y-99246840D01*
X130785276Y-99140305D01*
X130785273Y-99140301D01*
X130694672Y-99049700D01*
X130694668Y-99049697D01*
X130588133Y-98978512D01*
X130588124Y-98978507D01*
X130469744Y-98929473D01*
X130469738Y-98929471D01*
X130344071Y-98904474D01*
X130344069Y-98904474D01*
X130297309Y-98904474D01*
X130230270Y-98884789D01*
X130209628Y-98868155D01*
X129900000Y-98558527D01*
X129590372Y-98868155D01*
X129529049Y-98901640D01*
X129502691Y-98904474D01*
X128947309Y-98904474D01*
X128880270Y-98884789D01*
X128859628Y-98868155D01*
X128550000Y-98558527D01*
X128150832Y-98957693D01*
X128205952Y-98982234D01*
X128259189Y-99027484D01*
X128279511Y-99094333D01*
X128260466Y-99161557D01*
X128258620Y-99164404D01*
X128203537Y-99246842D01*
X128203533Y-99246849D01*
X128154499Y-99365229D01*
X128154497Y-99365235D01*
X128129500Y-99490902D01*
X128129500Y-99490905D01*
X128129500Y-99619043D01*
X128129500Y-99619045D01*
X128129499Y-99619045D01*
X100842301Y-99619045D01*
X100857882Y-99601063D01*
X100911697Y-99483226D01*
X100930133Y-99355000D01*
X100911697Y-99226774D01*
X100857882Y-99108937D01*
X100773049Y-99011033D01*
X100773048Y-99011032D01*
X100773047Y-99011031D01*
X100739255Y-98989314D01*
X100693500Y-98936510D01*
X100683556Y-98867352D01*
X100712581Y-98803796D01*
X100739252Y-98780686D01*
X100773048Y-98758967D01*
X100857881Y-98661063D01*
X100911696Y-98543226D01*
X100930132Y-98415000D01*
X100911696Y-98286774D01*
X100874339Y-98204974D01*
X127695318Y-98204974D01*
X127713995Y-98382674D01*
X127713996Y-98382676D01*
X127769209Y-98552605D01*
X127769210Y-98552607D01*
X127798346Y-98603072D01*
X127798347Y-98603073D01*
X128196446Y-98204974D01*
X128196446Y-98204973D01*
X128156665Y-98165192D01*
X128350000Y-98165192D01*
X128350000Y-98244756D01*
X128380448Y-98318265D01*
X128436709Y-98374526D01*
X128510218Y-98404974D01*
X128589782Y-98404974D01*
X128663291Y-98374526D01*
X128719552Y-98318265D01*
X128750000Y-98244756D01*
X128750000Y-98204974D01*
X128903553Y-98204974D01*
X129225000Y-98526420D01*
X129225001Y-98526420D01*
X129546446Y-98204975D01*
X129546446Y-98204973D01*
X129506665Y-98165192D01*
X129700000Y-98165192D01*
X129700000Y-98244756D01*
X129730448Y-98318265D01*
X129786709Y-98374526D01*
X129860218Y-98404974D01*
X129939782Y-98404974D01*
X130013291Y-98374526D01*
X130069552Y-98318265D01*
X130100000Y-98244756D01*
X130100000Y-98204973D01*
X130253553Y-98204973D01*
X130253553Y-98204975D01*
X130651651Y-98603073D01*
X130651652Y-98603073D01*
X130680790Y-98552605D01*
X130736003Y-98382676D01*
X130736004Y-98382674D01*
X130754681Y-98204974D01*
X130736004Y-98027273D01*
X130736003Y-98027271D01*
X130680793Y-97857349D01*
X130680790Y-97857343D01*
X130651651Y-97806873D01*
X130253553Y-98204973D01*
X130100000Y-98204973D01*
X130100000Y-98165192D01*
X130069552Y-98091683D01*
X130013291Y-98035422D01*
X129939782Y-98004974D01*
X129860218Y-98004974D01*
X129786709Y-98035422D01*
X129730448Y-98091683D01*
X129700000Y-98165192D01*
X129506665Y-98165192D01*
X129225001Y-97883527D01*
X129225000Y-97883527D01*
X128903553Y-98204974D01*
X128750000Y-98204974D01*
X128750000Y-98165192D01*
X128719552Y-98091683D01*
X128663291Y-98035422D01*
X128589782Y-98004974D01*
X128510218Y-98004974D01*
X128436709Y-98035422D01*
X128380448Y-98091683D01*
X128350000Y-98165192D01*
X128156665Y-98165192D01*
X127798347Y-97806874D01*
X127769208Y-97857344D01*
X127713996Y-98027271D01*
X127713995Y-98027273D01*
X127695318Y-98204974D01*
X100874339Y-98204974D01*
X100857881Y-98168937D01*
X100773048Y-98071033D01*
X100739254Y-98049315D01*
X100693500Y-97996512D01*
X100683556Y-97927354D01*
X100712581Y-97863798D01*
X100739249Y-97840688D01*
X100773049Y-97818967D01*
X100857882Y-97721063D01*
X100911697Y-97603226D01*
X100930133Y-97475000D01*
X100911697Y-97346774D01*
X100857882Y-97228937D01*
X100773049Y-97131033D01*
X100664069Y-97060996D01*
X100664065Y-97060994D01*
X100664064Y-97060994D01*
X100539774Y-97024500D01*
X100539772Y-97024500D01*
X100410228Y-97024500D01*
X100410226Y-97024500D01*
X100285935Y-97060994D01*
X100285932Y-97060995D01*
X100285931Y-97060996D01*
X100255193Y-97080750D01*
X100176950Y-97131033D01*
X100092118Y-97228937D01*
X100092117Y-97228938D01*
X100038302Y-97346774D01*
X100022738Y-97455031D01*
X100013618Y-97474999D01*
X100022738Y-97494968D01*
X100038302Y-97603225D01*
X100074808Y-97683160D01*
X100092118Y-97721063D01*
X100115108Y-97747595D01*
X100176951Y-97818967D01*
X100210742Y-97840683D01*
X100256498Y-97893486D01*
X100266442Y-97962645D01*
X100237418Y-98026201D01*
X100210745Y-98049314D01*
X100176949Y-98071033D01*
X100092117Y-98168937D01*
X100092116Y-98168938D01*
X100038301Y-98286774D01*
X100022738Y-98395025D01*
X100013615Y-98414999D01*
X99786384Y-98414999D01*
X99777262Y-98395025D01*
X99775486Y-98382676D01*
X99761698Y-98286774D01*
X99707883Y-98168937D01*
X99623050Y-98071033D01*
X99623049Y-98071032D01*
X99623048Y-98071031D01*
X99589256Y-98049314D01*
X99543501Y-97996510D01*
X99533557Y-97927352D01*
X99562582Y-97863796D01*
X99589253Y-97840686D01*
X99623049Y-97818967D01*
X99707882Y-97721063D01*
X99761697Y-97603226D01*
X99777262Y-97494967D01*
X99786381Y-97474999D01*
X99777262Y-97455031D01*
X99761697Y-97346774D01*
X99725416Y-97267331D01*
X99707882Y-97228937D01*
X99623049Y-97131033D01*
X99514069Y-97060996D01*
X99514065Y-97060994D01*
X99514064Y-97060994D01*
X99389774Y-97024500D01*
X99389772Y-97024500D01*
X99260228Y-97024500D01*
X99260226Y-97024500D01*
X99135935Y-97060994D01*
X99135932Y-97060995D01*
X99135931Y-97060996D01*
X99105193Y-97080750D01*
X99026950Y-97131033D01*
X98942118Y-97228937D01*
X98942117Y-97228938D01*
X98888302Y-97346774D01*
X98869867Y-97475000D01*
X92883285Y-97475000D01*
X92883285Y-96684748D01*
X115062594Y-96684748D01*
X115083075Y-96827204D01*
X115134721Y-96940290D01*
X115142864Y-96958121D01*
X115237113Y-97066891D01*
X115358188Y-97144701D01*
X115358191Y-97144702D01*
X115358190Y-97144702D01*
X115414422Y-97161213D01*
X115473200Y-97198987D01*
X115502226Y-97262542D01*
X115492283Y-97331701D01*
X115461892Y-97398247D01*
X115441411Y-97540703D01*
X115461892Y-97683159D01*
X115518391Y-97806873D01*
X115521681Y-97814076D01*
X115615930Y-97922846D01*
X115737005Y-98000656D01*
X115737008Y-98000657D01*
X115737007Y-98000657D01*
X115827648Y-98027271D01*
X115855408Y-98035422D01*
X115875094Y-98041202D01*
X115875096Y-98041203D01*
X115875097Y-98041203D01*
X116019020Y-98041203D01*
X116019020Y-98041202D01*
X116157111Y-98000656D01*
X116278186Y-97922846D01*
X116372435Y-97814076D01*
X116432223Y-97683160D01*
X116452705Y-97540703D01*
X116432223Y-97398246D01*
X116372435Y-97267330D01*
X116278186Y-97158560D01*
X116230486Y-97127905D01*
X116725669Y-97127905D01*
X116746150Y-97270361D01*
X116794521Y-97376276D01*
X116805939Y-97401278D01*
X116900188Y-97510048D01*
X117021263Y-97587858D01*
X117021266Y-97587859D01*
X117021265Y-97587859D01*
X117159352Y-97628404D01*
X117159354Y-97628405D01*
X117159355Y-97628405D01*
X117303278Y-97628405D01*
X117303278Y-97628404D01*
X117441369Y-97587858D01*
X117562444Y-97510048D01*
X117656693Y-97401278D01*
X117716481Y-97270362D01*
X117736963Y-97127905D01*
X117716481Y-96985448D01*
X117656693Y-96854532D01*
X117562444Y-96745762D01*
X117441369Y-96667952D01*
X117441367Y-96667951D01*
X117441365Y-96667950D01*
X117441366Y-96667950D01*
X117303279Y-96627405D01*
X117303277Y-96627405D01*
X117159355Y-96627405D01*
X117159352Y-96627405D01*
X117021265Y-96667950D01*
X116900189Y-96745761D01*
X116805939Y-96854531D01*
X116805938Y-96854533D01*
X116746150Y-96985448D01*
X116725669Y-97127905D01*
X116230486Y-97127905D01*
X116157111Y-97080750D01*
X116157108Y-97080748D01*
X116100875Y-97064237D01*
X116042097Y-97026463D01*
X116013072Y-96962907D01*
X116023016Y-96893748D01*
X116040926Y-96854533D01*
X116053406Y-96827205D01*
X116073888Y-96684748D01*
X116053406Y-96542291D01*
X115993618Y-96411375D01*
X115899369Y-96302605D01*
X115778294Y-96224795D01*
X115778292Y-96224794D01*
X115778290Y-96224793D01*
X115778291Y-96224793D01*
X115640204Y-96184248D01*
X115640202Y-96184248D01*
X115496280Y-96184248D01*
X115496277Y-96184248D01*
X115358190Y-96224793D01*
X115237114Y-96302604D01*
X115142864Y-96411374D01*
X115142863Y-96411376D01*
X115083075Y-96542291D01*
X115062594Y-96684748D01*
X92883285Y-96684748D01*
X92883285Y-96045548D01*
X111183895Y-96045548D01*
X111204376Y-96188004D01*
X111256713Y-96302604D01*
X111264165Y-96318921D01*
X111358414Y-96427691D01*
X111479489Y-96505501D01*
X111479492Y-96505502D01*
X111479491Y-96505502D01*
X111617578Y-96546047D01*
X111617580Y-96546048D01*
X111617581Y-96546048D01*
X111761504Y-96546048D01*
X111761504Y-96546047D01*
X111899595Y-96505501D01*
X112020670Y-96427691D01*
X112114919Y-96318921D01*
X112174707Y-96188005D01*
X112195189Y-96045548D01*
X112188640Y-96000000D01*
X120494353Y-96000000D01*
X120514834Y-96142456D01*
X120535636Y-96188005D01*
X120574623Y-96273373D01*
X120668872Y-96382143D01*
X120789947Y-96459953D01*
X120789950Y-96459954D01*
X120789949Y-96459954D01*
X120928036Y-96500499D01*
X120928038Y-96500500D01*
X120928039Y-96500500D01*
X121071962Y-96500500D01*
X121071962Y-96500499D01*
X121210053Y-96459953D01*
X121331128Y-96382143D01*
X121425377Y-96273373D01*
X121485165Y-96142457D01*
X121505647Y-96000000D01*
X121485165Y-95857543D01*
X121425377Y-95726627D01*
X121331128Y-95617857D01*
X121210053Y-95540047D01*
X121210051Y-95540046D01*
X121210049Y-95540045D01*
X121210050Y-95540045D01*
X121071963Y-95499500D01*
X121071961Y-95499500D01*
X120928039Y-95499500D01*
X120928036Y-95499500D01*
X120789949Y-95540045D01*
X120668873Y-95617856D01*
X120574623Y-95726626D01*
X120574622Y-95726628D01*
X120514834Y-95857543D01*
X120494353Y-96000000D01*
X112188640Y-96000000D01*
X112174707Y-95903091D01*
X112114919Y-95772175D01*
X112020670Y-95663405D01*
X111899595Y-95585595D01*
X111899593Y-95585594D01*
X111899591Y-95585593D01*
X111899592Y-95585593D01*
X111761505Y-95545048D01*
X111761503Y-95545048D01*
X111617581Y-95545048D01*
X111617578Y-95545048D01*
X111479491Y-95585593D01*
X111358415Y-95663404D01*
X111264165Y-95772174D01*
X111264164Y-95772176D01*
X111204376Y-95903091D01*
X111183895Y-96045548D01*
X92883285Y-96045548D01*
X92883285Y-91749998D01*
X93600884Y-91749998D01*
X93600885Y-91749999D01*
X94669670Y-91749999D01*
X94649925Y-91769744D01*
X94600556Y-91855254D01*
X94575000Y-91950629D01*
X94575000Y-92049369D01*
X94600556Y-92144744D01*
X94649925Y-92230254D01*
X94669670Y-92249999D01*
X93600885Y-92249999D01*
X93602085Y-92257583D01*
X93655591Y-92422254D01*
X93734195Y-92576523D01*
X93835967Y-92716601D01*
X93958397Y-92839031D01*
X94098475Y-92940803D01*
X94202052Y-92993578D01*
X94252848Y-93041553D01*
X94269643Y-93109374D01*
X94247106Y-93175508D01*
X94192391Y-93218960D01*
X94186714Y-93221104D01*
X94131919Y-93240278D01*
X94112118Y-93247207D01*
X94112117Y-93247207D01*
X94112116Y-93247208D01*
X94002850Y-93327850D01*
X93922207Y-93437117D01*
X93922206Y-93437119D01*
X93877353Y-93565298D01*
X93877353Y-93565300D01*
X93874500Y-93595730D01*
X93874500Y-94404269D01*
X93877353Y-94434699D01*
X93877353Y-94434701D01*
X93922206Y-94562880D01*
X93922207Y-94562882D01*
X94002850Y-94672150D01*
X94112118Y-94752793D01*
X94154845Y-94767744D01*
X94240299Y-94797646D01*
X94270730Y-94800500D01*
X94270734Y-94800500D01*
X95629270Y-94800500D01*
X95659699Y-94797646D01*
X95659701Y-94797646D01*
X95723790Y-94775219D01*
X95787882Y-94752793D01*
X95897150Y-94672150D01*
X95977793Y-94562882D01*
X96008063Y-94476375D01*
X96022646Y-94434701D01*
X96022646Y-94434699D01*
X96025500Y-94404269D01*
X96025500Y-93980000D01*
X102317353Y-93980000D01*
X102337834Y-94122456D01*
X102377820Y-94210012D01*
X102397623Y-94253373D01*
X102491872Y-94362143D01*
X102612947Y-94439953D01*
X102612950Y-94439954D01*
X102612949Y-94439954D01*
X102720107Y-94471417D01*
X102743706Y-94478347D01*
X102751036Y-94480499D01*
X102751038Y-94480500D01*
X102751039Y-94480500D01*
X102894962Y-94480500D01*
X102894962Y-94480499D01*
X103002121Y-94449035D01*
X103033050Y-94439954D01*
X103033050Y-94439953D01*
X103033053Y-94439953D01*
X103154128Y-94362143D01*
X103248377Y-94253373D01*
X103308165Y-94122457D01*
X103317039Y-94060735D01*
X108083618Y-94060735D01*
X108104099Y-94203191D01*
X108163887Y-94334106D01*
X108163888Y-94334108D01*
X108258137Y-94442878D01*
X108379212Y-94520688D01*
X108379215Y-94520689D01*
X108379214Y-94520689D01*
X108517301Y-94561234D01*
X108517303Y-94561235D01*
X108517304Y-94561235D01*
X108661227Y-94561235D01*
X108661227Y-94561234D01*
X108776629Y-94527350D01*
X108799315Y-94520689D01*
X108799315Y-94520688D01*
X108799318Y-94520688D01*
X108920393Y-94442878D01*
X108998732Y-94352469D01*
X117794474Y-94352469D01*
X117814955Y-94494925D01*
X117874743Y-94625840D01*
X117874744Y-94625842D01*
X117968993Y-94734612D01*
X118090068Y-94812422D01*
X118090071Y-94812423D01*
X118090070Y-94812423D01*
X118228157Y-94852968D01*
X118228159Y-94852969D01*
X118228160Y-94852969D01*
X118372083Y-94852969D01*
X118372083Y-94852968D01*
X118510174Y-94812422D01*
X118517091Y-94807976D01*
X118584127Y-94788288D01*
X118651168Y-94807968D01*
X118696926Y-94860770D01*
X118706873Y-94894641D01*
X118722161Y-95000975D01*
X118759437Y-95082597D01*
X118781950Y-95131892D01*
X118876199Y-95240662D01*
X118997274Y-95318472D01*
X118997277Y-95318473D01*
X118997276Y-95318473D01*
X119135363Y-95359018D01*
X119135365Y-95359019D01*
X119135366Y-95359019D01*
X119279289Y-95359019D01*
X119279289Y-95359018D01*
X119417380Y-95318472D01*
X119538455Y-95240662D01*
X119632704Y-95131892D01*
X119692492Y-95000976D01*
X119712974Y-94858519D01*
X119692492Y-94716062D01*
X119632704Y-94585146D01*
X119538455Y-94476376D01*
X119417380Y-94398566D01*
X119417378Y-94398565D01*
X119417376Y-94398564D01*
X119417377Y-94398564D01*
X119279290Y-94358019D01*
X119279288Y-94358019D01*
X119135366Y-94358019D01*
X119135363Y-94358019D01*
X118997276Y-94398564D01*
X118997274Y-94398565D01*
X118990349Y-94403016D01*
X118923310Y-94422699D01*
X118856271Y-94403013D01*
X118810517Y-94350208D01*
X118800574Y-94316345D01*
X118785286Y-94210012D01*
X118782985Y-94204974D01*
X120494353Y-94204974D01*
X120514834Y-94347430D01*
X120564171Y-94455460D01*
X120574623Y-94478347D01*
X120668872Y-94587117D01*
X120789947Y-94664927D01*
X120789950Y-94664928D01*
X120789949Y-94664928D01*
X120928036Y-94705473D01*
X120928038Y-94705474D01*
X120928039Y-94705474D01*
X121071962Y-94705474D01*
X121071962Y-94705473D01*
X121179121Y-94674009D01*
X121210050Y-94664928D01*
X121210050Y-94664927D01*
X121210053Y-94664927D01*
X121331128Y-94587117D01*
X121425377Y-94478347D01*
X121485165Y-94347431D01*
X121505647Y-94204974D01*
X121485165Y-94062517D01*
X121425377Y-93931601D01*
X121331128Y-93822831D01*
X121210053Y-93745021D01*
X121210051Y-93745020D01*
X121210049Y-93745019D01*
X121210050Y-93745019D01*
X121071963Y-93704474D01*
X121071961Y-93704474D01*
X120928039Y-93704474D01*
X120928036Y-93704474D01*
X120789949Y-93745019D01*
X120668873Y-93822830D01*
X120574623Y-93931600D01*
X120574622Y-93931602D01*
X120514834Y-94062517D01*
X120494353Y-94204974D01*
X118782985Y-94204974D01*
X118782171Y-94203191D01*
X118725498Y-94079096D01*
X118631249Y-93970326D01*
X118510174Y-93892516D01*
X118510172Y-93892515D01*
X118510170Y-93892514D01*
X118510171Y-93892514D01*
X118372084Y-93851969D01*
X118372082Y-93851969D01*
X118228160Y-93851969D01*
X118228157Y-93851969D01*
X118090070Y-93892514D01*
X117968994Y-93970325D01*
X117968993Y-93970325D01*
X117968993Y-93970326D01*
X117956411Y-93984846D01*
X117874744Y-94079095D01*
X117874743Y-94079097D01*
X117814955Y-94210012D01*
X117794474Y-94352469D01*
X108998732Y-94352469D01*
X109014642Y-94334108D01*
X109074430Y-94203192D01*
X109094912Y-94060735D01*
X109074430Y-93918278D01*
X109014642Y-93787362D01*
X108920393Y-93678592D01*
X108799318Y-93600782D01*
X108799316Y-93600781D01*
X108799314Y-93600780D01*
X108799315Y-93600780D01*
X108661228Y-93560235D01*
X108661226Y-93560235D01*
X108517304Y-93560235D01*
X108517301Y-93560235D01*
X108379214Y-93600780D01*
X108258138Y-93678591D01*
X108163888Y-93787361D01*
X108163887Y-93787363D01*
X108104099Y-93918278D01*
X108083618Y-94060735D01*
X103317039Y-94060735D01*
X103328647Y-93980000D01*
X103308165Y-93837543D01*
X103248377Y-93706627D01*
X103154128Y-93597857D01*
X103033053Y-93520047D01*
X103033051Y-93520046D01*
X103033049Y-93520045D01*
X103033050Y-93520045D01*
X102894963Y-93479500D01*
X102894961Y-93479500D01*
X102751039Y-93479500D01*
X102751036Y-93479500D01*
X102612949Y-93520045D01*
X102491873Y-93597856D01*
X102491872Y-93597856D01*
X102491872Y-93597857D01*
X102485285Y-93605459D01*
X102397623Y-93706626D01*
X102397622Y-93706628D01*
X102337834Y-93837543D01*
X102317353Y-93980000D01*
X96025500Y-93980000D01*
X96025500Y-93595730D01*
X96022646Y-93565300D01*
X96022646Y-93565298D01*
X95983871Y-93454488D01*
X95977793Y-93437118D01*
X95897150Y-93327850D01*
X95787882Y-93247207D01*
X95713286Y-93221104D01*
X95656510Y-93180381D01*
X95630764Y-93115428D01*
X95644221Y-93046867D01*
X95692609Y-92996465D01*
X95697948Y-92993578D01*
X95801522Y-92940804D01*
X95941602Y-92839031D01*
X96064032Y-92716601D01*
X96165804Y-92576523D01*
X96244408Y-92422254D01*
X96297914Y-92257583D01*
X96299115Y-92249999D01*
X95230330Y-92249999D01*
X95250075Y-92230254D01*
X95299444Y-92144744D01*
X95325000Y-92049369D01*
X95325000Y-91950629D01*
X95299444Y-91855254D01*
X95250075Y-91769744D01*
X95230330Y-91749999D01*
X96299115Y-91749999D01*
X96299115Y-91749998D01*
X96297914Y-91742414D01*
X96244408Y-91577743D01*
X96165804Y-91423474D01*
X96064032Y-91283396D01*
X96030635Y-91249999D01*
X100019364Y-91249999D01*
X100019364Y-91250000D01*
X100916988Y-91250000D01*
X100884075Y-91307007D01*
X100850000Y-91434174D01*
X100850000Y-91565826D01*
X100884075Y-91692993D01*
X100916988Y-91750000D01*
X100019364Y-91750000D01*
X100076567Y-91963486D01*
X100076570Y-91963492D01*
X100176399Y-92177578D01*
X100311894Y-92371082D01*
X100478917Y-92538105D01*
X100672421Y-92673600D01*
X100886507Y-92773429D01*
X100886516Y-92773433D01*
X101100000Y-92830634D01*
X101100000Y-91933012D01*
X101157007Y-91965925D01*
X101284174Y-92000000D01*
X101415826Y-92000000D01*
X101542993Y-91965925D01*
X101600000Y-91933012D01*
X101600000Y-92830634D01*
X101813483Y-92773433D01*
X101813492Y-92773429D01*
X102027578Y-92673600D01*
X102221082Y-92538105D01*
X102388105Y-92371082D01*
X102523600Y-92177578D01*
X102623429Y-91963492D01*
X102623432Y-91963486D01*
X102680636Y-91750000D01*
X101783012Y-91750000D01*
X101815925Y-91692993D01*
X101850000Y-91565826D01*
X101850000Y-91434174D01*
X101815925Y-91307007D01*
X101783012Y-91250000D01*
X102680636Y-91250000D01*
X102680635Y-91249999D01*
X103669364Y-91249999D01*
X103669364Y-91250000D01*
X104566988Y-91250000D01*
X104534075Y-91307007D01*
X104500000Y-91434174D01*
X104500000Y-91565826D01*
X104534075Y-91692993D01*
X104566988Y-91750000D01*
X103669364Y-91750000D01*
X103726567Y-91963486D01*
X103726570Y-91963492D01*
X103826399Y-92177578D01*
X103961894Y-92371082D01*
X104128917Y-92538105D01*
X104322421Y-92673600D01*
X104536507Y-92773429D01*
X104536516Y-92773433D01*
X104750000Y-92830634D01*
X104750000Y-91933012D01*
X104807007Y-91965925D01*
X104934174Y-92000000D01*
X105065826Y-92000000D01*
X105192993Y-91965925D01*
X105250000Y-91933012D01*
X105250000Y-92830633D01*
X105463483Y-92773433D01*
X105463492Y-92773429D01*
X105677578Y-92673600D01*
X105871082Y-92538105D01*
X106038105Y-92371082D01*
X106173600Y-92177578D01*
X106273429Y-91963492D01*
X106273432Y-91963486D01*
X106330636Y-91750000D01*
X105433012Y-91750000D01*
X105465925Y-91692993D01*
X105500000Y-91565826D01*
X105500000Y-91434174D01*
X105465925Y-91307007D01*
X105435898Y-91254999D01*
X107319364Y-91254999D01*
X107319364Y-91255000D01*
X108216988Y-91255000D01*
X108184075Y-91312007D01*
X108150000Y-91439174D01*
X108150000Y-91570826D01*
X108184075Y-91697993D01*
X108216988Y-91755000D01*
X107319364Y-91755000D01*
X107376567Y-91968486D01*
X107376570Y-91968492D01*
X107476399Y-92182578D01*
X107611894Y-92376082D01*
X107778917Y-92543105D01*
X107972421Y-92678600D01*
X108186507Y-92778429D01*
X108186516Y-92778433D01*
X108400000Y-92835634D01*
X108400000Y-91938012D01*
X108457007Y-91970925D01*
X108584174Y-92005000D01*
X108715826Y-92005000D01*
X108842993Y-91970925D01*
X108900000Y-91938012D01*
X108900000Y-92835633D01*
X109113483Y-92778433D01*
X109113492Y-92778429D01*
X109327578Y-92678600D01*
X109339860Y-92670000D01*
X110904353Y-92670000D01*
X110924834Y-92812456D01*
X110936971Y-92839031D01*
X110984623Y-92943373D01*
X111078872Y-93052143D01*
X111199947Y-93129953D01*
X111199950Y-93129954D01*
X111199949Y-93129954D01*
X111338036Y-93170499D01*
X111338038Y-93170500D01*
X111338039Y-93170500D01*
X111481962Y-93170500D01*
X111481962Y-93170499D01*
X111620053Y-93129953D01*
X111658923Y-93104973D01*
X127994750Y-93104973D01*
X128013670Y-93248682D01*
X128013670Y-93248683D01*
X128013671Y-93248685D01*
X128069138Y-93382596D01*
X128069139Y-93382599D01*
X128124301Y-93454486D01*
X128149496Y-93519655D01*
X128135458Y-93588100D01*
X128124302Y-93605459D01*
X128069139Y-93677348D01*
X128069138Y-93677350D01*
X128013671Y-93811261D01*
X128013670Y-93811265D01*
X127994788Y-93954689D01*
X127994750Y-93954974D01*
X128011091Y-94079097D01*
X128013670Y-94098682D01*
X128013671Y-94098686D01*
X128069138Y-94232597D01*
X128069139Y-94232599D01*
X128124301Y-94304488D01*
X128149495Y-94369657D01*
X128135456Y-94438102D01*
X128124301Y-94455460D01*
X128069139Y-94527348D01*
X128069138Y-94527350D01*
X128013671Y-94661261D01*
X128013670Y-94661265D01*
X127994788Y-94804689D01*
X127994750Y-94804974D01*
X128001799Y-94858519D01*
X128013670Y-94948682D01*
X128013671Y-94948686D01*
X128069138Y-95082597D01*
X128069139Y-95082599D01*
X128124301Y-95154488D01*
X128149495Y-95219657D01*
X128135456Y-95288102D01*
X128124301Y-95305460D01*
X128069139Y-95377348D01*
X128069138Y-95377350D01*
X128013671Y-95511261D01*
X128013670Y-95511265D01*
X127994788Y-95654689D01*
X127994750Y-95654974D01*
X128004183Y-95726627D01*
X128013670Y-95798682D01*
X128013671Y-95798686D01*
X128069137Y-95932596D01*
X128069138Y-95932597D01*
X128069139Y-95932599D01*
X128124301Y-96004487D01*
X128149495Y-96069655D01*
X128135457Y-96138100D01*
X128124301Y-96155459D01*
X128069139Y-96227347D01*
X128069138Y-96227349D01*
X128013671Y-96361260D01*
X128013670Y-96361264D01*
X128004925Y-96427691D01*
X127994750Y-96504973D01*
X128013670Y-96648682D01*
X128013670Y-96648683D01*
X128013671Y-96648685D01*
X128069138Y-96782596D01*
X128069139Y-96782599D01*
X128124301Y-96854486D01*
X128149496Y-96919655D01*
X128135458Y-96988100D01*
X128124302Y-97005459D01*
X128069139Y-97077348D01*
X128069138Y-97077350D01*
X128013671Y-97211261D01*
X128013670Y-97211265D01*
X127994750Y-97354973D01*
X127994750Y-97354974D01*
X128013670Y-97498682D01*
X128013671Y-97498686D01*
X128069137Y-97632596D01*
X128069138Y-97632598D01*
X128069139Y-97632599D01*
X128157379Y-97747595D01*
X128272375Y-97835835D01*
X128272376Y-97835835D01*
X128272377Y-97835836D01*
X128317013Y-97854324D01*
X128406291Y-97891304D01*
X128533280Y-97908022D01*
X128549999Y-97910224D01*
X128550000Y-97910224D01*
X128550001Y-97910224D01*
X128564977Y-97908252D01*
X128693709Y-97891304D01*
X128827625Y-97835835D01*
X128942621Y-97747595D01*
X129030861Y-97632599D01*
X129086330Y-97498683D01*
X129102061Y-97379195D01*
X129112651Y-97355257D01*
X129102481Y-97333671D01*
X129102061Y-97330751D01*
X129093711Y-97267329D01*
X129086330Y-97211265D01*
X129030861Y-97077349D01*
X128991815Y-97026463D01*
X128975698Y-97005459D01*
X128950504Y-96940290D01*
X128964542Y-96871845D01*
X128975699Y-96854486D01*
X129030860Y-96782599D01*
X129030859Y-96782599D01*
X129030861Y-96782598D01*
X129086330Y-96648682D01*
X129102061Y-96529194D01*
X129112650Y-96505256D01*
X129102481Y-96483670D01*
X129102061Y-96480750D01*
X129092927Y-96411374D01*
X129086330Y-96361264D01*
X129030861Y-96227348D01*
X129030860Y-96227347D01*
X129030860Y-96227346D01*
X128975699Y-96155460D01*
X128950504Y-96090291D01*
X128964542Y-96021846D01*
X128975690Y-96004498D01*
X129030861Y-95932599D01*
X129086330Y-95798683D01*
X129102061Y-95679195D01*
X129112651Y-95655257D01*
X129102481Y-95633671D01*
X129102061Y-95630751D01*
X129096116Y-95585595D01*
X129086330Y-95511265D01*
X129030861Y-95377349D01*
X129030860Y-95377348D01*
X129030860Y-95377347D01*
X128975699Y-95305461D01*
X128950504Y-95240292D01*
X128964542Y-95171847D01*
X128975699Y-95154487D01*
X129030860Y-95082600D01*
X129030859Y-95082600D01*
X129030861Y-95082599D01*
X129086330Y-94948683D01*
X129102061Y-94829195D01*
X129112651Y-94805257D01*
X129102481Y-94783671D01*
X129102061Y-94780751D01*
X129092150Y-94705473D01*
X129086330Y-94661265D01*
X129030861Y-94527349D01*
X129030860Y-94527348D01*
X129030860Y-94527347D01*
X128975699Y-94455461D01*
X128950504Y-94390292D01*
X128964542Y-94321847D01*
X128975699Y-94304487D01*
X129030860Y-94232600D01*
X129030859Y-94232600D01*
X129030861Y-94232599D01*
X129086330Y-94098683D01*
X129102061Y-93979195D01*
X129112651Y-93955257D01*
X129102481Y-93933671D01*
X129102061Y-93930751D01*
X129097027Y-93892514D01*
X129086330Y-93811265D01*
X129030861Y-93677349D01*
X129011442Y-93652041D01*
X128975698Y-93605459D01*
X128950504Y-93540290D01*
X128964542Y-93471845D01*
X128975699Y-93454486D01*
X129030860Y-93382599D01*
X129030859Y-93382599D01*
X129030861Y-93382598D01*
X129086330Y-93248682D01*
X129102061Y-93129194D01*
X129112650Y-93105256D01*
X129112383Y-93104689D01*
X129337348Y-93104689D01*
X129347518Y-93126275D01*
X129347938Y-93129195D01*
X129363670Y-93248682D01*
X129363671Y-93248686D01*
X129419138Y-93382597D01*
X129419139Y-93382599D01*
X129474301Y-93454488D01*
X129499495Y-93519657D01*
X129485456Y-93588102D01*
X129474301Y-93605460D01*
X129419139Y-93677348D01*
X129419138Y-93677350D01*
X129363671Y-93811261D01*
X129363670Y-93811265D01*
X129347939Y-93930751D01*
X129337348Y-93954689D01*
X129347519Y-93976276D01*
X129347938Y-93979191D01*
X129361091Y-94079097D01*
X129363670Y-94098682D01*
X129363671Y-94098686D01*
X129419138Y-94232597D01*
X129419139Y-94232599D01*
X129474301Y-94304488D01*
X129499495Y-94369657D01*
X129485456Y-94438102D01*
X129474301Y-94455460D01*
X129419139Y-94527348D01*
X129419138Y-94527350D01*
X129363671Y-94661261D01*
X129363670Y-94661265D01*
X129347939Y-94780751D01*
X129337348Y-94804689D01*
X129347519Y-94826276D01*
X129347938Y-94829191D01*
X129351799Y-94858519D01*
X129363670Y-94948682D01*
X129363671Y-94948686D01*
X129419138Y-95082597D01*
X129419139Y-95082599D01*
X129474301Y-95154488D01*
X129499495Y-95219657D01*
X129485456Y-95288102D01*
X129474301Y-95305460D01*
X129419139Y-95377348D01*
X129419138Y-95377350D01*
X129363671Y-95511261D01*
X129363670Y-95511265D01*
X129347939Y-95630751D01*
X129337348Y-95654689D01*
X129347519Y-95676276D01*
X129347938Y-95679191D01*
X129354183Y-95726627D01*
X129363670Y-95798682D01*
X129363671Y-95798686D01*
X129419138Y-95932597D01*
X129419139Y-95932599D01*
X129474301Y-96004488D01*
X129499495Y-96069657D01*
X129485456Y-96138102D01*
X129474301Y-96155460D01*
X129419139Y-96227348D01*
X129419138Y-96227350D01*
X129363671Y-96361261D01*
X129363670Y-96361266D01*
X129347939Y-96480750D01*
X129337348Y-96504689D01*
X129347518Y-96526275D01*
X129347938Y-96529195D01*
X129363670Y-96648682D01*
X129363671Y-96648686D01*
X129419138Y-96782597D01*
X129419139Y-96782599D01*
X129474301Y-96854488D01*
X129499495Y-96919657D01*
X129485456Y-96988102D01*
X129474301Y-97005460D01*
X129419139Y-97077348D01*
X129419138Y-97077350D01*
X129363671Y-97211261D01*
X129363670Y-97211265D01*
X129347939Y-97330751D01*
X129337348Y-97354689D01*
X129347519Y-97376276D01*
X129347939Y-97379196D01*
X129363670Y-97498682D01*
X129363671Y-97498686D01*
X129419137Y-97632596D01*
X129419138Y-97632598D01*
X129419139Y-97632599D01*
X129507379Y-97747595D01*
X129622375Y-97835835D01*
X129622376Y-97835835D01*
X129622377Y-97835836D01*
X129667013Y-97854324D01*
X129756291Y-97891304D01*
X129883280Y-97908022D01*
X129899999Y-97910224D01*
X129900000Y-97910224D01*
X129900001Y-97910224D01*
X129914977Y-97908252D01*
X130043709Y-97891304D01*
X130177625Y-97835835D01*
X130292621Y-97747595D01*
X130380861Y-97632599D01*
X130436330Y-97498683D01*
X130455250Y-97354974D01*
X130455212Y-97354689D01*
X130443711Y-97267329D01*
X130436330Y-97211265D01*
X130380861Y-97077349D01*
X130380860Y-97077348D01*
X130380860Y-97077347D01*
X130325699Y-97005461D01*
X130300504Y-96940292D01*
X130314542Y-96871847D01*
X130325699Y-96854487D01*
X130380860Y-96782600D01*
X130380859Y-96782600D01*
X130380861Y-96782599D01*
X130436330Y-96648683D01*
X130455250Y-96504974D01*
X130455212Y-96504689D01*
X130442927Y-96411375D01*
X130436330Y-96361265D01*
X130380861Y-96227349D01*
X130380860Y-96227348D01*
X130380860Y-96227347D01*
X130325699Y-96155461D01*
X130300504Y-96090292D01*
X130314542Y-96021847D01*
X130325699Y-96004487D01*
X130380860Y-95932600D01*
X130380859Y-95932600D01*
X130380861Y-95932599D01*
X130436330Y-95798683D01*
X130455250Y-95654974D01*
X130455212Y-95654689D01*
X130450363Y-95617856D01*
X130436330Y-95511265D01*
X130380861Y-95377349D01*
X130380860Y-95377348D01*
X130380860Y-95377347D01*
X130325699Y-95305461D01*
X130300504Y-95240292D01*
X130314542Y-95171847D01*
X130325699Y-95154487D01*
X130380860Y-95082600D01*
X130380859Y-95082600D01*
X130380861Y-95082599D01*
X130436330Y-94948683D01*
X130455250Y-94804974D01*
X130455212Y-94804689D01*
X130442150Y-94705473D01*
X130436330Y-94661265D01*
X130380861Y-94527349D01*
X130380860Y-94527348D01*
X130380860Y-94527347D01*
X130325699Y-94455461D01*
X130300504Y-94390292D01*
X130314542Y-94321847D01*
X130325699Y-94304487D01*
X130380860Y-94232600D01*
X130380859Y-94232600D01*
X130380861Y-94232599D01*
X130436330Y-94098683D01*
X130455250Y-93954974D01*
X130455212Y-93954689D01*
X130447027Y-93892516D01*
X130436330Y-93811265D01*
X130380861Y-93677349D01*
X130380860Y-93677348D01*
X130380860Y-93677347D01*
X130325699Y-93605461D01*
X130300504Y-93540292D01*
X130314542Y-93471847D01*
X130325699Y-93454487D01*
X130380860Y-93382600D01*
X130380859Y-93382600D01*
X130380861Y-93382599D01*
X130436330Y-93248683D01*
X130455250Y-93104974D01*
X130455212Y-93104689D01*
X130452061Y-93080750D01*
X130436330Y-92961265D01*
X130380861Y-92827349D01*
X130292621Y-92712353D01*
X130177625Y-92624113D01*
X130177624Y-92624112D01*
X130177622Y-92624111D01*
X130043712Y-92568645D01*
X130043710Y-92568644D01*
X130043709Y-92568644D01*
X129971854Y-92559184D01*
X129900001Y-92549724D01*
X129899999Y-92549724D01*
X129756291Y-92568644D01*
X129756287Y-92568645D01*
X129622377Y-92624111D01*
X129507379Y-92712353D01*
X129419137Y-92827351D01*
X129363671Y-92961261D01*
X129363670Y-92961266D01*
X129347939Y-93080750D01*
X129337348Y-93104689D01*
X129112383Y-93104689D01*
X129102481Y-93083670D01*
X129102061Y-93080750D01*
X129100927Y-93072140D01*
X129086330Y-92961264D01*
X129030861Y-92827348D01*
X128942621Y-92712352D01*
X128827625Y-92624112D01*
X128827624Y-92624111D01*
X128827622Y-92624110D01*
X128693712Y-92568644D01*
X128693710Y-92568643D01*
X128693709Y-92568643D01*
X128621854Y-92559183D01*
X128550001Y-92549723D01*
X128549999Y-92549723D01*
X128406291Y-92568643D01*
X128406287Y-92568644D01*
X128272377Y-92624110D01*
X128157379Y-92712352D01*
X128069137Y-92827350D01*
X128013671Y-92961260D01*
X128013670Y-92961264D01*
X128003100Y-93041553D01*
X127994750Y-93104973D01*
X111658923Y-93104973D01*
X111741128Y-93052143D01*
X111835377Y-92943373D01*
X111895165Y-92812457D01*
X111915647Y-92670000D01*
X111895165Y-92527543D01*
X111835377Y-92396627D01*
X111741128Y-92287857D01*
X111620053Y-92210047D01*
X111620051Y-92210046D01*
X111620049Y-92210045D01*
X111620050Y-92210045D01*
X111481963Y-92169500D01*
X111481961Y-92169500D01*
X111338039Y-92169500D01*
X111338036Y-92169500D01*
X111199949Y-92210045D01*
X111078873Y-92287856D01*
X110984623Y-92396626D01*
X110984622Y-92396628D01*
X110924834Y-92527543D01*
X110904353Y-92670000D01*
X109339860Y-92670000D01*
X109521082Y-92543105D01*
X109688105Y-92376082D01*
X109823600Y-92182578D01*
X109848117Y-92130000D01*
X120234353Y-92130000D01*
X120254834Y-92272456D01*
X120299876Y-92371082D01*
X120314623Y-92403373D01*
X120408872Y-92512143D01*
X120529947Y-92589953D01*
X120529950Y-92589954D01*
X120529949Y-92589954D01*
X120637107Y-92621417D01*
X120646276Y-92624110D01*
X120668036Y-92630499D01*
X120668038Y-92630500D01*
X120668039Y-92630500D01*
X120811962Y-92630500D01*
X120811962Y-92630499D01*
X120950053Y-92589953D01*
X121071128Y-92512143D01*
X121165377Y-92403373D01*
X121225165Y-92272457D01*
X121227679Y-92254974D01*
X127695318Y-92254974D01*
X127713995Y-92432674D01*
X127713996Y-92432676D01*
X127769209Y-92602605D01*
X127769210Y-92602607D01*
X127798346Y-92653072D01*
X127798347Y-92653073D01*
X128196446Y-92254974D01*
X128196446Y-92254973D01*
X128156665Y-92215192D01*
X128350000Y-92215192D01*
X128350000Y-92294756D01*
X128380448Y-92368265D01*
X128436709Y-92424526D01*
X128510218Y-92454974D01*
X128589782Y-92454974D01*
X128663291Y-92424526D01*
X128719552Y-92368265D01*
X128750000Y-92294756D01*
X128750000Y-92254974D01*
X128903553Y-92254974D01*
X129225000Y-92576420D01*
X129225001Y-92576420D01*
X129546446Y-92254975D01*
X129546446Y-92254973D01*
X129506665Y-92215192D01*
X129700000Y-92215192D01*
X129700000Y-92294756D01*
X129730448Y-92368265D01*
X129786709Y-92424526D01*
X129860218Y-92454974D01*
X129939782Y-92454974D01*
X130013291Y-92424526D01*
X130069552Y-92368265D01*
X130100000Y-92294756D01*
X130100000Y-92254973D01*
X130253553Y-92254973D01*
X130253553Y-92254975D01*
X130651651Y-92653073D01*
X130651652Y-92653073D01*
X130680790Y-92602605D01*
X130736003Y-92432676D01*
X130736004Y-92432674D01*
X130754681Y-92254974D01*
X130736004Y-92077273D01*
X130736003Y-92077271D01*
X130680793Y-91907349D01*
X130680790Y-91907343D01*
X130651651Y-91856873D01*
X130253553Y-92254973D01*
X130100000Y-92254973D01*
X130100000Y-92215192D01*
X130069552Y-92141683D01*
X130013291Y-92085422D01*
X129939782Y-92054974D01*
X129860218Y-92054974D01*
X129786709Y-92085422D01*
X129730448Y-92141683D01*
X129700000Y-92215192D01*
X129506665Y-92215192D01*
X129225001Y-91933527D01*
X129225000Y-91933527D01*
X128903553Y-92254974D01*
X128750000Y-92254974D01*
X128750000Y-92215192D01*
X128719552Y-92141683D01*
X128663291Y-92085422D01*
X128589782Y-92054974D01*
X128510218Y-92054974D01*
X128436709Y-92085422D01*
X128380448Y-92141683D01*
X128350000Y-92215192D01*
X128156665Y-92215192D01*
X127798347Y-91856874D01*
X127769208Y-91907344D01*
X127713996Y-92077271D01*
X127713995Y-92077273D01*
X127695318Y-92254974D01*
X121227679Y-92254974D01*
X121245647Y-92130000D01*
X121225165Y-91987543D01*
X121165377Y-91856627D01*
X121071128Y-91747857D01*
X120950053Y-91670047D01*
X120950051Y-91670046D01*
X120950049Y-91670045D01*
X120950050Y-91670045D01*
X120811963Y-91629500D01*
X120811961Y-91629500D01*
X120668039Y-91629500D01*
X120668036Y-91629500D01*
X120529949Y-91670045D01*
X120408873Y-91747856D01*
X120314623Y-91856626D01*
X120314622Y-91856628D01*
X120254834Y-91987543D01*
X120234353Y-92130000D01*
X109848117Y-92130000D01*
X109923429Y-91968492D01*
X109923432Y-91968486D01*
X109980636Y-91755000D01*
X109083012Y-91755000D01*
X109115925Y-91697993D01*
X109150000Y-91570826D01*
X109150000Y-91439174D01*
X109115925Y-91312007D01*
X109083012Y-91255000D01*
X109980636Y-91255000D01*
X109980635Y-91254999D01*
X109923432Y-91041513D01*
X109923429Y-91041507D01*
X109889640Y-90969045D01*
X128129499Y-90969045D01*
X128154497Y-91094712D01*
X128154499Y-91094718D01*
X128203533Y-91213098D01*
X128203538Y-91213107D01*
X128258619Y-91295541D01*
X128279497Y-91362219D01*
X128261012Y-91429599D01*
X128209034Y-91476289D01*
X128205953Y-91477712D01*
X128150832Y-91502253D01*
X128549999Y-91901420D01*
X128550000Y-91901420D01*
X128859628Y-91591793D01*
X128920951Y-91558308D01*
X128947309Y-91555474D01*
X129502691Y-91555474D01*
X129569730Y-91575159D01*
X129590372Y-91591793D01*
X129900000Y-91901420D01*
X130209628Y-91591793D01*
X130270951Y-91558308D01*
X130297309Y-91555474D01*
X130344071Y-91555474D01*
X130428615Y-91538656D01*
X130469744Y-91530475D01*
X130588127Y-91481439D01*
X130694669Y-91410250D01*
X130785276Y-91319643D01*
X130856465Y-91213101D01*
X130905501Y-91094718D01*
X130930500Y-90969043D01*
X130930500Y-90840905D01*
X130930500Y-90840902D01*
X130905502Y-90715235D01*
X130905501Y-90715234D01*
X130905501Y-90715230D01*
X130856465Y-90596847D01*
X130856464Y-90596846D01*
X130856461Y-90596840D01*
X130785276Y-90490305D01*
X130785273Y-90490301D01*
X130694672Y-90399700D01*
X130694668Y-90399697D01*
X130588133Y-90328512D01*
X130588124Y-90328507D01*
X130469744Y-90279473D01*
X130469738Y-90279471D01*
X130344071Y-90254474D01*
X130344069Y-90254474D01*
X128715931Y-90254474D01*
X128715929Y-90254474D01*
X128590261Y-90279471D01*
X128590255Y-90279473D01*
X128471875Y-90328507D01*
X128471866Y-90328512D01*
X128365331Y-90399697D01*
X128365327Y-90399700D01*
X128274726Y-90490301D01*
X128274723Y-90490305D01*
X128203538Y-90596840D01*
X128203533Y-90596849D01*
X128154499Y-90715229D01*
X128154497Y-90715235D01*
X128129500Y-90840902D01*
X128129500Y-90840905D01*
X128129500Y-90969043D01*
X128129500Y-90969045D01*
X128129499Y-90969045D01*
X109889640Y-90969045D01*
X109823600Y-90827422D01*
X109823599Y-90827420D01*
X109688113Y-90633926D01*
X109688108Y-90633920D01*
X109521082Y-90466894D01*
X109327578Y-90331399D01*
X109113492Y-90231570D01*
X109113486Y-90231567D01*
X108991349Y-90198841D01*
X108931689Y-90162476D01*
X108901160Y-90099629D01*
X108909455Y-90030253D01*
X108953940Y-89976375D01*
X108987444Y-89960407D01*
X109053954Y-89940232D01*
X109236450Y-89842685D01*
X109396410Y-89711410D01*
X109527685Y-89551450D01*
X109625232Y-89368954D01*
X109685300Y-89170934D01*
X109705583Y-88965000D01*
X109685300Y-88759066D01*
X109625232Y-88561046D01*
X109533805Y-88390000D01*
X118154353Y-88390000D01*
X118174834Y-88532456D01*
X118187891Y-88561046D01*
X118234623Y-88663373D01*
X118328872Y-88772143D01*
X118449947Y-88849953D01*
X118449950Y-88849954D01*
X118449949Y-88849954D01*
X118588036Y-88890499D01*
X118588038Y-88890500D01*
X118588039Y-88890500D01*
X118731962Y-88890500D01*
X118731962Y-88890499D01*
X118870053Y-88849953D01*
X118991128Y-88772143D01*
X119085377Y-88663373D01*
X119145165Y-88532457D01*
X119165647Y-88390000D01*
X119145165Y-88247543D01*
X119085377Y-88116627D01*
X118991128Y-88007857D01*
X118870053Y-87930047D01*
X118870051Y-87930046D01*
X118870049Y-87930045D01*
X118870050Y-87930045D01*
X118731963Y-87889500D01*
X118731961Y-87889500D01*
X118588039Y-87889500D01*
X118588036Y-87889500D01*
X118449949Y-87930045D01*
X118328873Y-88007856D01*
X118234623Y-88116626D01*
X118234622Y-88116628D01*
X118174834Y-88247543D01*
X118154353Y-88390000D01*
X109533805Y-88390000D01*
X109527685Y-88378550D01*
X109422598Y-88250500D01*
X109396410Y-88218589D01*
X109236452Y-88087317D01*
X109236453Y-88087317D01*
X109236450Y-88087315D01*
X109053954Y-87989768D01*
X108855934Y-87929700D01*
X108855932Y-87929699D01*
X108855934Y-87929699D01*
X108650000Y-87909417D01*
X108444067Y-87929699D01*
X108246043Y-87989769D01*
X108135898Y-88048643D01*
X108063550Y-88087315D01*
X108063548Y-88087316D01*
X108063547Y-88087317D01*
X107903589Y-88218589D01*
X107772317Y-88378547D01*
X107674769Y-88561043D01*
X107614699Y-88759067D01*
X107594417Y-88965000D01*
X107614699Y-89170932D01*
X107614700Y-89170934D01*
X107674768Y-89368954D01*
X107772315Y-89551450D01*
X107772317Y-89551452D01*
X107903589Y-89711410D01*
X108000209Y-89790702D01*
X108063550Y-89842685D01*
X108246046Y-89940232D01*
X108312551Y-89960405D01*
X108370989Y-89998702D01*
X108399446Y-90062514D01*
X108388887Y-90131581D01*
X108342663Y-90183975D01*
X108308650Y-90198841D01*
X108186514Y-90231567D01*
X108186507Y-90231570D01*
X107972422Y-90331399D01*
X107972420Y-90331400D01*
X107778926Y-90466886D01*
X107778920Y-90466891D01*
X107611891Y-90633920D01*
X107611886Y-90633926D01*
X107476400Y-90827420D01*
X107476399Y-90827422D01*
X107376570Y-91041507D01*
X107376567Y-91041513D01*
X107319364Y-91254999D01*
X105435898Y-91254999D01*
X105433012Y-91250000D01*
X106330636Y-91250000D01*
X106330635Y-91249999D01*
X106273432Y-91036513D01*
X106273429Y-91036507D01*
X106173600Y-90822422D01*
X106173599Y-90822420D01*
X106038113Y-90628926D01*
X106038108Y-90628920D01*
X105871082Y-90461894D01*
X105677578Y-90326399D01*
X105463492Y-90226570D01*
X105463486Y-90226567D01*
X105341349Y-90193841D01*
X105281689Y-90157476D01*
X105251160Y-90094629D01*
X105259455Y-90025253D01*
X105303940Y-89971375D01*
X105337444Y-89955407D01*
X105403954Y-89935232D01*
X105586450Y-89837685D01*
X105746410Y-89706410D01*
X105877685Y-89546450D01*
X105975232Y-89363954D01*
X106035300Y-89165934D01*
X106055583Y-88960000D01*
X106035300Y-88754066D01*
X105975232Y-88556046D01*
X105877685Y-88373550D01*
X105825702Y-88310209D01*
X105746410Y-88213589D01*
X105592545Y-88087317D01*
X105586450Y-88082315D01*
X105403954Y-87984768D01*
X105205934Y-87924700D01*
X105205932Y-87924699D01*
X105205934Y-87924699D01*
X105000000Y-87904417D01*
X104794067Y-87924699D01*
X104596043Y-87984769D01*
X104485898Y-88043643D01*
X104413550Y-88082315D01*
X104413548Y-88082316D01*
X104413547Y-88082317D01*
X104253589Y-88213589D01*
X104122317Y-88373547D01*
X104122315Y-88373550D01*
X104083643Y-88445898D01*
X104024769Y-88556043D01*
X103964699Y-88754067D01*
X103944417Y-88960000D01*
X103964699Y-89165932D01*
X103994734Y-89264944D01*
X104024768Y-89363954D01*
X104122315Y-89546450D01*
X104126420Y-89551452D01*
X104253589Y-89706410D01*
X104350209Y-89785702D01*
X104413550Y-89837685D01*
X104596046Y-89935232D01*
X104662551Y-89955405D01*
X104720989Y-89993702D01*
X104749446Y-90057514D01*
X104738887Y-90126581D01*
X104692663Y-90178975D01*
X104658650Y-90193841D01*
X104536514Y-90226567D01*
X104536507Y-90226570D01*
X104322422Y-90326399D01*
X104322420Y-90326400D01*
X104128926Y-90461886D01*
X104128920Y-90461891D01*
X103961891Y-90628920D01*
X103961886Y-90628926D01*
X103826400Y-90822420D01*
X103826399Y-90822422D01*
X103726570Y-91036507D01*
X103726567Y-91036513D01*
X103669364Y-91249999D01*
X102680635Y-91249999D01*
X102623432Y-91036513D01*
X102623429Y-91036507D01*
X102523600Y-90822422D01*
X102523599Y-90822420D01*
X102388113Y-90628926D01*
X102388108Y-90628920D01*
X102221082Y-90461894D01*
X102027578Y-90326399D01*
X101813492Y-90226570D01*
X101813486Y-90226567D01*
X101691349Y-90193841D01*
X101631689Y-90157476D01*
X101601160Y-90094629D01*
X101609455Y-90025253D01*
X101653940Y-89971375D01*
X101687444Y-89955407D01*
X101753954Y-89935232D01*
X101936450Y-89837685D01*
X102096410Y-89706410D01*
X102227685Y-89546450D01*
X102325232Y-89363954D01*
X102385300Y-89165934D01*
X102405583Y-88960000D01*
X102385300Y-88754066D01*
X102325232Y-88556046D01*
X102227685Y-88373550D01*
X102175702Y-88310209D01*
X102096410Y-88213589D01*
X101942545Y-88087317D01*
X101936450Y-88082315D01*
X101753954Y-87984768D01*
X101555934Y-87924700D01*
X101555932Y-87924699D01*
X101555934Y-87924699D01*
X101350000Y-87904417D01*
X101144067Y-87924699D01*
X100946043Y-87984769D01*
X100835898Y-88043643D01*
X100763550Y-88082315D01*
X100763548Y-88082316D01*
X100763547Y-88082317D01*
X100603589Y-88213589D01*
X100472317Y-88373547D01*
X100472315Y-88373550D01*
X100433643Y-88445898D01*
X100374769Y-88556043D01*
X100314699Y-88754067D01*
X100294417Y-88960000D01*
X100314699Y-89165932D01*
X100344734Y-89264944D01*
X100374768Y-89363954D01*
X100472315Y-89546450D01*
X100476420Y-89551452D01*
X100603589Y-89706410D01*
X100700209Y-89785702D01*
X100763550Y-89837685D01*
X100946046Y-89935232D01*
X101012551Y-89955405D01*
X101070989Y-89993702D01*
X101099446Y-90057514D01*
X101088887Y-90126581D01*
X101042663Y-90178975D01*
X101008650Y-90193841D01*
X100886514Y-90226567D01*
X100886507Y-90226570D01*
X100672422Y-90326399D01*
X100672420Y-90326400D01*
X100478926Y-90461886D01*
X100478920Y-90461891D01*
X100311891Y-90628920D01*
X100311886Y-90628926D01*
X100176400Y-90822420D01*
X100176399Y-90822422D01*
X100076570Y-91036507D01*
X100076567Y-91036513D01*
X100019364Y-91249999D01*
X96030635Y-91249999D01*
X95941602Y-91160966D01*
X95801524Y-91059194D01*
X95647257Y-90980590D01*
X95482584Y-90927084D01*
X95311571Y-90899999D01*
X95200000Y-90899999D01*
X95200000Y-91719669D01*
X95180255Y-91699924D01*
X95094745Y-91650555D01*
X94999370Y-91624999D01*
X94900630Y-91624999D01*
X94805255Y-91650555D01*
X94719745Y-91699924D01*
X94700000Y-91719669D01*
X94700000Y-90899999D01*
X94588429Y-90899999D01*
X94417415Y-90927084D01*
X94252742Y-90980590D01*
X94098475Y-91059194D01*
X93958397Y-91160966D01*
X93835967Y-91283396D01*
X93734195Y-91423474D01*
X93655591Y-91577743D01*
X93602085Y-91742414D01*
X93600884Y-91749998D01*
X92883285Y-91749998D01*
X92883285Y-86901577D01*
X94249500Y-86901577D01*
X94249500Y-87098422D01*
X94280290Y-87292826D01*
X94341117Y-87480029D01*
X94430476Y-87655405D01*
X94546172Y-87814646D01*
X94685354Y-87953828D01*
X94844595Y-88069524D01*
X94927455Y-88111743D01*
X95019970Y-88158882D01*
X95019972Y-88158882D01*
X95019975Y-88158884D01*
X95120317Y-88191487D01*
X95207173Y-88219709D01*
X95401578Y-88250500D01*
X95401583Y-88250500D01*
X95598422Y-88250500D01*
X95792826Y-88219709D01*
X95811661Y-88213589D01*
X95980025Y-88158884D01*
X96155405Y-88069524D01*
X96314646Y-87953828D01*
X96453828Y-87814646D01*
X96569524Y-87655405D01*
X96658884Y-87480025D01*
X96719709Y-87292826D01*
X96720474Y-87287996D01*
X96750500Y-87098422D01*
X96750500Y-86901577D01*
X96719709Y-86707173D01*
X96666189Y-86542457D01*
X96658884Y-86519975D01*
X96658882Y-86519972D01*
X96658882Y-86519970D01*
X96569523Y-86344594D01*
X96453828Y-86185354D01*
X96314646Y-86046172D01*
X96155405Y-85930476D01*
X96094611Y-85899500D01*
X95980029Y-85841117D01*
X95792826Y-85780290D01*
X95598422Y-85749500D01*
X95598417Y-85749500D01*
X95401583Y-85749500D01*
X95401578Y-85749500D01*
X95207173Y-85780290D01*
X95019970Y-85841117D01*
X94844594Y-85930476D01*
X94753741Y-85996485D01*
X94685354Y-86046172D01*
X94685352Y-86046174D01*
X94685351Y-86046174D01*
X94546174Y-86185351D01*
X94546174Y-86185352D01*
X94546172Y-86185354D01*
X94496485Y-86253741D01*
X94430476Y-86344594D01*
X94341117Y-86519970D01*
X94280290Y-86707173D01*
X94249500Y-86901577D01*
X92883285Y-86901577D01*
X92883285Y-85550247D01*
X100299500Y-85550247D01*
X100299500Y-87289752D01*
X100311131Y-87348229D01*
X100311132Y-87348230D01*
X100355447Y-87414552D01*
X100421769Y-87458867D01*
X100421770Y-87458868D01*
X100480247Y-87470499D01*
X100480250Y-87470500D01*
X100480252Y-87470500D01*
X102219750Y-87470500D01*
X102219751Y-87470499D01*
X102234568Y-87467552D01*
X102278229Y-87458868D01*
X102278229Y-87458867D01*
X102278231Y-87458867D01*
X102344552Y-87414552D01*
X102388867Y-87348231D01*
X102388867Y-87348229D01*
X102388868Y-87348229D01*
X102400499Y-87289752D01*
X102400500Y-87289750D01*
X102400500Y-85550249D01*
X102400499Y-85550247D01*
X103949500Y-85550247D01*
X103949500Y-87289752D01*
X103961131Y-87348229D01*
X103961132Y-87348230D01*
X104005447Y-87414552D01*
X104071769Y-87458867D01*
X104071770Y-87458868D01*
X104130247Y-87470499D01*
X104130250Y-87470500D01*
X104130252Y-87470500D01*
X105869750Y-87470500D01*
X105869751Y-87470499D01*
X105884568Y-87467552D01*
X105928229Y-87458868D01*
X105928229Y-87458867D01*
X105928231Y-87458867D01*
X105994552Y-87414552D01*
X106038867Y-87348231D01*
X106038867Y-87348229D01*
X106038868Y-87348229D01*
X106050499Y-87289752D01*
X106050500Y-87289750D01*
X106050500Y-85555247D01*
X107599500Y-85555247D01*
X107599500Y-87294752D01*
X107611131Y-87353229D01*
X107611132Y-87353230D01*
X107655447Y-87419552D01*
X107721769Y-87463867D01*
X107721770Y-87463868D01*
X107780247Y-87475499D01*
X107780250Y-87475500D01*
X107780252Y-87475500D01*
X109519750Y-87475500D01*
X109519751Y-87475499D01*
X109544890Y-87470499D01*
X109578229Y-87463868D01*
X109578229Y-87463867D01*
X109578231Y-87463867D01*
X109644552Y-87419552D01*
X109688867Y-87353231D01*
X109688867Y-87353229D01*
X109688868Y-87353229D01*
X109700499Y-87294752D01*
X109700500Y-87294750D01*
X109700500Y-87014625D01*
X114979561Y-87014625D01*
X115000042Y-87157081D01*
X115059830Y-87287996D01*
X115059831Y-87287998D01*
X115154080Y-87396768D01*
X115275155Y-87474578D01*
X115275158Y-87474579D01*
X115275157Y-87474579D01*
X115413244Y-87515124D01*
X115413246Y-87515125D01*
X115413247Y-87515125D01*
X115557170Y-87515125D01*
X115557170Y-87515124D01*
X115664329Y-87483660D01*
X115695258Y-87474579D01*
X115695258Y-87474578D01*
X115695261Y-87474578D01*
X115816336Y-87396768D01*
X115910585Y-87287998D01*
X115970373Y-87157082D01*
X115990855Y-87014625D01*
X115974601Y-86901577D01*
X130249500Y-86901577D01*
X130249500Y-87098422D01*
X130280290Y-87292826D01*
X130341117Y-87480029D01*
X130430476Y-87655405D01*
X130546172Y-87814646D01*
X130685354Y-87953828D01*
X130844595Y-88069524D01*
X130927455Y-88111743D01*
X131019970Y-88158882D01*
X131019972Y-88158882D01*
X131019975Y-88158884D01*
X131120317Y-88191487D01*
X131207173Y-88219709D01*
X131401578Y-88250500D01*
X131401583Y-88250500D01*
X131598422Y-88250500D01*
X131792826Y-88219709D01*
X131811661Y-88213589D01*
X131980025Y-88158884D01*
X132155405Y-88069524D01*
X132314646Y-87953828D01*
X132453828Y-87814646D01*
X132569524Y-87655405D01*
X132658884Y-87480025D01*
X132719709Y-87292826D01*
X132720474Y-87287996D01*
X132750500Y-87098422D01*
X132750500Y-86901577D01*
X132719709Y-86707173D01*
X132666189Y-86542457D01*
X132658884Y-86519975D01*
X132658882Y-86519972D01*
X132658882Y-86519970D01*
X132569523Y-86344594D01*
X132453828Y-86185354D01*
X132314646Y-86046172D01*
X132155405Y-85930476D01*
X132094611Y-85899500D01*
X131980029Y-85841117D01*
X131792826Y-85780290D01*
X131598422Y-85749500D01*
X131598417Y-85749500D01*
X131401583Y-85749500D01*
X131401578Y-85749500D01*
X131207173Y-85780290D01*
X131019970Y-85841117D01*
X130844594Y-85930476D01*
X130753741Y-85996485D01*
X130685354Y-86046172D01*
X130685352Y-86046174D01*
X130685351Y-86046174D01*
X130546174Y-86185351D01*
X130546174Y-86185352D01*
X130546172Y-86185354D01*
X130496485Y-86253741D01*
X130430476Y-86344594D01*
X130341117Y-86519970D01*
X130280290Y-86707173D01*
X130249500Y-86901577D01*
X115974601Y-86901577D01*
X115970373Y-86872168D01*
X115910585Y-86741252D01*
X115816336Y-86632482D01*
X115695261Y-86554672D01*
X115695259Y-86554671D01*
X115695257Y-86554670D01*
X115695258Y-86554670D01*
X115557171Y-86514125D01*
X115557169Y-86514125D01*
X115413247Y-86514125D01*
X115413244Y-86514125D01*
X115275157Y-86554670D01*
X115154081Y-86632481D01*
X115059831Y-86741251D01*
X115059830Y-86741253D01*
X115000042Y-86872168D01*
X114979561Y-87014625D01*
X109700500Y-87014625D01*
X109700500Y-86400000D01*
X119044353Y-86400000D01*
X119064834Y-86542456D01*
X119070413Y-86554672D01*
X119124623Y-86673373D01*
X119218872Y-86782143D01*
X119339947Y-86859953D01*
X119339950Y-86859954D01*
X119339949Y-86859954D01*
X119478036Y-86900499D01*
X119478038Y-86900500D01*
X119478039Y-86900500D01*
X119621962Y-86900500D01*
X119621962Y-86900499D01*
X119760053Y-86859953D01*
X119881128Y-86782143D01*
X119975377Y-86673373D01*
X120035165Y-86542457D01*
X120055647Y-86400000D01*
X120035165Y-86257543D01*
X119975377Y-86126627D01*
X119881128Y-86017857D01*
X119760053Y-85940047D01*
X119760051Y-85940046D01*
X119760049Y-85940045D01*
X119760050Y-85940045D01*
X119621963Y-85899500D01*
X119621961Y-85899500D01*
X119478039Y-85899500D01*
X119478036Y-85899500D01*
X119339949Y-85940045D01*
X119218873Y-86017856D01*
X119124623Y-86126626D01*
X119124622Y-86126628D01*
X119064834Y-86257543D01*
X119044353Y-86400000D01*
X109700500Y-86400000D01*
X109700500Y-85555249D01*
X109700499Y-85555247D01*
X109688868Y-85496770D01*
X109688867Y-85496769D01*
X109644552Y-85430447D01*
X109578230Y-85386132D01*
X109578229Y-85386131D01*
X109519752Y-85374500D01*
X109519748Y-85374500D01*
X107780252Y-85374500D01*
X107780247Y-85374500D01*
X107721770Y-85386131D01*
X107721769Y-85386132D01*
X107655447Y-85430447D01*
X107611132Y-85496769D01*
X107611131Y-85496770D01*
X107599500Y-85555247D01*
X106050500Y-85555247D01*
X106050500Y-85550249D01*
X106050499Y-85550247D01*
X106038868Y-85491770D01*
X106038867Y-85491769D01*
X105994552Y-85425447D01*
X105928230Y-85381132D01*
X105928229Y-85381131D01*
X105869752Y-85369500D01*
X105869748Y-85369500D01*
X104130252Y-85369500D01*
X104130247Y-85369500D01*
X104071770Y-85381131D01*
X104071769Y-85381132D01*
X104005447Y-85425447D01*
X103961132Y-85491769D01*
X103961131Y-85491770D01*
X103949500Y-85550247D01*
X102400499Y-85550247D01*
X102388868Y-85491770D01*
X102388867Y-85491769D01*
X102344552Y-85425447D01*
X102278230Y-85381132D01*
X102278229Y-85381131D01*
X102219752Y-85369500D01*
X102219748Y-85369500D01*
X100480252Y-85369500D01*
X100480247Y-85369500D01*
X100421770Y-85381131D01*
X100421769Y-85381132D01*
X100355447Y-85425447D01*
X100311132Y-85491769D01*
X100311131Y-85491770D01*
X100299500Y-85550247D01*
X92883285Y-85550247D01*
X92883285Y-84595051D01*
X92902970Y-84528012D01*
X92955774Y-84482257D01*
X93007285Y-84471051D01*
X134028285Y-84471051D01*
X134095324Y-84490736D01*
G37*
%TD.AperFunction*%
%TD*%
M02*
