%TF.GenerationSoftware,KiCad,Pcbnew,8.0.6*%
%TF.CreationDate,2024-12-10T11:27:28-08:00*%
%TF.ProjectId,Vanguard_new,56616e67-7561-4726-945f-6e65772e6b69,rev?*%
%TF.SameCoordinates,Original*%
%TF.FileFunction,Soldermask,Bot*%
%TF.FilePolarity,Negative*%
%FSLAX46Y46*%
G04 Gerber Fmt 4.6, Leading zero omitted, Abs format (unit mm)*
G04 Created by KiCad (PCBNEW 8.0.6) date 2024-12-10 11:27:28*
%MOMM*%
%LPD*%
G01*
G04 APERTURE LIST*
%ADD10R,1.700000X1.700000*%
%ADD11O,1.700000X1.700000*%
%ADD12R,2.000000X2.000000*%
%ADD13C,2.000000*%
%ADD14C,2.100000*%
%ADD15C,0.650000*%
%ADD16O,0.650000X0.950000*%
%ADD17O,1.400000X0.800000*%
%ADD18C,1.000000*%
G04 APERTURE END LIST*
D10*
%TO.C,J5*%
X105000000Y-86420000D03*
D11*
X105000000Y-88960000D03*
X105000000Y-91500000D03*
%TD*%
D10*
%TO.C,J4*%
X101350000Y-86420000D03*
D11*
X101350000Y-88960000D03*
X101350000Y-91500000D03*
%TD*%
D12*
%TO.C,BZ1*%
X125870785Y-130000000D03*
D13*
X120870785Y-130000000D03*
%TD*%
D14*
%TO.C,REF\u002A\u002A*%
X95500000Y-87000000D03*
%TD*%
D15*
%TO.C,J1*%
X124432785Y-99720551D03*
D16*
X124432785Y-92520551D03*
D15*
X125082785Y-93320551D03*
X125782785Y-93720551D03*
X125782785Y-94520551D03*
X125082785Y-94920551D03*
X125782785Y-95320551D03*
X125082785Y-95720551D03*
X125082785Y-96520551D03*
X125782785Y-96920551D03*
X125082785Y-97320551D03*
X125782785Y-97720551D03*
X125782785Y-98520551D03*
X125082785Y-98920551D03*
D17*
X131632785Y-100610551D03*
X125682785Y-100250551D03*
X125682785Y-91990551D03*
X131632785Y-91630551D03*
%TD*%
D18*
%TO.C,Y1*%
X108500000Y-107500000D03*
X106600000Y-107500000D03*
%TD*%
D10*
%TO.C,J7*%
X108650000Y-86425000D03*
D11*
X108650000Y-88965000D03*
X108650000Y-91505000D03*
%TD*%
D14*
%TO.C,REF\u002A\u002A*%
X131500000Y-87000000D03*
%TD*%
D10*
%TO.C,J6*%
X94940000Y-98370000D03*
D11*
X94940000Y-95830000D03*
%TD*%
D14*
%TO.C,REF\u002A\u002A*%
X131500000Y-134000000D03*
%TD*%
D10*
%TO.C,J2*%
X126920000Y-106040000D03*
D11*
X126920000Y-103500000D03*
X129460000Y-106040000D03*
X129460000Y-103500000D03*
X131999999Y-106040000D03*
X132000000Y-103500000D03*
%TD*%
M02*
