M48
; DRILL file {KiCad 8.0.6} date 2024-12-10T11:27:31-0800
; FORMAT={-:-/ absolute / inch / decimal}
; #@! TF.CreationDate,2024-12-10T11:27:31-08:00
; #@! TF.GenerationSoftware,Kicad,Pcbnew,8.0.6
; #@! TF.FileFunction,Plated,1,4,PTH
FMAT,2
INCH
; #@! TA.AperFunction,Plated,PTH,ComponentDrill
T1C0.0079
; #@! TA.AperFunction,Plated,PTH,ViaDrill
T2C0.0118
; #@! TA.AperFunction,Plated,PTH,ComponentDrill
T3C0.0157
; #@! TA.AperFunction,Plated,PTH,ComponentDrill
T4C0.0197
; #@! TA.AperFunction,Plated,PTH,ComponentDrill
T5C0.0394
%
G90
G05
T1
X3.9104Y-3.8376
X3.9104Y-3.9116
X3.9104Y-3.8746
X3.9557Y-3.8746
X3.9557Y-3.8376
X3.9557Y-3.9116
T2
X3.7307Y-4.124
X3.7992Y-4.9409
X3.8031Y-4.3098
X3.8189Y-3.9961
X3.8209Y-3.7963
X3.8681Y-3.8057
X3.878Y-4.563
X3.9567Y-5.2953
X3.9685Y-4.0906
X3.9957Y-3.8057
X4.028Y-4.7705
X4.0354Y-3.7008
X4.0442Y-5.287
X4.0706Y-3.9511
X4.0748Y-4.5079
X4.1535Y-3.878
X4.1732Y-3.7008
X4.1732Y-4.3701
X4.1732Y-4.5079
X4.1757Y-4.4267
X4.2126Y-4.4685
X4.2194Y-3.9657
X4.252Y-4.8031
X4.2913Y-4.5472
X4.2937Y-4.1827
X4.2993Y-4.4902
X4.3107Y-4.8656
X4.3112Y-4.8337
X4.3162Y-4.9515
X4.3307Y-4.4291
X4.3307Y-4.5669
X4.3405Y-4.6654
X4.3504Y-3.5827
X4.3633Y-4.7244
X4.3701Y-5.2362
X4.3862Y-3.6484
X4.3962Y-4.8558
X4.3972Y-3.7813
X4.4203Y-4.597
X4.4222Y-4.6309
X4.4291Y-4.0748
X4.4314Y-4.1875
X4.4461Y-3.9433
X4.4552Y-4.8069
X4.4575Y-3.641
X4.4587Y-4.626
X4.4616Y-4.5935
X4.462Y-4.3522
X4.4685Y-4.252
X4.4685Y-4.7244
X4.4702Y-5.0085
X4.473Y-4.2896
X4.4769Y-5.0573
X4.4828Y-4.0591
X4.4996Y-3.9944
X4.5079Y-4.3785
X4.5079Y-4.6063
X4.5138Y-3.6976
X4.5284Y-4.9951
X4.5303Y-4.1725
X4.5315Y-4.4705
X4.537Y-4.3953
X4.5467Y-3.4258
X4.5499Y-4.5015
X4.5499Y-3.8065
X4.5502Y-4.2215
X4.5553Y-4.0502
X4.5648Y-3.8402
X4.577Y-4.675
X4.5815Y-4.2307
X4.5839Y-4.5502
X4.5865Y-4.1379
X4.5906Y-4.8622
X4.6063Y-4.3701
X4.6103Y-4.4056
X4.6154Y-3.8239
X4.6209Y-4.1389
X4.63Y-4.5629
X4.6402Y-4.3755
X4.6457Y-3.9961
X4.6457Y-4.1142
X4.6492Y-4.4299
X4.6575Y-3.7147
X4.6669Y-4.3075
X4.6674Y-3.7878
X4.6777Y-4.413
X4.6929Y-4.483
X4.6932Y-3.7346
X4.7008Y-4.2732
X4.7047Y-4.8228
X4.7067Y-3.4016
X4.7098Y-4.313
X4.7244Y-4.0945
X4.7244Y-4.7047
X4.7293Y-3.9378
X4.734Y-3.8898
X4.7402Y-4.4882
X4.7417Y-4.1756
X4.7441Y-4.1339
X4.7535Y-3.6272
X4.7582Y-3.739
X4.7624Y-4.3321
X4.7843Y-3.7799
X4.7909Y-3.6562
X4.795Y-3.6927
X4.8031Y-4.2913
X4.8111Y-3.6229
X4.8122Y-4.4102
X4.8126Y-3.5047
X4.8228Y-4.8425
X4.8299Y-4.3354
X4.8311Y-3.5382
X4.8416Y-3.74
X4.8421Y-3.7902
X4.8622Y-4.6063
X4.8854Y-4.737
X4.9Y-4.5457
X4.9017Y-4.1927
X4.9063Y-3.7073
X4.9071Y-4.6008
X4.9104Y-4.2425
X4.946Y-4.4044
X4.9475Y-4.5025
X4.9751Y-4.307
X5.0Y-4.4488
X5.0055Y-4.5642
X5.0155Y-4.534
X5.039Y-4.2575
X5.0572Y-3.55
X5.0591Y-4.5276
X5.0913Y-4.5669
X5.1575Y-4.2913
X5.1575Y-4.9016
X5.1728Y-4.3724
T3
X4.9245Y-3.674
X4.9245Y-3.737
X4.9245Y-3.7685
X4.9245Y-3.8
X4.9245Y-3.8315
X4.9245Y-3.8945
X4.9521Y-3.6898
X4.9521Y-3.7213
X4.9521Y-3.7528
X4.9521Y-3.8158
X4.9521Y-3.8473
X4.9521Y-3.8788
T4
X4.1969Y-4.2323
X4.2717Y-4.2323
T5
X3.7378Y-3.7728
X3.7378Y-3.8728
X3.9902Y-3.4024
X3.9902Y-3.5024
X3.9902Y-3.6024
X4.1339Y-3.4024
X4.1339Y-3.5024
X4.1339Y-3.6024
X4.2776Y-3.4026
X4.2776Y-3.5026
X4.2776Y-3.6026
X4.7587Y-5.1181
X4.9555Y-5.1181
X4.9969Y-4.0748
X4.9969Y-4.1748
X5.0969Y-4.0748
X5.0969Y-4.1748
X5.1969Y-4.1748
X5.1969Y-4.0748
T4
G00X4.9363Y-3.6217
M15
G01X4.96Y-3.6217
M16
G05
G00X4.9363Y-3.9469
M15
G01X4.96Y-3.9469
M16
G05
G00X5.1706Y-3.6075
M15
G01X5.1942Y-3.6075
M16
G05
G00X5.1706Y-3.961
M15
G01X5.1942Y-3.961
M16
G05
M30
