%TF.GenerationSoftware,KiCad,Pcbnew,8.0.6*%
%TF.CreationDate,2024-12-10T11:27:28-08:00*%
%TF.ProjectId,Vanguard_new,56616e67-7561-4726-945f-6e65772e6b69,rev?*%
%TF.SameCoordinates,Original*%
%TF.FileFunction,Copper,L1,Top*%
%TF.FilePolarity,Positive*%
%FSLAX46Y46*%
G04 Gerber Fmt 4.6, Leading zero omitted, Abs format (unit mm)*
G04 Created by KiCad (PCBNEW 8.0.6) date 2024-12-10 11:27:28*
%MOMM*%
%LPD*%
G01*
G04 APERTURE LIST*
G04 Aperture macros list*
%AMRoundRect*
0 Rectangle with rounded corners*
0 $1 Rounding radius*
0 $2 $3 $4 $5 $6 $7 $8 $9 X,Y pos of 4 corners*
0 Add a 4 corners polygon primitive as box body*
4,1,4,$2,$3,$4,$5,$6,$7,$8,$9,$2,$3,0*
0 Add four circle primitives for the rounded corners*
1,1,$1+$1,$2,$3*
1,1,$1+$1,$4,$5*
1,1,$1+$1,$6,$7*
1,1,$1+$1,$8,$9*
0 Add four rect primitives between the rounded corners*
20,1,$1+$1,$2,$3,$4,$5,0*
20,1,$1+$1,$4,$5,$6,$7,0*
20,1,$1+$1,$6,$7,$8,$9,0*
20,1,$1+$1,$8,$9,$2,$3,0*%
%AMRotRect*
0 Rectangle, with rotation*
0 The origin of the aperture is its center*
0 $1 length*
0 $2 width*
0 $3 Rotation angle, in degrees counterclockwise*
0 Add horizontal line*
21,1,$1,$2,0,0,$3*%
%AMFreePoly0*
4,1,13,0.320000,0.125000,0.700000,0.125000,0.700000,-0.125000,0.320000,-0.125000,0.200000,-0.350000,-0.200000,-0.350000,-0.320000,-0.125000,-0.850000,-0.125000,-0.850000,0.125000,-0.320000,0.125000,-0.200000,0.350000,0.200000,0.350000,0.320000,0.125000,0.320000,0.125000,$1*%
G04 Aperture macros list end*
%TA.AperFunction,EtchedComponent*%
%ADD10C,0.000000*%
%TD*%
%TA.AperFunction,SMDPad,CuDef*%
%ADD11R,1.500000X1.000000*%
%TD*%
%TA.AperFunction,SMDPad,CuDef*%
%ADD12RoundRect,0.135000X0.035355X-0.226274X0.226274X-0.035355X-0.035355X0.226274X-0.226274X0.035355X0*%
%TD*%
%TA.AperFunction,SMDPad,CuDef*%
%ADD13RoundRect,0.135000X-0.135000X-0.185000X0.135000X-0.185000X0.135000X0.185000X-0.135000X0.185000X0*%
%TD*%
%TA.AperFunction,ComponentPad*%
%ADD14R,1.700000X1.700000*%
%TD*%
%TA.AperFunction,ComponentPad*%
%ADD15O,1.700000X1.700000*%
%TD*%
%TA.AperFunction,SMDPad,CuDef*%
%ADD16RoundRect,0.100000X-0.162635X0.021213X0.021213X-0.162635X0.162635X-0.021213X-0.021213X0.162635X0*%
%TD*%
%TA.AperFunction,SMDPad,CuDef*%
%ADD17RoundRect,0.100000X-0.021213X-0.162635X0.162635X0.021213X0.021213X0.162635X-0.162635X-0.021213X0*%
%TD*%
%TA.AperFunction,SMDPad,CuDef*%
%ADD18RoundRect,0.075000X0.521491X-0.415425X-0.415425X0.521491X-0.521491X0.415425X0.415425X-0.521491X0*%
%TD*%
%TA.AperFunction,SMDPad,CuDef*%
%ADD19RoundRect,0.075000X0.521491X0.415425X0.415425X0.521491X-0.521491X-0.415425X-0.415425X-0.521491X0*%
%TD*%
%TA.AperFunction,SMDPad,CuDef*%
%ADD20RoundRect,0.062500X0.362500X0.062500X-0.362500X0.062500X-0.362500X-0.062500X0.362500X-0.062500X0*%
%TD*%
%TA.AperFunction,HeatsinkPad*%
%ADD21C,0.500000*%
%TD*%
%TA.AperFunction,HeatsinkPad*%
%ADD22R,1.650000X2.380000*%
%TD*%
%TA.AperFunction,SMDPad,CuDef*%
%ADD23RoundRect,0.150000X-0.309359X-0.521491X0.521491X0.309359X0.309359X0.521491X-0.521491X-0.309359X0*%
%TD*%
%TA.AperFunction,SMDPad,CuDef*%
%ADD24RoundRect,0.135000X0.135000X0.185000X-0.135000X0.185000X-0.135000X-0.185000X0.135000X-0.185000X0*%
%TD*%
%TA.AperFunction,SMDPad,CuDef*%
%ADD25R,1.000000X1.000000*%
%TD*%
%TA.AperFunction,SMDPad,CuDef*%
%ADD26RotRect,1.000000X1.000000X225.000000*%
%TD*%
%TA.AperFunction,SMDPad,CuDef*%
%ADD27RoundRect,0.135000X-0.226274X-0.035355X-0.035355X-0.226274X0.226274X0.035355X0.035355X0.226274X0*%
%TD*%
%TA.AperFunction,SMDPad,CuDef*%
%ADD28RoundRect,0.135000X0.226274X0.035355X0.035355X0.226274X-0.226274X-0.035355X-0.035355X-0.226274X0*%
%TD*%
%TA.AperFunction,SMDPad,CuDef*%
%ADD29RoundRect,0.135000X-0.185000X0.135000X-0.185000X-0.135000X0.185000X-0.135000X0.185000X0.135000X0*%
%TD*%
%TA.AperFunction,SMDPad,CuDef*%
%ADD30RoundRect,0.062500X-0.350000X-0.062500X0.350000X-0.062500X0.350000X0.062500X-0.350000X0.062500X0*%
%TD*%
%TA.AperFunction,SMDPad,CuDef*%
%ADD31RoundRect,0.062500X-0.062500X-0.350000X0.062500X-0.350000X0.062500X0.350000X-0.062500X0.350000X0*%
%TD*%
%TA.AperFunction,HeatsinkPad*%
%ADD32R,1.700000X1.700000*%
%TD*%
%TA.AperFunction,SMDPad,CuDef*%
%ADD33RoundRect,0.100000X-0.130000X-0.100000X0.130000X-0.100000X0.130000X0.100000X-0.130000X0.100000X0*%
%TD*%
%TA.AperFunction,SMDPad,CuDef*%
%ADD34RoundRect,0.135000X-0.035355X0.226274X-0.226274X0.035355X0.035355X-0.226274X0.226274X-0.035355X0*%
%TD*%
%TA.AperFunction,SMDPad,CuDef*%
%ADD35RoundRect,0.100000X0.100000X-0.130000X0.100000X0.130000X-0.100000X0.130000X-0.100000X-0.130000X0*%
%TD*%
%TA.AperFunction,ComponentPad*%
%ADD36R,2.000000X2.000000*%
%TD*%
%TA.AperFunction,ComponentPad*%
%ADD37C,2.000000*%
%TD*%
%TA.AperFunction,SMDPad,CuDef*%
%ADD38RoundRect,0.150000X-0.587500X-0.150000X0.587500X-0.150000X0.587500X0.150000X-0.587500X0.150000X0*%
%TD*%
%TA.AperFunction,SMDPad,CuDef*%
%ADD39RoundRect,0.147500X-0.172500X0.147500X-0.172500X-0.147500X0.172500X-0.147500X0.172500X0.147500X0*%
%TD*%
%TA.AperFunction,SMDPad,CuDef*%
%ADD40RoundRect,0.100000X-0.100000X0.130000X-0.100000X-0.130000X0.100000X-0.130000X0.100000X0.130000X0*%
%TD*%
%TA.AperFunction,SMDPad,CuDef*%
%ADD41R,1.200000X1.200000*%
%TD*%
%TA.AperFunction,SMDPad,CuDef*%
%ADD42R,0.254000X0.675000*%
%TD*%
%TA.AperFunction,SMDPad,CuDef*%
%ADD43R,0.675000X0.254000*%
%TD*%
%TA.AperFunction,SMDPad,CuDef*%
%ADD44RoundRect,0.160000X-0.565000X-0.240000X0.565000X-0.240000X0.565000X0.240000X-0.565000X0.240000X0*%
%TD*%
%TA.AperFunction,SMDPad,CuDef*%
%ADD45RoundRect,0.120000X-0.605000X-0.180000X0.605000X-0.180000X0.605000X0.180000X-0.605000X0.180000X0*%
%TD*%
%TA.AperFunction,SMDPad,CuDef*%
%ADD46RoundRect,0.062500X0.112500X0.062500X-0.112500X0.062500X-0.112500X-0.062500X0.112500X-0.062500X0*%
%TD*%
%TA.AperFunction,SMDPad,CuDef*%
%ADD47FreePoly0,180.000000*%
%TD*%
%TA.AperFunction,SMDPad,CuDef*%
%ADD48RoundRect,0.150000X0.150000X-0.825000X0.150000X0.825000X-0.150000X0.825000X-0.150000X-0.825000X0*%
%TD*%
%TA.AperFunction,SMDPad,CuDef*%
%ADD49R,0.700000X0.300000*%
%TD*%
%TA.AperFunction,ComponentPad*%
%ADD50C,0.650000*%
%TD*%
%TA.AperFunction,ComponentPad*%
%ADD51O,1.400000X0.800000*%
%TD*%
%TA.AperFunction,ComponentPad*%
%ADD52C,1.000000*%
%TD*%
%TA.AperFunction,SMDPad,CuDef*%
%ADD53RoundRect,0.135000X0.185000X-0.135000X0.185000X0.135000X-0.185000X0.135000X-0.185000X-0.135000X0*%
%TD*%
%TA.AperFunction,SMDPad,CuDef*%
%ADD54RoundRect,0.150000X0.309359X0.521491X-0.521491X-0.309359X-0.309359X-0.521491X0.521491X0.309359X0*%
%TD*%
%TA.AperFunction,SMDPad,CuDef*%
%ADD55RoundRect,0.100000X0.130000X0.100000X-0.130000X0.100000X-0.130000X-0.100000X0.130000X-0.100000X0*%
%TD*%
%TA.AperFunction,SMDPad,CuDef*%
%ADD56RoundRect,0.250000X1.500000X0.550000X-1.500000X0.550000X-1.500000X-0.550000X1.500000X-0.550000X0*%
%TD*%
%TA.AperFunction,SMDPad,CuDef*%
%ADD57RoundRect,0.150000X0.150000X-0.512500X0.150000X0.512500X-0.150000X0.512500X-0.150000X-0.512500X0*%
%TD*%
%TA.AperFunction,SMDPad,CuDef*%
%ADD58RoundRect,0.160000X0.565000X0.240000X-0.565000X0.240000X-0.565000X-0.240000X0.565000X-0.240000X0*%
%TD*%
%TA.AperFunction,SMDPad,CuDef*%
%ADD59RoundRect,0.120000X0.605000X0.180000X-0.605000X0.180000X-0.605000X-0.180000X0.605000X-0.180000X0*%
%TD*%
%TA.AperFunction,SMDPad,CuDef*%
%ADD60RoundRect,0.062500X0.203293X0.291682X-0.291682X-0.203293X-0.203293X-0.291682X0.291682X0.203293X0*%
%TD*%
%TA.AperFunction,SMDPad,CuDef*%
%ADD61RoundRect,0.062500X-0.203293X0.291682X-0.291682X0.203293X0.203293X-0.291682X0.291682X-0.203293X0*%
%TD*%
%TA.AperFunction,HeatsinkPad*%
%ADD62RotRect,2.600000X2.600000X225.000000*%
%TD*%
%TA.AperFunction,SMDPad,CuDef*%
%ADD63R,1.100000X0.850000*%
%TD*%
%TA.AperFunction,SMDPad,CuDef*%
%ADD64R,1.100000X0.750000*%
%TD*%
%TA.AperFunction,SMDPad,CuDef*%
%ADD65R,1.000000X1.200000*%
%TD*%
%TA.AperFunction,SMDPad,CuDef*%
%ADD66R,1.350000X1.550000*%
%TD*%
%TA.AperFunction,SMDPad,CuDef*%
%ADD67R,1.350000X1.900000*%
%TD*%
%TA.AperFunction,SMDPad,CuDef*%
%ADD68R,1.800000X1.170000*%
%TD*%
%TA.AperFunction,SMDPad,CuDef*%
%ADD69RoundRect,0.175000X-0.353553X-0.106066X-0.106066X-0.353553X0.353553X0.106066X0.106066X0.353553X0*%
%TD*%
%TA.AperFunction,SMDPad,CuDef*%
%ADD70RoundRect,0.150000X-0.247487X0.035355X0.035355X-0.247487X0.247487X-0.035355X-0.035355X0.247487X0*%
%TD*%
%TA.AperFunction,ViaPad*%
%ADD71C,0.600000*%
%TD*%
%TA.AperFunction,ViaPad*%
%ADD72C,1.000000*%
%TD*%
%TA.AperFunction,Conductor*%
%ADD73C,0.200000*%
%TD*%
%TA.AperFunction,Conductor*%
%ADD74C,0.500000*%
%TD*%
%TA.AperFunction,Conductor*%
%ADD75C,0.800000*%
%TD*%
%TA.AperFunction,Conductor*%
%ADD76C,0.400000*%
%TD*%
G04 APERTURE END LIST*
D10*
%TA.AperFunction,EtchedComponent*%
%TO.C,ADR1*%
G36*
X112707500Y-112990000D02*
G01*
X112307500Y-112990000D01*
X112307500Y-112490000D01*
X112707500Y-112490000D01*
X112707500Y-112990000D01*
G37*
%TD.AperFunction*%
%TA.AperFunction,EtchedComponent*%
G36*
X113507500Y-112990000D02*
G01*
X113107500Y-112990000D01*
X113107500Y-112490000D01*
X113507500Y-112490000D01*
X113507500Y-112990000D01*
G37*
%TD.AperFunction*%
%TD*%
D11*
%TO.P,ADR1,1,A*%
%TO.N,GND*%
X112907500Y-113390000D03*
%TO.P,ADR1,2,B*%
%TO.N,Net-(ADR1-B)*%
X112907500Y-112090000D03*
%TD*%
D12*
%TO.P,R2,1*%
%TO.N,+3.3V*%
X116832161Y-96771175D03*
%TO.P,R2,2*%
%TO.N,Net-(J2-Pin_3)*%
X117553409Y-96049927D03*
%TD*%
D13*
%TO.P,R30,1*%
%TO.N,Net-(PORTSIDE_RGB1-GA)*%
X100015001Y-108450000D03*
%TO.P,R30,2*%
%TO.N,PORT_GREEN*%
X101034999Y-108450000D03*
%TD*%
D14*
%TO.P,J5,1,Pin_1*%
%TO.N,PORT_SERVO*%
X105000000Y-86420000D03*
D15*
%TO.P,J5,2,Pin_2*%
%TO.N,+5V*%
X105000000Y-88960000D03*
%TO.P,J5,3,Pin_3*%
%TO.N,GND*%
X105000000Y-91500000D03*
%TD*%
D16*
%TO.P,D2,1,K*%
%TO.N,Net-(D2-K)*%
X111473777Y-94210237D03*
%TO.P,D2,2,A*%
%TO.N,Net-(D2-A)*%
X111926325Y-94662785D03*
%TD*%
D17*
%TO.P,D7,1,K*%
%TO.N,BATT_IN*%
X121517678Y-98470226D03*
%TO.P,D7,2,A*%
%TO.N,Net-(D7-A)*%
X121970226Y-98017678D03*
%TD*%
D18*
%TO.P,U2,1,PA5*%
%TO.N,PA2{slash}SCK*%
X121498788Y-116048427D03*
%TO.P,U2,2,PA6*%
%TO.N,PA1{slash}MOSI*%
X121852342Y-115694873D03*
%TO.P,U2,3,PA7*%
%TO.N,PA0{slash}MISO*%
X122205895Y-115341320D03*
%TO.P,U2,4,PB0*%
%TO.N,unconnected-(U2-PB0-Pad4)*%
X122559449Y-114987766D03*
%TO.P,U2,5,PB1*%
%TO.N,unconnected-(U2-PB1-Pad5)*%
X122913002Y-114634213D03*
%TO.P,U2,6,PB2*%
%TO.N,STAR_BLUE*%
X123266555Y-114280660D03*
%TO.P,U2,7,PB3*%
%TO.N,unconnected-(U2-PB3-Pad7)*%
X123620109Y-113927106D03*
%TO.P,U2,8,PB4*%
%TO.N,TX0*%
X123973662Y-113573553D03*
%TO.P,U2,9,PB5*%
%TO.N,RX0*%
X124327215Y-113220000D03*
%TO.P,U2,10,PC0*%
%TO.N,STAR_RED*%
X124680769Y-112866446D03*
%TO.P,U2,11,PC1*%
%TO.N,STAR_GREEN*%
X125034322Y-112512893D03*
%TO.P,U2,12,PC2*%
%TO.N,SDA*%
X125387876Y-112159339D03*
D19*
%TO.P,U2,13,PC3*%
%TO.N,PORT_SERVO*%
X125387876Y-110161763D03*
%TO.P,U2,14,VCC*%
%TO.N,+3.3V*%
X125034322Y-109808209D03*
%TO.P,U2,15,GND*%
%TO.N,GND*%
X124680769Y-109454656D03*
%TO.P,U2,16,PC4*%
%TO.N,BUZZER*%
X124327215Y-109101102D03*
%TO.P,U2,17,PC5*%
%TO.N,unconnected-(U2-PC5-Pad17)*%
X123973662Y-108747549D03*
%TO.P,U2,18,PC6*%
%TO.N,unconnected-(U2-PC6-Pad18)*%
X123620109Y-108393996D03*
%TO.P,U2,19,PC7*%
%TO.N,unconnected-(U2-PC7-Pad19)*%
X123266555Y-108040442D03*
%TO.P,U2,20,PD0*%
%TO.N,unconnected-(U2-PD0-Pad20)*%
X122913002Y-107686889D03*
%TO.P,U2,21,PD1*%
%TO.N,unconnected-(U2-PD1-Pad21)*%
X122559449Y-107333336D03*
%TO.P,U2,22,PD2*%
%TO.N,D5*%
X122205895Y-106979782D03*
%TO.P,U2,23,PD3*%
%TO.N,D4*%
X121852342Y-106626229D03*
%TO.P,U2,24,PD4*%
%TO.N,D6*%
X121498788Y-106272675D03*
D18*
%TO.P,U2,25,PD5*%
%TO.N,D7*%
X119501212Y-106272675D03*
%TO.P,U2,26,PD6*%
%TO.N,CD*%
X119147658Y-106626229D03*
%TO.P,U2,27,PD7*%
%TO.N,unconnected-(U2-PD7-Pad27)*%
X118794105Y-106979782D03*
%TO.P,U2,28,AVCC*%
%TO.N,+3.3V*%
X118440551Y-107333336D03*
%TO.P,U2,29,GND*%
%TO.N,GND*%
X118086998Y-107686889D03*
%TO.P,U2,30,PE0*%
%TO.N,PORT_RED*%
X117733445Y-108040442D03*
%TO.P,U2,31,PE1*%
%TO.N,unconnected-(U2-PE1-Pad31)*%
X117379891Y-108393996D03*
%TO.P,U2,32,PE2*%
%TO.N,HOLD*%
X117026338Y-108747549D03*
%TO.P,U2,33,PE3*%
%TO.N,WP*%
X116672785Y-109101102D03*
%TO.P,U2,34,PF0*%
%TO.N,PORT_GREEN*%
X116319231Y-109454656D03*
%TO.P,U2,35,PF1*%
%TO.N,PORT_BLUE*%
X115965678Y-109808209D03*
%TO.P,U2,36,PF2*%
%TO.N,STAR_SERVO*%
X115612124Y-110161763D03*
D19*
%TO.P,U2,37,PF3*%
%TO.N,SCL*%
X115612124Y-112159339D03*
%TO.P,U2,38,PF4*%
%TO.N,EJEC_SERVO*%
X115965678Y-112512893D03*
%TO.P,U2,39,PF5*%
%TO.N,unconnected-(U2-PF5-Pad39)*%
X116319231Y-112866446D03*
%TO.P,U2,40,PF6/~{RESET}*%
%TO.N,unconnected-(U2-PF6{slash}~{RESET}-Pad40)*%
X116672785Y-113220000D03*
%TO.P,U2,41,UPDI*%
%TO.N,UPDI*%
X117026338Y-113573553D03*
%TO.P,U2,42,VCC*%
%TO.N,+3.3V*%
X117379891Y-113927106D03*
%TO.P,U2,43,GND*%
%TO.N,GND*%
X117733445Y-114280660D03*
%TO.P,U2,44,PA0*%
%TO.N,unconnected-(U2-PA0-Pad44)*%
X118086998Y-114634213D03*
%TO.P,U2,45,PA1*%
%TO.N,unconnected-(U2-PA1-Pad45)*%
X118440551Y-114987766D03*
%TO.P,U2,46,PA2*%
%TO.N,unconnected-(U2-PA2-Pad46)*%
X118794105Y-115341320D03*
%TO.P,U2,47,PA3*%
%TO.N,TEMP_SENSOR*%
X119147658Y-115694873D03*
%TO.P,U2,48,PA4*%
%TO.N,PA3{slash}SS*%
X119501212Y-116048427D03*
%TD*%
D20*
%TO.P,U8,1,VOUT*%
%TO.N,+5V*%
X101350000Y-99415000D03*
%TO.P,U8,2,NC*%
%TO.N,unconnected-(U8-NC-Pad2)*%
X101350000Y-98915000D03*
%TO.P,U8,3,SW*%
%TO.N,GND*%
X101350000Y-98415000D03*
%TO.P,U8,4,SW*%
%TO.N,Net-(L1-Pad2)*%
X101350000Y-97915000D03*
%TO.P,U8,5,PGND*%
%TO.N,GND*%
X101350000Y-97415000D03*
%TO.P,U8,6,PGND*%
X98450000Y-97415000D03*
%TO.P,U8,7,PGND*%
X98450000Y-97915000D03*
%TO.P,U8,8,VBAT*%
%TO.N,BATT_IN*%
X98450000Y-98415000D03*
%TO.P,U8,9,LBI*%
%TO.N,unconnected-(U8-LBI-Pad9)*%
X98450000Y-98915000D03*
%TO.P,U8,10,SYNC*%
%TO.N,GND*%
X98450000Y-99415000D03*
D21*
%TO.P,U8,11,EN*%
%TO.N,BATT_IN*%
X100475000Y-99355000D03*
X100475000Y-97475000D03*
X100474999Y-98415000D03*
D22*
X99900000Y-98415000D03*
D21*
X99325001Y-98415000D03*
X99325000Y-99355000D03*
X99325000Y-97475000D03*
%TD*%
D23*
%TO.P,Q1,1,G*%
%TO.N,+3.3V*%
X115485208Y-87014625D03*
%TO.P,Q1,2,S*%
%TO.N,/TX_UPDI*%
X116828711Y-88358128D03*
%TO.P,Q1,3,D*%
%TO.N,UPDI*%
X117482785Y-86360551D03*
%TD*%
D24*
%TO.P,R23,1*%
%TO.N,+3.3V*%
X112510000Y-110560000D03*
%TO.P,R23,2*%
%TO.N,Net-(ADR1-B)*%
X111490000Y-110560000D03*
%TD*%
D25*
%TO.P,TP3,1,1*%
%TO.N,D4*%
X104000000Y-113000000D03*
%TD*%
D26*
%TO.P,TP2,1,1*%
%TO.N,Net-(D1-I{slash}O2)*%
X114650000Y-93920000D03*
%TD*%
D27*
%TO.P,R5,1*%
%TO.N,/RX_UPDI*%
X113778752Y-89778752D03*
%TO.P,R5,2*%
%TO.N,/TX_UPDI*%
X114500000Y-90500000D03*
%TD*%
D14*
%TO.P,J4,1,Pin_1*%
%TO.N,STAR_SERVO*%
X101350000Y-86420000D03*
D15*
%TO.P,J4,2,Pin_2*%
%TO.N,+5V*%
X101350000Y-88960000D03*
%TO.P,J4,3,Pin_3*%
%TO.N,GND*%
X101350000Y-91500000D03*
%TD*%
D28*
%TO.P,R10,1*%
%TO.N,+3.3V*%
X113644033Y-98041801D03*
%TO.P,R10,2*%
%TO.N,Net-(D3-K)*%
X112922785Y-97320553D03*
%TD*%
D25*
%TO.P,TP4,1,1*%
%TO.N,PA2{slash}SCK*%
X133000000Y-125000000D03*
%TD*%
D29*
%TO.P,R15,1*%
%TO.N,Net-(D6-K)*%
X114392499Y-125375000D03*
%TO.P,R15,2*%
%TO.N,Net-(U9-FB)*%
X114392499Y-126395000D03*
%TD*%
D26*
%TO.P,TP1,1,1*%
%TO.N,Net-(D1-I{slash}O1)*%
X113190000Y-92450000D03*
%TD*%
D13*
%TO.P,R25,1*%
%TO.N,STAR_BLUE*%
X126985000Y-108960000D03*
%TO.P,R25,2*%
%TO.N,Net-(STARBOARD_RGB1-BA)*%
X128005000Y-108960000D03*
%TD*%
D25*
%TO.P,TP6,1,1*%
%TO.N,Net-(U6-XOUT32{slash}CLKSEL1)*%
X111037500Y-107700000D03*
%TD*%
D30*
%TO.P,U9,1,FB*%
%TO.N,Net-(U9-FB)*%
X110297499Y-122685000D03*
%TO.P,U9,2,VCC*%
%TO.N,unconnected-(U9-VCC-Pad2)*%
X110297499Y-123185000D03*
%TO.P,U9,3,AGND*%
%TO.N,GND*%
X110297499Y-123685000D03*
%TO.P,U9,4,SW*%
%TO.N,unconnected-(U9-SW-Pad19)*%
X110297499Y-124185000D03*
D31*
%TO.P,U9,5,SW*%
%TO.N,unconnected-(U9-SW-Pad19)_1*%
X111009999Y-124897500D03*
%TO.P,U9,6,SW*%
%TO.N,unconnected-(U9-SW-Pad19)_2*%
X111509999Y-124897500D03*
%TO.P,U9,7,OUT*%
%TO.N,Net-(D6-K)*%
X112009999Y-124897500D03*
%TO.P,U9,8,OUT*%
X112509999Y-124897500D03*
D30*
%TO.P,U9,9,OUT*%
X113222499Y-124185000D03*
%TO.P,U9,10*%
%TO.N,N/C*%
X113222499Y-123685000D03*
%TO.P,U9,11,BST*%
%TO.N,unconnected-(U9-BST-Pad11)*%
X113222499Y-123185000D03*
%TO.P,U9,12,PGND*%
%TO.N,GND*%
X113222499Y-122685000D03*
D31*
%TO.P,U9,13,PGND*%
X112509999Y-121972500D03*
%TO.P,U9,14,PGND*%
X112009999Y-121972500D03*
%TO.P,U9,15*%
%TO.N,N/C*%
X111509999Y-121972500D03*
%TO.P,U9,16,IN*%
%TO.N,BATT_IN*%
X111009999Y-121972500D03*
D32*
%TO.P,U9,17,EN*%
%TO.N,Net-(U9-EN)*%
X111759999Y-123435000D03*
%TD*%
D33*
%TO.P,C6,1*%
%TO.N,+3.3V*%
X115680000Y-121500000D03*
%TO.P,C6,2*%
%TO.N,GND*%
X116320000Y-121500000D03*
%TD*%
D34*
%TO.P,R3,1*%
%TO.N,+3.3V*%
X115623409Y-95469927D03*
%TO.P,R3,2*%
%TO.N,Net-(D3-A)*%
X114902161Y-96191175D03*
%TD*%
D35*
%TO.P,C9,1*%
%TO.N,+5V*%
X103000000Y-99665000D03*
%TO.P,C9,2*%
%TO.N,GND*%
X103000000Y-99025000D03*
%TD*%
D36*
%TO.P,BZ1,1,+*%
%TO.N,+5V*%
X125870785Y-130000000D03*
D37*
%TO.P,BZ1,2,-*%
%TO.N,Net-(BZ1--)*%
X120870785Y-130000000D03*
%TD*%
D13*
%TO.P,R1,1*%
%TO.N,GND*%
X122990001Y-89000000D03*
%TO.P,R1,2*%
X124009999Y-89000000D03*
%TD*%
D38*
%TO.P,Q4,1,G*%
%TO.N,BUZZER*%
X112562500Y-131050000D03*
%TO.P,Q4,2,S*%
%TO.N,GND*%
X112562500Y-132950000D03*
%TO.P,Q4,3,D*%
%TO.N,Net-(BZ1--)*%
X114437501Y-132000000D03*
%TD*%
D13*
%TO.P,R24,1*%
%TO.N,+3.3V*%
X104027500Y-111500000D03*
%TO.P,R24,2*%
%TO.N,Net-(U6-~{BOOT})*%
X105047500Y-111500000D03*
%TD*%
D35*
%TO.P,C8,1*%
%TO.N,BATT_IN*%
X97140000Y-97905000D03*
%TO.P,C8,2*%
%TO.N,GND*%
X97140000Y-97265000D03*
%TD*%
D13*
%TO.P,R26,1*%
%TO.N,STAR_RED*%
X126985000Y-110000000D03*
%TO.P,R26,2*%
%TO.N,Net-(STARBOARD_RGB1-RA)*%
X128005000Y-110000000D03*
%TD*%
D29*
%TO.P,R33,1*%
%TO.N,Net-(L1-Pad1)*%
X103560000Y-96945001D03*
%TO.P,R33,2*%
%TO.N,BATT_IN*%
X103560000Y-97964999D03*
%TD*%
D33*
%TO.P,C3,1*%
%TO.N,Net-(U6-XIN32)*%
X110180000Y-106000000D03*
%TO.P,C3,2*%
%TO.N,GND*%
X110820000Y-106000000D03*
%TD*%
D29*
%TO.P,R34,1*%
%TO.N,BUZZER*%
X111000000Y-130990001D03*
%TO.P,R34,2*%
%TO.N,GND*%
X111000000Y-132009999D03*
%TD*%
D39*
%TO.P,L1,1,1*%
%TO.N,Net-(L1-Pad1)*%
X102560000Y-96950001D03*
%TO.P,L1,2,2*%
%TO.N,Net-(L1-Pad2)*%
X102560000Y-97920001D03*
%TD*%
D40*
%TO.P,C7,1*%
%TO.N,Net-(U6-CAP)*%
X110147500Y-119695000D03*
%TO.P,C7,2*%
%TO.N,GND*%
X110147500Y-120335000D03*
%TD*%
D41*
%TO.P,D6,1,K*%
%TO.N,Net-(D6-K)*%
X111399999Y-128500000D03*
%TO.P,D6,2,A*%
%TO.N,BATT_IN*%
X108600001Y-128500000D03*
%TD*%
D27*
%TO.P,R13,1*%
%TO.N,+3.3V*%
X108639376Y-100139376D03*
%TO.P,R13,2*%
%TO.N,TX0*%
X109360624Y-100860624D03*
%TD*%
D13*
%TO.P,R17,1*%
%TO.N,+3.3V*%
X115490000Y-120500000D03*
%TO.P,R17,2*%
%TO.N,Net-(D5-A)*%
X116510000Y-120500000D03*
%TD*%
D42*
%TO.P,U6,1,RESV_NC*%
%TO.N,unconnected-(U6-RESV_NC-Pad1)*%
X111250000Y-115137500D03*
D43*
%TO.P,U6,2,GND*%
%TO.N,GND*%
X111112500Y-116050000D03*
%TO.P,U6,3,VDD*%
%TO.N,+3.3V*%
X111112500Y-116550000D03*
%TO.P,U6,4,~{BOOT}*%
%TO.N,Net-(U6-~{BOOT})*%
X111112500Y-117050000D03*
%TO.P,U6,5,PS1*%
%TO.N,PS1*%
X111112500Y-117550000D03*
D42*
%TO.P,U6,6,PS0/WAKE*%
%TO.N,PS0{slash}WAKE*%
X111250000Y-118462500D03*
%TO.P,U6,7,RESV_NC*%
%TO.N,unconnected-(U6-RESV_NC-Pad7)*%
X111750000Y-118462500D03*
%TO.P,U6,8,RESV_NC*%
%TO.N,unconnected-(U6-RESV_NC-Pad8)*%
X112250000Y-118462500D03*
%TO.P,U6,9,CAP*%
%TO.N,Net-(U6-CAP)*%
X112750000Y-118462500D03*
%TO.P,U6,10,CLKSEL0*%
%TO.N,GND*%
X113250000Y-118462500D03*
%TO.P,U6,11,~{RST}*%
%TO.N,Net-(U6-~{RST})*%
X113750000Y-118462500D03*
%TO.P,U6,12,RESV_NC*%
%TO.N,unconnected-(U6-RESV_NC-Pad12)*%
X114250000Y-118462500D03*
%TO.P,U6,13,RESV_NC*%
%TO.N,unconnected-(U6-RESV_NC-Pad13)*%
X114750000Y-118462500D03*
%TO.P,U6,14,~{H_INT}*%
%TO.N,INT*%
X115250000Y-118462500D03*
%TO.P,U6,15,ENV_SCL*%
%TO.N,Net-(U6-ENV_SCL)*%
X115750000Y-118462500D03*
D43*
%TO.P,U6,16,ENV_SDA*%
%TO.N,Net-(U6-ENV_SDA)*%
X115887500Y-117550000D03*
%TO.P,U6,17,SA0/H_MOSI*%
%TO.N,Net-(ADR1-B)*%
X115887500Y-117050000D03*
%TO.P,U6,18,~{H_CS}*%
%TO.N,unconnected-(U6-~{H_CS}-Pad18)*%
X115887500Y-116550000D03*
%TO.P,U6,19,H_SCL/SCK/RX*%
%TO.N,SCL*%
X115887500Y-116050000D03*
D42*
%TO.P,U6,20,H_SDA/H_MISO/TX*%
%TO.N,SDA*%
X115750000Y-115137500D03*
%TO.P,U6,21,RESV_NC*%
%TO.N,unconnected-(U6-RESV_NC-Pad21)*%
X115250000Y-115137500D03*
%TO.P,U6,22,RESV_NC*%
%TO.N,unconnected-(U6-RESV_NC-Pad22)*%
X114750000Y-115137500D03*
%TO.P,U6,23,RESV_NC*%
%TO.N,unconnected-(U6-RESV_NC-Pad23)*%
X114250000Y-115137500D03*
%TO.P,U6,24,RESV_NC*%
%TO.N,unconnected-(U6-RESV_NC-Pad24)*%
X113750000Y-115137500D03*
%TO.P,U6,25,GNDIO*%
%TO.N,GND*%
X113250000Y-115137500D03*
%TO.P,U6,26,XOUT32/CLKSEL1*%
%TO.N,Net-(U6-XOUT32{slash}CLKSEL1)*%
X112750000Y-115137500D03*
%TO.P,U6,27,XIN32*%
%TO.N,Net-(U6-XIN32)*%
X112250000Y-115137500D03*
%TO.P,U6,28,VDDIO*%
%TO.N,+3.3V*%
X111750000Y-115137500D03*
%TD*%
D13*
%TO.P,R32,1*%
%TO.N,Net-(J1-CC2)*%
X126822786Y-90210551D03*
%TO.P,R32,2*%
%TO.N,GND*%
X127842784Y-90210551D03*
%TD*%
D28*
%TO.P,R9,1*%
%TO.N,+3.3V*%
X110945214Y-95378731D03*
%TO.P,R9,2*%
%TO.N,Net-(D2-K)*%
X110223966Y-94657483D03*
%TD*%
D44*
%TO.P,STARBOARD_RGB1,1,BA*%
%TO.N,Net-(STARBOARD_RGB1-BA)*%
X129500000Y-108950000D03*
D45*
%TO.P,STARBOARD_RGB1,2,RA*%
%TO.N,Net-(STARBOARD_RGB1-RA)*%
X129500000Y-110000000D03*
D44*
%TO.P,STARBOARD_RGB1,3,GA*%
%TO.N,Net-(STARBOARD_RGB1-GA)*%
X129500000Y-111050000D03*
%TO.P,STARBOARD_RGB1,4,GK*%
%TO.N,GND*%
X132550000Y-111050000D03*
D45*
%TO.P,STARBOARD_RGB1,5,RK*%
X132550000Y-110000000D03*
D44*
%TO.P,STARBOARD_RGB1,6,BK*%
X132550000Y-108950000D03*
%TD*%
D33*
%TO.P,C1,1*%
%TO.N,GND*%
X123390000Y-89900000D03*
%TO.P,C1,2*%
X124030000Y-89900000D03*
%TD*%
D35*
%TO.P,C2,1*%
%TO.N,Net-(U6-XOUT32{slash}CLKSEL1)*%
X109530000Y-107390000D03*
%TO.P,C2,2*%
%TO.N,GND*%
X109530000Y-106750000D03*
%TD*%
D29*
%TO.P,R18,1*%
%TO.N,Net-(U6-~{RST})*%
X111647500Y-119720000D03*
%TO.P,R18,2*%
%TO.N,+3.3V*%
X111647500Y-120740000D03*
%TD*%
%TO.P,R21,1*%
%TO.N,+3.3V*%
X112557215Y-107239450D03*
%TO.P,R21,2*%
%TO.N,SDA*%
X112557215Y-108259448D03*
%TD*%
D46*
%TO.P,U5,1,NC*%
%TO.N,unconnected-(U5-NC-Pad1)*%
X119175001Y-119999999D03*
D47*
%TO.P,U5,2,PG*%
%TO.N,GND*%
X118500001Y-119500000D03*
D46*
%TO.P,U5,3,OUT*%
%TO.N,TEMP_SENSOR*%
X119175001Y-119000001D03*
%TO.P,U5,4,VDD*%
%TO.N,+3.3V*%
X117825001Y-119000001D03*
%TO.P,U5,5,GND*%
%TO.N,GND*%
X117825001Y-119999999D03*
%TD*%
D24*
%TO.P,R22,1*%
%TO.N,+3.3V*%
X113009999Y-109500000D03*
%TO.P,R22,2*%
%TO.N,SCL*%
X111990001Y-109500000D03*
%TD*%
D48*
%TO.P,U3,1,~{CS}*%
%TO.N,PA3{slash}SS*%
X127465192Y-122696196D03*
%TO.P,U3,2,SO(SOI)*%
%TO.N,PA0{slash}MISO*%
X128735192Y-122696196D03*
%TO.P,U3,3,~{WP}*%
%TO.N,WP*%
X130005192Y-122696196D03*
%TO.P,U3,4,GND*%
%TO.N,GND*%
X131275192Y-122696196D03*
%TO.P,U3,5,SI(SIO)*%
%TO.N,PA1{slash}MOSI*%
X131275192Y-117746196D03*
%TO.P,U3,6,SCK*%
%TO.N,PA2{slash}SCK*%
X130005192Y-117746196D03*
%TO.P,U3,7,~{HOLD}*%
%TO.N,HOLD*%
X128735192Y-117746196D03*
%TO.P,U3,8,VCC*%
%TO.N,+3.3V*%
X127465192Y-117746196D03*
%TD*%
D16*
%TO.P,D3,1,K*%
%TO.N,Net-(D3-K)*%
X113859699Y-96376563D03*
%TO.P,D3,2,A*%
%TO.N,Net-(D3-A)*%
X114312247Y-96829111D03*
%TD*%
D27*
%TO.P,R4,1*%
%TO.N,+3.3V*%
X111800814Y-93292767D03*
%TO.P,R4,2*%
%TO.N,Net-(D2-A)*%
X112522062Y-94014015D03*
%TD*%
D49*
%TO.P,J1,A1,GND*%
%TO.N,GND*%
X123772785Y-98870551D03*
%TO.P,J1,A2*%
%TO.N,N/C*%
X123772785Y-98370551D03*
%TO.P,J1,A3*%
X123772785Y-97870551D03*
%TO.P,J1,A4,VBUS*%
%TO.N,Net-(J1-VBUS-PadA4)*%
X123772784Y-97370551D03*
%TO.P,J1,A5,CC1*%
%TO.N,Net-(J1-CC1)*%
X123772785Y-96870551D03*
%TO.P,J1,A6,D+*%
%TO.N,Net-(D1-I{slash}O1)*%
X123772785Y-96370551D03*
%TO.P,J1,A7,D-*%
%TO.N,Net-(D1-I{slash}O2)*%
X123772785Y-95870551D03*
%TO.P,J1,A8,SBU1*%
%TO.N,unconnected-(J1-SBU1-PadA8)*%
X123772785Y-95370551D03*
%TO.P,J1,A9,VBUS*%
%TO.N,Net-(J1-VBUS-PadA4)*%
X123772784Y-94870551D03*
%TO.P,J1,A10*%
%TO.N,N/C*%
X123772785Y-94370551D03*
%TO.P,J1,A11*%
X123772785Y-93870551D03*
%TO.P,J1,A12,GND*%
%TO.N,GND*%
X123772785Y-93370551D03*
D50*
%TO.P,J1,B1,GND*%
X125082785Y-93320551D03*
%TO.P,J1,B2*%
%TO.N,N/C*%
X125782785Y-93720551D03*
%TO.P,J1,B3*%
X125782785Y-94520551D03*
%TO.P,J1,B4,VBUS*%
%TO.N,Net-(J1-VBUS-PadA4)*%
X125082785Y-94920551D03*
%TO.P,J1,B5,CC2*%
%TO.N,Net-(J1-CC2)*%
X125782785Y-95320551D03*
%TO.P,J1,B6,D+*%
%TO.N,Net-(D1-I{slash}O1)*%
X125082785Y-95720551D03*
%TO.P,J1,B7,D-*%
%TO.N,Net-(D1-I{slash}O2)*%
X125082785Y-96520551D03*
%TO.P,J1,B8,SBU2*%
%TO.N,unconnected-(J1-SBU2-PadB8)*%
X125782785Y-96920551D03*
%TO.P,J1,B9,VBUS*%
%TO.N,Net-(J1-VBUS-PadA4)*%
X125082785Y-97320551D03*
%TO.P,J1,B10*%
%TO.N,N/C*%
X125782785Y-97720551D03*
%TO.P,J1,B11*%
X125782785Y-98520551D03*
%TO.P,J1,B12,GND*%
%TO.N,GND*%
X125082785Y-98920551D03*
D51*
%TO.P,J1,S1,SHIELD*%
X131632785Y-100610551D03*
X125682785Y-100250551D03*
X125682785Y-91990551D03*
X131632785Y-91630551D03*
%TD*%
D52*
%TO.P,Y1,1,1*%
%TO.N,Net-(U6-XOUT32{slash}CLKSEL1)*%
X108500000Y-107500000D03*
%TO.P,Y1,2,2*%
%TO.N,Net-(U6-XIN32)*%
X106600000Y-107500000D03*
%TD*%
D53*
%TO.P,R8,1*%
%TO.N,/TX_UPDI*%
X113500000Y-88009999D03*
%TO.P,R8,2*%
%TO.N,UPDI*%
X113500000Y-86990001D03*
%TD*%
D40*
%TO.P,C11,1*%
%TO.N,Net-(D6-K)*%
X110512499Y-126005000D03*
%TO.P,C11,2*%
%TO.N,GND*%
X110512499Y-126645000D03*
%TD*%
D13*
%TO.P,R35,1*%
%TO.N,Net-(D7-A)*%
X120990001Y-100000000D03*
%TO.P,R35,2*%
%TO.N,Net-(J1-VBUS-PadA4)*%
X122009999Y-100000000D03*
%TD*%
%TO.P,R28,1*%
%TO.N,Net-(PORTSIDE_RGB1-BA)*%
X100025001Y-110530000D03*
%TO.P,R28,2*%
%TO.N,PORT_BLUE*%
X101044999Y-110530000D03*
%TD*%
D40*
%TO.P,C4,1*%
%TO.N,BATT_IN*%
X105000000Y-97180000D03*
%TO.P,C4,2*%
%TO.N,GND*%
X105000000Y-97820000D03*
%TD*%
D29*
%TO.P,R19,1*%
%TO.N,Net-(U6-ENV_SCL)*%
X112647500Y-119720000D03*
%TO.P,R19,2*%
%TO.N,+3.3V*%
X112647500Y-120740000D03*
%TD*%
D13*
%TO.P,R29,1*%
%TO.N,Net-(PORTSIDE_RGB1-RA)*%
X100015001Y-109500000D03*
%TO.P,R29,2*%
%TO.N,PORT_RED*%
X101034999Y-109500000D03*
%TD*%
D12*
%TO.P,R7,1*%
%TO.N,+3.3V*%
X114799376Y-85890624D03*
%TO.P,R7,2*%
%TO.N,UPDI*%
X115520624Y-85169376D03*
%TD*%
D24*
%TO.P,R14,1*%
%TO.N,BATT_IN*%
X108520000Y-120785000D03*
%TO.P,R14,2*%
%TO.N,Net-(U9-EN)*%
X107500000Y-120785000D03*
%TD*%
D29*
%TO.P,R20,1*%
%TO.N,Net-(U6-ENV_SDA)*%
X114500000Y-119720000D03*
%TO.P,R20,2*%
%TO.N,+3.3V*%
X114500000Y-120740000D03*
%TD*%
D54*
%TO.P,Q3,1,G*%
%TO.N,+3.3V*%
X110206289Y-96754054D03*
%TO.P,Q3,2,S*%
%TO.N,Net-(D2-K)*%
X108862786Y-95410551D03*
%TO.P,Q3,3,D*%
%TO.N,RX0*%
X108208712Y-97408128D03*
%TD*%
D48*
%TO.P,U7,1,VCCA*%
%TO.N,+3.3V*%
X94010000Y-118975000D03*
%TO.P,U7,2,A1*%
%TO.N,Net-(J3-DAT1)*%
X95280000Y-118975000D03*
%TO.P,U7,3,A2*%
%TO.N,Net-(J3-DAT0)*%
X96550000Y-118975000D03*
%TO.P,U7,4,A3*%
%TO.N,Net-(J3-CLK)*%
X97820000Y-118975000D03*
%TO.P,U7,5,A4*%
%TO.N,Net-(J3-CMD)*%
X99090000Y-118975000D03*
%TO.P,U7,6,NC*%
%TO.N,unconnected-(U7-NC-Pad6)*%
X100360000Y-118975000D03*
%TO.P,U7,7,GND*%
%TO.N,GND*%
X101630000Y-118975000D03*
%TO.P,U7,8,OE*%
%TO.N,+3.3V*%
X101630000Y-114025000D03*
%TO.P,U7,9,NC*%
%TO.N,unconnected-(U7-NC-Pad9)*%
X100360000Y-114025000D03*
%TO.P,U7,10,B4*%
%TO.N,D5*%
X99090000Y-114025000D03*
%TO.P,U7,11,B3*%
%TO.N,D4*%
X97820000Y-114025000D03*
%TO.P,U7,12,B2*%
%TO.N,D6*%
X96550000Y-114025000D03*
%TO.P,U7,13,B1*%
%TO.N,D7*%
X95280000Y-114025000D03*
%TO.P,U7,14,VCCB*%
%TO.N,+3.3V*%
X94010000Y-114025000D03*
%TD*%
D55*
%TO.P,D5,1,K*%
%TO.N,GND*%
X118140000Y-121000000D03*
%TO.P,D5,2,A*%
%TO.N,Net-(D5-A)*%
X117500000Y-121000000D03*
%TD*%
D27*
%TO.P,R6,1*%
%TO.N,+3.3V*%
X114742161Y-88399927D03*
%TO.P,R6,2*%
%TO.N,/TX_UPDI*%
X115463409Y-89121175D03*
%TD*%
%TO.P,R11,1*%
%TO.N,+3.3V*%
X116141537Y-94679303D03*
%TO.P,R11,2*%
%TO.N,Net-(J2-Pin_6)*%
X116862785Y-95400551D03*
%TD*%
D56*
%TO.P,C10,1*%
%TO.N,+5V*%
X100800000Y-103900000D03*
%TO.P,C10,2*%
%TO.N,GND*%
X95200000Y-103900000D03*
%TD*%
D25*
%TO.P,TP5,1,1*%
%TO.N,Net-(U6-XIN32)*%
X107000000Y-110500000D03*
%TD*%
D57*
%TO.P,U4,1,VIN*%
%TO.N,Net-(D6-K)*%
X115650000Y-125137500D03*
%TO.P,U4,2,GND*%
%TO.N,GND*%
X116600000Y-125137500D03*
%TO.P,U4,3,EN*%
%TO.N,Net-(D6-K)*%
X117550000Y-125137500D03*
%TO.P,U4,4,NC*%
%TO.N,unconnected-(U4-NC-Pad4)*%
X117550000Y-122862500D03*
%TO.P,U4,5,VOUT*%
%TO.N,+3.3V*%
X115650000Y-122862500D03*
%TD*%
D29*
%TO.P,R16,1*%
%TO.N,Net-(U9-FB)*%
X114382499Y-127285001D03*
%TO.P,R16,2*%
%TO.N,GND*%
X114382499Y-128304999D03*
%TD*%
D58*
%TO.P,PORTSIDE_RGB1,1,BA*%
%TO.N,Net-(PORTSIDE_RGB1-BA)*%
X98525000Y-110550000D03*
D59*
%TO.P,PORTSIDE_RGB1,2,RA*%
%TO.N,Net-(PORTSIDE_RGB1-RA)*%
X98525000Y-109500000D03*
D58*
%TO.P,PORTSIDE_RGB1,3,GA*%
%TO.N,Net-(PORTSIDE_RGB1-GA)*%
X98525000Y-108450000D03*
%TO.P,PORTSIDE_RGB1,4,GK*%
%TO.N,GND*%
X95475000Y-108450000D03*
D59*
%TO.P,PORTSIDE_RGB1,5,RK*%
X95475000Y-109500000D03*
D58*
%TO.P,PORTSIDE_RGB1,6,BK*%
X95475000Y-110550000D03*
%TD*%
D14*
%TO.P,J7,1,Pin_1*%
%TO.N,EJEC_SERVO*%
X108650000Y-86425000D03*
D15*
%TO.P,J7,2,Pin_2*%
%TO.N,+5V*%
X108650000Y-88965000D03*
%TO.P,J7,3,Pin_3*%
%TO.N,GND*%
X108650000Y-91505000D03*
%TD*%
D54*
%TO.P,Q2,1,G*%
%TO.N,+3.3V*%
X112708884Y-99217364D03*
%TO.P,Q2,2,S*%
%TO.N,Net-(D3-K)*%
X111365381Y-97873861D03*
%TO.P,Q2,3,D*%
%TO.N,TX0*%
X110711307Y-99871438D03*
%TD*%
D60*
%TO.P,U1,1,PA02*%
%TO.N,unconnected-(U1-PA02-Pad1)*%
X120223445Y-91591210D03*
%TO.P,U1,2,PA03*%
%TO.N,unconnected-(U1-PA03-Pad2)*%
X119869891Y-91237657D03*
%TO.P,U1,3,PA04*%
%TO.N,unconnected-(U1-PA04-Pad3)*%
X119516338Y-90884103D03*
%TO.P,U1,4,PA05*%
%TO.N,unconnected-(U1-PA05-Pad4)*%
X119162785Y-90530550D03*
%TO.P,U1,5,PA06*%
%TO.N,unconnected-(U1-PA06-Pad5)*%
X118809231Y-90176997D03*
%TO.P,U1,6,PA07*%
%TO.N,unconnected-(U1-PA07-Pad6)*%
X118455678Y-89823443D03*
D61*
%TO.P,U1,7,PA08/XIN*%
%TO.N,unconnected-(U1-PA08{slash}XIN-Pad7)*%
X117483406Y-89823443D03*
%TO.P,U1,8,PA09/XOUT*%
%TO.N,unconnected-(U1-PA09{slash}XOUT-Pad8)*%
X117129853Y-90176997D03*
%TO.P,U1,9,PA10*%
%TO.N,unconnected-(U1-PA10-Pad9)*%
X116776299Y-90530550D03*
%TO.P,U1,10,PA11*%
%TO.N,unconnected-(U1-PA11-Pad10)*%
X116422746Y-90884103D03*
%TO.P,U1,11,PA14*%
%TO.N,/TX_UPDI*%
X116069193Y-91237657D03*
%TO.P,U1,12,PA15*%
%TO.N,/RX_UPDI*%
X115715639Y-91591210D03*
D60*
%TO.P,U1,13,PA16*%
%TO.N,unconnected-(U1-PA16-Pad13)*%
X115715639Y-92563482D03*
%TO.P,U1,14,PA17*%
%TO.N,unconnected-(U1-PA17-Pad14)*%
X116069193Y-92917035D03*
%TO.P,U1,15,PA22*%
%TO.N,Net-(D2-K)*%
X116422746Y-93270589D03*
%TO.P,U1,16,PA23*%
%TO.N,Net-(D3-K)*%
X116776299Y-93624142D03*
%TO.P,U1,17,PA27*%
%TO.N,unconnected-(U1-PA27-Pad17)*%
X117129853Y-93977695D03*
%TO.P,U1,18,PA28/~{RST}*%
%TO.N,Net-(J2-Pin_6)*%
X117483406Y-94331249D03*
D61*
%TO.P,U1,19,PA30/SWCLK*%
%TO.N,Net-(J2-Pin_3)*%
X118455678Y-94331249D03*
%TO.P,U1,20,PA31/SWDIO*%
%TO.N,Net-(J2-Pin_2)*%
X118809231Y-93977695D03*
%TO.P,U1,21,PA24*%
%TO.N,Net-(D1-I{slash}O2)*%
X119162785Y-93624142D03*
%TO.P,U1,22,PA25*%
%TO.N,Net-(D1-I{slash}O1)*%
X119516338Y-93270589D03*
%TO.P,U1,23,GND*%
%TO.N,GND*%
X119869891Y-92917035D03*
%TO.P,U1,24,VDD*%
%TO.N,+3.3V*%
X120223445Y-92563482D03*
D62*
%TO.P,U1,25*%
%TO.N,N/C*%
X117969542Y-92077346D03*
%TD*%
D14*
%TO.P,J6,1,Pin_1*%
%TO.N,BATT_IN*%
X94940000Y-98370000D03*
D15*
%TO.P,J6,2,Pin_2*%
%TO.N,GND*%
X94940000Y-95830000D03*
%TD*%
D28*
%TO.P,R12,1*%
%TO.N,+3.3V*%
X107860624Y-99360624D03*
%TO.P,R12,2*%
%TO.N,RX0*%
X107139376Y-98639376D03*
%TD*%
D63*
%TO.P,J3,1,DAT2*%
%TO.N,unconnected-(J3-DAT2-Pad1)*%
X94050000Y-130605001D03*
%TO.P,J3,2,DAT3/CD*%
%TO.N,unconnected-(J3-DAT3{slash}CD-Pad2)*%
X94050000Y-129505000D03*
%TO.P,J3,3,CMD*%
%TO.N,Net-(J3-CMD)*%
X94050000Y-128405001D03*
%TO.P,J3,4,VDD*%
%TO.N,GND*%
X94050000Y-127305000D03*
%TO.P,J3,5,CLK*%
%TO.N,Net-(J3-CLK)*%
X94050000Y-126205000D03*
%TO.P,J3,6,VSS*%
%TO.N,+3.3V*%
X94050000Y-125105000D03*
%TO.P,J3,7,DAT0*%
%TO.N,Net-(J3-DAT0)*%
X94050000Y-124005000D03*
D64*
%TO.P,J3,8,DAT1*%
%TO.N,Net-(J3-DAT1)*%
X94050000Y-122955000D03*
D65*
%TO.P,J3,9,DET*%
%TO.N,CD*%
X100200000Y-133240000D03*
%TO.P,J3,10,SHIELD*%
%TO.N,GND*%
X103900000Y-133240000D03*
D66*
%TO.P,J3,11*%
%TO.N,N/C*%
X94175000Y-133065000D03*
D67*
X104875000Y-129740000D03*
X104875000Y-123770000D03*
D68*
X94400000Y-121745000D03*
%TD*%
D25*
%TO.P,TP7,1,1*%
%TO.N,SCL*%
X114067215Y-106500000D03*
%TD*%
D13*
%TO.P,R27,1*%
%TO.N,STAR_GREEN*%
X126985000Y-111050000D03*
%TO.P,R27,2*%
%TO.N,Net-(STARBOARD_RGB1-GA)*%
X128005000Y-111050000D03*
%TD*%
D40*
%TO.P,C5,1*%
%TO.N,Net-(D6-K)*%
X113522499Y-125980000D03*
%TO.P,C5,2*%
%TO.N,GND*%
X113522499Y-126620000D03*
%TD*%
D69*
%TO.P,D1,1,GND*%
%TO.N,GND*%
X119326007Y-95873115D03*
D70*
%TO.P,D1,2,I/O1*%
%TO.N,Net-(D1-I{slash}O1)*%
X118123926Y-97075197D03*
%TO.P,D1,3,I/O2*%
%TO.N,Net-(D1-I{slash}O2)*%
X119538139Y-98489410D03*
%TO.P,D1,4,VCC*%
%TO.N,BATT_IN*%
X120881642Y-97145907D03*
%TD*%
D28*
%TO.P,R31,1*%
%TO.N,Net-(J1-CC1)*%
X122243409Y-96731175D03*
%TO.P,R31,2*%
%TO.N,GND*%
X121522161Y-96009927D03*
%TD*%
D14*
%TO.P,J2,1,Pin_1*%
%TO.N,+3.3V*%
X126920000Y-106040000D03*
D15*
%TO.P,J2,2,Pin_2*%
%TO.N,Net-(J2-Pin_2)*%
X126920000Y-103500000D03*
%TO.P,J2,3,Pin_3*%
%TO.N,Net-(J2-Pin_3)*%
X129460000Y-106040000D03*
%TO.P,J2,4,Pin_4*%
%TO.N,UPDI*%
X129460000Y-103500000D03*
%TO.P,J2,5,Pin_5*%
%TO.N,GND*%
X131999999Y-106040000D03*
%TO.P,J2,6,Pin_6*%
%TO.N,Net-(J2-Pin_6)*%
X132000000Y-103500000D03*
%TD*%
D71*
%TO.N,Net-(ADR1-B)*%
X110000000Y-112500000D03*
X114500000Y-117000000D03*
%TO.N,GND*%
X97000000Y-101500000D03*
D72*
X110500000Y-91000000D03*
D71*
X131000000Y-124500000D03*
X121688001Y-92866731D03*
X102310000Y-121170000D03*
X110000000Y-116000000D03*
X101490000Y-96665000D03*
X109202941Y-114051471D03*
X131000000Y-109000000D03*
X122240000Y-89020000D03*
X120000000Y-119500000D03*
X131390000Y-111060000D03*
X116370000Y-107460000D03*
X113542499Y-127215000D03*
X122710000Y-89869999D03*
D72*
X106000000Y-94000000D03*
D71*
X103392892Y-100357108D03*
X113162499Y-122095000D03*
D72*
X102500000Y-94000000D03*
D71*
X119500000Y-122500000D03*
X94760000Y-104750000D03*
X118552785Y-96210551D03*
X109060000Y-106240000D03*
X111000000Y-133000000D03*
X98250000Y-96665000D03*
X118813342Y-112090188D03*
X122202785Y-92020551D03*
X124502415Y-106493668D03*
X97050000Y-96425000D03*
X96500000Y-125500000D03*
X128452785Y-90170551D03*
X116600000Y-123500000D03*
X105500000Y-98500000D03*
X113712499Y-128455000D03*
X121522161Y-96009927D03*
X110827501Y-120000000D03*
X96600000Y-109470000D03*
X109492499Y-123585000D03*
X109632499Y-125767500D03*
X102722785Y-134290551D03*
X113250000Y-117500000D03*
%TO.N,BATT_IN*%
X118000000Y-101500000D03*
X106000000Y-114500000D03*
X120123412Y-100020000D03*
%TO.N,Net-(U6-XIN32)*%
X113325735Y-116674265D03*
X106000000Y-111000000D03*
%TO.N,+3.3V*%
X117231316Y-97127905D03*
X117600868Y-115898172D03*
X112557215Y-106362785D03*
X115485208Y-87014625D03*
X107171766Y-100728235D03*
X120964265Y-110035735D03*
X111410000Y-92670000D03*
X112929986Y-100159985D03*
X109000000Y-115500000D03*
X115568241Y-96684748D03*
X125665735Y-114364407D03*
X120740000Y-92130000D03*
X115574265Y-107225735D03*
X122680000Y-110120000D03*
X115070000Y-105981473D03*
X113333949Y-110544627D03*
X111689542Y-96045548D03*
X107000000Y-113500000D03*
%TO.N,Net-(U6-CAP)*%
X112325000Y-117624998D03*
X110247500Y-118500000D03*
%TO.N,Net-(D1-I{slash}O1)*%
X122989772Y-96270552D03*
X113221669Y-92481669D03*
X121792785Y-93795156D03*
%TO.N,Net-(D1-I{slash}O2)*%
X114650000Y-93920000D03*
X120242785Y-98800551D03*
X120857224Y-94970505D03*
X124619728Y-94165336D03*
%TO.N,Net-(J2-Pin_3)*%
X118300121Y-94352469D03*
%TO.N,Net-(J2-Pin_2)*%
X115947058Y-97540703D03*
X119207327Y-94858519D03*
%TO.N,UPDI*%
X118090000Y-112520000D03*
X119550000Y-86400000D03*
%TO.N,CD*%
X122000000Y-109000000D03*
X127000000Y-113000000D03*
X128500000Y-115000000D03*
X100500000Y-134500000D03*
%TO.N,TX0*%
X118538659Y-109411341D03*
X114290000Y-101458530D03*
%TO.N,RX0*%
X127989876Y-108140001D03*
X127394265Y-115164265D03*
%TO.N,Net-(U9-EN)*%
X111662500Y-123337500D03*
X108000000Y-122000000D03*
%TO.N,Net-(U9-FB)*%
X115022499Y-126875000D03*
X109503990Y-122775383D03*
%TO.N,Net-(U6-ENV_SCL)*%
X113500000Y-120000000D03*
X116255025Y-118744975D03*
%TO.N,SDA*%
X125627132Y-111872875D03*
X119200000Y-113869425D03*
X113500000Y-108000000D03*
X120400000Y-114000000D03*
X115566677Y-114337373D03*
%TO.N,SCL*%
X113613984Y-108955434D03*
X115240000Y-111640000D03*
X117102238Y-111902322D03*
X116430356Y-115576189D03*
%TO.N,Net-(U6-~{BOOT})*%
X112276617Y-116764533D03*
X106063015Y-112436985D03*
%TO.N,EJEC_SERVO*%
X115100000Y-113550415D03*
%TO.N,PA1{slash}MOSI*%
X124640000Y-116860000D03*
X129320000Y-116000000D03*
%TO.N,D5*%
X118000000Y-104500000D03*
X120000000Y-104000000D03*
%TO.N,D6*%
X117371057Y-105128943D03*
X120500000Y-105000000D03*
%TO.N,BUZZER*%
X122500000Y-123000000D03*
X124724296Y-107758655D03*
%TO.N,PA0{slash}MISO*%
X124090000Y-120320000D03*
X123500000Y-117000000D03*
%TO.N,D4*%
X116496793Y-105103207D03*
X103500000Y-114500000D03*
X120438792Y-106061208D03*
X98500000Y-115900000D03*
%TO.N,HOLD*%
X127140000Y-115930000D03*
X122229265Y-112019265D03*
%TO.N,PORT_SERVO*%
X119630000Y-109550000D03*
%TO.N,STAR_BLUE*%
X126367693Y-109398621D03*
X124460000Y-115460000D03*
%TO.N,STAR_SERVO*%
X114500000Y-111213325D03*
%TO.N,PORT_GREEN*%
X117861577Y-111138423D03*
X113863530Y-103100000D03*
%TO.N,PORT_RED*%
X115705735Y-102874265D03*
X119401471Y-108540000D03*
%TO.N,PORT_BLUE*%
X117000000Y-111000000D03*
X112500000Y-103500000D03*
D72*
%TO.N,+5V*%
X100800000Y-103900000D03*
D71*
%TO.N,Net-(J1-VBUS-PadA4)*%
X122976469Y-94995157D03*
%TD*%
D73*
%TO.N,Net-(ADR1-B)*%
X112067500Y-111250000D02*
X111957500Y-111140000D01*
X111900000Y-110560000D02*
X111940000Y-110600000D01*
X114550000Y-117050000D02*
X114500000Y-117000000D01*
X112127500Y-111310000D02*
X112067500Y-111250000D01*
X110000000Y-112500000D02*
X110410000Y-112090000D01*
X111957500Y-111140000D02*
X111957500Y-110600000D01*
X110410000Y-112090000D02*
X112907500Y-112090000D01*
X112127500Y-111310000D02*
X112907500Y-112090000D01*
X115887500Y-117050000D02*
X114550000Y-117050000D01*
X111490000Y-110560000D02*
X111900000Y-110560000D01*
%TO.N,GND*%
X95475000Y-108450000D02*
X95475000Y-110550000D01*
X111050000Y-132950000D02*
X111000000Y-133000000D01*
X122202785Y-92020551D02*
X122202785Y-91900551D01*
X110312500Y-126645000D02*
X109632499Y-125964999D01*
D74*
X95200000Y-104310000D02*
X95200000Y-104000000D01*
D73*
X122922785Y-91180552D02*
X124872785Y-91180551D01*
X103500000Y-99325001D02*
X103500000Y-100250000D01*
X120171744Y-93218888D02*
X119869891Y-92917036D01*
X116687519Y-107142481D02*
X116370000Y-107460000D01*
X98450000Y-97915000D02*
X98450000Y-97415000D01*
X94695000Y-127305000D02*
X96500000Y-125500000D01*
X97050000Y-97175000D02*
X97140000Y-97265000D01*
X121688001Y-92866731D02*
X121574370Y-92980362D01*
X94050000Y-127305000D02*
X94695000Y-127305000D01*
X109654412Y-113600000D02*
X112697500Y-113600000D01*
X109530000Y-106750000D02*
X109530000Y-106710000D01*
X116600000Y-123500000D02*
X116600000Y-121780000D01*
X125450545Y-107441798D02*
X125450545Y-108684880D01*
X125682785Y-100250551D02*
X131272785Y-100250551D01*
X118140000Y-121140000D02*
X119500000Y-122500000D01*
X101630000Y-120490000D02*
X102310000Y-121170000D01*
X124502415Y-106493668D02*
X125450545Y-107441798D01*
X109632499Y-125964999D02*
X109632499Y-125767500D01*
X118000002Y-119999999D02*
X118500001Y-119500000D01*
X118086998Y-107686889D02*
X117542590Y-107142481D01*
X111000000Y-132009999D02*
X111000000Y-133000000D01*
X110512499Y-126645000D02*
X110312500Y-126645000D01*
X108645000Y-91500000D02*
X108650000Y-91505000D01*
X131632786Y-100610551D02*
X131632785Y-91630552D01*
D75*
X101350000Y-91500000D02*
X108645000Y-91500000D01*
D76*
X98450000Y-99415000D02*
X97000000Y-100865000D01*
D73*
X132550000Y-108950000D02*
X131050000Y-108950000D01*
X110820000Y-106000000D02*
X110820000Y-106199999D01*
X131272785Y-100250551D02*
X131632786Y-100610551D01*
X113522499Y-127195000D02*
X113542499Y-127215000D01*
X118813342Y-113200763D02*
X117733445Y-114280660D01*
X118140000Y-121000000D02*
X118140000Y-121140000D01*
X113222499Y-122155000D02*
X113162499Y-122095000D01*
X132550000Y-111050000D02*
X131400000Y-111050000D01*
X110682499Y-120000000D02*
X110347499Y-120335000D01*
X110269999Y-106750000D02*
X109530000Y-106750000D01*
X109592499Y-123685000D02*
X109492499Y-123585000D01*
X117542590Y-107142481D02*
X116687519Y-107142481D01*
X122259999Y-89000000D02*
X122240000Y-89020000D01*
X124580000Y-89000000D02*
X124590000Y-88990000D01*
X97050000Y-96425000D02*
X97050000Y-97175000D01*
X110347499Y-120335000D02*
X110147500Y-120335000D01*
X113250000Y-118662500D02*
X113250000Y-117500000D01*
X96570000Y-109500000D02*
X96600000Y-109470000D01*
X118500001Y-119500000D02*
X120000000Y-119500000D01*
X109202941Y-114051471D02*
X109654412Y-113600000D01*
X124010000Y-89000000D02*
X124580000Y-89000000D01*
D74*
X97000000Y-102200000D02*
X97000000Y-101500000D01*
D73*
X96955000Y-96425000D02*
X96360000Y-95830000D01*
X131275192Y-124224808D02*
X131000000Y-124500000D01*
X125450545Y-108684880D02*
X124680769Y-109454656D01*
X110050000Y-116050000D02*
X110000000Y-116000000D01*
X102722785Y-134290551D02*
X103773336Y-133240000D01*
X113522499Y-126620000D02*
X113522499Y-127195000D01*
X120640325Y-93218889D02*
X120171744Y-93218888D01*
X118702785Y-96220551D02*
X118562785Y-96220551D01*
X96360000Y-95830000D02*
X94940000Y-95830000D01*
X124590000Y-89870000D02*
X124590000Y-88990000D01*
X102098051Y-98415000D02*
X102708051Y-99025000D01*
X117825001Y-119999999D02*
X118000002Y-119999999D01*
X103000000Y-99025000D02*
X103199999Y-99025000D01*
X123390000Y-89900000D02*
X122740000Y-89899999D01*
X122202785Y-91900551D02*
X122922785Y-91180552D01*
X101350000Y-98415000D02*
X102098051Y-98415000D01*
X121574370Y-92980362D02*
X120878852Y-92980362D01*
X101350000Y-97415000D02*
X101350000Y-96805000D01*
D76*
X97000000Y-100865000D02*
X97000000Y-101500000D01*
D73*
X103199999Y-99025000D02*
X103500000Y-99325001D01*
X112509999Y-121972500D02*
X113039999Y-121972500D01*
X122989999Y-89000000D02*
X122259999Y-89000000D01*
D74*
X95200000Y-104000000D02*
X97000000Y-102200000D01*
D73*
X116600000Y-123500000D02*
X116600000Y-125137500D01*
X110297499Y-123685000D02*
X109592499Y-123685000D01*
X110820000Y-106199999D02*
X110269999Y-106750000D01*
X131400000Y-111050000D02*
X131390000Y-111060000D01*
X118813342Y-112090188D02*
X118813342Y-113200763D01*
X113039999Y-121972500D02*
X113162499Y-122095000D01*
X98450000Y-96865000D02*
X98250000Y-96665000D01*
X112562500Y-132950000D02*
X111050000Y-132950000D01*
X119050222Y-95873114D02*
X118702785Y-96220551D01*
X131050000Y-108950000D02*
X131000000Y-109000000D01*
X113222499Y-122685000D02*
X113222499Y-122155000D01*
X105000000Y-98000000D02*
X105500000Y-98500000D01*
X113862499Y-128305000D02*
X113712499Y-128455000D01*
X128452785Y-90170551D02*
X127882784Y-90170551D01*
X110827501Y-120000000D02*
X110682499Y-120000000D01*
X120878852Y-92980362D02*
X120640325Y-93218889D01*
X105000000Y-97820000D02*
X105000000Y-98000000D01*
X112907500Y-113390000D02*
X113250000Y-113732500D01*
X97050000Y-96425000D02*
X96955000Y-96425000D01*
X102708051Y-99025000D02*
X103000000Y-99025000D01*
X124030000Y-89900001D02*
X124560000Y-89900000D01*
X103500000Y-100250000D02*
X103392892Y-100357108D01*
X119326008Y-95873114D02*
X119050222Y-95873114D01*
X113250000Y-113732500D02*
X113250000Y-115137500D01*
X127882784Y-90170551D02*
X127842784Y-90210551D01*
X114382499Y-128305000D02*
X113862499Y-128305000D01*
X98450000Y-97414999D02*
X98450000Y-96865000D01*
X101350000Y-96805000D02*
X101490000Y-96665000D01*
X131275192Y-122696196D02*
X131275192Y-124224808D01*
X132000000Y-110000000D02*
X131000000Y-109000000D01*
X103773336Y-133240000D02*
X103900000Y-133240000D01*
X101630000Y-118975000D02*
X101630000Y-120490000D01*
X132550000Y-110000000D02*
X132000000Y-110000000D01*
X95475000Y-109500000D02*
X96570000Y-109500000D01*
X111112500Y-116050000D02*
X110050000Y-116050000D01*
X118562785Y-96220551D02*
X118552785Y-96210551D01*
X124872785Y-91180551D02*
X125682785Y-91990551D01*
X124560000Y-89900000D02*
X124590000Y-89870000D01*
X112697500Y-113600000D02*
X112907500Y-113390000D01*
X116600000Y-121780000D02*
X116320000Y-121500000D01*
X122740000Y-89899999D02*
X122710000Y-89869999D01*
X109530000Y-106710000D02*
X109060000Y-106240000D01*
D74*
X94760000Y-104750000D02*
X95200000Y-104310000D01*
D73*
%TO.N,BATT_IN*%
X105000000Y-97180000D02*
X103885000Y-96065000D01*
X105000000Y-97180000D02*
X104344999Y-97180000D01*
X97650000Y-98415000D02*
X97140000Y-97905000D01*
X101241471Y-96065000D02*
X100474999Y-96831472D01*
X120123412Y-99864492D02*
X121517678Y-98470226D01*
X120881642Y-97834190D02*
X120881642Y-97145907D01*
X100474999Y-96831472D02*
X100474999Y-98415000D01*
X111000000Y-121972500D02*
X111009999Y-121972500D01*
X105199999Y-97180000D02*
X106100000Y-98080001D01*
X111000000Y-121972500D02*
X109707500Y-121972500D01*
X107600000Y-102100000D02*
X117400000Y-102100000D01*
X109458344Y-121972500D02*
X111000000Y-121972500D01*
X106100000Y-98080001D02*
X106100000Y-100600000D01*
X104344999Y-97180000D02*
X103560000Y-97964999D01*
X103885000Y-96065000D02*
X101241471Y-96065000D01*
X98450000Y-98415000D02*
X97650000Y-98415000D01*
X121517678Y-98470226D02*
X120881642Y-97834190D01*
X108600001Y-128500000D02*
X108600001Y-122830843D01*
X100475000Y-99355000D02*
X99325000Y-99355000D01*
X106100000Y-100600000D02*
X107600000Y-102100000D01*
X108520000Y-120785000D02*
X108520000Y-117020000D01*
X105000000Y-97180000D02*
X105199999Y-97180000D01*
X108520000Y-117020000D02*
X106000000Y-114500000D01*
X117400000Y-102100000D02*
X118000000Y-101500000D01*
X108600001Y-122830843D02*
X109458344Y-121972500D01*
D74*
X95405000Y-97905000D02*
X94940000Y-98370000D01*
D73*
X120123412Y-100020000D02*
X120123412Y-99864492D01*
X99325000Y-98415000D02*
X98450000Y-98415000D01*
D74*
X97140000Y-97905000D02*
X95405000Y-97905000D01*
D73*
X109707500Y-121972500D02*
X108520000Y-120785000D01*
%TO.N,Net-(U6-XOUT32{slash}CLKSEL1)*%
X108827500Y-107747500D02*
X109130000Y-108050000D01*
X108727500Y-107500000D02*
X108827500Y-107400000D01*
X112750000Y-114573000D02*
X112677000Y-114500000D01*
X109602941Y-114500000D02*
X109451470Y-114651471D01*
X109130000Y-108050000D02*
X110687500Y-108050000D01*
X112750000Y-115137500D02*
X112750000Y-114573000D01*
X112677000Y-114500000D02*
X109602941Y-114500000D01*
X108500000Y-114298918D02*
X108500000Y-110348529D01*
X108500000Y-107500000D02*
X108727500Y-107500000D01*
X108827500Y-107400000D02*
X108827500Y-107747500D01*
X109130000Y-109718529D02*
X109130000Y-108130000D01*
X109451470Y-114651471D02*
X108852553Y-114651471D01*
X110687500Y-108050000D02*
X111037500Y-107700000D01*
X108852553Y-114651471D02*
X108500000Y-114298918D01*
X108500000Y-110348529D02*
X109130000Y-109718529D01*
X108827500Y-107400000D02*
X109530000Y-107400000D01*
X109130000Y-108130000D02*
X108500000Y-107500000D01*
%TO.N,Net-(U6-XIN32)*%
X106600000Y-110100000D02*
X107000000Y-110500000D01*
X112250000Y-115137500D02*
X112250000Y-115598530D01*
X109820000Y-105640000D02*
X110180000Y-106000000D01*
X106500000Y-111000000D02*
X107000000Y-110500000D01*
X106600000Y-107500000D02*
X108460000Y-105640000D01*
X106000000Y-111000000D02*
X106500000Y-111000000D01*
X108460000Y-105640000D02*
X109820000Y-105640000D01*
X112250000Y-115598530D02*
X113325735Y-116674265D01*
X106600000Y-107500000D02*
X106600000Y-110100000D01*
%TO.N,Net-(L1-Pad1)*%
X103555000Y-96950000D02*
X103560000Y-96945000D01*
X102560000Y-96950000D02*
X103555000Y-96950000D01*
%TO.N,Net-(D6-K)*%
X113914999Y-124897500D02*
X114392499Y-125375000D01*
X116940552Y-126100000D02*
X117550000Y-125490552D01*
X113522499Y-125980000D02*
X113522499Y-125037500D01*
X113052499Y-124897500D02*
X113662499Y-124897500D01*
X115412500Y-125375000D02*
X115650000Y-125137500D01*
X112762499Y-124897500D02*
X112509999Y-124897500D01*
X112347499Y-125312500D02*
X112132499Y-125312500D01*
X110712498Y-126005000D02*
X110512499Y-126005000D01*
X114392499Y-125375000D02*
X115412500Y-125375000D01*
X112009999Y-125190000D02*
X112009999Y-124897500D01*
X115950001Y-126100000D02*
X116940552Y-126100000D01*
X112352499Y-125795000D02*
X111092499Y-125795000D01*
X111399999Y-128500000D02*
X111399999Y-126692501D01*
X115650000Y-125137500D02*
X115650000Y-125799999D01*
X112132499Y-125312500D02*
X112009999Y-125190000D01*
X113662499Y-124897500D02*
X113914999Y-124897500D01*
X112762499Y-124645000D02*
X113222499Y-124185000D01*
X113052499Y-124897500D02*
X112762499Y-124897500D01*
X113522499Y-125037500D02*
X113662499Y-124897500D01*
X113052499Y-124897500D02*
X113052499Y-125095000D01*
X112762499Y-124897500D02*
X112347499Y-125312500D01*
X113052499Y-125095000D02*
X112352499Y-125795000D01*
X111399999Y-126692501D02*
X110712498Y-126005000D01*
X115650000Y-125799999D02*
X115950001Y-126100000D01*
X111092499Y-125795000D02*
X110882499Y-126005000D01*
X110882499Y-126005000D02*
X110512499Y-126005000D01*
X117550000Y-125490552D02*
X117550000Y-125137500D01*
X112762499Y-124897500D02*
X112762499Y-124645000D01*
%TO.N,+3.3V*%
X116835484Y-115132788D02*
X117600868Y-115898172D01*
X107000000Y-100500000D02*
X107000000Y-100556469D01*
X125034322Y-109808209D02*
X125850545Y-108991986D01*
X114740000Y-120500000D02*
X114500000Y-120740000D01*
X115490000Y-120500000D02*
X116245025Y-119744975D01*
X115574265Y-107225735D02*
X116057519Y-106742481D01*
X108639376Y-100139376D02*
X107778752Y-101000000D01*
X114799376Y-85890624D02*
X114799376Y-86328793D01*
X115680000Y-120690000D02*
X115490000Y-120500000D01*
X94010000Y-114999999D02*
X94010000Y-114025000D01*
X107000000Y-100221248D02*
X107000000Y-100500000D01*
X115680000Y-122832500D02*
X115650000Y-122862500D01*
X110206289Y-96117656D02*
X110945214Y-95378731D01*
X113220000Y-105700000D02*
X114788527Y-105700000D01*
X117255025Y-118430025D02*
X117255025Y-118141339D01*
X109647500Y-117450500D02*
X109647500Y-120647500D01*
X116874586Y-96771175D02*
X117231316Y-97127905D01*
X122680000Y-110120000D02*
X122680000Y-110490000D01*
X125665735Y-116721420D02*
X126949315Y-118005000D01*
X111022725Y-95378731D02*
X111689542Y-96045548D01*
X112708884Y-99217364D02*
X112708884Y-98976950D01*
X104027500Y-111500000D02*
X103777500Y-111500000D01*
X114742161Y-87757672D02*
X115485208Y-87014625D01*
X119740000Y-107940000D02*
X119047215Y-107940000D01*
X109865000Y-120865000D02*
X111522500Y-120865000D01*
X117255025Y-118141339D02*
X117000000Y-117886314D01*
X125850545Y-108991986D02*
X125850545Y-107109455D01*
X103777500Y-111500000D02*
X101630000Y-113647500D01*
X94010000Y-118975000D02*
X94010000Y-114025000D01*
X104027500Y-111500000D02*
X106027500Y-113500000D01*
X93200000Y-119785000D02*
X93200000Y-125005000D01*
X117379891Y-113927106D02*
X116835484Y-114471513D01*
X106027500Y-113500000D02*
X107000000Y-113500000D01*
X110206289Y-96754054D02*
X110206289Y-96117656D01*
X109000000Y-115848529D02*
X109000000Y-115500000D01*
X111410000Y-92670000D02*
X111410000Y-92901953D01*
X107860624Y-99360624D02*
X107000000Y-100221248D01*
X114788527Y-105700000D02*
X115070000Y-105981473D01*
X107000000Y-100556469D02*
X107171766Y-100728235D01*
X111627000Y-116600000D02*
X109751471Y-116600000D01*
X126949315Y-118005000D02*
X127280685Y-118005000D01*
X95510001Y-116500000D02*
X94010000Y-114999999D01*
X116832161Y-96771175D02*
X116874586Y-96771175D01*
X116245025Y-119744975D02*
X116820711Y-119744975D01*
X115568241Y-96684748D02*
X115568241Y-95525095D01*
X115623409Y-95197431D02*
X116141537Y-94679303D01*
X115623409Y-95469927D02*
X115623409Y-95197431D01*
X112929986Y-99438466D02*
X112708884Y-99217364D01*
X115490000Y-120500000D02*
X114740000Y-120500000D01*
X111112500Y-116550000D02*
X110548000Y-116550000D01*
X107443531Y-101000000D02*
X107171766Y-100728235D01*
X111750000Y-116477000D02*
X111627000Y-116600000D01*
X114500000Y-120740000D02*
X111647500Y-120740000D01*
X117565685Y-119000001D02*
X117825001Y-119000001D01*
X114742161Y-88399927D02*
X114742161Y-87757672D01*
X110548000Y-116550000D02*
X109647500Y-117450500D01*
X112557215Y-107239450D02*
X112557215Y-106362785D01*
X120964265Y-109162793D02*
X119740736Y-107939264D01*
X114211188Y-98041801D02*
X115568241Y-96684748D01*
X115680000Y-121500000D02*
X115680000Y-120690000D01*
X115568241Y-95525095D02*
X115623409Y-95469927D01*
X101630000Y-113647500D02*
X101630000Y-114025000D01*
X111750000Y-116477000D02*
X111750000Y-115137500D01*
X109751471Y-116600000D02*
X109000000Y-115848529D01*
X113009999Y-110220677D02*
X113333949Y-110544627D01*
X99500552Y-116500000D02*
X95510001Y-116500000D01*
X112557215Y-106362785D02*
X113220000Y-105700000D01*
X120964265Y-110035735D02*
X121468530Y-110540000D01*
X125034322Y-109808209D02*
X124302531Y-110540000D01*
X93200000Y-125005000D02*
X93300000Y-125105000D01*
X111522500Y-120865000D02*
X111647500Y-120740000D01*
X111112500Y-116550000D02*
X111677000Y-116550000D01*
X120223445Y-92563482D02*
X120306518Y-92563482D01*
X122680000Y-110490000D02*
X122730000Y-110540000D01*
X99500552Y-116500000D02*
X101630000Y-114370552D01*
X127280685Y-118005000D02*
X127502341Y-117783344D01*
X117000000Y-117886314D02*
X117000000Y-116499040D01*
X119047215Y-107940000D02*
X118440551Y-107333336D01*
X112510000Y-110600000D02*
X112510000Y-109999999D01*
X116057519Y-106742481D02*
X117849696Y-106742481D01*
X93300000Y-125105000D02*
X94050000Y-125105000D01*
X110945214Y-95378731D02*
X111022725Y-95378731D01*
X120964265Y-110035735D02*
X120964265Y-109162793D01*
X125665735Y-114364407D02*
X125665735Y-116721420D01*
X94010000Y-118975000D02*
X93200000Y-119785000D01*
X113009999Y-109500000D02*
X113009999Y-110220677D01*
X109647500Y-120647500D02*
X109865000Y-120865000D01*
X115680000Y-121500000D02*
X115680000Y-122832500D01*
X107778752Y-101000000D02*
X107443531Y-101000000D01*
X121468530Y-110540000D02*
X122730000Y-110540000D01*
X111410000Y-92901953D02*
X111800814Y-93292767D01*
X120306518Y-92563482D02*
X120740000Y-92130000D01*
X117825001Y-119000001D02*
X117255025Y-118430025D01*
X101630000Y-114370552D02*
X101630000Y-114025000D01*
X117849696Y-106742481D02*
X118440551Y-107333336D01*
X111677000Y-116550000D02*
X111750000Y-116477000D01*
X116820711Y-119744975D02*
X117565685Y-119000001D01*
X112708884Y-98976950D02*
X113644033Y-98041801D01*
X116835484Y-114471513D02*
X116835484Y-115132788D01*
X112929986Y-100159985D02*
X112929986Y-99438466D01*
X113644033Y-98041801D02*
X114211188Y-98041801D01*
X112510000Y-109999999D02*
X113009999Y-109500000D01*
X124302531Y-110540000D02*
X122730000Y-110540000D01*
X117000000Y-116499040D02*
X117600868Y-115898172D01*
X125850545Y-107109455D02*
X126920000Y-106040000D01*
X114799376Y-86328793D02*
X115485208Y-87014625D01*
%TO.N,Net-(U6-CAP)*%
X110147500Y-118600000D02*
X110247500Y-118500000D01*
X112677000Y-117825000D02*
X112750000Y-117898000D01*
X110147500Y-119695000D02*
X110147500Y-118600000D01*
X112525002Y-117825000D02*
X112677000Y-117825000D01*
X112750000Y-117898000D02*
X112750000Y-118462500D01*
X112325000Y-117624998D02*
X112525002Y-117825000D01*
%TO.N,Net-(D1-I{slash}O1)*%
X121671030Y-94561030D02*
X121296278Y-94561030D01*
X122989772Y-96270552D02*
X123089771Y-96370551D01*
X121296278Y-94561030D02*
X121005799Y-94270551D01*
X122989772Y-96270552D02*
X122989772Y-95879772D01*
X120852785Y-94110550D02*
X121005799Y-94263564D01*
X122989772Y-95879772D02*
X121790000Y-94680000D01*
X119516338Y-93270591D02*
X120356299Y-94110551D01*
X121792785Y-93795156D02*
X121518180Y-93795156D01*
X121790000Y-94893559D02*
X121790000Y-94680000D01*
X121518180Y-93795156D02*
X121042785Y-94270551D01*
X119608363Y-97075196D02*
X121790000Y-94893559D01*
X119608363Y-97075196D02*
X118123927Y-97075196D01*
X121790000Y-94680000D02*
X121671030Y-94561030D01*
X121042785Y-94270551D02*
X121005799Y-94270551D01*
X123089771Y-96370551D02*
X123772785Y-96370552D01*
X120356299Y-94110551D02*
X120852785Y-94110550D01*
X121005799Y-94263564D02*
X121005799Y-94270551D01*
%TO.N,Net-(D1-I{slash}O2)*%
X119849281Y-98800551D02*
X119538140Y-98489409D01*
X124772785Y-96520551D02*
X125082784Y-96520551D01*
X124457785Y-94327279D02*
X124619728Y-94165336D01*
X124457785Y-96205551D02*
X124457785Y-94327279D01*
X124372785Y-95870550D02*
X124422785Y-95920550D01*
X120509148Y-94970505D02*
X119162786Y-93624143D01*
X120242785Y-98800551D02*
X119849281Y-98800551D01*
X120857224Y-94970505D02*
X120509148Y-94970505D01*
X124497785Y-96245551D02*
X124457785Y-96205551D01*
X124497785Y-96245551D02*
X124772785Y-96520551D01*
X124422785Y-95920550D02*
X124422785Y-96170551D01*
X124422785Y-96170551D02*
X124497785Y-96245551D01*
X123772786Y-95870551D02*
X124372785Y-95870550D01*
%TO.N,Net-(D2-A)*%
X111926325Y-94609753D02*
X111926325Y-94662786D01*
X112522063Y-94014015D02*
X111926325Y-94609753D01*
%TO.N,Net-(D2-K)*%
X116422745Y-93270591D02*
X116120894Y-93572442D01*
X109884554Y-94388782D02*
X110429027Y-93844309D01*
X111051279Y-93787742D02*
X110429027Y-93787741D01*
X109955265Y-94388782D02*
X109884554Y-94388782D01*
X115716971Y-93572444D02*
X115017974Y-92873444D01*
X108862785Y-95410550D02*
X109884554Y-94388782D01*
X115017974Y-92873444D02*
X114488519Y-92873444D01*
X116120894Y-93572442D02*
X115716971Y-93572444D01*
X110429027Y-93946793D02*
X110429027Y-93844309D01*
X110429027Y-93844309D02*
X110429027Y-93787741D01*
X112042783Y-95560551D02*
X110429027Y-93946793D01*
X111473777Y-94210237D02*
X111051279Y-93787742D01*
X112042785Y-95319179D02*
X112042783Y-95560551D01*
X110223966Y-94657482D02*
X109955265Y-94388782D01*
X114488519Y-92873444D02*
X112042785Y-95319179D01*
%TO.N,Net-(D3-A)*%
X114312249Y-96829111D02*
X114312249Y-96781087D01*
X114312249Y-96781087D02*
X114902161Y-96191175D01*
%TO.N,Net-(D3-K)*%
X116776299Y-93624143D02*
X116369745Y-94030697D01*
X115999355Y-94015383D02*
X115477617Y-94537121D01*
X112922784Y-97320551D02*
X112922785Y-96870550D01*
X116369745Y-94030697D02*
X116354431Y-94015383D01*
X116354431Y-94015383D02*
X115999355Y-94015383D01*
X113859701Y-96376563D02*
X113764241Y-96281103D01*
X112922785Y-96870550D02*
X112645739Y-96593505D01*
X112645739Y-96593505D02*
X112958141Y-96281103D01*
X112862785Y-95810551D02*
X111812785Y-96860551D01*
X115477617Y-94537121D02*
X115477617Y-94545718D01*
X112125737Y-97113505D02*
X112645739Y-96593505D01*
X111365381Y-97873861D02*
X112125737Y-97113505D01*
X115477617Y-94545718D02*
X114212785Y-95810551D01*
X114212785Y-95810551D02*
X112862785Y-95810551D01*
X112065738Y-97113503D02*
X112125737Y-97113505D01*
X111812785Y-96860551D02*
X112065738Y-97113503D01*
X113764241Y-96281103D02*
X112958141Y-96281103D01*
%TO.N,Net-(D5-A)*%
X117000000Y-120500000D02*
X117500000Y-121000000D01*
X116510000Y-120500000D02*
X117000000Y-120500000D01*
%TO.N,Net-(J2-Pin_3)*%
X117553409Y-96049926D02*
X117966668Y-95636668D01*
X118455679Y-94331250D02*
X118455678Y-95147658D01*
X117966668Y-95636668D02*
X118300121Y-95303215D01*
X117966668Y-95636668D02*
X118455678Y-95147658D01*
X118300121Y-95303215D02*
X118300121Y-94352469D01*
%TO.N,Net-(J2-Pin_2)*%
X119207327Y-94858519D02*
X119207327Y-94375791D01*
X126920000Y-103500000D02*
X121906355Y-103500000D01*
X119207327Y-94375791D02*
X118809231Y-93977695D01*
X121906355Y-103500000D02*
X115947058Y-97540703D01*
%TO.N,Net-(J2-Pin_6)*%
X116168241Y-96095095D02*
X116862785Y-95400551D01*
X117483406Y-94779931D02*
X116862785Y-95400551D01*
X120205435Y-100950551D02*
X116168241Y-96913357D01*
X117483404Y-94331250D02*
X117483406Y-94779931D01*
X129450551Y-100950551D02*
X120205435Y-100950551D01*
X116168241Y-96913357D02*
X116168241Y-96095095D01*
X132000000Y-103500000D02*
X129450551Y-100950551D01*
%TO.N,UPDI*%
X118090000Y-112520000D02*
X118079891Y-112520000D01*
X119510551Y-86360551D02*
X119550000Y-86400000D01*
X114643810Y-85169376D02*
X115520624Y-85169376D01*
X118079891Y-112520000D02*
X117026338Y-113573553D01*
X117482785Y-86360551D02*
X119510551Y-86360551D01*
X113500000Y-86990001D02*
X113500000Y-86313186D01*
X115520624Y-85169376D02*
X116291610Y-85169376D01*
X113500000Y-86313186D02*
X114643810Y-85169376D01*
X116291610Y-85169376D02*
X117482785Y-86360551D01*
%TO.N,Net-(J3-CMD)*%
X94800000Y-128405001D02*
X94050000Y-128405001D01*
X99090000Y-124115001D02*
X94800000Y-128405001D01*
X99090000Y-118975000D02*
X99090000Y-124115001D01*
%TO.N,Net-(J3-DAT1)*%
X95280000Y-118975000D02*
X95280000Y-119949999D01*
X95600000Y-120269999D02*
X95600000Y-122630000D01*
X95280000Y-119949999D02*
X95600000Y-120269999D01*
X95600000Y-122630000D02*
X95275000Y-122955000D01*
X95275000Y-122955000D02*
X94050000Y-122955000D01*
%TO.N,Net-(J3-DAT0)*%
X94800000Y-124005000D02*
X94050000Y-124005000D01*
X96550000Y-118975000D02*
X96550000Y-122255000D01*
X96550000Y-122255000D02*
X94800000Y-124005000D01*
%TO.N,CD*%
X119147658Y-106626229D02*
X121521429Y-109000000D01*
X127000000Y-113500000D02*
X128500000Y-115000000D01*
X127000000Y-113000000D02*
X127000000Y-113500000D01*
X100200000Y-134200000D02*
X100500000Y-134500000D01*
X121521429Y-109000000D02*
X122000000Y-109000000D01*
X100200000Y-133240000D02*
X100200000Y-134200000D01*
%TO.N,Net-(J3-CLK)*%
X97820000Y-118975000D02*
X97820000Y-123185000D01*
X97820000Y-123185000D02*
X94800000Y-126205000D01*
X94800000Y-126205000D02*
X94050000Y-126205000D01*
%TO.N,/RX_UPDI*%
X113778752Y-89778752D02*
X113778752Y-90655566D01*
X114714396Y-91591210D02*
X115715639Y-91591210D01*
X113778752Y-90655566D02*
X114714396Y-91591210D01*
%TO.N,TX0*%
X114290000Y-101458530D02*
X114048530Y-101700000D01*
X123429254Y-112180617D02*
X122588637Y-111340000D01*
X109360624Y-100860624D02*
X109722121Y-100860624D01*
X123973662Y-113573553D02*
X123429254Y-113029145D01*
X112539869Y-101700000D02*
X110711307Y-99871438D01*
X123429254Y-113029145D02*
X123429254Y-112180617D01*
X109722121Y-100860624D02*
X110711307Y-99871438D01*
X118538659Y-109538659D02*
X118538659Y-109411341D01*
X118538659Y-109538659D02*
X120340000Y-111340000D01*
X122588637Y-111340000D02*
X120340000Y-111340000D01*
X114048530Y-101700000D02*
X112539869Y-101700000D01*
%TO.N,RX0*%
X127394265Y-115164265D02*
X125994407Y-113764407D01*
X124871622Y-113764407D02*
X124327215Y-113220000D01*
X108208712Y-97408128D02*
X108208712Y-97570040D01*
X111685737Y-100280182D02*
X112165540Y-100759985D01*
X128070000Y-104890000D02*
X128070000Y-108059877D01*
X112165540Y-100759985D02*
X118600654Y-100759985D01*
X128070000Y-108059877D02*
X127989876Y-108140001D01*
X111685737Y-99378620D02*
X111685737Y-100280182D01*
X108208712Y-97570040D02*
X107139376Y-98639376D01*
X125994407Y-113764407D02*
X124871622Y-113764407D01*
X109697592Y-98897008D02*
X111204125Y-98897008D01*
X122730669Y-104890000D02*
X128070000Y-104890000D01*
X108208712Y-97408128D02*
X109697592Y-98897008D01*
X118600654Y-100759985D02*
X122730669Y-104890000D01*
X111204125Y-98897008D02*
X111685737Y-99378620D01*
%TO.N,Net-(U9-EN)*%
X107500000Y-121500000D02*
X108000000Y-122000000D01*
X107500000Y-120785000D02*
X107500000Y-121500000D01*
X111759999Y-123434999D02*
X111662500Y-123337500D01*
X111759999Y-123435000D02*
X111759999Y-123434999D01*
%TO.N,Net-(U9-FB)*%
X114382499Y-126855000D02*
X114382499Y-126405000D01*
X114382499Y-126405000D02*
X114392499Y-126395000D01*
X109594373Y-122685000D02*
X110297499Y-122685000D01*
X114382499Y-127285000D02*
X114382499Y-126855000D01*
X114382499Y-126855000D02*
X115002499Y-126855000D01*
X115002499Y-126855000D02*
X115022499Y-126875000D01*
X109503990Y-122775383D02*
X109594373Y-122685000D01*
%TO.N,Net-(U6-~{RST})*%
X112267500Y-119100000D02*
X113650000Y-119100000D01*
X111647500Y-119720000D02*
X112267500Y-119100000D01*
X113750000Y-119000000D02*
X113750000Y-118462500D01*
X113650000Y-119100000D02*
X113750000Y-119000000D01*
%TO.N,Net-(U6-ENV_SCL)*%
X115972550Y-118462500D02*
X116255025Y-118744975D01*
X115750000Y-118462500D02*
X115972550Y-118462500D01*
X112647500Y-119720000D02*
X113220000Y-119720000D01*
X113220000Y-119720000D02*
X113500000Y-120000000D01*
%TO.N,Net-(U6-ENV_SDA)*%
X116655025Y-119344975D02*
X116855025Y-119144975D01*
X114875025Y-119344975D02*
X116655025Y-119344975D01*
X114500000Y-119720000D02*
X114875025Y-119344975D01*
X116098000Y-117550000D02*
X115887500Y-117550000D01*
X116855025Y-119144975D02*
X116855025Y-118307025D01*
X116855025Y-118307025D02*
X116098000Y-117550000D01*
%TO.N,SDA*%
X125387876Y-112159339D02*
X125387876Y-112112131D01*
X115566677Y-114500000D02*
X115750000Y-114683323D01*
X119330575Y-114000000D02*
X120400000Y-114000000D01*
X115566677Y-114337373D02*
X115566677Y-114500000D01*
X113240552Y-108259448D02*
X113500000Y-108000000D01*
X115750000Y-114683323D02*
X115750000Y-115137500D01*
X112557215Y-108259448D02*
X113240552Y-108259448D01*
X119200000Y-113869425D02*
X119330575Y-114000000D01*
X125387876Y-112112131D02*
X125627132Y-111872875D01*
%TO.N,SCL*%
X114500000Y-108069418D02*
X113613984Y-108955434D01*
X114067215Y-106500000D02*
X114067215Y-106739449D01*
X112866138Y-108889449D02*
X112090737Y-108889449D01*
X113607968Y-108880000D02*
X112866138Y-108880000D01*
X115612124Y-112012124D02*
X115612124Y-112159339D01*
X111733976Y-109316210D02*
X111733976Y-109246210D01*
X114500000Y-107172234D02*
X114500000Y-108069418D01*
X115956545Y-116050000D02*
X116430356Y-115576189D01*
X113613984Y-108955434D02*
X113613984Y-108886016D01*
X116156531Y-111614932D02*
X115612124Y-112159339D01*
X117102238Y-111902322D02*
X116814848Y-111614932D01*
X114067215Y-106739449D02*
X114500000Y-107172234D01*
X115240000Y-111640000D02*
X115612124Y-112012124D01*
X115887500Y-116050000D02*
X115956545Y-116050000D01*
X116814848Y-111614932D02*
X116156531Y-111614932D01*
X113613984Y-108886016D02*
X113607968Y-108880000D01*
X112090737Y-108889449D02*
X111733976Y-109246210D01*
X112027215Y-109609449D02*
X111733976Y-109316210D01*
%TO.N,Net-(U6-~{BOOT})*%
X112276617Y-116764533D02*
X111991150Y-117050000D01*
X106063015Y-112436985D02*
X105126030Y-111500000D01*
X105126030Y-111500000D02*
X105047500Y-111500000D01*
X111991150Y-117050000D02*
X111112500Y-117050000D01*
%TO.N,EJEC_SERVO*%
X115100000Y-113378571D02*
X115965678Y-112512893D01*
X115100000Y-113550415D02*
X115100000Y-113378571D01*
%TO.N,Net-(PORTSIDE_RGB1-RA)*%
X98525000Y-109500000D02*
X100015001Y-109500000D01*
%TO.N,PA3{slash}SS*%
X119501212Y-118152683D02*
X123595000Y-122246471D01*
X119501212Y-116048427D02*
X119501212Y-118152683D01*
X127280685Y-122955000D02*
X127502341Y-122733344D01*
X126245000Y-122955000D02*
X127280685Y-122955000D01*
X125536471Y-122246471D02*
X126245000Y-122955000D01*
X123595000Y-122246471D02*
X125536471Y-122246471D01*
%TO.N,PA1{slash}MOSI*%
X131275192Y-116771197D02*
X131275192Y-117746196D01*
X124640000Y-116860000D02*
X123900000Y-117600000D01*
X123900000Y-117600000D02*
X123100001Y-117600000D01*
X129320000Y-116000000D02*
X129791196Y-116471196D01*
X123100001Y-117600000D02*
X122396749Y-116896748D01*
X122396749Y-116239280D02*
X121852342Y-115694873D01*
X129791196Y-116471196D02*
X130975191Y-116471196D01*
X130975191Y-116471196D02*
X131275192Y-116771197D01*
X122396749Y-116896748D02*
X122396749Y-116239280D01*
%TO.N,Net-(PORTSIDE_RGB1-BA)*%
X98545000Y-110530000D02*
X98525000Y-110550000D01*
X100025001Y-110530000D02*
X98545000Y-110530000D01*
%TO.N,Net-(PORTSIDE_RGB1-GA)*%
X100015001Y-108450000D02*
X98525000Y-108450000D01*
%TO.N,D5*%
X101531372Y-112750000D02*
X104098529Y-110182843D01*
X111754413Y-105300000D02*
X115800000Y-105300000D01*
X122750303Y-106435374D02*
X122205895Y-106979782D01*
X116370476Y-105870476D02*
X117629524Y-105870476D01*
X106097058Y-105100000D02*
X111554413Y-105100000D01*
X120000000Y-104000000D02*
X121000000Y-104000000D01*
X118000000Y-105500000D02*
X118000000Y-104500000D01*
X99090000Y-113050001D02*
X99390001Y-112750000D01*
X99390001Y-112750000D02*
X101531372Y-112750000D01*
X121000000Y-104000000D02*
X122750303Y-105750303D01*
X115800000Y-105300000D02*
X116370476Y-105870476D01*
X111554413Y-105100000D02*
X111754413Y-105300000D01*
X99090000Y-114025000D02*
X99090000Y-113050001D01*
X117629524Y-105870476D02*
X118000000Y-105500000D01*
X104098529Y-107098529D02*
X106097058Y-105100000D01*
X104098529Y-110182843D02*
X104098529Y-107098529D01*
X122750303Y-105750303D02*
X122750303Y-106435374D01*
%TO.N,D6*%
X117371057Y-105128943D02*
X116742114Y-104500000D01*
X96550000Y-112550001D02*
X96550000Y-114025000D01*
X111885785Y-104300000D02*
X105765686Y-104300000D01*
X103100000Y-110050000D02*
X101250000Y-111900000D01*
X97200001Y-111900000D02*
X96550000Y-112550001D01*
X101250000Y-111900000D02*
X97200001Y-111900000D01*
X105765686Y-104300000D02*
X103100000Y-106965686D01*
X120500000Y-105273887D02*
X121498788Y-106272675D01*
X112085785Y-104500000D02*
X111885785Y-104300000D01*
X103100000Y-106965686D02*
X103100000Y-110050000D01*
X116742114Y-104500000D02*
X112085785Y-104500000D01*
X120500000Y-105000000D02*
X120500000Y-105273887D01*
%TO.N,BUZZER*%
X111000000Y-130990001D02*
X112502501Y-130990001D01*
X124724296Y-107758655D02*
X124724296Y-108030935D01*
X124871623Y-108178262D02*
X124871623Y-108556694D01*
X124871623Y-108556694D02*
X124327215Y-109101102D01*
X114450000Y-131050000D02*
X122500000Y-123000000D01*
X112502501Y-130990001D02*
X112562500Y-131050000D01*
X124724296Y-108030935D02*
X124871623Y-108178262D01*
X112562500Y-131050000D02*
X114450000Y-131050000D01*
%TO.N,WP*%
X127410192Y-119560000D02*
X130005192Y-122155000D01*
X120600827Y-118686612D02*
X121474215Y-119560000D01*
X121000000Y-115079967D02*
X120600827Y-115479140D01*
X116672785Y-109101102D02*
X121000000Y-113428317D01*
X121474215Y-119560000D02*
X127410192Y-119560000D01*
X120600827Y-115479140D02*
X120600827Y-118686612D01*
X121000000Y-113428317D02*
X121000000Y-115079967D01*
%TO.N,PA0{slash}MISO*%
X128735192Y-121721197D02*
X128735192Y-122696196D01*
X123500000Y-117000000D02*
X123500000Y-116635425D01*
X127333995Y-120320000D02*
X128735192Y-121721197D01*
X123500000Y-116635425D02*
X122205895Y-115341320D01*
X124090000Y-120320000D02*
X127333995Y-120320000D01*
D76*
%TO.N,Net-(BZ1--)*%
X114937501Y-131500000D02*
X119000000Y-131500000D01*
X119000000Y-131500000D02*
X121000000Y-129500000D01*
X114437501Y-132000000D02*
X114937501Y-131500000D01*
D73*
%TO.N,D4*%
X120438792Y-106061208D02*
X120438792Y-106679927D01*
X98500000Y-112300000D02*
X101415686Y-112300000D01*
X120438792Y-106679927D02*
X120929501Y-107170636D01*
X97820000Y-115220000D02*
X98500000Y-115900000D01*
X121307935Y-107170636D02*
X121852342Y-106626229D01*
X101415686Y-112300000D02*
X103565686Y-110150000D01*
X97820000Y-112980000D02*
X98500000Y-112300000D01*
X103500000Y-114500000D02*
X103500000Y-113500000D01*
X111720099Y-104700000D02*
X111920099Y-104900000D01*
X103500000Y-113500000D02*
X104000000Y-113000000D01*
X97820000Y-114025000D02*
X97820000Y-115220000D01*
X120929501Y-107170636D02*
X121307935Y-107170636D01*
X103565686Y-107065686D02*
X105931372Y-104700000D01*
X116293586Y-104900000D02*
X116496793Y-105103207D01*
X105931372Y-104700000D02*
X111720099Y-104700000D01*
X103565686Y-110150000D02*
X103565686Y-107065686D01*
X97820000Y-114025000D02*
X97820000Y-112980000D01*
X111920099Y-104900000D02*
X116293586Y-104900000D01*
%TO.N,HOLD*%
X127140000Y-115930000D02*
X127430000Y-115930000D01*
X127430000Y-115930000D02*
X128785000Y-117285000D01*
X122229265Y-112019265D02*
X120298054Y-112019265D01*
X120298054Y-112019265D02*
X117026338Y-108747549D01*
X128785000Y-117285000D02*
X128785000Y-117746196D01*
%TO.N,Net-(J1-CC1)*%
X122382785Y-96870550D02*
X123772785Y-96870550D01*
X122243409Y-96731175D02*
X122382785Y-96870550D01*
%TO.N,Net-(STARBOARD_RGB1-BA)*%
X128015000Y-108950000D02*
X128005000Y-108960000D01*
X129500000Y-108950000D02*
X128015000Y-108950000D01*
%TO.N,D7*%
X119501212Y-105001212D02*
X119501212Y-106272675D01*
X112051471Y-103900000D02*
X112251471Y-104100000D01*
X102700000Y-109884314D02*
X102700000Y-106800000D01*
X115685785Y-103900000D02*
X118400000Y-103900000D01*
X101084314Y-111500000D02*
X102700000Y-109884314D01*
X112251471Y-104100000D02*
X115485785Y-104100000D01*
X96330001Y-111500000D02*
X101084314Y-111500000D01*
X115485785Y-104100000D02*
X115685785Y-103900000D01*
X95280000Y-112550001D02*
X96330001Y-111500000D01*
X95280000Y-114025000D02*
X95280000Y-112550001D01*
X118400000Y-103900000D02*
X119501212Y-105001212D01*
X105600000Y-103900000D02*
X112051471Y-103900000D01*
X102700000Y-106800000D02*
X105600000Y-103900000D01*
%TO.N,Net-(STARBOARD_RGB1-RA)*%
X128005000Y-110000000D02*
X129500000Y-110000000D01*
%TO.N,Net-(STARBOARD_RGB1-GA)*%
X129500000Y-111050000D02*
X128005000Y-111050000D01*
%TO.N,PA2{slash}SCK*%
X121498788Y-118998788D02*
X121660000Y-119160000D01*
X128936940Y-119160000D02*
X130055000Y-118041940D01*
X121660000Y-119160000D02*
X128936940Y-119160000D01*
X121498788Y-116048427D02*
X121498788Y-118998788D01*
X130055000Y-118041940D02*
X130055000Y-117746196D01*
X133000000Y-122805452D02*
X133000000Y-125000000D01*
X130005192Y-119810644D02*
X133000000Y-122805452D01*
X130005192Y-117746196D02*
X130005192Y-119810644D01*
%TO.N,PORT_SERVO*%
X124538927Y-110940000D02*
X121020000Y-110940000D01*
X125387876Y-110161763D02*
X125317164Y-110161763D01*
X121020000Y-110940000D02*
X119630000Y-109550000D01*
X125317164Y-110161763D02*
X124538927Y-110940000D01*
%TO.N,STAR_BLUE*%
X124460000Y-115460000D02*
X124445895Y-115460000D01*
X126900000Y-108050000D02*
X126367693Y-108582307D01*
X126367693Y-108582307D02*
X126367693Y-109398621D01*
X124445895Y-115460000D02*
X123266555Y-114280660D01*
X126900000Y-108875000D02*
X126985000Y-108960000D01*
X126900000Y-108050000D02*
X126900000Y-108875000D01*
%TO.N,STAR_SERVO*%
X114500000Y-111213325D02*
X114560562Y-111213325D01*
X114560562Y-111213325D02*
X115612124Y-110161763D01*
%TO.N,STAR_GREEN*%
X126985000Y-112029463D02*
X125957163Y-113057300D01*
X125578729Y-113057300D02*
X125034322Y-112512893D01*
X126985000Y-111050000D02*
X126985000Y-112029463D01*
X125957163Y-113057300D02*
X125578729Y-113057300D01*
%TO.N,PORT_GREEN*%
X113863530Y-103100000D02*
X113263530Y-102500000D01*
X101500000Y-108254998D02*
X101500000Y-106302942D01*
X112085785Y-102500000D02*
X111885786Y-102700000D01*
X117861577Y-110997002D02*
X116319231Y-109454656D01*
X105102942Y-102700000D02*
X101500000Y-106302942D01*
X101034999Y-108450000D02*
X101304998Y-108450000D01*
X117861577Y-111138423D02*
X117861577Y-110997002D01*
X111885786Y-102700000D02*
X105102942Y-102700000D01*
X101304998Y-108450000D02*
X101500000Y-108254998D01*
X113263530Y-102500000D02*
X112085785Y-102500000D01*
%TO.N,STAR_RED*%
X126985000Y-110000000D02*
X126186035Y-110000000D01*
X124704613Y-111340000D02*
X123154323Y-111340000D01*
X124984889Y-111059724D02*
X124704613Y-111340000D01*
X125126311Y-111059724D02*
X124984889Y-111059724D01*
X123154323Y-111340000D02*
X124680769Y-112866446D01*
X126186035Y-110000000D02*
X125126311Y-111059724D01*
%TO.N,PORT_RED*%
X113548529Y-103700000D02*
X112748529Y-102900000D01*
X115705735Y-102874265D02*
X114880000Y-103700000D01*
X112748529Y-102900000D02*
X112251471Y-102900000D01*
X101900000Y-109100000D02*
X101500000Y-109500000D01*
X119356621Y-108584850D02*
X118277853Y-108584850D01*
X112251471Y-102900000D02*
X112051471Y-103100000D01*
X114880000Y-103700000D02*
X113548529Y-103700000D01*
X119401471Y-108540000D02*
X119356621Y-108584850D01*
X101500000Y-109500000D02*
X101034999Y-109500000D01*
X112051471Y-103100000D02*
X105268628Y-103100000D01*
X118277853Y-108584850D02*
X117733445Y-108040442D01*
X101900000Y-106468628D02*
X101900000Y-109100000D01*
X105268628Y-103100000D02*
X101900000Y-106468628D01*
%TO.N,PORT_BLUE*%
X101044999Y-110530000D02*
X101470000Y-110530000D01*
X102300000Y-106634314D02*
X105434314Y-103500000D01*
X117000000Y-110842531D02*
X115965678Y-109808209D01*
X105434314Y-103500000D02*
X112500000Y-103500000D01*
X102300000Y-109700000D02*
X102300000Y-106634314D01*
X117000000Y-111000000D02*
X117000000Y-110842531D01*
X101470000Y-110530000D02*
X102300000Y-109700000D01*
%TO.N,Net-(L1-Pad2)*%
X101350000Y-97915000D02*
X102555000Y-97914999D01*
X102555000Y-97914999D02*
X102560000Y-97919999D01*
D75*
%TO.N,+5V*%
X105000000Y-88960000D02*
X108645000Y-88960000D01*
D74*
X100800000Y-100200000D02*
X101467500Y-99532500D01*
D73*
X108645000Y-88960000D02*
X108650000Y-88965000D01*
X103000000Y-99665000D02*
X101600000Y-99665000D01*
X101600000Y-99665000D02*
X101467500Y-99532500D01*
D74*
X100800000Y-104000000D02*
X100800000Y-100200000D01*
D75*
X105000000Y-88960000D02*
X101350000Y-88960000D01*
D73*
X101467500Y-99532500D02*
X101350000Y-99415000D01*
%TO.N,Net-(J1-CC2)*%
X126822785Y-90210550D02*
X126822785Y-94740170D01*
X126822785Y-94740170D02*
X126242404Y-95320550D01*
X126242404Y-95320550D02*
X125782785Y-95320551D01*
%TO.N,/TX_UPDI*%
X113500000Y-88009999D02*
X113500000Y-88623186D01*
X114500000Y-90500000D02*
X115331536Y-90500000D01*
X113500000Y-88623186D02*
X114500000Y-89623186D01*
X115292786Y-89894054D02*
X115804536Y-89382303D01*
X114500000Y-89623186D02*
X114500000Y-90500000D01*
X115463408Y-89121175D02*
X115724537Y-89382303D01*
X115804536Y-89382303D02*
X116828711Y-88358128D01*
X116069193Y-91237659D02*
X116069193Y-91186959D01*
X116069193Y-91186959D02*
X115292785Y-90410552D01*
X115292785Y-90410552D02*
X115292786Y-89894054D01*
X115331536Y-90500000D02*
X116069193Y-91237657D01*
X115724537Y-89382303D02*
X115804536Y-89382303D01*
%TO.N,TEMP_SENSOR*%
X119175001Y-119000001D02*
X118603251Y-118428251D01*
X118603251Y-116239280D02*
X119147658Y-115694873D01*
X118603251Y-118428251D02*
X118603251Y-116239280D01*
%TO.N,Net-(J1-VBUS-PadA4)*%
X123172785Y-97370551D02*
X123772784Y-97370551D01*
X125032785Y-97370551D02*
X125082785Y-97320551D01*
X122009999Y-100000000D02*
X122785591Y-99224408D01*
X123772784Y-97370551D02*
X125032785Y-97370551D01*
X122785591Y-97757745D02*
X123172785Y-97370551D01*
X122785591Y-99224408D02*
X122785591Y-97757745D01*
X122976469Y-94995157D02*
X123101075Y-94870551D01*
X123101075Y-94870551D02*
X123772784Y-94870551D01*
%TO.N,Net-(D7-A)*%
X122385591Y-98604410D02*
X122385591Y-98433043D01*
X120990001Y-100000000D02*
X122385591Y-98604410D01*
X122385591Y-98433043D02*
X121970226Y-98017678D01*
%TD*%
M02*
