%TF.GenerationSoftware,KiCad,Pcbnew,8.0.6*%
%TF.CreationDate,2024-12-10T11:27:28-08:00*%
%TF.ProjectId,Vanguard_new,56616e67-7561-4726-945f-6e65772e6b69,rev?*%
%TF.SameCoordinates,Original*%
%TF.FileFunction,Legend,Top*%
%TF.FilePolarity,Positive*%
%FSLAX46Y46*%
G04 Gerber Fmt 4.6, Leading zero omitted, Abs format (unit mm)*
G04 Created by KiCad (PCBNEW 8.0.6) date 2024-12-10 11:27:28*
%MOMM*%
%LPD*%
G01*
G04 APERTURE LIST*
%ADD10C,0.120000*%
%ADD11C,0.100000*%
G04 APERTURE END LIST*
D10*
%TO.C,ADR1*%
X111907500Y-111340000D02*
X113907500Y-111340000D01*
X111907500Y-114140000D02*
X111907500Y-111340000D01*
X113907500Y-111340000D02*
X113907500Y-114140000D01*
X113907500Y-114140000D02*
X111907500Y-114140000D01*
%TO.C,R2*%
X116815444Y-96250491D02*
X117032725Y-96033210D01*
X117352845Y-96787892D02*
X117570126Y-96570611D01*
%TO.C,R30*%
X100371359Y-108070000D02*
X100678641Y-108070000D01*
X100371359Y-108830000D02*
X100678641Y-108830000D01*
%TO.C,J5*%
X103670000Y-85090000D02*
X105000000Y-85090000D01*
X103670000Y-86420000D02*
X103670000Y-85090000D01*
X103670000Y-87690000D02*
X103670000Y-92830000D01*
X103670000Y-87690000D02*
X106330000Y-87690000D01*
X103670000Y-92830000D02*
X106330000Y-92830000D01*
X106330000Y-87690000D02*
X106330000Y-92830000D01*
D11*
%TO.C,D2*%
X111141940Y-93828399D02*
G75*
G02*
X111041938Y-93828399I-50001J0D01*
G01*
X111041938Y-93828399D02*
G75*
G02*
X111141940Y-93828399I50001J0D01*
G01*
%TO.C,D7*%
X121185841Y-98852064D02*
G75*
G02*
X121085839Y-98852064I-50001J0D01*
G01*
X121085839Y-98852064D02*
G75*
G02*
X121185841Y-98852064I50001J0D01*
G01*
D10*
%TO.C,U2*%
X115394689Y-111160551D02*
X115712887Y-110842353D01*
X115712887Y-111478749D02*
X115394689Y-111160551D01*
X120181802Y-115947664D02*
X120500000Y-116265862D01*
X120500000Y-106055240D02*
X120181802Y-106373438D01*
X120500000Y-116265862D02*
X120818198Y-115947664D01*
X120818198Y-106373438D02*
X120500000Y-106055240D01*
X125287113Y-110842353D02*
X125605311Y-111160551D01*
X125605311Y-111160551D02*
X125287113Y-111478749D01*
X121143467Y-116937613D02*
X120662635Y-116456781D01*
X121235391Y-116364857D01*
X121143467Y-116937613D01*
G36*
X121143467Y-116937613D02*
G01*
X120662635Y-116456781D01*
X121235391Y-116364857D01*
X121143467Y-116937613D01*
G37*
%TO.C,U8*%
X101400000Y-96805000D02*
X98400000Y-96805000D01*
X101400000Y-100025000D02*
X98400000Y-100025000D01*
X101950000Y-100195000D02*
X101950000Y-99715000D01*
X102430000Y-99715000D01*
X101950000Y-100195000D01*
G36*
X101950000Y-100195000D02*
G01*
X101950000Y-99715000D01*
X102430000Y-99715000D01*
X101950000Y-100195000D01*
G37*
%TO.C,Q1*%
X115716785Y-85920377D02*
X115257166Y-86379997D01*
X115716785Y-85920377D02*
X116176405Y-85460758D01*
X117922959Y-88126551D02*
X117463339Y-88586170D01*
X117922959Y-88126551D02*
X118382578Y-87666931D01*
X114930129Y-86777744D02*
X114527078Y-86714105D01*
X114866490Y-86374694D01*
X114930129Y-86777744D01*
G36*
X114930129Y-86777744D02*
G01*
X114527078Y-86714105D01*
X114866490Y-86374694D01*
X114930129Y-86777744D01*
G37*
%TO.C,R23*%
X112153641Y-110180000D02*
X111846359Y-110180000D01*
X112153641Y-110940000D02*
X111846359Y-110940000D01*
%TO.C,TP3*%
X103300000Y-112300000D02*
X104700000Y-112300000D01*
X103300000Y-113700000D02*
X103300000Y-112300000D01*
X104700000Y-112300000D02*
X104700000Y-113700000D01*
X104700000Y-113700000D02*
X103300000Y-113700000D01*
%TO.C,TP2*%
X113660051Y-93920000D02*
X114650000Y-92930051D01*
X114650000Y-92930051D02*
X115639949Y-93920000D01*
X114650000Y-94909949D02*
X113660051Y-93920000D01*
X115639949Y-93920000D02*
X114650000Y-94909949D01*
%TO.C,R5*%
X113762035Y-90299436D02*
X113979316Y-90516717D01*
X114299436Y-89762035D02*
X114516717Y-89979316D01*
%TO.C,J4*%
X100020000Y-85090000D02*
X101350000Y-85090000D01*
X100020000Y-86420000D02*
X100020000Y-85090000D01*
X100020000Y-87690000D02*
X100020000Y-92830000D01*
X100020000Y-87690000D02*
X102680000Y-87690000D01*
X100020000Y-92830000D02*
X102680000Y-92830000D01*
X102680000Y-87690000D02*
X102680000Y-92830000D01*
%TO.C,R10*%
X113123349Y-98058518D02*
X112906068Y-97841237D01*
X113660750Y-97521117D02*
X113443469Y-97303836D01*
%TO.C,TP4*%
X132300000Y-124300000D02*
X133700000Y-124300000D01*
X132300000Y-125700000D02*
X132300000Y-124300000D01*
X133700000Y-124300000D02*
X133700000Y-125700000D01*
X133700000Y-125700000D02*
X132300000Y-125700000D01*
%TO.C,R15*%
X114012499Y-125731359D02*
X114012499Y-126038641D01*
X114772499Y-125731359D02*
X114772499Y-126038641D01*
%TO.C,TP1*%
X112200051Y-92450000D02*
X113190000Y-91460051D01*
X113190000Y-91460051D02*
X114179949Y-92450000D01*
X113190000Y-93439949D02*
X112200051Y-92450000D01*
X114179949Y-92450000D02*
X113190000Y-93439949D01*
%TO.C,R25*%
X127341359Y-108580000D02*
X127648641Y-108580000D01*
X127341359Y-109340000D02*
X127648641Y-109340000D01*
%TO.C,TP6*%
X110337500Y-107000000D02*
X111737500Y-107000000D01*
X110337500Y-108400000D02*
X110337500Y-107000000D01*
X111737500Y-107000000D02*
X111737500Y-108400000D01*
X111737500Y-108400000D02*
X110337500Y-108400000D01*
%TO.C,U9*%
X110149999Y-122300000D02*
X110149999Y-122065000D01*
X110149999Y-125045000D02*
X110149999Y-124570000D01*
X110624999Y-121825000D02*
X110449999Y-121825000D01*
X110624999Y-125045000D02*
X110149999Y-125045000D01*
X112894999Y-121825000D02*
X113369999Y-121825000D01*
X112894999Y-125045000D02*
X113369999Y-125045000D01*
X113369999Y-121825000D02*
X113369999Y-122300000D01*
X113369999Y-125045000D02*
X113369999Y-124570000D01*
X110149999Y-121825000D02*
X109909999Y-121495000D01*
X110389999Y-121495000D01*
X110149999Y-121825000D01*
G36*
X110149999Y-121825000D02*
G01*
X109909999Y-121495000D01*
X110389999Y-121495000D01*
X110149999Y-121825000D01*
G37*
%TO.C,R3*%
X115102725Y-95453210D02*
X114885444Y-95670491D01*
X115640126Y-95990611D02*
X115422845Y-96207892D01*
%TO.C,BZ1*%
X129770785Y-128500001D02*
G75*
G02*
X129770785Y-131500000I-6400000J-1499999D01*
G01*
X129600785Y-130000000D02*
G75*
G02*
X117140785Y-130000000I-6230000J0D01*
G01*
X117140785Y-130000000D02*
G75*
G02*
X129600785Y-130000000I6230000J0D01*
G01*
%TO.C,R1*%
X123346359Y-88620000D02*
X123653641Y-88620000D01*
X123346359Y-89380000D02*
X123653641Y-89380000D01*
%TO.C,Q4*%
X113500000Y-130439999D02*
X112850000Y-130440000D01*
X113500000Y-130439999D02*
X114150000Y-130440000D01*
X113500000Y-133560001D02*
X112850000Y-133560000D01*
X113500000Y-133560001D02*
X114150000Y-133560000D01*
X112577500Y-130160001D02*
X112337500Y-130490000D01*
X112097500Y-130160000D01*
X112577500Y-130160001D01*
G36*
X112577500Y-130160001D02*
G01*
X112337500Y-130490000D01*
X112097500Y-130160000D01*
X112577500Y-130160001D01*
G37*
%TO.C,R24*%
X104383859Y-111120000D02*
X104691141Y-111120000D01*
X104383859Y-111880000D02*
X104691141Y-111880000D01*
%TO.C,R26*%
X127341359Y-109620000D02*
X127648641Y-109620000D01*
X127341359Y-110380000D02*
X127648641Y-110380000D01*
%TO.C,R33*%
X103180000Y-97301359D02*
X103180000Y-97608641D01*
X103940000Y-97301359D02*
X103940000Y-97608641D01*
%TO.C,R34*%
X110620000Y-131346359D02*
X110620000Y-131653641D01*
X111380000Y-131346359D02*
X111380000Y-131653641D01*
%TO.C,D6*%
X112260000Y-127550000D02*
X108600000Y-127550000D01*
X112260000Y-129450000D02*
X108600000Y-129450000D01*
X112260000Y-129450000D02*
X112260000Y-127550000D01*
%TO.C,R13*%
X108622659Y-100660060D02*
X108839940Y-100877341D01*
X109160060Y-100122659D02*
X109377341Y-100339940D01*
%TO.C,R17*%
X115846359Y-120120000D02*
X116153641Y-120120000D01*
X115846359Y-120880000D02*
X116153641Y-120880000D01*
%TO.C,U6*%
X110790000Y-118810000D02*
X110790000Y-118550000D01*
X110790000Y-118810000D02*
X111050000Y-118810000D01*
X116210000Y-114790000D02*
X115950000Y-114790000D01*
X116210000Y-114790000D02*
X116210000Y-115050000D01*
X116210000Y-118810000D02*
X115950000Y-118810000D01*
X116210000Y-118810000D02*
X116210000Y-118550000D01*
D11*
X110790000Y-114790000D02*
X110430000Y-114790000D01*
X110790000Y-114430000D01*
X110790000Y-114790000D01*
G36*
X110790000Y-114790000D02*
G01*
X110430000Y-114790000D01*
X110790000Y-114430000D01*
X110790000Y-114790000D01*
G37*
D10*
%TO.C,R32*%
X127179144Y-89830551D02*
X127486426Y-89830551D01*
X127179144Y-90590551D02*
X127486426Y-90590551D01*
%TO.C,R9*%
X110424530Y-95395448D02*
X110207249Y-95178167D01*
X110961931Y-94858047D02*
X110744650Y-94640766D01*
%TO.C,STARBOARD_RGB1*%
X128835000Y-108300000D02*
X132550000Y-108300000D01*
X129500000Y-111700000D02*
X132550000Y-111700000D01*
%TO.C,R18*%
X111267500Y-120076359D02*
X111267500Y-120383641D01*
X112027500Y-120076359D02*
X112027500Y-120383641D01*
%TO.C,R21*%
X112177215Y-107595808D02*
X112177215Y-107903090D01*
X112937215Y-107595808D02*
X112937215Y-107903090D01*
%TO.C,U5*%
X118880001Y-120410000D02*
X117900001Y-120410000D01*
X119100001Y-118590000D02*
X117900001Y-118590000D01*
X119460001Y-120714433D02*
X118980001Y-120714432D01*
X119220001Y-120384432D01*
X119460001Y-120714433D01*
G36*
X119460001Y-120714433D02*
G01*
X118980001Y-120714432D01*
X119220001Y-120384432D01*
X119460001Y-120714433D01*
G37*
%TO.C,R22*%
X112653641Y-109120000D02*
X112346359Y-109120000D01*
X112653641Y-109880000D02*
X112346359Y-109880000D01*
%TO.C,U3*%
X126810193Y-120221196D02*
X126810192Y-118271196D01*
X126810193Y-120221196D02*
X126810192Y-122171196D01*
X131930191Y-120221196D02*
X131930192Y-118271196D01*
X131930191Y-120221196D02*
X131930192Y-122171196D01*
X126905192Y-122921196D02*
X126575192Y-123161195D01*
X126575192Y-122681196D01*
X126905192Y-122921196D01*
G36*
X126905192Y-122921196D02*
G01*
X126575192Y-123161195D01*
X126575192Y-122681196D01*
X126905192Y-122921196D01*
G37*
D11*
%TO.C,D3*%
X113527862Y-95994725D02*
G75*
G02*
X113427860Y-95994725I-50001J0D01*
G01*
X113427860Y-95994725D02*
G75*
G02*
X113527862Y-95994725I50001J0D01*
G01*
D10*
%TO.C,R4*%
X111784097Y-93813451D02*
X112001378Y-94030732D01*
X112321498Y-93276050D02*
X112538779Y-93493331D01*
%TO.C,J1*%
X123422785Y-91370551D02*
X130682785Y-91370551D01*
X123422785Y-100870551D02*
X123422786Y-99370551D01*
X123422785Y-100870551D02*
X130682785Y-100870551D01*
X123422786Y-92870551D02*
X123422785Y-91370551D01*
%TO.C,Y1*%
X106600439Y-106718186D02*
G75*
G02*
X108500000Y-106718719I949561J-781814D01*
G01*
X108500000Y-108281281D02*
G75*
G02*
X106600439Y-108281814I-950000J781281D01*
G01*
%TO.C,R8*%
X113120000Y-87653641D02*
X113120000Y-87346359D01*
X113880000Y-87653641D02*
X113880000Y-87346359D01*
%TO.C,R35*%
X121346359Y-99620000D02*
X121653641Y-99620000D01*
X121346359Y-100380000D02*
X121653641Y-100380000D01*
%TO.C,R28*%
X100381359Y-110150000D02*
X100688641Y-110150000D01*
X100381359Y-110910000D02*
X100688641Y-110910000D01*
%TO.C,R19*%
X112267500Y-120076359D02*
X112267500Y-120383641D01*
X113027500Y-120076359D02*
X113027500Y-120383641D01*
%TO.C,R29*%
X100371359Y-109120000D02*
X100678641Y-109120000D01*
X100371359Y-109880000D02*
X100678641Y-109880000D01*
%TO.C,R7*%
X114782659Y-85369940D02*
X114999940Y-85152659D01*
X115320060Y-85907341D02*
X115537341Y-85690060D01*
%TO.C,R14*%
X108163641Y-120405000D02*
X107856359Y-120405000D01*
X108163641Y-121165000D02*
X107856359Y-121165000D01*
%TO.C,R20*%
X114120000Y-120076359D02*
X114120000Y-120383641D01*
X114880000Y-120076359D02*
X114880000Y-120383641D01*
%TO.C,Q3*%
X107768538Y-95642128D02*
X107308919Y-96101748D01*
X107768538Y-95642128D02*
X108228158Y-95182509D01*
X109974712Y-97848302D02*
X109515092Y-98307921D01*
X109974712Y-97848302D02*
X110434331Y-97388682D01*
X111164419Y-97054574D02*
X110825007Y-97393985D01*
X110761368Y-96990935D01*
X111164419Y-97054574D01*
G36*
X111164419Y-97054574D02*
G01*
X110825007Y-97393985D01*
X110761368Y-96990935D01*
X111164419Y-97054574D01*
G37*
%TO.C,U7*%
X93384999Y-116500000D02*
X93385000Y-114550000D01*
X93384999Y-116500000D02*
X93385000Y-118450000D01*
X102255001Y-116500000D02*
X102255000Y-114550000D01*
X102255001Y-116500000D02*
X102255000Y-118450000D01*
X93450000Y-119200000D02*
X93120000Y-119440000D01*
X93120000Y-118960000D01*
X93450000Y-119200000D01*
G36*
X93450000Y-119200000D02*
G01*
X93120000Y-119440000D01*
X93120000Y-118960000D01*
X93450000Y-119200000D01*
G37*
D11*
%TO.C,D5*%
X118730001Y-121000000D02*
G75*
G02*
X118629999Y-121000000I-50001J0D01*
G01*
X118629999Y-121000000D02*
G75*
G02*
X118730001Y-121000000I50001J0D01*
G01*
D10*
%TO.C,R6*%
X114725444Y-88920611D02*
X114942725Y-89137892D01*
X115262845Y-88383210D02*
X115480126Y-88600491D01*
%TO.C,R11*%
X116124820Y-95199987D02*
X116342101Y-95417268D01*
X116662221Y-94662586D02*
X116879502Y-94879867D01*
%TO.C,C10*%
X94590000Y-100490000D02*
X94590000Y-102840000D01*
X94590000Y-107310000D02*
X94590000Y-104960000D01*
X100345563Y-100489999D02*
X94590000Y-100490000D01*
X100345563Y-107310001D02*
X94590000Y-107310000D01*
X101410001Y-101554437D02*
X100345563Y-100489999D01*
X101410001Y-101554437D02*
X101410000Y-102840000D01*
X101410001Y-106245563D02*
X100345563Y-107310001D01*
X101410001Y-106245563D02*
X101410000Y-104960000D01*
X102043750Y-106141250D02*
X102043751Y-105353750D01*
X102437500Y-105747500D02*
X101650000Y-105747500D01*
%TO.C,TP5*%
X106300000Y-109800000D02*
X107700000Y-109800000D01*
X106300000Y-111200000D02*
X106300000Y-109800000D01*
X107700000Y-109800000D02*
X107700000Y-111200000D01*
X107700000Y-111200000D02*
X106300000Y-111200000D01*
%TO.C,U4*%
X115040000Y-124000000D02*
X115040000Y-123200000D01*
X115040000Y-124000000D02*
X115040000Y-124800000D01*
X118160000Y-124000000D02*
X118160000Y-123200000D01*
X118160000Y-124000000D02*
X118160000Y-124800000D01*
X115090000Y-125300000D02*
X114760000Y-125540000D01*
X114760000Y-125060000D01*
X115090000Y-125300000D01*
G36*
X115090000Y-125300000D02*
G01*
X114760000Y-125540000D01*
X114760000Y-125060000D01*
X115090000Y-125300000D01*
G37*
%TO.C,R16*%
X114002499Y-127641359D02*
X114002499Y-127948641D01*
X114762499Y-127641359D02*
X114762499Y-127948641D01*
%TO.C,PORTSIDE_RGB1*%
X98525000Y-107800000D02*
X95475000Y-107800000D01*
X99190000Y-111200000D02*
X95475000Y-111200000D01*
%TO.C,J7*%
X107320000Y-85095000D02*
X108650000Y-85095000D01*
X107320000Y-86425000D02*
X107320000Y-85095000D01*
X107320000Y-87695000D02*
X107320000Y-92835000D01*
X107320000Y-87695000D02*
X109980000Y-87695000D01*
X107320000Y-92835000D02*
X109980000Y-92835000D01*
X109980000Y-87695000D02*
X109980000Y-92835000D01*
%TO.C,Q2*%
X110271133Y-98105438D02*
X109811514Y-98565058D01*
X110271133Y-98105438D02*
X110730753Y-97645819D01*
X112477307Y-100311612D02*
X112017687Y-100771231D01*
X112477307Y-100311612D02*
X112936926Y-99851992D01*
X113667014Y-99517884D02*
X113327602Y-99857295D01*
X113263963Y-99454245D01*
X113667014Y-99517884D01*
G36*
X113667014Y-99517884D02*
G01*
X113327602Y-99857295D01*
X113263963Y-99454245D01*
X113667014Y-99517884D01*
G37*
%TO.C,U1*%
X114985551Y-92077346D02*
X115321427Y-92413222D01*
X115321427Y-91741470D02*
X114985551Y-92077346D01*
X117633666Y-89429231D02*
X117969542Y-89093355D01*
X117969542Y-89093355D02*
X118305418Y-89429231D01*
X117969542Y-95061337D02*
X117633666Y-94725461D01*
X118305418Y-94725461D02*
X117969542Y-95061337D01*
X120617657Y-91741470D02*
X120783827Y-91907640D01*
X120617657Y-92413222D02*
X120741401Y-92289478D01*
X121356583Y-92140986D02*
X121017172Y-92480397D01*
X120953533Y-92077346D01*
X121356583Y-92140986D01*
G36*
X121356583Y-92140986D02*
G01*
X121017172Y-92480397D01*
X120953533Y-92077346D01*
X121356583Y-92140986D01*
G37*
%TO.C,J6*%
X93610000Y-97099999D02*
X93610000Y-94500000D01*
X96270000Y-94500000D02*
X93610000Y-94500000D01*
X96270000Y-97099999D02*
X93610000Y-97099999D01*
X96270000Y-97099999D02*
X96270000Y-94500000D01*
X96270000Y-98370000D02*
X96270000Y-99700000D01*
X96270000Y-99700000D02*
X94940000Y-99700000D01*
%TO.C,R12*%
X107339940Y-99377341D02*
X107122659Y-99160060D01*
X107877341Y-98839940D02*
X107660060Y-98622659D01*
%TO.C,J3*%
X93680000Y-132090001D02*
X93680000Y-131230000D01*
X95050000Y-133570000D02*
X99500000Y-133570000D01*
X100900000Y-133570000D02*
X103200000Y-133570000D01*
X104600000Y-133570000D02*
X105320000Y-133570000D01*
X105320000Y-121390000D02*
X95499999Y-121390000D01*
X105320000Y-122619999D02*
X105320000Y-121390000D01*
X105320000Y-128590000D02*
X105320000Y-124920000D01*
X105320000Y-133570000D02*
X105319999Y-130890000D01*
%TO.C,TP7*%
X113367215Y-105800000D02*
X114767215Y-105800000D01*
X113367215Y-107200000D02*
X113367215Y-105800000D01*
X114767215Y-105800000D02*
X114767215Y-107200000D01*
X114767215Y-107200000D02*
X113367215Y-107200000D01*
%TO.C,R27*%
X127341359Y-110670000D02*
X127648641Y-110670000D01*
X127341359Y-111430000D02*
X127648641Y-111430000D01*
%TO.C,D1*%
X117940078Y-97754019D02*
X118859317Y-98673258D01*
X121065490Y-96467085D02*
X120167464Y-95569059D01*
X120266459Y-95272074D02*
X119863408Y-95335714D01*
X119927048Y-94932663D01*
X120266459Y-95272074D01*
G36*
X120266459Y-95272074D02*
G01*
X119863408Y-95335714D01*
X119927048Y-94932663D01*
X120266459Y-95272074D01*
G37*
%TO.C,R31*%
X121722725Y-96747892D02*
X121505444Y-96530611D01*
X122260126Y-96210491D02*
X122042845Y-95993210D01*
%TO.C,J2*%
X125590000Y-102170000D02*
X133330000Y-102170000D01*
X125590000Y-104769999D02*
X125590000Y-102170000D01*
X125590000Y-107370000D02*
X125590000Y-106040000D01*
X126920000Y-107370000D02*
X125590000Y-107370000D01*
X128190000Y-104770000D02*
X125590000Y-104769999D01*
X128190001Y-107370000D02*
X128190000Y-104770000D01*
X128190001Y-107370000D02*
X133329999Y-107370000D01*
X133329999Y-107370000D02*
X133330000Y-102170000D01*
%TD*%
M02*
