%TF.GenerationSoftware,KiCad,Pcbnew,8.0.6*%
%TF.CreationDate,2024-12-10T11:27:28-08:00*%
%TF.ProjectId,Vanguard_new,56616e67-7561-4726-945f-6e65772e6b69,rev?*%
%TF.SameCoordinates,Original*%
%TF.FileFunction,Copper,L4,Bot*%
%TF.FilePolarity,Positive*%
%FSLAX46Y46*%
G04 Gerber Fmt 4.6, Leading zero omitted, Abs format (unit mm)*
G04 Created by KiCad (PCBNEW 8.0.6) date 2024-12-10 11:27:28*
%MOMM*%
%LPD*%
G01*
G04 APERTURE LIST*
%TA.AperFunction,ComponentPad*%
%ADD10R,1.700000X1.700000*%
%TD*%
%TA.AperFunction,ComponentPad*%
%ADD11O,1.700000X1.700000*%
%TD*%
%TA.AperFunction,HeatsinkPad*%
%ADD12C,0.500000*%
%TD*%
%TA.AperFunction,HeatsinkPad*%
%ADD13R,1.650000X2.380000*%
%TD*%
%TA.AperFunction,ComponentPad*%
%ADD14R,2.000000X2.000000*%
%TD*%
%TA.AperFunction,ComponentPad*%
%ADD15C,2.000000*%
%TD*%
%TA.AperFunction,ComponentPad*%
%ADD16C,0.650000*%
%TD*%
%TA.AperFunction,ComponentPad*%
%ADD17O,1.400000X0.800000*%
%TD*%
%TA.AperFunction,ComponentPad*%
%ADD18C,1.000000*%
%TD*%
%TA.AperFunction,ViaPad*%
%ADD19C,0.600000*%
%TD*%
%TA.AperFunction,ViaPad*%
%ADD20C,1.000000*%
%TD*%
%TA.AperFunction,Conductor*%
%ADD21C,0.200000*%
%TD*%
%TA.AperFunction,Conductor*%
%ADD22C,0.800000*%
%TD*%
%TA.AperFunction,Conductor*%
%ADD23C,0.400000*%
%TD*%
G04 APERTURE END LIST*
D10*
%TO.P,J5,1,Pin_1*%
%TO.N,PORT_SERVO*%
X105000000Y-86420000D03*
D11*
%TO.P,J5,2,Pin_2*%
%TO.N,+5V*%
X105000000Y-88960000D03*
%TO.P,J5,3,Pin_3*%
%TO.N,GND*%
X105000000Y-91500000D03*
%TD*%
D12*
%TO.P,U8,11,EN*%
%TO.N,BATT_IN*%
X100475000Y-99355000D03*
X100475000Y-97475000D03*
X100474999Y-98415000D03*
D13*
X99900000Y-98415000D03*
D12*
X99325001Y-98415000D03*
X99325000Y-99355000D03*
X99325000Y-97475000D03*
%TD*%
D10*
%TO.P,J4,1,Pin_1*%
%TO.N,STAR_SERVO*%
X101350000Y-86420000D03*
D11*
%TO.P,J4,2,Pin_2*%
%TO.N,+5V*%
X101350000Y-88960000D03*
%TO.P,J4,3,Pin_3*%
%TO.N,GND*%
X101350000Y-91500000D03*
%TD*%
D14*
%TO.P,BZ1,1,+*%
%TO.N,+5V*%
X125870785Y-130000000D03*
D15*
%TO.P,BZ1,2,-*%
%TO.N,Net-(BZ1--)*%
X120870785Y-130000000D03*
%TD*%
D16*
%TO.P,J1,B1,GND*%
%TO.N,GND*%
X125082785Y-93320551D03*
%TO.P,J1,B2*%
%TO.N,N/C*%
X125782785Y-93720551D03*
%TO.P,J1,B3*%
X125782785Y-94520551D03*
%TO.P,J1,B4,VBUS*%
%TO.N,Net-(J1-VBUS-PadA4)*%
X125082785Y-94920551D03*
%TO.P,J1,B5,CC2*%
%TO.N,Net-(J1-CC2)*%
X125782785Y-95320551D03*
%TO.P,J1,B6,D+*%
%TO.N,Net-(D1-I{slash}O1)*%
X125082785Y-95720551D03*
%TO.P,J1,B7,D-*%
%TO.N,Net-(D1-I{slash}O2)*%
X125082785Y-96520551D03*
%TO.P,J1,B8,SBU2*%
%TO.N,unconnected-(J1-SBU2-PadB8)*%
X125782785Y-96920551D03*
%TO.P,J1,B9,VBUS*%
%TO.N,Net-(J1-VBUS-PadA4)*%
X125082785Y-97320551D03*
%TO.P,J1,B10*%
%TO.N,N/C*%
X125782785Y-97720551D03*
%TO.P,J1,B11*%
X125782785Y-98520551D03*
%TO.P,J1,B12,GND*%
%TO.N,GND*%
X125082785Y-98920551D03*
D17*
%TO.P,J1,S1,SHIELD*%
X131632785Y-100610551D03*
X125682785Y-100250551D03*
X125682785Y-91990551D03*
X131632785Y-91630551D03*
%TD*%
D18*
%TO.P,Y1,1,1*%
%TO.N,Net-(U6-XOUT32{slash}CLKSEL1)*%
X108500000Y-107500000D03*
%TO.P,Y1,2,2*%
%TO.N,Net-(U6-XIN32)*%
X106600000Y-107500000D03*
%TD*%
D10*
%TO.P,J7,1,Pin_1*%
%TO.N,EJEC_SERVO*%
X108650000Y-86425000D03*
D11*
%TO.P,J7,2,Pin_2*%
%TO.N,+5V*%
X108650000Y-88965000D03*
%TO.P,J7,3,Pin_3*%
%TO.N,GND*%
X108650000Y-91505000D03*
%TD*%
D10*
%TO.P,J6,1,Pin_1*%
%TO.N,BATT_IN*%
X94940000Y-98370000D03*
D11*
%TO.P,J6,2,Pin_2*%
%TO.N,GND*%
X94940000Y-95830000D03*
%TD*%
D10*
%TO.P,J2,1,Pin_1*%
%TO.N,+3.3V*%
X126920000Y-106040000D03*
D11*
%TO.P,J2,2,Pin_2*%
%TO.N,Net-(J2-Pin_2)*%
X126920000Y-103500000D03*
%TO.P,J2,3,Pin_3*%
%TO.N,Net-(J2-Pin_3)*%
X129460000Y-106040000D03*
%TO.P,J2,4,Pin_4*%
%TO.N,UPDI*%
X129460000Y-103500000D03*
%TO.P,J2,5,Pin_5*%
%TO.N,GND*%
X131999999Y-106040000D03*
%TO.P,J2,6,Pin_6*%
%TO.N,Net-(J2-Pin_6)*%
X132000000Y-103500000D03*
%TD*%
D19*
%TO.N,Net-(ADR1-B)*%
X110000000Y-112500000D03*
X114500000Y-117000000D03*
%TO.N,GND*%
X97000000Y-101500000D03*
D20*
X110500000Y-91000000D03*
D19*
X131000000Y-124500000D03*
X121688001Y-92866731D03*
X102310000Y-121170000D03*
X110000000Y-116000000D03*
X101490000Y-96665000D03*
X109202941Y-114051471D03*
X131000000Y-109000000D03*
X122240000Y-89020000D03*
X120000000Y-119500000D03*
X131390000Y-111060000D03*
X116370000Y-107460000D03*
X113542499Y-127215000D03*
X122710000Y-89869999D03*
D20*
X106000000Y-94000000D03*
D19*
X103392892Y-100357108D03*
X113162499Y-122095000D03*
D20*
X102500000Y-94000000D03*
D19*
X119500000Y-122500000D03*
X94760000Y-104750000D03*
X118552785Y-96210551D03*
X109060000Y-106240000D03*
X111000000Y-133000000D03*
X98250000Y-96665000D03*
X118813342Y-112090188D03*
X122202785Y-92020551D03*
X124502415Y-106493668D03*
X97050000Y-96425000D03*
X96500000Y-125500000D03*
X128452785Y-90170551D03*
X116600000Y-123500000D03*
X105500000Y-98500000D03*
X113712499Y-128455000D03*
X121522161Y-96009927D03*
X110827501Y-120000000D03*
X96600000Y-109470000D03*
X109492499Y-123585000D03*
X109632499Y-125767500D03*
X102722785Y-134290551D03*
X113250000Y-117500000D03*
%TO.N,BATT_IN*%
X118000000Y-101500000D03*
X106000000Y-114500000D03*
X120123412Y-100020000D03*
%TO.N,Net-(U6-XIN32)*%
X113325735Y-116674265D03*
X106000000Y-111000000D03*
%TO.N,+3.3V*%
X117231316Y-97127905D03*
X117600868Y-115898172D03*
X112557215Y-106362785D03*
X115485208Y-87014625D03*
X107171766Y-100728235D03*
X120964265Y-110035735D03*
X111410000Y-92670000D03*
X112929986Y-100159985D03*
X109000000Y-115500000D03*
X115568241Y-96684748D03*
X125665735Y-114364407D03*
X120740000Y-92130000D03*
X115574265Y-107225735D03*
X122680000Y-110120000D03*
X115070000Y-105981473D03*
X113333949Y-110544627D03*
X111689542Y-96045548D03*
X107000000Y-113500000D03*
%TO.N,Net-(U6-CAP)*%
X112325000Y-117624998D03*
X110247500Y-118500000D03*
%TO.N,Net-(D1-I{slash}O1)*%
X122989772Y-96270552D03*
X113221669Y-92481669D03*
X121792785Y-93795156D03*
%TO.N,Net-(D1-I{slash}O2)*%
X114650000Y-93920000D03*
X120242785Y-98800551D03*
X120857224Y-94970505D03*
X124619728Y-94165336D03*
%TO.N,Net-(J2-Pin_3)*%
X118300121Y-94352469D03*
%TO.N,Net-(J2-Pin_2)*%
X115947058Y-97540703D03*
X119207327Y-94858519D03*
%TO.N,UPDI*%
X118090000Y-112520000D03*
X119550000Y-86400000D03*
%TO.N,CD*%
X122000000Y-109000000D03*
X127000000Y-113000000D03*
X128500000Y-115000000D03*
X100500000Y-134500000D03*
%TO.N,TX0*%
X118538659Y-109411341D03*
X114290000Y-101458530D03*
%TO.N,RX0*%
X127989876Y-108140001D03*
X127394265Y-115164265D03*
%TO.N,Net-(U9-EN)*%
X111662500Y-123337500D03*
X108000000Y-122000000D03*
%TO.N,Net-(U9-FB)*%
X115022499Y-126875000D03*
X109503990Y-122775383D03*
%TO.N,Net-(U6-ENV_SCL)*%
X113500000Y-120000000D03*
X116255025Y-118744975D03*
%TO.N,SDA*%
X125627132Y-111872875D03*
X119200000Y-113869425D03*
X113500000Y-108000000D03*
X120400000Y-114000000D03*
X115566677Y-114337373D03*
%TO.N,SCL*%
X113613984Y-108955434D03*
X115240000Y-111640000D03*
X117102238Y-111902322D03*
X116430356Y-115576189D03*
%TO.N,Net-(U6-~{BOOT})*%
X112276617Y-116764533D03*
X106063015Y-112436985D03*
%TO.N,EJEC_SERVO*%
X115100000Y-113550415D03*
%TO.N,PA1{slash}MOSI*%
X124640000Y-116860000D03*
X129320000Y-116000000D03*
%TO.N,D5*%
X118000000Y-104500000D03*
X120000000Y-104000000D03*
%TO.N,D6*%
X117371057Y-105128943D03*
X120500000Y-105000000D03*
%TO.N,BUZZER*%
X122500000Y-123000000D03*
X124724296Y-107758655D03*
%TO.N,PA0{slash}MISO*%
X124090000Y-120320000D03*
X123500000Y-117000000D03*
%TO.N,D4*%
X116496793Y-105103207D03*
X103500000Y-114500000D03*
X120438792Y-106061208D03*
X98500000Y-115900000D03*
%TO.N,HOLD*%
X127140000Y-115930000D03*
X122229265Y-112019265D03*
%TO.N,PORT_SERVO*%
X119630000Y-109550000D03*
%TO.N,STAR_BLUE*%
X126367693Y-109398621D03*
X124460000Y-115460000D03*
%TO.N,STAR_SERVO*%
X114500000Y-111213325D03*
%TO.N,PORT_GREEN*%
X117861577Y-111138423D03*
X113863530Y-103100000D03*
%TO.N,PORT_RED*%
X115705735Y-102874265D03*
X119401471Y-108540000D03*
%TO.N,PORT_BLUE*%
X117000000Y-111000000D03*
X112500000Y-103500000D03*
D20*
%TO.N,+5V*%
X100800000Y-103900000D03*
D19*
%TO.N,Net-(J1-VBUS-PadA4)*%
X122976469Y-94995157D03*
%TD*%
D21*
%TO.N,Net-(ADR1-B)*%
X114500000Y-117000000D02*
X110000000Y-112500000D01*
D22*
%TO.N,GND*%
X105000000Y-93000000D02*
X106000000Y-94000000D01*
X108650000Y-91505000D02*
X109995000Y-91505000D01*
X109995000Y-91505000D02*
X110500000Y-91000000D01*
X101350000Y-91500000D02*
X101350000Y-92850000D01*
X101350000Y-92850000D02*
X102500000Y-94000000D01*
X105000000Y-91500000D02*
X105000000Y-93000000D01*
D21*
%TO.N,BATT_IN*%
X118643412Y-101500000D02*
X120123412Y-100020000D01*
X106000000Y-114500000D02*
X99325000Y-107825000D01*
X99325000Y-107825000D02*
X99325000Y-99355000D01*
X118000000Y-101500000D02*
X118643412Y-101500000D01*
%TO.N,Net-(U6-XIN32)*%
X107651470Y-111000000D02*
X106000000Y-111000000D01*
X113325735Y-116674265D02*
X107651470Y-111000000D01*
%TO.N,+3.3V*%
X111689542Y-96045548D02*
X111689542Y-94546965D01*
X112929986Y-100159985D02*
X112929971Y-100160000D01*
X116218518Y-98140703D02*
X115698529Y-98140703D01*
X113333949Y-110544627D02*
X112557215Y-109767893D01*
X120964265Y-110035735D02*
X119413342Y-111586658D01*
X119413342Y-111586658D02*
X119413342Y-112338717D01*
X112560000Y-92294808D02*
X112560000Y-93040000D01*
X115070000Y-106721470D02*
X115574265Y-107225735D01*
X126432129Y-111829342D02*
X123942787Y-109340000D01*
X112560000Y-93676507D02*
X115568241Y-96684748D01*
X107740001Y-100160000D02*
X107171766Y-100728235D01*
X125665735Y-113092794D02*
X126432129Y-112326400D01*
X120740000Y-92130000D02*
X119800552Y-91190552D01*
X113664256Y-91190552D02*
X112560000Y-92294808D01*
X126432129Y-112326400D02*
X126432129Y-111829342D01*
X112929971Y-100160000D02*
X107740001Y-100160000D01*
X123211471Y-109340000D02*
X122680000Y-109871471D01*
X122680000Y-109871471D02*
X122680000Y-110120000D01*
X111689542Y-94546965D02*
X112560000Y-93676507D01*
X117600868Y-114151191D02*
X117600868Y-115898172D01*
X123942787Y-109340000D02*
X123211471Y-109340000D01*
X125665735Y-114364407D02*
X125665735Y-113092794D01*
X115698529Y-98140703D02*
X115347058Y-97789232D01*
X112557215Y-106362785D02*
X111900000Y-105705570D01*
X115347058Y-97789232D02*
X115347058Y-96905931D01*
X115347058Y-96905931D02*
X115568241Y-96684748D01*
X119800552Y-91190552D02*
X113664256Y-91190552D01*
X111780000Y-93040000D02*
X111410000Y-92670000D01*
X111900000Y-105705570D02*
X111900000Y-101189971D01*
X113664256Y-91190552D02*
X113664256Y-88835577D01*
X119413342Y-112338717D02*
X117600868Y-114151191D01*
X115070000Y-105981473D02*
X115070000Y-106721470D01*
X112560000Y-93040000D02*
X111780000Y-93040000D01*
X117231316Y-97127905D02*
X116218518Y-98140703D01*
X113664256Y-88835577D02*
X115485208Y-87014625D01*
X112560000Y-93040000D02*
X112560000Y-93676507D01*
X112557215Y-109767893D02*
X112557215Y-106362785D01*
X109000000Y-115500000D02*
X107000000Y-113500000D01*
X111900000Y-101189971D02*
X112929986Y-100159985D01*
%TO.N,Net-(U6-CAP)*%
X111449998Y-118500000D02*
X110247500Y-118500000D01*
X112325000Y-117624998D02*
X111449998Y-118500000D01*
%TO.N,Net-(D1-I{slash}O1)*%
X119357099Y-93380551D02*
X121378180Y-93380551D01*
X121378180Y-93380551D02*
X121792785Y-93795156D01*
X117567099Y-91590551D02*
X119357099Y-93380551D01*
X125082785Y-95720552D02*
X123539772Y-95720552D01*
X115242786Y-91590552D02*
X117567099Y-91590551D01*
X123539772Y-95720552D02*
X122989772Y-96270552D01*
X113221669Y-92481669D02*
X114351669Y-92481669D01*
X114351669Y-92481669D02*
X115242786Y-91590552D01*
%TO.N,Net-(D1-I{slash}O2)*%
X115919449Y-92650551D02*
X118061413Y-92650551D01*
X120562785Y-94676066D02*
X120562785Y-94395157D01*
X120562785Y-94395157D02*
X120562786Y-93930551D01*
X114650000Y-93920000D02*
X115919449Y-92650551D01*
X120562785Y-94395157D02*
X124389907Y-94395157D01*
X118061413Y-92650551D02*
X119191413Y-93780551D01*
X120857224Y-94970505D02*
X120649562Y-95178167D01*
X119191413Y-93780551D02*
X120412786Y-93780551D01*
X124389907Y-94395157D02*
X124619728Y-94165336D01*
X120649562Y-95178167D02*
X120649562Y-98393774D01*
X120649562Y-98393774D02*
X120242785Y-98800551D01*
X120857224Y-94970505D02*
X120562785Y-94676066D01*
X120412786Y-93780551D02*
X120562786Y-93930551D01*
%TO.N,Net-(J2-Pin_3)*%
X119807327Y-94537878D02*
X119450000Y-94180551D01*
X128310000Y-104890000D02*
X126107978Y-104890000D01*
X119807327Y-95122673D02*
X119807327Y-94537878D01*
X129460000Y-106040000D02*
X128310000Y-104890000D01*
X119642785Y-95287215D02*
X119807327Y-95122673D01*
X120637978Y-99420000D02*
X119950000Y-99420000D01*
X119450000Y-94180551D02*
X118472039Y-94180551D01*
X119642785Y-99112785D02*
X119642785Y-95287215D01*
X118472039Y-94180551D02*
X118300121Y-94352469D01*
X119950000Y-99420000D02*
X119642785Y-99112785D01*
X126107978Y-104890000D02*
X120637978Y-99420000D01*
%TO.N,Net-(J2-Pin_2)*%
X119207327Y-94858519D02*
X118629242Y-94858519D01*
X118629242Y-94858519D02*
X115947058Y-97540703D01*
%TO.N,UPDI*%
X130849999Y-106276347D02*
X129936346Y-107190000D01*
X119550000Y-86400000D02*
X120599449Y-86400000D01*
X123500000Y-106500000D02*
X123500000Y-106555000D01*
X125102415Y-106602415D02*
X125102415Y-106245139D01*
X118090000Y-111965000D02*
X118090000Y-112520000D01*
X129460000Y-94477817D02*
X129460000Y-103500000D01*
X123500000Y-106555000D02*
X118090000Y-111965000D01*
X120599449Y-86400000D02*
X125490000Y-91290551D01*
X124750944Y-105893668D02*
X124106332Y-105893668D01*
X124106332Y-105893668D02*
X123500000Y-106500000D01*
X125690000Y-107190000D02*
X125102415Y-106602415D01*
X129936346Y-107190000D02*
X125690000Y-107190000D01*
X125102415Y-106245139D02*
X124750944Y-105893668D01*
X130849999Y-104889999D02*
X130849999Y-106276347D01*
X126272734Y-91290551D02*
X129460000Y-94477817D01*
X125490000Y-91290551D02*
X126272734Y-91290551D01*
X129460000Y-103500000D02*
X130849999Y-104889999D01*
%TO.N,CD*%
X127000000Y-111831527D02*
X127000000Y-113000000D01*
X122000000Y-109000000D02*
X123841345Y-107158655D01*
X125767693Y-107953523D02*
X125767693Y-110599220D01*
X123500000Y-135000000D02*
X101000000Y-135000000D01*
X101000000Y-135000000D02*
X100500000Y-134500000D01*
X125767693Y-110599220D02*
X127000000Y-111831527D01*
X124972825Y-107158655D02*
X125767693Y-107953523D01*
X130500000Y-115000000D02*
X131600000Y-116100000D01*
X131600000Y-116100000D02*
X131600000Y-126900000D01*
X128500000Y-115000000D02*
X130500000Y-115000000D01*
X123841345Y-107158655D02*
X124972825Y-107158655D01*
X131600000Y-126900000D02*
X123500000Y-135000000D01*
%TO.N,TX0*%
X114870000Y-102760000D02*
X114870000Y-104900000D01*
X114290000Y-102180000D02*
X114870000Y-102760000D01*
X114870000Y-104900000D02*
X118538659Y-108568659D01*
X118538659Y-108568659D02*
X118538659Y-109411341D01*
X114290000Y-101458530D02*
X114290000Y-102180000D01*
%TO.N,RX0*%
X128640000Y-113918530D02*
X127394265Y-115164265D01*
X127989876Y-108140001D02*
X128640000Y-108790125D01*
X128640000Y-108790125D02*
X128640000Y-113918530D01*
%TO.N,Net-(U9-EN)*%
X111662500Y-123337500D02*
X110325000Y-122000000D01*
X110325000Y-122000000D02*
X108000000Y-122000000D01*
%TO.N,Net-(U9-FB)*%
X110251853Y-122775383D02*
X109503990Y-122775383D01*
X115022499Y-126875000D02*
X114351470Y-126875000D01*
X114351470Y-126875000D02*
X110251853Y-122775383D01*
%TO.N,Net-(U6-ENV_SCL)*%
X114755025Y-118744975D02*
X113500000Y-120000000D01*
X116255025Y-118744975D02*
X114755025Y-118744975D01*
%TO.N,SDA*%
X125173522Y-111419265D02*
X121980736Y-111419265D01*
X119200000Y-115300000D02*
X118000000Y-116500000D01*
X116400000Y-113504050D02*
X116400000Y-111641610D01*
X116400000Y-111641610D02*
X115100000Y-110341610D01*
X115566677Y-114337373D02*
X116400000Y-113504050D01*
X121980736Y-111419265D02*
X120400000Y-113000001D01*
X113507079Y-108000000D02*
X113500000Y-108000000D01*
X115100000Y-110341610D02*
X115100000Y-109592921D01*
X120400000Y-113000001D02*
X120400000Y-114000000D01*
X115566677Y-115566677D02*
X115566677Y-114337373D01*
X118000000Y-116500000D02*
X116500000Y-116500000D01*
X119200000Y-113869425D02*
X119200000Y-115300000D01*
X125627132Y-111872875D02*
X125173522Y-111419265D01*
X115100000Y-109592921D02*
X113507079Y-108000000D01*
X116500000Y-116500000D02*
X115566677Y-115566677D01*
%TO.N,SCL*%
X117102238Y-111902322D02*
X117000000Y-112004560D01*
X114206688Y-110013984D02*
X113613984Y-110013984D01*
X113613984Y-110013984D02*
X113613984Y-108955434D01*
X117000000Y-115006545D02*
X116430356Y-115576189D01*
X115240000Y-111047296D02*
X114206688Y-110013984D01*
X115240000Y-111640000D02*
X115240000Y-111047296D01*
X117000000Y-112004560D02*
X117000000Y-115006545D01*
%TO.N,Net-(U6-~{BOOT})*%
X108436985Y-112436985D02*
X106063015Y-112436985D01*
X112276617Y-116764533D02*
X112276617Y-116276617D01*
X112276617Y-116276617D02*
X108436985Y-112436985D01*
%TO.N,EJEC_SERVO*%
X107225000Y-85000000D02*
X108650000Y-86425000D01*
X100470000Y-85000000D02*
X107225000Y-85000000D01*
X100200000Y-85270000D02*
X100470000Y-85000000D01*
X103450000Y-89085686D02*
X101934314Y-87570000D01*
X111630000Y-111194052D02*
X111630000Y-107745686D01*
X113986363Y-113550415D02*
X111630000Y-111194052D01*
X101934314Y-87570000D02*
X100200000Y-87570000D01*
X115100000Y-113550415D02*
X113986363Y-113550415D01*
X103450000Y-99565686D02*
X103450000Y-89085686D01*
X100200000Y-87570000D02*
X100200000Y-85270000D01*
X111630000Y-107745686D02*
X103450000Y-99565686D01*
%TO.N,PA1{slash}MOSI*%
X128000000Y-116000000D02*
X129320000Y-116000000D01*
X124970000Y-116530000D02*
X124640000Y-116860000D01*
X127470000Y-116530000D02*
X128000000Y-116000000D01*
X124970000Y-116530000D02*
X127470000Y-116530000D01*
%TO.N,D5*%
X118000000Y-104500000D02*
X119500000Y-104500000D01*
X119500000Y-104500000D02*
X120000000Y-104000000D01*
%TO.N,D6*%
X120371057Y-105128943D02*
X120500000Y-105000000D01*
X117371057Y-105128943D02*
X120371057Y-105128943D01*
%TO.N,BUZZER*%
X122500000Y-116948529D02*
X119800000Y-114248529D01*
X122465785Y-109520000D02*
X124227130Y-107758655D01*
X122080000Y-109871471D02*
X122431471Y-109520000D01*
X119800000Y-114248529D02*
X119800000Y-112648529D01*
X124227130Y-107758655D02*
X124724296Y-107758655D01*
X119800000Y-112648529D02*
X122080000Y-110368529D01*
X122500000Y-123000000D02*
X122500000Y-116948529D01*
X122080000Y-110368529D02*
X122080000Y-109871471D01*
X122431471Y-109520000D02*
X122465785Y-109520000D01*
%TO.N,PA0{slash}MISO*%
X123500000Y-119730000D02*
X123500000Y-117000000D01*
X124090000Y-120320000D02*
X123500000Y-119730000D01*
%TO.N,D4*%
X103500000Y-114500000D02*
X102100000Y-115900000D01*
X120438792Y-106061208D02*
X117454794Y-106061208D01*
X117454794Y-106061208D02*
X116496793Y-105103207D01*
X102100000Y-115900000D02*
X98500000Y-115900000D01*
%TO.N,HOLD*%
X121430000Y-113075784D02*
X121430000Y-112818530D01*
X121430000Y-112818530D02*
X122229265Y-112019265D01*
X122020000Y-113665785D02*
X121430000Y-113075784D01*
X126940000Y-116130000D02*
X124281471Y-116130000D01*
X124281471Y-116130000D02*
X122020000Y-113868528D01*
X127140000Y-115930000D02*
X126940000Y-116130000D01*
X122020000Y-113868528D02*
X122020000Y-113665785D01*
%TO.N,PORT_SERVO*%
X117080000Y-103400000D02*
X106150000Y-92470000D01*
X121100000Y-105248529D02*
X121100000Y-104251471D01*
X120609314Y-108880000D02*
X121500000Y-107989314D01*
X121100000Y-104251471D02*
X120248529Y-103400000D01*
X120300000Y-108880000D02*
X120609314Y-108880000D01*
X106150000Y-87570000D02*
X105000000Y-86420000D01*
X121500000Y-105648529D02*
X121100000Y-105248529D01*
X106150000Y-92470000D02*
X106150000Y-87570000D01*
X119630000Y-109550000D02*
X120300000Y-108880000D01*
X120248529Y-103400000D02*
X117080000Y-103400000D01*
X121500000Y-107989314D02*
X121500000Y-105648529D01*
%TO.N,STAR_BLUE*%
X126250000Y-115460000D02*
X128240000Y-113470000D01*
X128240000Y-113470000D02*
X128240000Y-111270928D01*
X124460000Y-115460000D02*
X126250000Y-115460000D01*
X128240000Y-111270928D02*
X126367693Y-109398621D01*
%TO.N,STAR_SERVO*%
X112030000Y-111028366D02*
X112030000Y-107580000D01*
X114500000Y-111213325D02*
X112214959Y-111213325D01*
X112030000Y-107580000D02*
X103850000Y-99400000D01*
X112214959Y-111213325D02*
X112030000Y-111028366D01*
X103850000Y-99400000D02*
X103850000Y-88920000D01*
X103850000Y-88920000D02*
X101350000Y-86420000D01*
%TO.N,PORT_GREEN*%
X114470000Y-104470000D02*
X114470000Y-106970000D01*
X117600000Y-111400000D02*
X117861577Y-111138423D01*
X114470000Y-106970000D02*
X117600000Y-110100000D01*
X113863530Y-103100000D02*
X113863530Y-103863530D01*
X113863530Y-103863530D02*
X114470000Y-104470000D01*
X117600000Y-110100000D02*
X117600000Y-111400000D01*
%TO.N,PORT_RED*%
X119075686Y-108540000D02*
X119401471Y-108540000D01*
X115500000Y-104958529D02*
X116500000Y-105958529D01*
X116500000Y-105958529D02*
X116500000Y-105964314D01*
X116500000Y-105964314D02*
X119075686Y-108540000D01*
X115500000Y-103080000D02*
X115500000Y-104958529D01*
X115705735Y-102874265D02*
X115500000Y-103080000D01*
%TO.N,PORT_BLUE*%
X115500000Y-109000000D02*
X115500000Y-109500000D01*
X115500000Y-109500000D02*
X117000000Y-111000000D01*
X113940000Y-104940000D02*
X113940000Y-107440000D01*
X112500000Y-103500000D02*
X113940000Y-104940000D01*
X113940000Y-107440000D02*
X115500000Y-109000000D01*
D22*
%TO.N,+5V*%
X99900000Y-90410000D02*
X99900000Y-93802207D01*
D23*
X126000000Y-129500000D02*
X126000000Y-127500000D01*
D22*
X102390000Y-96292207D02*
X102390000Y-102310000D01*
X99900000Y-93802207D02*
X102390000Y-96292207D01*
D23*
X126000000Y-127500000D02*
X108700000Y-110200000D01*
D22*
X102390000Y-102310000D02*
X100800000Y-103900000D01*
D23*
X108700000Y-110200000D02*
X107100000Y-110200000D01*
D22*
X101350000Y-88960000D02*
X99900000Y-90410000D01*
D23*
X107100000Y-110200000D02*
X100800000Y-103900000D01*
D21*
%TO.N,Net-(J1-VBUS-PadA4)*%
X122389772Y-96519081D02*
X123191242Y-97320551D01*
X122389772Y-95581854D02*
X122389772Y-96519081D01*
X125082785Y-94920551D02*
X123051075Y-94920551D01*
X123051075Y-94920551D02*
X122976469Y-94995157D01*
X122976469Y-94995157D02*
X122389772Y-95581854D01*
X123191242Y-97320551D02*
X125082785Y-97320551D01*
%TD*%
M02*
