%TF.GenerationSoftware,KiCad,Pcbnew,8.0.6*%
%TF.CreationDate,2024-12-10T11:27:28-08:00*%
%TF.ProjectId,Vanguard_new,56616e67-7561-4726-945f-6e65772e6b69,rev?*%
%TF.SameCoordinates,Original*%
%TF.FileFunction,Soldermask,Top*%
%TF.FilePolarity,Negative*%
%FSLAX46Y46*%
G04 Gerber Fmt 4.6, Leading zero omitted, Abs format (unit mm)*
G04 Created by KiCad (PCBNEW 8.0.6) date 2024-12-10 11:27:28*
%MOMM*%
%LPD*%
G01*
G04 APERTURE LIST*
G04 Aperture macros list*
%AMRoundRect*
0 Rectangle with rounded corners*
0 $1 Rounding radius*
0 $2 $3 $4 $5 $6 $7 $8 $9 X,Y pos of 4 corners*
0 Add a 4 corners polygon primitive as box body*
4,1,4,$2,$3,$4,$5,$6,$7,$8,$9,$2,$3,0*
0 Add four circle primitives for the rounded corners*
1,1,$1+$1,$2,$3*
1,1,$1+$1,$4,$5*
1,1,$1+$1,$6,$7*
1,1,$1+$1,$8,$9*
0 Add four rect primitives between the rounded corners*
20,1,$1+$1,$2,$3,$4,$5,0*
20,1,$1+$1,$4,$5,$6,$7,0*
20,1,$1+$1,$6,$7,$8,$9,0*
20,1,$1+$1,$8,$9,$2,$3,0*%
%AMRotRect*
0 Rectangle, with rotation*
0 The origin of the aperture is its center*
0 $1 length*
0 $2 width*
0 $3 Rotation angle, in degrees counterclockwise*
0 Add horizontal line*
21,1,$1,$2,0,0,$3*%
%AMFreePoly0*
4,1,13,0.320000,0.125000,0.700000,0.125000,0.700000,-0.125000,0.320000,-0.125000,0.200000,-0.350000,-0.200000,-0.350000,-0.320000,-0.125000,-0.850000,-0.125000,-0.850000,0.125000,-0.320000,0.125000,-0.200000,0.350000,0.200000,0.350000,0.320000,0.125000,0.320000,0.125000,$1*%
G04 Aperture macros list end*
%ADD10R,1.500000X1.000000*%
%ADD11RoundRect,0.135000X0.035355X-0.226274X0.226274X-0.035355X-0.035355X0.226274X-0.226274X0.035355X0*%
%ADD12RoundRect,0.135000X-0.135000X-0.185000X0.135000X-0.185000X0.135000X0.185000X-0.135000X0.185000X0*%
%ADD13R,1.700000X1.700000*%
%ADD14O,1.700000X1.700000*%
%ADD15RoundRect,0.100000X-0.162635X0.021213X0.021213X-0.162635X0.162635X-0.021213X-0.021213X0.162635X0*%
%ADD16RoundRect,0.100000X-0.021213X-0.162635X0.162635X0.021213X0.021213X0.162635X-0.162635X-0.021213X0*%
%ADD17RoundRect,0.075000X0.521491X-0.415425X-0.415425X0.521491X-0.521491X0.415425X0.415425X-0.521491X0*%
%ADD18RoundRect,0.075000X0.521491X0.415425X0.415425X0.521491X-0.521491X-0.415425X-0.415425X-0.521491X0*%
%ADD19RoundRect,0.062500X0.362500X0.062500X-0.362500X0.062500X-0.362500X-0.062500X0.362500X-0.062500X0*%
%ADD20R,1.650000X2.380000*%
%ADD21RoundRect,0.150000X-0.309359X-0.521491X0.521491X0.309359X0.309359X0.521491X-0.521491X-0.309359X0*%
%ADD22RoundRect,0.135000X0.135000X0.185000X-0.135000X0.185000X-0.135000X-0.185000X0.135000X-0.185000X0*%
%ADD23R,1.000000X1.000000*%
%ADD24RotRect,1.000000X1.000000X225.000000*%
%ADD25RoundRect,0.135000X-0.226274X-0.035355X-0.035355X-0.226274X0.226274X0.035355X0.035355X0.226274X0*%
%ADD26RoundRect,0.135000X0.226274X0.035355X0.035355X0.226274X-0.226274X-0.035355X-0.035355X-0.226274X0*%
%ADD27RoundRect,0.135000X-0.185000X0.135000X-0.185000X-0.135000X0.185000X-0.135000X0.185000X0.135000X0*%
%ADD28RoundRect,0.062500X-0.350000X-0.062500X0.350000X-0.062500X0.350000X0.062500X-0.350000X0.062500X0*%
%ADD29RoundRect,0.062500X-0.062500X-0.350000X0.062500X-0.350000X0.062500X0.350000X-0.062500X0.350000X0*%
%ADD30RoundRect,0.100000X-0.130000X-0.100000X0.130000X-0.100000X0.130000X0.100000X-0.130000X0.100000X0*%
%ADD31RoundRect,0.135000X-0.035355X0.226274X-0.226274X0.035355X0.035355X-0.226274X0.226274X-0.035355X0*%
%ADD32RoundRect,0.100000X0.100000X-0.130000X0.100000X0.130000X-0.100000X0.130000X-0.100000X-0.130000X0*%
%ADD33R,2.000000X2.000000*%
%ADD34C,2.000000*%
%ADD35RoundRect,0.150000X-0.587500X-0.150000X0.587500X-0.150000X0.587500X0.150000X-0.587500X0.150000X0*%
%ADD36RoundRect,0.147500X-0.172500X0.147500X-0.172500X-0.147500X0.172500X-0.147500X0.172500X0.147500X0*%
%ADD37RoundRect,0.100000X-0.100000X0.130000X-0.100000X-0.130000X0.100000X-0.130000X0.100000X0.130000X0*%
%ADD38R,1.200000X1.200000*%
%ADD39R,0.254000X0.675000*%
%ADD40R,0.675000X0.254000*%
%ADD41RoundRect,0.160000X-0.565000X-0.240000X0.565000X-0.240000X0.565000X0.240000X-0.565000X0.240000X0*%
%ADD42RoundRect,0.120000X-0.605000X-0.180000X0.605000X-0.180000X0.605000X0.180000X-0.605000X0.180000X0*%
%ADD43C,2.100000*%
%ADD44RoundRect,0.062500X0.112500X0.062500X-0.112500X0.062500X-0.112500X-0.062500X0.112500X-0.062500X0*%
%ADD45FreePoly0,180.000000*%
%ADD46RoundRect,0.150000X0.150000X-0.825000X0.150000X0.825000X-0.150000X0.825000X-0.150000X-0.825000X0*%
%ADD47C,0.650000*%
%ADD48O,0.650000X0.950000*%
%ADD49R,0.700000X0.300000*%
%ADD50O,1.400000X0.800000*%
%ADD51C,1.000000*%
%ADD52RoundRect,0.135000X0.185000X-0.135000X0.185000X0.135000X-0.185000X0.135000X-0.185000X-0.135000X0*%
%ADD53RoundRect,0.150000X0.309359X0.521491X-0.521491X-0.309359X-0.309359X-0.521491X0.521491X0.309359X0*%
%ADD54RoundRect,0.100000X0.130000X0.100000X-0.130000X0.100000X-0.130000X-0.100000X0.130000X-0.100000X0*%
%ADD55RoundRect,0.250000X1.500000X0.550000X-1.500000X0.550000X-1.500000X-0.550000X1.500000X-0.550000X0*%
%ADD56RoundRect,0.150000X0.150000X-0.512500X0.150000X0.512500X-0.150000X0.512500X-0.150000X-0.512500X0*%
%ADD57RoundRect,0.160000X0.565000X0.240000X-0.565000X0.240000X-0.565000X-0.240000X0.565000X-0.240000X0*%
%ADD58RoundRect,0.120000X0.605000X0.180000X-0.605000X0.180000X-0.605000X-0.180000X0.605000X-0.180000X0*%
%ADD59RoundRect,0.062500X0.203293X0.291682X-0.291682X-0.203293X-0.203293X-0.291682X0.291682X0.203293X0*%
%ADD60RoundRect,0.062500X-0.203293X0.291682X-0.291682X0.203293X0.203293X-0.291682X0.291682X-0.203293X0*%
%ADD61RotRect,2.600000X2.600000X225.000000*%
%ADD62R,1.100000X0.850000*%
%ADD63R,1.100000X0.750000*%
%ADD64R,1.000000X1.200000*%
%ADD65R,1.350000X1.550000*%
%ADD66R,1.350000X1.900000*%
%ADD67R,1.800000X1.170000*%
%ADD68RoundRect,0.175000X-0.353553X-0.106066X-0.106066X-0.353553X0.353553X0.106066X0.106066X0.353553X0*%
%ADD69RoundRect,0.150000X-0.247487X0.035355X0.035355X-0.247487X0.247487X-0.035355X-0.035355X0.247487X0*%
G04 APERTURE END LIST*
D10*
%TO.C,ADR1*%
X112907500Y-113390000D03*
X112907500Y-112090000D03*
%TD*%
D11*
%TO.C,R2*%
X116832161Y-96771175D03*
X117553409Y-96049927D03*
%TD*%
D12*
%TO.C,R30*%
X100015001Y-108450000D03*
X101034999Y-108450000D03*
%TD*%
D13*
%TO.C,J5*%
X105000000Y-86420000D03*
D14*
X105000000Y-88960000D03*
X105000000Y-91500000D03*
%TD*%
D15*
%TO.C,D2*%
X111473777Y-94210237D03*
X111926325Y-94662785D03*
%TD*%
D16*
%TO.C,D7*%
X121517678Y-98470226D03*
X121970226Y-98017678D03*
%TD*%
D17*
%TO.C,U2*%
X121498788Y-116048427D03*
X121852342Y-115694873D03*
X122205895Y-115341320D03*
X122559449Y-114987766D03*
X122913002Y-114634213D03*
X123266555Y-114280660D03*
X123620109Y-113927106D03*
X123973662Y-113573553D03*
X124327215Y-113220000D03*
X124680769Y-112866446D03*
X125034322Y-112512893D03*
X125387876Y-112159339D03*
D18*
X125387876Y-110161763D03*
X125034322Y-109808209D03*
X124680769Y-109454656D03*
X124327215Y-109101102D03*
X123973662Y-108747549D03*
X123620109Y-108393996D03*
X123266555Y-108040442D03*
X122913002Y-107686889D03*
X122559449Y-107333336D03*
X122205895Y-106979782D03*
X121852342Y-106626229D03*
X121498788Y-106272675D03*
D17*
X119501212Y-106272675D03*
X119147658Y-106626229D03*
X118794105Y-106979782D03*
X118440551Y-107333336D03*
X118086998Y-107686889D03*
X117733445Y-108040442D03*
X117379891Y-108393996D03*
X117026338Y-108747549D03*
X116672785Y-109101102D03*
X116319231Y-109454656D03*
X115965678Y-109808209D03*
X115612124Y-110161763D03*
D18*
X115612124Y-112159339D03*
X115965678Y-112512893D03*
X116319231Y-112866446D03*
X116672785Y-113220000D03*
X117026338Y-113573553D03*
X117379891Y-113927106D03*
X117733445Y-114280660D03*
X118086998Y-114634213D03*
X118440551Y-114987766D03*
X118794105Y-115341320D03*
X119147658Y-115694873D03*
X119501212Y-116048427D03*
%TD*%
D19*
%TO.C,U8*%
X101350000Y-99415000D03*
X101350000Y-98915000D03*
X101350000Y-98415000D03*
X101350000Y-97915000D03*
X101350000Y-97415000D03*
X98450000Y-97415000D03*
X98450000Y-97915000D03*
X98450000Y-98415000D03*
X98450000Y-98915000D03*
X98450000Y-99415000D03*
D20*
X99900000Y-98415000D03*
%TD*%
D21*
%TO.C,Q1*%
X115485208Y-87014625D03*
X116828711Y-88358128D03*
X117482785Y-86360551D03*
%TD*%
D22*
%TO.C,R23*%
X112510000Y-110560000D03*
X111490000Y-110560000D03*
%TD*%
D23*
%TO.C,TP3*%
X104000000Y-113000000D03*
%TD*%
D24*
%TO.C,TP2*%
X114650000Y-93920000D03*
%TD*%
D25*
%TO.C,R5*%
X113778752Y-89778752D03*
X114500000Y-90500000D03*
%TD*%
D13*
%TO.C,J4*%
X101350000Y-86420000D03*
D14*
X101350000Y-88960000D03*
X101350000Y-91500000D03*
%TD*%
D26*
%TO.C,R10*%
X113644033Y-98041801D03*
X112922785Y-97320553D03*
%TD*%
D23*
%TO.C,TP4*%
X133000000Y-125000000D03*
%TD*%
D27*
%TO.C,R15*%
X114392499Y-125375000D03*
X114392499Y-126395000D03*
%TD*%
D24*
%TO.C,TP1*%
X113190000Y-92450000D03*
%TD*%
D12*
%TO.C,R25*%
X126985000Y-108960000D03*
X128005000Y-108960000D03*
%TD*%
D23*
%TO.C,TP6*%
X111037500Y-107700000D03*
%TD*%
D28*
%TO.C,U9*%
X110297499Y-122685000D03*
X110297499Y-123185000D03*
X110297499Y-123685000D03*
X110297499Y-124185000D03*
D29*
X111009999Y-124897500D03*
X111509999Y-124897500D03*
X112009999Y-124897500D03*
X112509999Y-124897500D03*
D28*
X113222499Y-124185000D03*
X113222499Y-123685000D03*
X113222499Y-123185000D03*
X113222499Y-122685000D03*
D29*
X112509999Y-121972500D03*
X112009999Y-121972500D03*
X111509999Y-121972500D03*
X111009999Y-121972500D03*
D13*
X111759999Y-123435000D03*
%TD*%
D30*
%TO.C,C6*%
X115680000Y-121500000D03*
X116320000Y-121500000D03*
%TD*%
D31*
%TO.C,R3*%
X115623409Y-95469927D03*
X114902161Y-96191175D03*
%TD*%
D32*
%TO.C,C9*%
X103000000Y-99665000D03*
X103000000Y-99025000D03*
%TD*%
D33*
%TO.C,BZ1*%
X125870785Y-130000000D03*
D34*
X120870785Y-130000000D03*
%TD*%
D12*
%TO.C,R1*%
X122990001Y-89000000D03*
X124009999Y-89000000D03*
%TD*%
D35*
%TO.C,Q4*%
X112562500Y-131050000D03*
X112562500Y-132950000D03*
X114437501Y-132000000D03*
%TD*%
D12*
%TO.C,R24*%
X104027500Y-111500000D03*
X105047500Y-111500000D03*
%TD*%
D32*
%TO.C,C8*%
X97140000Y-97905000D03*
X97140000Y-97265000D03*
%TD*%
D12*
%TO.C,R26*%
X126985000Y-110000000D03*
X128005000Y-110000000D03*
%TD*%
D27*
%TO.C,R33*%
X103560000Y-96945001D03*
X103560000Y-97964999D03*
%TD*%
D30*
%TO.C,C3*%
X110180000Y-106000000D03*
X110820000Y-106000000D03*
%TD*%
D27*
%TO.C,R34*%
X111000000Y-130990001D03*
X111000000Y-132009999D03*
%TD*%
D36*
%TO.C,L1*%
X102560000Y-96950001D03*
X102560000Y-97920001D03*
%TD*%
D37*
%TO.C,C7*%
X110147500Y-119695000D03*
X110147500Y-120335000D03*
%TD*%
D38*
%TO.C,D6*%
X111399999Y-128500000D03*
X108600001Y-128500000D03*
%TD*%
D25*
%TO.C,R13*%
X108639376Y-100139376D03*
X109360624Y-100860624D03*
%TD*%
D12*
%TO.C,R17*%
X115490000Y-120500000D03*
X116510000Y-120500000D03*
%TD*%
D39*
%TO.C,U6*%
X111250000Y-115137500D03*
D40*
X111112500Y-116050000D03*
X111112500Y-116550000D03*
X111112500Y-117050000D03*
X111112500Y-117550000D03*
D39*
X111250000Y-118462500D03*
X111750000Y-118462500D03*
X112250000Y-118462500D03*
X112750000Y-118462500D03*
X113250000Y-118462500D03*
X113750000Y-118462500D03*
X114250000Y-118462500D03*
X114750000Y-118462500D03*
X115250000Y-118462500D03*
X115750000Y-118462500D03*
D40*
X115887500Y-117550000D03*
X115887500Y-117050000D03*
X115887500Y-116550000D03*
X115887500Y-116050000D03*
D39*
X115750000Y-115137500D03*
X115250000Y-115137500D03*
X114750000Y-115137500D03*
X114250000Y-115137500D03*
X113750000Y-115137500D03*
X113250000Y-115137500D03*
X112750000Y-115137500D03*
X112250000Y-115137500D03*
X111750000Y-115137500D03*
%TD*%
D12*
%TO.C,R32*%
X126822786Y-90210551D03*
X127842784Y-90210551D03*
%TD*%
D26*
%TO.C,R9*%
X110945214Y-95378731D03*
X110223966Y-94657483D03*
%TD*%
D41*
%TO.C,STARBOARD_RGB1*%
X129500000Y-108950000D03*
D42*
X129500000Y-110000000D03*
D41*
X129500000Y-111050000D03*
X132550000Y-111050000D03*
D42*
X132550000Y-110000000D03*
D41*
X132550000Y-108950000D03*
%TD*%
D43*
%TO.C,REF\u002A\u002A*%
X95500000Y-87000000D03*
%TD*%
D30*
%TO.C,C1*%
X123390000Y-89900000D03*
X124030000Y-89900000D03*
%TD*%
D32*
%TO.C,C2*%
X109530000Y-107390000D03*
X109530000Y-106750000D03*
%TD*%
D27*
%TO.C,R18*%
X111647500Y-119720000D03*
X111647500Y-120740000D03*
%TD*%
%TO.C,R21*%
X112557215Y-107239450D03*
X112557215Y-108259448D03*
%TD*%
D44*
%TO.C,U5*%
X119175001Y-119999999D03*
D45*
X118500001Y-119500000D03*
D44*
X119175001Y-119000001D03*
X117825001Y-119000001D03*
X117825001Y-119999999D03*
%TD*%
D22*
%TO.C,R22*%
X113009999Y-109500000D03*
X111990001Y-109500000D03*
%TD*%
D46*
%TO.C,U3*%
X127465192Y-122696196D03*
X128735192Y-122696196D03*
X130005192Y-122696196D03*
X131275192Y-122696196D03*
X131275192Y-117746196D03*
X130005192Y-117746196D03*
X128735192Y-117746196D03*
X127465192Y-117746196D03*
%TD*%
D15*
%TO.C,D3*%
X113859699Y-96376563D03*
X114312247Y-96829111D03*
%TD*%
D25*
%TO.C,R4*%
X111800814Y-93292767D03*
X112522062Y-94014015D03*
%TD*%
D47*
%TO.C,J1*%
X124432785Y-99720551D03*
D48*
X124432785Y-92520551D03*
D49*
X123772785Y-98870551D03*
X123772785Y-98370551D03*
X123772785Y-97870551D03*
X123772784Y-97370551D03*
X123772785Y-96870551D03*
X123772785Y-96370551D03*
X123772785Y-95870551D03*
X123772785Y-95370551D03*
X123772784Y-94870551D03*
X123772785Y-94370551D03*
X123772785Y-93870551D03*
X123772785Y-93370551D03*
D47*
X125082785Y-93320551D03*
X125782785Y-93720551D03*
X125782785Y-94520551D03*
X125082785Y-94920551D03*
X125782785Y-95320551D03*
X125082785Y-95720551D03*
X125082785Y-96520551D03*
X125782785Y-96920551D03*
X125082785Y-97320551D03*
X125782785Y-97720551D03*
X125782785Y-98520551D03*
X125082785Y-98920551D03*
D50*
X131632785Y-100610551D03*
X125682785Y-100250551D03*
X125682785Y-91990551D03*
X131632785Y-91630551D03*
%TD*%
D51*
%TO.C,Y1*%
X108500000Y-107500000D03*
X106600000Y-107500000D03*
%TD*%
D52*
%TO.C,R8*%
X113500000Y-88009999D03*
X113500000Y-86990001D03*
%TD*%
D37*
%TO.C,C11*%
X110512499Y-126005000D03*
X110512499Y-126645000D03*
%TD*%
D12*
%TO.C,R35*%
X120990001Y-100000000D03*
X122009999Y-100000000D03*
%TD*%
%TO.C,R28*%
X100025001Y-110530000D03*
X101044999Y-110530000D03*
%TD*%
D37*
%TO.C,C4*%
X105000000Y-97180000D03*
X105000000Y-97820000D03*
%TD*%
D27*
%TO.C,R19*%
X112647500Y-119720000D03*
X112647500Y-120740000D03*
%TD*%
D12*
%TO.C,R29*%
X100015001Y-109500000D03*
X101034999Y-109500000D03*
%TD*%
D11*
%TO.C,R7*%
X114799376Y-85890624D03*
X115520624Y-85169376D03*
%TD*%
D22*
%TO.C,R14*%
X108520000Y-120785000D03*
X107500000Y-120785000D03*
%TD*%
D27*
%TO.C,R20*%
X114500000Y-119720000D03*
X114500000Y-120740000D03*
%TD*%
D53*
%TO.C,Q3*%
X110206289Y-96754054D03*
X108862786Y-95410551D03*
X108208712Y-97408128D03*
%TD*%
D46*
%TO.C,U7*%
X94010000Y-118975000D03*
X95280000Y-118975000D03*
X96550000Y-118975000D03*
X97820000Y-118975000D03*
X99090000Y-118975000D03*
X100360000Y-118975000D03*
X101630000Y-118975000D03*
X101630000Y-114025000D03*
X100360000Y-114025000D03*
X99090000Y-114025000D03*
X97820000Y-114025000D03*
X96550000Y-114025000D03*
X95280000Y-114025000D03*
X94010000Y-114025000D03*
%TD*%
D54*
%TO.C,D5*%
X118140000Y-121000000D03*
X117500000Y-121000000D03*
%TD*%
D25*
%TO.C,R6*%
X114742161Y-88399927D03*
X115463409Y-89121175D03*
%TD*%
%TO.C,R11*%
X116141537Y-94679303D03*
X116862785Y-95400551D03*
%TD*%
D55*
%TO.C,C10*%
X100800000Y-103900000D03*
X95200000Y-103900000D03*
%TD*%
D23*
%TO.C,TP5*%
X107000000Y-110500000D03*
%TD*%
D56*
%TO.C,U4*%
X115650000Y-125137500D03*
X116600000Y-125137500D03*
X117550000Y-125137500D03*
X117550000Y-122862500D03*
X115650000Y-122862500D03*
%TD*%
D27*
%TO.C,R16*%
X114382499Y-127285001D03*
X114382499Y-128304999D03*
%TD*%
D57*
%TO.C,PORTSIDE_RGB1*%
X98525000Y-110550000D03*
D58*
X98525000Y-109500000D03*
D57*
X98525000Y-108450000D03*
X95475000Y-108450000D03*
D58*
X95475000Y-109500000D03*
D57*
X95475000Y-110550000D03*
%TD*%
D13*
%TO.C,J7*%
X108650000Y-86425000D03*
D14*
X108650000Y-88965000D03*
X108650000Y-91505000D03*
%TD*%
D53*
%TO.C,Q2*%
X112708884Y-99217364D03*
X111365381Y-97873861D03*
X110711307Y-99871438D03*
%TD*%
D43*
%TO.C,REF\u002A\u002A*%
X131500000Y-87000000D03*
%TD*%
D59*
%TO.C,U1*%
X120223445Y-91591210D03*
X119869891Y-91237657D03*
X119516338Y-90884103D03*
X119162785Y-90530550D03*
X118809231Y-90176997D03*
X118455678Y-89823443D03*
D60*
X117483406Y-89823443D03*
X117129853Y-90176997D03*
X116776299Y-90530550D03*
X116422746Y-90884103D03*
X116069193Y-91237657D03*
X115715639Y-91591210D03*
D59*
X115715639Y-92563482D03*
X116069193Y-92917035D03*
X116422746Y-93270589D03*
X116776299Y-93624142D03*
X117129853Y-93977695D03*
X117483406Y-94331249D03*
D60*
X118455678Y-94331249D03*
X118809231Y-93977695D03*
X119162785Y-93624142D03*
X119516338Y-93270589D03*
X119869891Y-92917035D03*
X120223445Y-92563482D03*
D61*
X117969542Y-92077346D03*
%TD*%
D13*
%TO.C,J6*%
X94940000Y-98370000D03*
D14*
X94940000Y-95830000D03*
%TD*%
D43*
%TO.C,REF\u002A\u002A*%
X131500000Y-134000000D03*
%TD*%
D26*
%TO.C,R12*%
X107860624Y-99360624D03*
X107139376Y-98639376D03*
%TD*%
D62*
%TO.C,J3*%
X94050000Y-130605001D03*
X94050000Y-129505000D03*
X94050000Y-128405001D03*
X94050000Y-127305000D03*
X94050000Y-126205000D03*
X94050000Y-125105000D03*
X94050000Y-124005000D03*
D63*
X94050000Y-122955000D03*
D64*
X100200000Y-133240000D03*
X103900000Y-133240000D03*
D65*
X94175000Y-133065000D03*
D66*
X104875000Y-129740000D03*
X104875000Y-123770000D03*
D67*
X94400000Y-121745000D03*
%TD*%
D23*
%TO.C,TP7*%
X114067215Y-106500000D03*
%TD*%
D12*
%TO.C,R27*%
X126985000Y-111050000D03*
X128005000Y-111050000D03*
%TD*%
D37*
%TO.C,C5*%
X113522499Y-125980000D03*
X113522499Y-126620000D03*
%TD*%
D68*
%TO.C,D1*%
X119326007Y-95873115D03*
D69*
X118123926Y-97075197D03*
X119538139Y-98489410D03*
X120881642Y-97145907D03*
%TD*%
D26*
%TO.C,R31*%
X122243409Y-96731175D03*
X121522161Y-96009927D03*
%TD*%
D13*
%TO.C,J2*%
X126920000Y-106040000D03*
D14*
X126920000Y-103500000D03*
X129460000Y-106040000D03*
X129460000Y-103500000D03*
X131999999Y-106040000D03*
X132000000Y-103500000D03*
%TD*%
M02*
